<?xml version="1.0" encoding="UTF-8" standalone="no"?>
<svg width="202px" height="370px" viewBox="0 0 202 370" version="1.1" xmlns="http://www.w3.org/2000/svg" xmlns:xlink="http://www.w3.org/1999/xlink" xmlns:sketch="http://www.bohemiancoding.com/sketch/ns">
    <!-- Generator: Sketch 3.5.1 (25234) - http://www.bohemiancoding.com/sketch -->
    <title>Group 2</title>
    <desc>Created with Sketch.</desc>
    <defs></defs>
    <g id="Push-notification-socket" stroke="none" stroke-width="1" fill="none" fill-rule="evenodd" sketch:type="MSPage">
        <g id="PushNotify-Message-iOS" sketch:type="MSArtboardGroup" transform="translate(-255.000000, -356.000000)">
            <g id="Group" sketch:type="MSLayerGroup" transform="translate(255.000000, 356.000000)">
                <g id="Group-2">
                    <rect id="Rectangle-22" stroke="#B8C0C9" stroke-width="2" fill-opacity="0.1" fill="#B8C0C9" sketch:type="MSShapeGroup" x="0" y="0" width="202" height="370" rx="25"></rect>
                    <circle id="Oval-62" stroke="#B8C0C9" stroke-width="2" fill="#FFFFFF" sketch:type="MSShapeGroup" cx="101.5" cy="345.5" r="13.5"></circle>
                    <rect id="Rectangle-24" stroke="#B8C0C9" fill="#FFFFFF" sketch:type="MSShapeGroup" x="12" y="50" width="178" height="271"></rect>
                    <g id="Oval-61-+-Rectangle-23" transform="translate(65.000000, 24.000000)" stroke="#B8C0C9" sketch:type="MSShapeGroup" fill="#FFFFFF">
                        <circle id="Oval-61" cx="4" cy="4" r="4"></circle>
                        <rect id="Rectangle-23" x="21" y="1" width="32" height="5" rx="100"></rect>
                    </g>
                    <g id="Status-Bar" transform="translate(13.000000, 51.000000)" sketch:type="MSShapeGroup">
                        <rect id="Bounds" fill-opacity="0" fill="#000000" x="0" y="0" width="176" height="11.9318182"></rect>
                        <g id="Battery" transform="translate(159.816958, 1.909091)" fill="#B8C0C9">
                            <g transform="translate(0.225709, 0.431818)">
                                <path d="M1.6368878,0.931818182 L1.6368878,0.931818182 C1.38656459,0.931818182 1.18374843,1.17608267 1.18374843,1.47765098 L1.18374843,5.84053083 C1.18374843,6.14275928 1.38565271,6.38636364 1.6368878,6.38636364 L12.2777789,6.38636364 C12.5281021,6.38636364 12.7309182,6.14209914 12.7309182,5.84053083 L12.7309182,1.47765098 C12.7309182,1.17542254 12.529014,0.931818182 12.2777789,0.931818182 L1.6368878,0.931818182 Z M1.6368878,0.659090909 L1.6368878,0.659090909 L12.2777789,0.659090909 C12.6547008,0.659090909 12.9573333,1.02557274 12.9573333,1.47765098 L12.9573333,5.84053083 C12.9573333,6.29279602 12.6530864,6.65909091 12.2777789,6.65909091 L1.6368878,6.65909091 C1.25996588,6.65909091 0.957333333,6.29260908 0.957333333,5.84053083 L0.957333333,1.47765098 C0.957333333,1.0253858 1.26158023,0.659090909 1.6368878,0.659090909 L1.6368878,0.659090909 Z" id="Shape"></path>
                                <path d="M13.9573333,3.65909091 C13.9573333,4.16802694 13.5227152,4.58906375 12.9573333,4.65909091 L12.9573333,2.65909091 C13.5227152,2.72911806 13.9573333,3.15015488 13.9573333,3.65909091 Z" id="Tip"></path>
                                <rect id="Amount" x="1.95733333" y="1.65909091" width="9" height="4" rx="1"></rect>
                            </g>
                        </g>
                        <g id="Signal" transform="translate(4.285333, 3.295455)" fill="#B8C0C9">
                            <circle id="Indicator" cx="2.21466667" cy="2.20454545" r="1.5"></circle>
                            <ellipse id="Indicator" cx="6.18971429" cy="2.20454545" rx="1.47504762" ry="1.5"></ellipse>
                            <ellipse id="Indicator" cx="10.1897143" cy="2.20454545" rx="1.47504762" ry="1.5"></ellipse>
                            <path d="M14.1897143,3.70454545 L14.1897143,3.70454545 C13.3750679,3.70454545 12.7146667,3.03297262 12.7146667,2.20454545 C12.7146667,1.37611829 13.3750679,0.704545455 14.1897143,0.704545455 C15.0043606,0.704545455 15.6647619,1.37611829 15.6647619,2.20454545 C15.6647619,3.03297262 15.0043606,3.70454545 14.1897143,3.70454545 L14.1897143,3.70454545 Z" id="Indicator"></path>
                            <path d="M18.2146667,3.49025974 L18.2146667,3.49025974 C18.9247471,3.49025974 19.500381,2.91462589 19.500381,2.20454545 C19.500381,1.49446502 18.9247471,0.918831169 18.2146667,0.918831169 C17.5045862,0.918831169 16.9289524,1.49446502 16.9289524,2.20454545 C16.9289524,2.91462589 17.5045862,3.49025974 18.2146667,3.49025974 L18.2146667,3.49025974 Z M18.2146667,3.70454545 L18.2146667,3.70454545 C17.3862395,3.70454545 16.7146667,3.03297262 16.7146667,2.20454545 C16.7146667,1.37611829 17.3862395,0.704545455 18.2146667,0.704545455 C19.0430938,0.704545455 19.7146667,1.37611829 19.7146667,2.20454545 C19.7146667,3.03297262 19.0430938,3.70454545 18.2146667,3.70454545 L18.2146667,3.70454545 Z" id="Empty-Indicator"></path>
                        </g>
                        <path d="M31.4975218,3.84493151 C32.6290558,3.84493151 33.6602941,4.24191781 34.4509975,4.89287671 L35,4.31561644 C34.0635178,3.54136986 32.8404348,3 31.4975218,3 C30.1566496,3 28.9353159,3.53972603 28,4.31150685 L28.5478362,4.88958904 C29.3379566,4.24054795 30.3674455,3.84493151 31.4975218,3.84493151 L31.4975218,3.84493151 Z M31.4975218,5.51123288 C32.1756841,5.51123288 32.7952435,5.74575342 33.2731059,6.13205479 L33.8538881,5.52109589 C33.2217918,5.00438356 32.3996001,4.66684932 31.4975218,4.66684932 C30.5971927,4.66684932 29.7755842,5.00356164 29.144071,5.51863014 L29.7239785,6.13041096 C30.2015494,5.74493151 30.8202341,5.51123288 31.4975218,5.51123288 L31.4975218,5.51123288 Z M32.6920322,6.7430137 C32.3686951,6.48739726 31.9523512,6.31041096 31.4972302,6.31041096 C31.0429839,6.31041096 30.6272231,6.48712329 30.303886,6.74164384 L31.4972302,8 L32.6920322,6.7430137 L32.6920322,6.7430137 Z" id="WiFi" fill="#B8C0C9"></path>
                    </g>
                    <rect id="Notification-Handle" fill="#B8C0C9" sketch:type="MSShapeGroup" x="92" y="55" width="18" height="3" rx="8"></rect>
                    <text id="20:35" sketch:type="MSTextLayer" font-family=".Helvetica Neue DeskInterface" font-size="38" font-weight="normal" sketch:alignment="middle" fill="#B8C0C9">
                        <tspan x="53.1890244" y="117">20:35</tspan>
                    </text>
                    <text id="Friday-25-December" sketch:type="MSTextLayer" font-family=".Helvetica Neue DeskInterface" font-size="12" font-weight="normal" sketch:alignment="middle" letter-spacing="-0.189473704" fill="#B8C0C9">
                        <tspan x="47.973556" y="139">Friday 25 December</tspan>
                    </text>
                    <rect id="Settings-Handle" fill="#B8C0C9" sketch:type="MSShapeGroup" x="92" y="313" width="18" height="3" rx="5"></rect>
                    <g id="Bottom" transform="translate(173.000000, 307.000000)" fill="#B8C0C9" sketch:type="MSShapeGroup">
                        <path d="M0,3.90583248 C0,2.80067172 0.885525138,1.9047619 1.99951172,1.9047619 L1.86262666,1.9047619 C2.69533052,1.9047619 3.67505787,1.30208333 4.04962102,0.561189197 L3.65408269,1.34357271 C4.02922246,0.601537991 5.01041667,0 5.82462084,0 L7.17537916,0 C7.99899451,0 8.97135417,0.602678571 9.34591731,1.34357271 L8.95037898,0.561189197 C9.32551876,1.30322391 10.2955064,1.9047619 11.1373733,1.9047619 L11.0004883,1.9047619 C12.1047881,1.9047619 13,2.80202428 13,3.90583248 L13,7.99892942 C13,9.10409019 12.1064574,10 10.9972399,10 L2.00276013,10 C0.896666251,10 0,9.10273762 0,7.99892942 L0,3.90583248 Z M6.5,9.04761905 C4.77155328,9.04761905 3.37037037,7.66183375 3.37037037,5.95238095 C3.37037037,4.24292816 4.77155328,2.85714286 6.5,2.85714286 C8.22844672,2.85714286 9.62962963,4.24292816 9.62962963,5.95238095 C9.62962963,7.66183375 8.22844672,9.04761905 6.5,9.04761905 Z M6.5,8.33333333 C7.8295744,8.33333333 8.90740741,7.26734464 8.90740741,5.95238095 C8.90740741,4.63741726 7.8295744,3.57142857 6.5,3.57142857 C5.1704256,3.57142857 4.09259259,4.63741726 4.09259259,5.95238095 C4.09259259,7.26734464 5.1704256,8.33333333 6.5,8.33333333 Z M10.3518519,3.57142857 C10.6177667,3.57142857 10.8333333,3.35823083 10.8333333,3.0952381 C10.8333333,2.83224536 10.6177667,2.61904762 10.3518519,2.61904762 C10.085937,2.61904762 9.87037037,2.83224536 9.87037037,3.0952381 C9.87037037,3.35823083 10.085937,3.57142857 10.3518519,3.57142857 Z M0.962962963,1.07142857 C0.962962963,0.874184018 1.11408714,0.714285714 1.31620746,0.714285714 L2.53564439,0.714285714 C2.73073594,0.714285714 2.88888889,0.879952567 2.88888889,1.07142857 L2.88888889,1.42857143 L0.962962963,1.42857143 L0.962962963,1.07142857 Z" id="Camera"></path>
                    </g>
                </g>
            </g>
        </g>
    </g>
</svg>