<svg xmlns="http://www.w3.org/2000/svg" width="202" height="370" viewBox="0 0 202 370"><style>.a{fill:none;}.b{fill:#FFF;stroke:#B8C0C9;}.c{fill:#B8C0C9;}</style><g class="a"><rect width="202" height="370" rx="25" style="fill-opacity:0.1;fill:#B8C0C9;stroke-width:2;stroke:#B8C0C9"/><circle cx="101.5" cy="345.5" r="13.5" style="fill:#FFF;stroke-width:2;stroke:#B8C0C9"/><rect x="12" y="50" width="178" height="271" class="b"/><g class="b"><circle cx="4" cy="4" r="4"/><rect x="86" y="25" width="32" height="5" rx="100"/></g><rect x="13" y="51" width="176" height="11.9" class="a"/><g class="c"><path d="M174.7 54.3L174.7 54.3C174.4 54.3 174.2 54.5 174.2 54.8L174.2 59.2C174.2 59.5 174.4 59.7 174.7 59.7L185.3 59.7C185.6 59.7 185.8 59.5 185.8 59.2L185.8 54.8C185.8 54.5 185.6 54.3 185.3 54.3L174.7 54.3ZM174.7 54L174.7 54 185.3 54C185.7 54 186 54.4 186 54.8L186 59.2C186 59.6 185.7 60 185.3 60L174.7 60C174.3 60 174 59.6 174 59.2L174 54.8C174 54.4 174.3 54 174.7 54L174.7 54Z"/><path d="M187 57C187 57.5 186.6 57.9 186 58L186 56C186.6 56.1 187 56.5 187 57Z"/><rect x="175" y="55" width="9" height="4" rx="1"/></g><g class="c"><circle cx="2.2" cy="2.2" r="1.5"/><path d="M31.5 58L31.5 58C30.7 58 30 57.3 30 56.5 30 55.7 30.7 55 31.5 55 32.3 55 33 55.7 33 56.5 33 57.3 32.3 58 31.5 58L31.5 58Z"/><path d="M35.5 57.8L35.5 57.8C36.2 57.8 36.8 57.2 36.8 56.5 36.8 55.8 36.2 55.2 35.5 55.2 34.8 55.2 34.2 55.8 34.2 56.5 34.2 57.2 34.8 57.8 35.5 57.8L35.5 57.8ZM35.5 58L35.5 58C34.7 58 34 57.3 34 56.5 34 55.7 34.7 55 35.5 55 36.3 55 37 55.7 37 56.5 37 57.3 36.3 58 35.5 58L35.5 58Z"/></g><path d="M44.5 54.8C45.6 54.8 46.7 55.2 47.5 55.9L48 55.3C47.1 54.5 45.8 54 44.5 54 43.2 54 41.9 54.5 41 55.3L41.5 55.9C42.3 55.2 43.4 54.8 44.5 54.8L44.5 54.8ZM44.5 56.5C45.2 56.5 45.8 56.7 46.3 57.1L46.9 56.5C46.2 56 45.4 55.7 44.5 55.7 43.6 55.7 42.8 56 42.1 56.5L42.7 57.1C43.2 56.7 43.8 56.5 44.5 56.5L44.5 56.5ZM45.7 57.7C45.4 57.5 45 57.3 44.5 57.3 44 57.3 43.6 57.5 43.3 57.7L44.5 59 45.7 57.7 45.7 57.7Z" class="c"/><rect x="92" y="55" width="18" height="3" rx="8" class="c"/><text font-family=".Helvetica Neue DeskInterface" font-size="38" class="c"><tspan x="53.2" y="117">  20:35</tspan></text><text font-family=".Helvetica Neue DeskInterface" font-size="12" letter-spacing="-0.189473704" class="c"><tspan x="48" y="139">  Friday 25 December</tspan></text><rect x="92" y="313" width="18" height="3" rx="5" class="c"/><g class="c"><path d="M173 310.9C173 309.8 173.9 308.9 175 308.9L174.9 308.9C175.7 308.9 176.7 308.3 177 307.6L176.7 308.3C177 307.6 178 307 178.8 307L180.2 307C181 307 182 307.6 182.3 308.3L182 307.6C182.3 308.3 183.3 308.9 184.1 308.9L184 308.9C185.1 308.9 186 309.8 186 310.9L186 315C186 316.1 185.1 317 184 317L175 317C173.9 317 173 316.1 173 315L173 310.9ZM179.5 316C177.8 316 176.4 314.7 176.4 313 176.4 311.2 177.8 309.9 179.5 309.9 181.2 309.9 182.6 311.2 182.6 313 182.6 314.7 181.2 316 179.5 316ZM179.5 315.3C180.8 315.3 181.9 314.3 181.9 313 181.9 311.6 180.8 310.6 179.5 310.6 178.2 310.6 177.1 311.6 177.1 313 177.1 314.3 178.2 315.3 179.5 315.3ZM183.4 310.6C183.6 310.6 183.8 310.4 183.8 310.1 183.8 309.8 183.6 309.6 183.4 309.6 183.1 309.6 182.9 309.8 182.9 310.1 182.9 310.4 183.1 310.6 183.4 310.6ZM174 308.1C174 307.9 174.1 307.7 174.3 307.7L175.5 307.7C175.7 307.7 175.9 307.9 175.9 308.1L175.9 308.4 174 308.4 174 308.1Z"/></g></g></svg>