<?xml version="1.0" encoding="UTF-8" standalone="no"?><svg width="389px" height="297px" viewBox="0 0 389 297" version="1.1" xmlns="http://www.w3.org/2000/svg" xmlns:xlink="http://www.w3.org/1999/xlink"><defs><polygon id="path-1" points="9.11094263e-22 0.000234168975 9.11094263e-22 33.3250338 31.9892883 33.3250338 31.9892883 0.000234168975 0 0.000234168975"></polygon><polygon id="path-3" points="233.270408 101.5 167.429592 101.5 134.392857 158.5 167.429592 215.5 233.270408 215.5 266.307143 158.5"></polygon><mask id="mask-4" maskContentUnits="userSpaceOnUse" maskUnits="objectBoundingBox" x="0" y="0" width="131.914286" height="114" fill="white"><use xlink:href="#path-3"></use></mask></defs><g id="Page-1" stroke="none" stroke-width="1" fill="none" fill-rule="evenodd"><g id="Group" transform="translate(-2.000000, 2.000000)"><path d="M164.5,171.5 L23.5,106.5" id="Line" stroke="#373D44" stroke-linecap="square" stroke-dasharray="4"></path><path d="M171.5,127.5 L136.5,21.5" id="Line" stroke="#373D44" stroke-linecap="square" stroke-dasharray="4"></path><path d="M220.5,136.5 L293.5,21.5" id="Line" stroke="#373D44" stroke-linecap="square" stroke-dasharray="4"></path><path d="M232.5,170.5 L371.5,129.5" id="Line" stroke="#373D44" stroke-linecap="square" stroke-dasharray="4"></path><path d="M361.5,133.5 L288.5,38.5" id="Line" stroke="#373D44" stroke-linecap="square" stroke-dasharray="4" opacity="0.3"></path><path d="M271.5,31.5 L130.5,25.5" id="Line" stroke="#373D44" stroke-linecap="square" stroke-dasharray="4" opacity="0.3"></path><path d="M134.5,25.5 L32.5,115.5" id="Line" stroke="#373D44" stroke-linecap="square" stroke-dasharray="4" opacity="0.3"></path><ellipse id="Oval-51" fill="#B8C0C9" opacity="0.2" cx="196.25" cy="282.5" rx="97.875" ry="12.5"></ellipse><polygon id="Polygon-1" stroke="#373D44" stroke-width="4" stroke-linejoin="round" fill="#FFFFFF" points="137 2 157.78461 14 157.78461 38 137 50 116.21539 38 116.21539 14"></polygon><g id="Page-1" transform="translate(129.000000, 15.000000)" fill="#FFFFFF"><path d="M9.83333333,8.38615479 C7.805625,7.65101082 6.694375,7.07923218 6.694375,6.18072289 C6.694375,5.41841944 7.33333333,4.98264243 8.47229167,4.98264243 C10.555625,4.98264243 12.694375,5.77230958 14.1666667,6.48029406 L15,1.44312845 C13.8333333,0.898509291 11.444375,0 8.13895833,0 C5.805625,0 3.86104167,0.599142332 2.47229167,1.71533592 C1.02770833,2.88625689 0.277708333,4.57422912 0.277708333,6.61629569 C0.277708333,10.3193792 2.58333333,11.8985093 6.33333333,13.2325914 C8.75,14.0767817 9.555625,14.6757198 9.555625,15.6013886 C9.555625,16.4998979 8.77770833,17.0173576 7.36104167,17.0173576 C5.61104167,17.0173576 2.72229167,16.1731672 0.833333333,15.0841331 L0,20.1756177 C1.61104167,21.074127 4.61104167,22 7.72229167,22 C10.194375,22 12.25,21.4282214 13.6389583,20.3389831 C15.194375,19.1411068 16,17.3712477 16,15.0841331 C16,11.2995712 13.6389583,9.72023688 9.83333333,8.38615479" id="Fill-1"></path></g><polygon id="Polygon-1" stroke="#373D44" stroke-width="4" stroke-linejoin="round" fill="#E22228" points="275 0 299.248711 14 299.248711 42 275 56 250.751289 42 250.751289 14"></polygon><g id="Group-3" transform="translate(262.000000, 15.077054)" fill="#FFFFFF"><g id="Group-35"><g id="Group-33"><path d="M12.985727,21.9396022 C7.70395104,21.9396022 3.42225809,17.7789175 3.42225809,12.646414 C3.42225809,7.51401534 7.70395104,3.35333068 12.985727,3.35333068 C18.2675029,3.35333068 22.5491959,7.51401534 22.5491959,12.646414 C22.5491959,17.7789175 18.2675029,21.9396022 12.985727,21.9396022 M12.985727,0.0277602625 C5.81393444,0.0277602625 -3.23651448e-05,5.67730915 -3.23651448e-05,12.646414 C-3.23651448e-05,19.6156237 5.81393444,25.2651726 12.985727,25.2651726 C20.1575195,25.2651726 25.9714863,19.6156237 25.9714863,12.646414 C25.9714863,5.67730915 20.1575195,0.0277602625 12.985727,0.0277602625" id="Fill-1"></path></g><path d="M13.5196116,9.50378038 C13.5196116,8.05464855 14.7284498,6.8799743 16.2197278,6.8799743 C17.7108979,6.8799743 18.919844,8.05464855 18.919844,9.50378038 C18.919844,10.9529122 17.7108979,12.1275865 16.2197278,12.1275865 C14.7284498,12.1275865 13.5196116,10.9529122 13.5196116,9.50378038" id="Fill-4"></path><path d="M13.5196116,15.7890686 C13.5196116,14.3399368 14.7284498,13.1652626 16.2197278,13.1652626 C17.7108979,13.1652626 18.919844,14.3399368 18.919844,15.7890686 C18.919844,17.2382005 17.7108979,18.4128747 16.2197278,18.4128747 C14.7284498,18.4128747 13.5196116,17.2382005 13.5196116,15.7890686" id="Fill-6"></path><path d="M7.05162075,15.7890686 C7.05162075,14.3399368 8.26045892,13.1652626 9.75173693,13.1652626 C11.2429071,13.1652626 12.4518531,14.3399368 12.4518531,15.7890686 C12.4518531,17.2382005 11.2429071,18.4128747 9.75173693,18.4128747 C8.26045892,18.4128747 7.05162075,17.2382005 7.05162075,15.7890686" id="Fill-8"></path><path d="M7.05162075,9.50387473 C7.05162075,8.0547429 8.26045892,6.88006865 9.75173693,6.88006865 C11.2429071,6.88006865 12.4518531,8.0547429 12.4518531,9.50387473 C12.4518531,10.9530066 11.2429071,12.1276808 9.75173693,12.1276808 C8.26045892,12.1276808 7.05162075,10.9530066 7.05162075,9.50387473" id="Fill-10"></path></g></g><polygon id="Polygon-1" stroke="#373D44" stroke-width="4" stroke-linejoin="round" fill="#52BAD5" points="36.5 75 68.1099272 93.25 68.1099272 129.75 36.5 148 4.89007276 129.75 4.89007276 93.25"></polygon><g id="Page-1" transform="translate(20.000000, 95.000000)"><g id="Group-3" transform="translate(0.000000, 0.066717)"><mask id="mask-2" fill="white"><use xlink:href="#path-1"></use></mask><g id="Clip-2"></g><path d="M28.0054185,30.8103289 L28.0054185,31.3295442 L28.1439059,31.3295442 L28.1439059,30.9546706 L28.2570487,31.3295442 L28.3751664,31.3295442 L28.4883092,30.9536669 L28.4883092,31.3295442 L28.6267966,31.3295442 L28.6267966,30.8103289 L28.4102588,30.8103289 L28.316679,31.1091169 L28.2218218,30.8103289 L28.0054185,30.8103289 Z M27.651805,30.934863 L27.651805,31.3295442 L27.8036034,31.3295442 L27.8036034,30.934863 L27.9589647,30.934863 L27.9589647,30.8103289 L27.4984605,30.8103289 L27.4984605,30.934863 L27.651805,30.934863 Z M31.4903261,23.8138717 C31.4643092,23.8987235 28.9998387,33.3279106 19.316679,33.3250331 C10.9462588,33.3225571 6.97879664,26.0803778 6.97879664,26.0803778 C6.36877983,26.1142382 5.78014118,26.0178096 5.23721681,25.8192645 C2.78141849,24.9211606 1.60313277,22.1245987 2.4504605,19.7783266 L1.10067899,18.7516068 C-4.12762353,14.7870614 10.6833345,-3.35482374 15.9208471,0.750315881 C15.9473345,0.7710604 17.1710655,1.75154007 17.1710655,1.75154007 C19.0516034,0.614807327 20.9139899,0.000301130119 22.4278723,0.000234212315 C23.5029647,0.000100376706 24.4021244,0.309929811 25.007637,0.962579156 C26.3670319,2.42767756 25.8784269,5.22544405 24.0222252,8.05800778 C24.4214185,8.43529037 24.7523765,8.9480815 24.9885445,9.45712524 C25.5786622,9.91035953 25.9611832,10.5994122 26.1512336,11.5510503 C26.3627966,12.6092215 26.4066958,14.1164781 26.5395361,14.7641755 C27.0401076,14.9890863 26.8268639,14.8849622 27.3605782,15.1503582 C27.9170824,15.4271972 28.5947294,15.764329 29.343637,16.481621 C30.6747966,16.8136002 31.1830992,18.2223538 30.4041412,19.1838289 C30.3832336,19.2096591 30.2892504,19.3205419 30.1918387,19.4308894 C30.2150992,19.4919184 30.4704269,19.9036637 30.6546286,20.741943 C31.2062924,20.8716297 31.6456874,21.2096985 31.8762756,21.6999383 C32.2750655,22.6594058 31.4903261,23.8138717 31.4903261,23.8138717 L31.4903261,23.8138717 Z" id="Fill-1" fill="#684C46" mask="url(#mask-2)"></path></g><path d="M27.3871328,28.0255713 C30.0130824,25.97173 30.4719059,23.4981803 30.5156706,23.412927 C31.1617882,22.6415655 30.9861244,21.8815131 30.1325445,21.8814461 C29.8609479,21.8814461 29.6557714,21.9528474 29.6557714,21.9528474 C29.6557714,21.9528474 29.6589311,20.8271561 29.1357714,19.950466 C28.7325445,20.4018935 27.6132168,21.296183 26.1444437,21.9902545 C24.7671664,22.6410971 22.9293849,23.2111698 20.6518723,23.2866531 L20.651805,23.2866531 C20.0140908,23.3142233 19.6196034,23.2109022 19.3974857,23.9509462 C19.3265613,24.212394 19.3572168,24.600785 19.410595,24.713073 C19.5902252,25.3259732 20.0596034,25.5961204 20.6774185,25.7391906 C21.1459227,25.8478652 21.6434689,25.8580367 21.6434689,25.8580367 C26.2624269,25.9869873 29.9714017,22.4011298 30.0157714,22.3712845 C30.0586622,22.3362865 30.094158,22.2949313 30.094158,22.2949313 C30.094158,22.2949313 30.0534185,22.3900215 30.0485782,22.4007283 C29.3814185,23.8941999 25.5186958,26.6023634 21.6737882,26.5248057 L21.6612168,26.5292222 C20.7695193,26.5258764 19.686158,26.297419 19.1229311,25.6022099 C18.2317714,24.502282 18.6942252,22.6733514 20.1145277,22.630524 C20.1162756,22.6303902 20.4427966,22.6229623 20.5882084,22.6192149 C24.1047798,22.511678 27.2600739,21.2255847 29.5193681,18.5401063 C29.8299563,18.1559312 29.4829983,17.6282174 28.8096538,17.6122241 C28.803805,17.6120902 28.7980908,17.6094804 28.7940571,17.6051977 C27.9957378,16.7544716 27.2940908,16.4538769 26.6697546,16.1380248 C25.3609815,15.474401 25.4841412,16.0476189 25.1797378,12.8286048 C25.0973849,11.9607478 24.9322756,10.7771726 24.1662924,10.323403 C23.9654857,10.2044231 23.7460571,10.1533648 23.5182924,10.1533648 C23.2931496,10.1533648 23.1834353,10.1991366 23.1392,10.2089066 C22.7197042,10.3014539 22.4810487,10.5381422 22.1822252,10.8124383 C20.7701244,12.1087031 19.6413849,11.7567824 17.9566118,11.7419935 C16.3744269,11.7282084 14.9774521,12.826865 14.710158,14.5139966 L14.7097546,14.5149335 C14.5798723,15.3981147 14.6639059,16.2954824 14.8029983,16.698863 C14.8029983,16.698863 14.3735529,16.4145292 14.1688471,16.1627844 C14.4165782,17.7041022 15.8292168,18.7114159 15.8292168,18.7114159 C15.606763,18.7623404 15.2866286,18.7412613 15.2866286,18.7412613 C15.2880403,18.7423989 16.0930151,19.3760436 16.7917042,19.5972069 C16.609721,19.7099634 15.6887126,20.6144914 15.2138218,21.8597648 C14.7693849,23.0252053 14.9504269,24.4241889 14.9504269,24.4241889 L15.3364437,23.8514394 C15.3364437,23.8514394 15.0843429,25.1278965 15.5722084,26.3640691 C15.734158,25.9963558 16.0878387,25.3398921 16.0878387,25.3398921 C16.0878387,25.3398921 16.0317714,26.7107033 16.6946958,27.8331157 C16.7117714,27.5740768 16.8112672,26.9146019 16.8112672,26.9146019 C16.8112672,26.9146019 17.1917042,28.0847935 18.0704941,28.9031314 C19.7156706,30.3563184 24.0717714,30.61877 27.3871328,28.0255713 M8.95412437,20.3323659 L8.95412437,20.3323659 C9.16501513,19.7988302 9.27130084,19.360987 9.27130084,19.360987 C9.51264538,20.0956107 9.6362084,20.8681768 9.58773782,21.6492414 C9.78787227,21.384113 10.0027294,20.8849731 10.0027294,20.8849731 C10.3750319,23.0666274 8.77556975,25.0635885 6.66834286,25.0635885 C4.79755294,25.0635885 3.28098151,23.4744245 3.28098151,21.5139336 C3.28098151,19.5535096 4.79755294,17.9642786 6.66834286,17.9642786 C7.15331765,17.9642786 7.61449412,18.0710794 8.03163697,18.2634681 C8.03163697,18.2633343 8.75156975,18.6247574 8.95412437,20.3323659" id="Fill-4" fill="#F6DCBA"></path><path d="M2.95757311,18.8463021 C2.94426218,18.8427555 1.68288403,17.9213642 1.50352269,17.6179589 C0.442278992,15.8353355 2.28859832,12.173794 3.60241345,10.0925165 C6.84940504,4.94874562 12.253842,0.889444688 14.7084975,1.46915363 L17.2293042,2.76434773 C16.2505479,3.33743181 15.3039261,4.04134019 14.7368,4.50949715 L14.2004639,4.95724418 C14.2004639,4.95724418 12.6340101,6.00691686 11.8549849,6.66873394 C8.73202689,9.32122187 5.65713613,13.4276329 4.51683361,17.3913752 C4.51683361,17.3912414 3.57995966,17.8541788 2.95757311,18.8463021" id="Fill-6" fill="#0688BF"></path><path d="M14.708605,1.4690934 L14.708605,1.4690934 C12.2538824,0.889384462 6.84944538,4.94868539 3.60252101,10.0924563 C3.60157983,10.0939284 3.60063866,10.0954006 3.59969748,10.0969397 L3.61280672,10.098345 L6.20003361,12.1258207 C9.04077311,7.63730893 12.6111261,5.32282283 12.7118319,5.25483435 L12.3016134,2.50765772 L13.070084,2.14141658 L14.6123361,2.63854895 L14.4943529,2.1256909 L14.708605,1.4690934 Z" id="Fill-8" fill="#46B8E3"></path><path d="M17.2292975,2.76428081 L14.7367933,4.50936331 L14.5624739,4.64520646 L12.3522555,2.8476604 L12.3014992,2.50771795 L13.0699025,2.14147681 C13.1093647,2.15419119 14.5513143,2.61900226 14.6122218,2.63860918 L14.6379025,1.68549889 L14.708558,1.46915363 L15.3835832,1.21165392 C15.3845244,1.21232309 17.2267429,2.76207252 17.2292975,2.76428081" id="Fill-10" fill="#FFD14F"></path><path d="M22.147805,1.05281112 C20.4994689,1.05281112 18.6489143,1.91571621 17.229284,2.76423397 C17.030158,2.88080478 16.8325782,3.00292978 16.6390319,3.12732998 L15.8961748,2.50753727 L16.1660235,3.44083989 C16.0640403,3.51050132 15.9644101,3.58009584 15.8669983,3.64915501 L14.3322084,3.18273792 L15.3477378,4.02891355 C15.1158723,4.20383669 14.9087462,4.36751764 14.7369143,4.50938339 L12.3015529,2.50773803 L12.4304269,3.40483811 L14.2005109,4.95719734 C14.2005109,4.95719734 12.6341244,6.00687001 11.8550319,6.66862018 C8.73214118,9.32117503 5.65725042,13.4275861 4.51688067,17.3913284 L4.58168739,17.354992 C4.59049412,17.3501739 4.59936807,17.346092 4.60817479,17.3413408 C4.63990588,17.3242768 4.67156975,17.3081496 4.70330084,17.2922231 C4.72367059,17.2820516 4.74390588,17.2716794 4.7642084,17.2619763 C4.79688067,17.2463844 4.82955294,17.2319302 4.86222521,17.2176098 C4.8814521,17.2091112 4.90081345,17.2002111 4.92004034,17.1922479 C4.95546891,17.1774591 4.99076303,17.1640755 5.02612437,17.1507589 C5.0424605,17.1446024 5.05879664,17.1378438 5.07513277,17.1320888 C5.12662857,17.1136864 5.17792269,17.0966893 5.22908235,17.081499 C6.00434286,16.8513686 7.05906555,16.7032795 8.29375462,17.2252384 C8.91378824,15.6685295 9.65456134,14.0847189 10.8219563,12.5628742 C11.7685109,11.3289099 12.6783597,10.227309 13.7704605,9.62143521 C15.8382252,7.68791218 21.4114017,5.63755065 23.1968134,7.41482062 C23.6190655,6.7273071 23.9853849,6.07659837 24.2872336,5.26080341 C25.0323092,3.29897414 25.0458891,1.05281112 22.147805,1.05281112" id="Fill-12" fill="#121F30"></path><polygon id="Fill-14" fill="#121F30" points="15.0730286 2.78701948 14.7085916 1.46907333 14.4942723 2.12567082 14.6225412 2.64180785"></polygon><path d="M18.8292975,1.91289228 C19.7296,1.49974176 20.6945748,1.17324979 21.6200202,1.07916336 C20.7008269,1.28506944 19.5807597,1.75944975 18.2537681,2.56774991 C18.2214319,2.58635306 15.1136672,4.67418856 13.2149782,6.54889085 C12.1802218,7.57052496 8.02526387,12.530138 8.02855798,12.5259222 C8.78788571,11.0954203 9.28818824,10.3932518 10.4903395,8.88833728 C11.170205,8.03727665 11.8956504,7.20950341 12.6383731,6.44523517 C12.8879866,6.18833772 13.1396168,5.93866739 13.3920538,5.69756254 C13.4882555,5.60568439 15.6595496,3.39264569 18.8292975,1.91289228 M29.6558521,21.9515626 C29.6558521,21.9515626 29.6590118,20.8258713 29.1358521,19.9491812 C28.7326252,20.4006087 27.6132975,21.2948982 26.1445244,21.9889697 C24.7672471,22.6398122 22.9294655,23.209885 20.6519529,23.2853683 L20.6518857,23.2853683 C20.0141714,23.3129384 19.619684,23.2095504 19.3974992,23.9495944 C19.3802218,24.013434 19.3689277,24.0848353 19.3626084,24.1579095 L19.3622723,24.1654043 C19.362205,24.1654043 19.3620706,24.1653374 19.3620034,24.1653374 C19.3600538,24.1888925 19.358642,24.2126483 19.3576336,24.2363372 C19.3554151,24.3039911 19.3561546,24.363548 19.3587765,24.4155431 C19.3588437,24.4168145 19.3589109,24.4180191 19.3589782,24.4192905 C19.3592471,24.4231717 19.3594487,24.4269191 19.3596504,24.4305996 C19.3616672,24.4631217 19.3644235,24.4943723 19.3678521,24.5236823 C19.3680538,24.5250875 19.3682555,24.5266266 19.3683899,24.5280988 C19.3685916,24.529638 19.3687261,24.5311101 19.3689277,24.5327162 C19.3839866,24.6502238 19.4073815,24.7048288 19.4102723,24.711119 C19.4103395,24.7113198 19.4104739,24.7116544 19.4105412,24.7118551 L19.4134992,24.721692 C19.5953479,25.3276328 20.0629109,25.5957055 20.6774319,25.7379727 C21.1458689,25.8466473 21.6435496,25.8568188 21.6435496,25.8568188 C25.4121546,25.9620136 28.5751798,23.594194 29.6360202,22.702715 C29.6541042,22.4528439 29.6648605,22.2746418 29.6558521,21.9515626" id="Fill-16" fill="#FFFFFF"></path><path d="M7.84851092,23.0248238 C7.8494521,23.0241546 7.85039328,23.0235524 7.85133445,23.0228832 C8.05133445,22.8088801 8.13523361,22.5098913 8.0877042,22.2238846 C8.01388908,21.812407 7.5454521,21.7292951 7.23573782,21.4097626 C7.23076303,21.4046769 7.22592269,21.3995242 7.22114958,21.3943046 C7.21590588,21.3886835 7.21079664,21.3829955 7.20588908,21.3773744 C7.20555294,21.3770398 7.20521681,21.3765714 7.20488067,21.3762368 C7.06572101,21.2167048 7.01725042,21.0352906 7.02854454,20.8734164 C7.05308235,20.4525034 7.42861176,20.3341927 7.62404034,20.4116166 C7.62404034,20.4116166 7.85583866,20.4662216 8.03533445,20.7154904 C8.03533445,20.7154904 8.03526723,20.7150889 8.0352,20.7144866 C8.00790588,20.6322446 8.01348571,20.4994128 7.87298151,20.301403 C7.64279664,19.9766509 7.11392269,19.6464116 6.3642084,19.8045383 L6.36441008,19.8045383 C6.22578824,19.8337814 6.30343529,19.8171858 6.16676303,19.8555297 C6.14538487,19.8614854 6.12588908,19.8673741 6.10908235,19.8744005 C6.06612437,19.8944089 6.02639328,19.908194 5.98827563,19.9283363 C5.96851092,19.9393108 5.85583866,19.9901683 5.72030924,20.0918165 C4.87762017,21.1745465 6.30484706,23.1381826 7.84851092,23.0248238 M26.2256538,23.3301028 C26.2160403,23.3303036 26.2059563,23.332445 26.1900235,23.3360585 C25.8070319,23.4243231 21.8582588,24.9469708 19.3619899,24.1665085 C19.3508303,24.3024855 19.3543933,24.5881576 19.4103261,24.712357 C19.4103933,24.7125578 19.4105277,24.7128254 19.410595,24.7130262 C19.7882084,24.7883756 20.2661916,24.8365565 20.8208807,24.8365565 C24.105721,24.8365565 26.4729143,23.3499105 26.2256538,23.3301028 M25.7671664,15.6987964 C25.3954689,15.4333335 25.3822252,14.9703292 25.1796706,12.828558 C25.1148639,12.145461 24.9986286,11.2668972 24.5786622,10.7023786 C24.4917378,10.6268284 24.3696538,10.5401029 24.1937882,10.5401029 C23.9284437,10.5283923 23.6285445,10.8020192 23.458595,10.9889875 C22.9759731,11.6823229 22.5149311,12.1287316 21.6995361,12.5156503 C20.8741916,12.8874456 20.0899227,13.0223519 19.2756706,12.9967224 C18.679637,12.9779854 18.1576874,12.8802854 17.6460235,12.8737944 C16.6979227,12.8590056 15.8762756,13.1648869 15.2774185,13.9176452 C14.8667294,14.4338492 14.7018891,14.9795639 14.6493176,15.6290681 C14.6513345,15.7073619 14.6548303,15.7811723 14.6593345,15.8506999 C14.6663933,15.9538871 14.6758723,16.052457 14.6873008,16.1448705 C14.7291832,16.4740392 14.7888134,16.6448804 14.7888134,16.6448804 C14.7888134,16.6474232 14.7883429,16.6498992 14.7876706,16.6522413 C14.7925782,16.6683685 14.7976202,16.6838934 14.8027966,16.6987492 C14.8027966,16.6987492 14.3733513,16.4144154 14.1686454,16.1626037 C14.3751664,17.4475594 15.3911664,18.361389 15.7235361,18.6297963 C15.7431664,18.6447859 15.7625277,18.6597085 15.7814857,18.6745643 C15.7830992,18.6758357 15.7845782,18.6773748 15.7857882,18.6789139 C15.8136202,18.7003276 15.8290151,18.7113691 15.8290151,18.7113691 C15.6064941,18.7622266 15.2864269,18.7411475 15.2864269,18.7411475 C15.2877714,18.7422851 16.0927462,19.3759967 16.7915025,19.5970931 C17.7184269,18.8173669 18.7693849,18.5180435 19.6320403,18.4251616 C20.1549311,18.1022163 20.7171496,17.7848921 21.3208471,17.4789439 C21.1380571,16.3458916 22.1475361,15.2048761 23.4178555,15.0953317 C24.3763092,15.0258041 24.8426622,15.4535427 25.1784605,15.910859 C25.3607126,15.8529751 25.5662252,15.7896708 25.7958723,15.7224184 C25.7861916,15.7159943 25.7765109,15.708098 25.7671664,15.6987964 M18.7361076,23.7751062 C18.9051832,23.1487556 19.3826958,22.652627 20.1144605,22.6304772 C20.1162756,22.6304103 20.4427966,22.6229155 20.5882084,22.619235 C24.1047798,22.5116312 27.2600739,21.2256048 29.5193008,18.5400595 C29.8299563,18.1559513 29.4829311,17.6282375 28.8096538,17.6121772 C28.8070319,17.6121103 28.8001076,17.6121772 28.8001076,17.6121772 C28.6862252,17.732027 28.6657882,17.9509151 28.4774857,18.2780094 C27.7902924,19.4664696 26.8398387,20.0098422 25.5723429,20.6404086 C21.6865613,22.5660354 19.6715025,21.6700729 18.8628303,22.8490308 C18.627805,23.1960665 18.6233681,23.5835875 18.7361076,23.7751062 C18.7361076,23.7751732 18.7361076,23.7751062 18.7361076,23.7751062 M24.3673008,16.1021101 C23.8305613,15.7221508 22.9416874,16.0245523 22.7456538,16.653312 C23.056242,16.6689708 23.3857882,16.9027816 23.3654857,17.202038 C23.5847798,16.9907785 23.8965109,16.871531 24.1999059,16.8770851 C24.0535529,16.643542 24.1275025,16.2409645 24.3673008,16.1021101 M27.3871328,28.0255913 C26.9363092,28.3781143 26.4663261,28.6777723 25.986595,28.9289817 C24.8769479,28.5092063 24.1960739,27.6148499 24.1960739,27.6148499 C24.1960739,27.6148499 25.1473345,27.3909429 26.4189311,26.7472605 C27.9655529,25.9650583 29.4108639,24.8348835 30.5157378,23.4128802 C30.4719059,23.4981335 30.0130824,25.9717501 27.3871328,28.0255913" id="Fill-18" fill="#EBBE8D"></path><path d="M14.6594756,9.08309486 C18.3060639,6.73046562 21.9485513,6.45991693 23.196484,7.41503475 C23.1965513,7.41490092 23.1966185,7.414834 23.1966857,7.41470016 C23.1944,7.40840989 23.1743664,7.35333654 23.1665681,7.33821311 C22.8496605,6.6680313 22.1103664,6.20047661 21.4517445,6.012906 C21.5672403,6.1324212 21.7344336,6.35110858 21.8019966,6.48106296 C21.304921,6.14125435 20.644484,5.84193101 19.9551395,5.69973068 C19.9551395,5.69973068 20.0372908,5.75848451 20.0513412,5.77153348 C20.1887529,5.89887806 20.3716101,6.10016682 20.4464336,6.27301551 C19.7876101,6.00976086 18.9547361,5.8622071 18.241795,5.99885326 C18.2318454,6.00072696 18.1527193,6.01933011 18.1527193,6.01933011 C18.1527193,6.01933011 18.2455597,6.04228292 18.2661311,6.04843935 C18.5026353,6.11823462 18.8399798,6.26163948 18.9886185,6.45817707 C17.8051563,6.25093263 16.5033076,6.48025995 15.8011899,6.87105992 C15.8914756,6.86731253 15.8906017,6.86697794 15.9669714,6.86898547 C16.2252571,6.87581109 16.7455933,6.91074218 16.9640807,7.04906128 C16.2175933,7.2002286 15.1372571,7.53260934 14.5557445,8.03041088 C14.6584,8.01849951 15.2411227,7.94462226 15.4795765,7.98269849 C12.2785681,9.8060079 10.8216941,12.5626199 10.8216941,12.5626199 C11.7654924,11.3384925 12.9898286,10.1602708 14.6594756,9.08309486 M22.4171899,16.8657693 C22.3113076,17.058158 22.4402487,17.3313834 22.7053916,17.4759259 C22.9704,17.6204683 23.2711731,17.5817898 23.3770555,17.3893342 C23.483005,17.1969456 23.3539966,16.9237202 23.088921,16.7791108 C22.8238454,16.6345683 22.5231395,16.6733807 22.4171899,16.8657693 M24.5345681,16.0984229 C24.3418958,16.0684437 24.1522487,16.2574196 24.1110387,16.5205404 C24.0697613,16.7835943 24.1925849,17.0210856 24.3852571,17.0509978 C24.5779966,17.080977 24.7676437,16.8920011 24.8088538,16.6288803 C24.8501311,16.3658264 24.7273076,16.1283351 24.5345681,16.0984229 M7.53907227,21.1061498 C7.4671395,21.0494036 7.4336605,21.0009551 7.41382857,20.9263417 C7.38438319,20.7904986 7.39971092,20.7116025 7.51641681,20.6300297 C7.60616471,20.5687999 7.67850084,20.5392891 7.67870252,20.5008114 C7.68280336,20.4280717 7.38229916,20.3530569 7.17228235,20.558896 C6.99782857,20.7438569 6.94276975,21.1294372 7.22108908,21.4299651 C7.53087059,21.7626804 8.01255126,21.841175 8.0876437,22.2595451 C8.09752605,22.3188343 8.10478655,22.3848822 8.09967731,22.4499932 C8.10075294,22.5248742 8.07561008,22.632478 8.0744,22.6392367 C7.98122353,23.0433534 7.59594622,23.4290007 6.96058487,23.3306984 C6.84361008,23.3137013 6.76777815,23.2993809 6.74512269,23.3316353 C6.69618151,23.3994899 6.96845042,23.709587 7.46680336,23.6982779 C7.95446723,23.6880395 8.43829916,23.324542 8.59332437,22.7783589 C8.5951395,22.7711987 8.64092101,22.6163509 8.64468571,22.4776302 C8.65342521,22.3748445 8.64596303,22.2691144 8.62673613,22.1584992 C8.49967731,21.4570668 7.79944202,21.3129259 7.53907227,21.1061498 M7.65026555,20.1043903 L7.65046723,20.1045911 L7.65066891,20.1047249 C7.7456605,20.1798736 7.81860168,20.260175 7.87292101,20.3368628 C8.05100504,20.5878715 7.9944,20.7342876 8.0674084,20.8054882 C8.09376134,20.8311846 8.13147563,20.8393486 8.16905546,20.8240913 C8.27003025,20.7826023 8.3196437,20.6227356 8.32912269,20.5111836 L8.32918992,20.5104476 C8.35453445,20.242241 8.21208067,19.9407763 8.02330756,19.7271077 L8.02283697,19.7265724 C7.90734118,19.5930045 7.75527395,19.4685373 7.57436639,19.3682276 C7.39318992,19.2677839 7.18303866,19.1916315 6.95184538,19.1560312 C6.55251765,19.0941322 6.1596437,19.1733629 6.04992941,19.2059519 L6.05053445,19.2057511 C5.99392941,19.2220791 5.92408067,19.236801 5.86397983,19.2602222 C5.21261849,19.5130377 4.78391261,19.9772465 4.59325714,20.5920204 L4.59318992,20.5922211 L4.59312269,20.5924888 C4.52253445,20.8265003 4.49450084,21.0524818 4.49450084,21.2611984 C4.49450084,21.4410735 4.51534118,21.6083011 4.54781176,21.7573939 L4.54781176,21.7575278 L4.54787899,21.7577285 L4.54781176,21.7575278 C4.60300504,22.0082019 4.71567731,22.2905281 4.89154286,22.4758904 L4.8921479,22.4764257 C5.11204706,22.7130471 5.35312269,22.6677437 5.25019832,22.4476511 C5.2256605,22.386689 5.09282017,22.137487 5.07487059,21.686461 C5.06330756,21.3912866 5.10397983,21.084067 5.21282017,20.8036814 C5.27305546,20.6519787 5.35561008,20.504425 5.46303866,20.3717939 C5.68434958,20.102182 5.95641681,19.9815292 5.98821513,19.9639298 C6.02633277,19.9437876 6.06606387,19.9300025 6.10902185,19.9099941 C6.12576134,19.9029677 6.14525714,19.897079 6.16663529,19.8910564 C6.30337479,19.8527125 6.22579496,19.8693081 6.36428235,19.8401319 L6.3641479,19.8401319 C6.88535798,19.730119 7.33382857,19.8503703 7.65026555,20.1043903 M20.1199126,17.1482294 C19.9078118,16.9870244 19.5172908,16.8788852 19.1117109,16.9474091 C19.0266689,16.9603242 18.9480134,16.986556 18.8707025,17.0072336 C18.8423328,17.0142599 18.8151731,17.0242307 18.7887529,17.0352721 C18.6211563,17.1055358 18.4759462,17.1812868 18.3351059,17.3156577 C18.1735597,17.4711747 18.1276437,17.6155164 18.1743664,17.6509829 C18.2202824,17.6874531 18.3320807,17.6334504 18.5049882,17.5638559 C19.0840134,17.3242232 19.4937613,17.317866 19.8842151,17.3449677 C20.0724504,17.3576152 20.1985008,17.3688574 20.2276773,17.3177991 C20.248316,17.2832026 20.2108706,17.2172886 20.1199126,17.1482294 M20.2732571,16.3605399 C20.3443832,16.4639948 20.3634084,16.5422218 20.3347025,16.5746769 C20.2774252,16.641327 20.0726521,16.5513226 19.7704,16.4341495 C18.9966857,16.1468045 18.4266689,16.1030402 17.4177277,16.4832672 C17.1625345,16.5800972 16.9816941,16.6549783 16.8949042,16.6420631 C16.7533916,16.6211178 16.8904,16.3632835 17.1996437,16.1131448 C17.8218958,15.6190237 18.676484,15.465715 19.4067697,15.7361968 C19.7264336,15.8533699 20.0854252,16.0870469 20.2732571,16.3605399" id="Fill-20" fill="#9C7356"></path><path d="M23.2628571,14.2230581 C23.2579496,13.9729194 23.2976807,13.5595681 23.5342521,13.4827464 C23.534521,13.4826795 23.5343866,13.4826795 23.5347899,13.4826126 C23.9391597,13.3429551 24.4744874,14.373757 24.4991597,15.2889918 C24.1796303,15.1297274 23.8041008,15.0622074 23.4179496,15.0954655 C23.3208739,14.8008933 23.2744202,14.5233183 23.2628571,14.2230581" id="Fill-22" fill="#684C46"></path></g><polygon id="Polygon-1" stroke="#373D44" stroke-width="4" stroke-linejoin="round" fill="#39579A" points="368 108 388.78461 120 388.78461 144 368 156 347.21539 144 347.21539 120"></polygon><g id="facebook-f" transform="translate(362.000000, 122.000000)" fill="#FFFFFF"><path d="M10.3249058,0.752403822 L10.3249058,3.70430327 L8.53513283,3.70430327 C7.88154319,3.70430327 7.44074959,3.83848061 7.2127534,4.10683529 C6.9847572,4.3751893 6.87075876,4.77772131 6.87075876,5.31443 L6.87075876,7.42772192 L10.2109074,7.42772192 L9.76631406,10.7374272 L6.87075876,10.7374272 L6.87075876,19.2241377 L3.3824124,19.2241377 L3.3824124,10.7374272 L0.475457331,10.7374272 L0.475457331,7.42772192 L3.3824124,7.42772192 L3.3824124,4.99016838 C3.3824124,3.60367077 3.77760622,2.5283886 4.56799385,1.76432389 C5.35838216,1.00025917 6.41096599,0.618226483 7.72574535,0.618226483 C8.84292814,0.618226483 9.70931518,0.662952708 10.3249058,0.752403822 L10.3249058,0.752403822 Z" id="Shape"></path></g><use id="Page-1" stroke="#373D44" mask="url(#mask-4)" stroke-width="8" fill="#0070D3" xlink:href="#path-3"></use><path d="M200.984872,193.721292 C192.925692,193.721292 185.456207,191.559072 178.576419,187.431199 L184.080249,177.799495 C189.190949,181.337672 194.69478,183.303326 201.181438,183.303326 C208.650923,183.303326 213.171926,179.961715 213.171926,174.654449 C213.171926,169.740315 210.420011,166.988399 197.839826,164.039918 C183.293988,160.501742 175.038242,156.177303 175.038242,143.597118 C175.038242,131.803195 184.866511,123.744014 198.429522,123.744014 C206.685269,123.744014 213.565057,125.906234 219.462019,129.640976 L213.761623,139.27268 C208.650923,135.931068 203.343657,134.16198 198.036392,134.16198 C190.960038,134.16198 186.832165,137.700157 186.832165,142.417726 C186.832165,147.724991 189.977211,150.083776 202.950526,153.228822 C217.299799,156.766999 224.965849,161.877699 224.965849,173.278492 C225.35898,186.055242 215.334146,193.721292 200.984872,193.721292 L200.984872,193.721292 Z" id="Path" fill="#FFFFFF"></path><g id="paypal_rgb-seeklogo.net-12072015" transform="translate(129.000000, 16.000000)"><g id="Group-3" fill="#27346A"><path d="M13.9173333,1.49642857 C13.0248333,0.47 11.4098333,0.03 9.34433333,0.03 L3.35041667,0.03 C2.92754167,0.03 2.56841667,0.34 2.50254167,0.76 L0.006375,16.7228571 C-0.0432083333,17.0371429 0.198333333,17.3228571 0.514958333,17.3228571 L4.21529167,17.3228571 L5.14533333,11.3778571 L5.11629167,11.5642857 C5.18216667,11.1435714 5.53916667,10.8335714 5.960625,10.8335714 L7.71941667,10.8335714 C11.1739583,10.8335714 13.8790833,9.41928571 14.6695833,5.32571429 C14.6929583,5.20428571 14.7127917,5.08642857 14.7305,4.97142857 C14.6313333,4.91857143 14.6313333,4.91857143 14.7305,4.97142857 C14.966375,3.45857143 14.7290833,2.42857143 13.9173333,1.49642857" id="Fill-1"></path></g><g id="Group-13" fill="#27346A"><path d="M13.9173333,1.49642857 C13.0248333,0.47 11.4098333,0.03 9.34433333,0.03 L3.35041667,0.03 C2.92754167,0.03 2.56841667,0.34 2.50254167,0.76 L0.006375,16.7228571 C-0.0432083333,17.0371429 0.198333333,17.3228571 0.514958333,17.3228571 L4.21529167,17.3228571 L5.14533333,11.3778571 L5.11629167,11.5642857 C5.18216667,11.1435714 5.53916667,10.8335714 5.960625,10.8335714 L7.71941667,10.8335714 C11.1739583,10.8335714 13.8790833,9.41928571 14.6695833,5.32571429 C14.6929583,5.20428571 14.7127917,5.08642857 14.7305,4.97142857 C14.6313333,4.91857143 14.6313333,4.91857143 14.7305,4.97142857 C14.966375,3.45857143 14.7290833,2.42857143 13.9173333,1.49642857" id="Fill-11"></path><path d="M6.14408333,4.99142857 C6.18375,4.73857143 6.34454167,4.53142857 6.56129167,4.42642857 C6.65975,4.37928571 6.76954167,4.35285714 6.885,4.35285714 L11.5847917,4.35285714 C12.1408333,4.35285714 12.6600417,4.38928571 13.134625,4.46642857 C13.270625,4.48857143 13.402375,4.51357143 13.5305833,4.54285714 C13.6587917,4.57142857 13.78275,4.60357143 13.9031667,4.63928571 C13.963375,4.65714286 14.022875,4.675 14.0809583,4.695 C14.314,4.77285714 14.5314583,4.865 14.7305,4.97142857 C14.966375,3.45857143 14.7290833,2.42928571 13.9180417,1.49642857 C13.024125,0.47 11.4098333,0.03 9.34504167,0.03 L3.34970833,0.03 C2.92754167,0.03 2.56841667,0.34 2.50254167,0.76 L0.006375,16.7221429 C-0.0432083333,17.0378571 0.198333333,17.3221429 0.51425,17.3221429 L4.216,17.3221429 L6.14408333,4.99142857" id="Fill-12"></path></g><path d="M14.7305,4.97142857 L14.7305,4.97142857 C14.7127917,5.08714286 14.6929583,5.20428571 14.6695833,5.32571429 C13.8790833,9.41857143 11.1739583,10.8335714 7.71941667,10.8335714 L5.960625,10.8335714 C5.53845833,10.8335714 5.18216667,11.1435714 5.11629167,11.5642857 L3.96029167,18.9557143 C3.91708333,19.2307143 4.12816667,19.4807143 4.40441667,19.4807143 L7.52391667,19.4807143 C7.89366667,19.4807143 8.20745833,19.2092857 8.26554167,18.8421429 L8.296,18.6814286 L8.88391667,14.9242857 L8.92145833,14.7164286 C8.97954167,14.3485714 9.29333333,14.0778571 9.662375,14.0778571 L10.129875,14.0778571 C13.151625,14.0778571 15.5181667,12.84 16.2095,9.25928571 C16.4977917,7.76285714 16.3483333,6.51357143 15.58475,5.63571429 C15.353125,5.37 15.06625,5.15071429 14.7305,4.97142857" id="Fill-14" fill="#2790C3"></path><path d="M13.903875,4.63928571 C13.78275,4.60357143 13.6587917,4.57142857 13.5305833,4.54285714 C13.402375,4.51428571 13.2699167,4.48857143 13.134625,4.46714286 C12.6600417,4.38928571 12.1415417,4.35285714 11.5840833,4.35285714 L6.885,4.35285714 C6.76954167,4.35285714 6.65975,4.37928571 6.56129167,4.42714286 C6.34454167,4.53214286 6.18375,4.73857143 6.14408333,4.99214286 L5.14533333,11.3778571 L5.11629167,11.5642857 C5.18216667,11.1435714 5.53845833,10.8335714 5.960625,10.8335714 L7.71941667,10.8335714 C11.1746667,10.8335714 13.8790833,9.41857143 14.6695833,5.32571429 C14.6929583,5.20428571 14.7127917,5.08714286 14.7312083,4.97142857 C14.53075,4.865 14.314,4.77285714 14.0809583,4.695 C14.022875,4.67571429 13.9640833,4.65642857 13.903875,4.63928571" id="Fill-15" fill="#20264F"></path></g></g></g></svg>
