<?xml version="1.0" standalone="no"?>
<!DOCTYPE svg PUBLIC "-//W3C//DTD SVG 20010904//EN"
 "http://www.w3.org/TR/2001/REC-SVG-20010904/DTD/svg10.dtd">
<svg version="1.0" xmlns="http://www.w3.org/2000/svg"
 width="577.000000pt" height="577.000000pt" viewBox="0 0 577.000000 577.000000"
 preserveAspectRatio="xMidYMid meet">
<metadata>
Created by potrace 1.11, written by Peter Selinger 2001-2013
</metadata>
<g transform="translate(0.000000,577.000000) scale(0.100000,-0.100000)"
fill="#000000" stroke="none">
<path d="M1390 4828 c-102 -177 -196 -342 -211 -367 -14 -25 -48 -86 -77 -134
-29 -48 -52 -90 -52 -92 0 -3 -16 -29 -35 -59 -19 -30 -35 -57 -35 -60 0 -3
-17 -34 -38 -68 -21 -35 -52 -88 -69 -118 -17 -30 -128 -224 -248 -430 -120
-206 -226 -391 -237 -410 -10 -19 -23 -42 -28 -50 -5 -8 -26 -44 -48 -80 l-38
-65 483 -835 c266 -459 486 -842 490 -850 4 -8 68 -120 143 -250 75 -129 147
-254 160 -278 22 -39 27 -42 67 -42 66 -1 2445 -1 2511 0 l57 0 43 78 c23 42
68 122 100 177 32 55 111 192 176 305 66 113 245 423 399 690 401 694 424 734
448 777 12 21 46 80 77 132 42 71 53 98 45 110 -12 21 -534 925 -560 971 -31
55 -320 554 -382 660 -30 52 -63 109 -72 125 -9 17 -75 131 -147 255 l-129
225 -1304 2 -1304 1 -185 -320z m1635 -302 c33 -4 67 -9 75 -11 8 -2 35 -7 60
-10 24 -4 48 -8 51 -11 4 -2 24 -6 44 -10 104 -16 432 -154 502 -211 l22 -18
-125 -215 c-69 -118 -129 -219 -134 -223 -4 -5 -25 2 -47 16 -139 88 -340 165
-503 194 -88 15 -320 9 -385 -11 -133 -40 -233 -115 -283 -211 -21 -41 -26
-66 -28 -140 -4 -114 14 -170 79 -241 44 -48 144 -107 262 -156 49 -20 280
-86 364 -104 97 -20 389 -108 446 -134 265 -118 386 -202 479 -334 107 -150
146 -293 142 -511 -8 -365 -193 -648 -527 -804 -88 -41 -225 -85 -300 -96 -24
-3 -60 -9 -79 -13 -48 -9 -399 -9 -483 1 -106 11 -251 45 -382 89 -116 38
-334 139 -385 178 -24 18 -24 20 -9 47 9 15 67 117 129 225 l113 197 56 -36
c109 -70 275 -145 376 -170 167 -42 372 -58 504 -40 215 29 364 133 412 288
23 73 24 135 4 213 -34 132 -149 220 -387 300 -71 23 -207 62 -253 71 -26 6
-194 49 -268 69 -100 27 -233 75 -325 115 -384 169 -544 418 -529 821 5 146
32 261 84 364 147 290 456 484 835 524 84 9 305 8 393 -2z"/>
</g>
</svg>
