<svg width="389" height="297" viewBox="0 0 389 297" xmlns="http://www.w3.org/2000/svg" xmlns:xlink="http://www.w3.org/1999/xlink"><defs><path id="b" d="M0 0v33.325h31.99V0H0z"/><path id="a" d="M233.27 101.5h-65.84l-33.037 57 33.037 57h65.84l33.037-57z"/><mask id="d" x="0" y="0" width="131.914" height="114" fill="#fff"><use xlink:href="#a"/></mask></defs><g transform="translate(-2 2)" fill="none" fill-rule="evenodd"><path d="M164.5 171.5l-141-65M171.5 127.5l-35-106M220.5 136.5l73-115M232.5 170.5l139-41" stroke="#373D44" stroke-linecap="square" stroke-dasharray="4"/><path d="M361.5 133.5l-73-95M271.5 31.5l-141-6M134.5 25.5l-102 90" stroke="#373D44" stroke-linecap="square" stroke-dasharray="4" opacity=".3"/><ellipse fill="#B8C0C9" opacity=".2" cx="196.25" cy="282.5" rx="97.875" ry="12.5"/><path stroke="#373D44" stroke-width="4" stroke-linejoin="round" fill="#FFF" d="M137 2l20.785 12v24L137 50l-20.785-12V14z"/><path d="M138.833 23.386c-2.027-.735-3.139-1.307-3.139-2.205 0-.763.64-1.198 1.778-1.198 2.084 0 4.222.79 5.695 1.497l.833-5.037C142.833 15.9 140.444 15 137.139 15c-2.333 0-4.278.6-5.667 1.715-1.444 1.171-2.194 2.86-2.194 4.901 0 3.703 2.305 5.283 6.055 6.617 2.417.844 3.223 1.443 3.223 2.368 0 .899-.778 1.416-2.195 1.416-1.75 0-4.639-.844-6.528-1.933L129 35.176c1.611.898 4.611 1.824 7.722 1.824 2.472 0 4.528-.572 5.917-1.661 1.555-1.198 2.361-2.968 2.361-5.255 0-3.784-2.361-5.364-6.167-6.698" fill="#FFF"/><path stroke="#373D44" stroke-width="4" stroke-linejoin="round" fill="#E22228" d="M275 0l24.249 14v28L275 56l-24.249-14V14z"/><g fill="#FFF"><path d="M274.986 37.017c-5.282 0-9.564-4.161-9.564-9.294 0-5.132 4.282-9.293 9.564-9.293s9.563 4.161 9.563 9.293c0 5.133-4.281 9.294-9.563 9.294m0-21.912c-7.172 0-12.986 5.65-12.986 12.618 0 6.97 5.814 12.62 12.986 12.62 7.172 0 12.985-5.65 12.985-12.62 0-6.969-5.813-12.618-12.985-12.618"/><path d="M275.52 24.58c0-1.448 1.208-2.623 2.7-2.623 1.49 0 2.7 1.175 2.7 2.624s-1.21 2.624-2.7 2.624c-1.492 0-2.7-1.175-2.7-2.624M275.52 30.866c0-1.449 1.208-2.624 2.7-2.624 1.49 0 2.7 1.175 2.7 2.624 0 1.45-1.21 2.624-2.7 2.624-1.492 0-2.7-1.175-2.7-2.624M269.052 30.866c0-1.449 1.208-2.624 2.7-2.624 1.49 0 2.7 1.175 2.7 2.624 0 1.45-1.21 2.624-2.7 2.624-1.492 0-2.7-1.175-2.7-2.624M269.052 24.58c0-1.448 1.208-2.623 2.7-2.623 1.49 0 2.7 1.175 2.7 2.624 0 1.45-1.21 2.624-2.7 2.624-1.492 0-2.7-1.175-2.7-2.624"/></g><path stroke="#373D44" stroke-width="4" stroke-linejoin="round" fill="#52BAD5" d="M36.5 75l31.61 18.25v36.5L36.5 148 4.89 129.75v-36.5z"/><g transform="translate(20 95.067)"><mask id="c" fill="#fff"><use xlink:href="#b"/></mask><path d="M28.005 30.81v.52h.139v-.375l.113.375h.118l.113-.376v.376h.139v-.52h-.217l-.093.3-.095-.3h-.217zm-.353.125v.395h.152v-.395h.155v-.125h-.46v.125h.153zm3.838-7.121c-.026.085-2.49 9.514-12.173 9.511-8.37-.002-12.338-7.245-12.338-7.245a4.355 4.355 0 0 1-1.742-.26c-2.456-.899-3.634-3.695-2.787-6.042L1.1 18.752C-4.127 14.787 10.684-3.355 15.92.75l1.251 1.002C19.051.615 20.914 0 22.428 0c1.075 0 1.974.31 2.58.963 1.359 1.465.87 4.262-.986 7.095.4.377.73.89.967 1.4.59.452.972 1.141 1.162 2.093.212 1.058.256 2.565.389 3.213.5.225.287.121.82.386.557.277 1.235.614 1.984 1.332 1.33.332 1.84 1.74 1.06 2.702a11.2 11.2 0 0 1-.212.247c.023.06.278.473.463 1.31.551.13.99.469 1.221.959.4.96-.386 2.114-.386 2.114z" fill="#684C46" mask="url(#c)"/></g><path d="M47.387 123.026c2.626-2.054 3.085-4.528 3.129-4.613.646-.771.47-1.531-.383-1.532a1.6 1.6 0 0 0-.477.072s.003-1.126-.52-2.003c-.403.452-1.523 1.346-2.992 2.04-1.377.651-3.215 1.221-5.492 1.297-.638.027-1.032-.076-1.255.664-.07.261-.04.65.014.762.18.613.649.883 1.266 1.026a5.4 5.4 0 0 0 .966.119c4.62.129 8.328-3.457 8.373-3.487.043-.035.078-.076.078-.076l-.045.106c-.668 1.493-4.53 4.201-8.375 4.124l-.013.004c-.891-.003-1.975-.232-2.538-.927-.891-1.1-.429-2.929.992-2.971l.473-.012c3.517-.107 6.672-1.393 8.931-4.079.311-.384-.036-.912-.71-.928a.022.022 0 0 1-.015-.007c-.798-.85-1.5-1.151-2.124-1.467-1.309-.664-1.186-.09-1.49-3.31-.083-.867-.248-2.05-1.014-2.505a1.25 1.25 0 0 0-.648-.17c-.225 0-.335.046-.379.056-.42.092-.658.33-.957.603-1.412 1.297-2.54.945-4.225.93-1.583-.014-2.98 1.085-3.247 2.772-.13.884-.046 1.781.093 2.185 0 0-.43-.284-.634-.536.248 1.541 1.66 2.548 1.66 2.548-.222.051-.542.03-.542.03.001.001.806.635 1.505.856-.182.113-1.103 1.017-1.578 2.263-.445 1.165-.264 2.564-.264 2.564l.386-.573s-.252 1.277.236 2.513c.162-.368.516-1.024.516-1.024s-.056 1.37.607 2.493c.017-.259.116-.918.116-.918s.38 1.17 1.26 1.988c1.645 1.453 6 1.716 9.316-.877m-18.433-7.694c.211-.533.317-.971.317-.971.242.735.365 1.507.317 2.288.2-.265.415-.764.415-.764.372 2.182-1.227 4.179-3.335 4.179-1.87 0-3.387-1.59-3.387-3.55 0-1.96 1.517-3.55 3.387-3.55.485 0 .946.107 1.364.3 0 0 .72.36.922 2.068" fill="#F6DCBA"/><path d="M22.958 113.846c-.014-.003-1.275-.925-1.454-1.228-1.062-1.783.785-5.444 2.098-7.525 3.247-5.144 8.652-9.204 11.106-8.624l2.521 1.295a20.386 20.386 0 0 0-2.492 1.745l-.537.448s-1.566 1.05-2.345 1.712c-3.123 2.652-6.198 6.759-7.338 10.722 0 0-.937.463-1.56 1.455" fill="#0688BF"/><path d="M34.709 96.47c-2.455-.58-7.86 3.479-11.106 8.622a.262.262 0 0 0-.003.005l.013.001 2.587 2.028c2.84-4.489 6.411-6.803 6.512-6.871l-.41-2.747.768-.367 1.542.498-.118-.513.215-.657z" fill="#46B8E3"/><path d="M37.23 97.764l-2.493 1.745-.175.136-2.21-1.797-.05-.34.768-.367 1.542.498.026-.954.07-.216.676-.257 1.845 1.552" fill="#FFD14F"/><path d="M42.148 96.053c-1.649 0-3.5.863-4.919 1.711-.199.117-.396.239-.59.363l-.743-.62.27.934-.299.208-1.535-.466 1.016.846c-.232.175-.44.339-.611.48l-2.435-2.001.128.897 1.77 1.552s-1.566 1.05-2.345 1.712c-3.123 2.652-6.198 6.759-7.338 10.722l.065-.036.026-.014a3.78 3.78 0 0 1 .095-.049l.061-.03c.033-.016.066-.03.098-.044l.058-.026c.035-.015.07-.028.106-.041l.05-.019c.05-.018.102-.035.153-.05.775-.23 1.83-.379 3.065.143.62-1.556 1.36-3.14 2.528-4.662.947-1.234 1.856-2.336 2.948-2.942 2.068-1.933 7.641-3.983 9.427-2.206.422-.688.788-1.338 1.09-2.154.745-1.962.759-4.208-2.14-4.208" fill="#121F30"/><path fill="#121F30" d="M35.073 97.787l-.364-1.318-.215.657.129.516z"/><path d="M38.83 96.913c.9-.413 1.865-.74 2.79-.834-.92.206-2.04.68-3.366 1.489-.033.018-3.14 2.106-5.039 3.98-1.035 1.023-5.19 5.982-5.186 5.978.759-1.43 1.26-2.133 2.461-3.638a33.77 33.77 0 0 1 2.148-2.443c.25-.257.502-.506.754-.747.096-.092 2.268-2.305 5.437-3.785m10.827 20.039s.003-1.126-.52-2.003c-.403.452-1.523 1.346-2.991 2.04-1.378.65-3.216 1.22-5.493 1.296-.638.028-1.032-.075-1.255.665a1.207 1.207 0 0 0-.034.208v.007h-.001a1.78 1.78 0 0 0-.003.25v.016a1.723 1.723 0 0 0 .01.097v.005a.673.673 0 0 0 .041.178l.003.01c.182.607.65.875 1.264 1.017.469.109.967.119.967.119 3.768.105 6.931-2.263 7.992-3.154.018-.25.029-.428.02-.751" fill="#FFF"/><path d="M27.849 118.025l.002-.002a.946.946 0 0 0 .237-.8c-.074-.41-.543-.494-.852-.813a.631.631 0 0 1-.03-.033h-.001a.687.687 0 0 1-.176-.504c.024-.42.4-.539.595-.461 0 0 .232.054.411.303-.027-.083-.022-.216-.162-.414-.23-.324-.76-.655-1.509-.496-.138.029-.06.012-.197.05a.503.503 0 0 0-.058.02c-.043.02-.083.033-.12.053-.02.011-.133.062-.269.164-.842 1.083.585 3.046 2.129 2.933m18.377.305c-.01 0-.02.002-.036.006-.383.088-4.332 1.611-6.828.83-.011.136-.008.422.048.546v.001c.378.075.856.124 1.41.124 3.286 0 5.653-1.487 5.406-1.507m-.459-7.631c-.372-.266-.385-.729-.587-2.87-.065-.684-.181-1.562-.601-2.127a.573.573 0 0 0-.385-.162c-.266-.012-.565.262-.735.449-.483.693-.944 1.14-1.76 1.527a5.32 5.32 0 0 1-2.423.48c-.596-.018-1.118-.116-1.63-.122-.948-.015-1.77.29-2.369 1.044-.41.516-.575 1.062-.628 1.711a5.691 5.691 0 0 0 .038.516c.042.329.102.5.102.5l-.001.007.015.047s-.43-.285-.634-.536c.206 1.285 1.222 2.198 1.555 2.467a5.858 5.858 0 0 1 .105.081c-.223.051-.543.03-.543.03.002.001.807.635 1.506.856.926-.78 1.977-1.079 2.84-1.172a22.99 22.99 0 0 1 1.689-.946c-.183-1.133.827-2.274 2.097-2.384.958-.07 1.425.359 1.76.816.183-.058.388-.121.618-.189a.19.19 0 0 1-.029-.023m-7.03 8.076c.168-.626.646-1.122 1.377-1.145l.474-.01c3.517-.108 6.672-1.394 8.931-4.08.311-.384-.036-.912-.71-.928H48.8c-.114.12-.134.339-.323.666-.687 1.188-1.637 1.732-2.905 2.362-3.885 1.926-5.9 1.03-6.71 2.209-.234.347-.239.735-.126.926m5.631-7.673c-.536-.38-1.425-.077-1.621.551.31.016.64.25.62.549.219-.211.53-.33.834-.325-.146-.233-.072-.636.167-.775m3.02 11.924c-.45.352-.92.652-1.4.903-1.11-.42-1.79-1.314-1.79-1.314s.95-.224 2.222-.868c1.547-.782 2.992-1.912 4.097-3.334-.044.085-.503 2.559-3.129 4.613" fill="#EBBE8D"/><path d="M34.66 104.083c3.646-2.353 7.289-2.623 8.536-1.668a1.18 1.18 0 0 0-.03-.077c-.316-.67-1.056-1.138-1.714-1.325.115.12.282.338.35.468a5.259 5.259 0 0 0-1.847-.781s.082.058.096.072c.138.127.32.328.395.501-.658-.263-1.491-.41-2.204-.274l-.09.02s.094.023.114.03c.237.07.574.213.723.41-1.184-.208-2.486.021-3.188.412.09-.004.09-.004.166-.002.258.007.779.042.997.18-.746.151-1.827.484-2.408.981.102-.012.685-.085.924-.047-3.201 1.823-4.658 4.58-4.658 4.58.943-1.225 2.168-2.403 3.837-3.48m7.758 7.783c-.106.192.023.465.288.61.265.144.566.106.672-.087.106-.192-.023-.465-.288-.61-.265-.144-.566-.106-.672.087m2.118-.768c-.193-.03-.383.16-.424.423-.041.263.082.5.274.53.193.03.383-.159.424-.422.041-.263-.082-.5-.274-.53m-16.996 5.007a.311.311 0 0 1-.125-.18c-.03-.136-.014-.214.102-.296.09-.061.163-.09.163-.13.004-.072-.297-.147-.507.059-.174.185-.23.57.05.871.309.333.79.411.866.83.01.059.017.125.012.19 0 .075-.024.182-.026.19-.093.403-.478.789-1.113.69-.117-.016-.193-.03-.216.002-.049.067.223.378.722.366.487-.01.971-.373 1.126-.92.002-.007.048-.162.052-.3a1.244 1.244 0 0 0-.018-.32c-.127-.7-.828-.845-1.088-1.052m.111-1.002c.096.076.169.156.223.233.178.25.121.397.194.468a.092.092 0 0 0 .102.02c.101-.042.15-.202.16-.314.026-.269-.117-.57-.306-.784a1.654 1.654 0 0 0-.449-.359 1.873 1.873 0 0 0-.622-.212 2.35 2.35 0 0 0-.902.05c-.056.016-.126.03-.186.054-.651.253-1.08.717-1.27 1.332a2.312 2.312 0 0 0-.046 1.165c.055.251.168.534.344.719.22.237.461.192.358-.028-.024-.061-.157-.31-.175-.762-.012-.295.029-.602.138-.882.06-.152.143-.3.25-.432.221-.27.493-.39.525-.408.038-.02.078-.034.121-.054a.51.51 0 0 1 .058-.019c.136-.038.059-.022.197-.05.521-.11.97.01 1.286.263m12.47-2.956c-.212-.161-.603-.27-1.008-.2-.085.012-.164.039-.241.06a1.395 1.395 0 0 0-.536.308c-.161.155-.207.3-.16.335.045.036.157-.018.33-.087.579-.24.989-.246 1.38-.219.187.013.314.024.343-.027.02-.035-.017-.1-.108-.17m.153-.787c.071.103.09.181.062.214-.058.066-.262-.024-.565-.14-.773-.288-1.343-.332-2.352.048-.255.097-.436.172-.523.16-.142-.022-.005-.28.305-.53.622-.494 1.476-.647 2.207-.377.32.117.678.351.866.625" fill="#9C7356"/><path d="M43.263 109.223c-.005-.25.035-.663.271-.74.405-.14.94.89.965 1.806a2.035 2.035 0 0 0-1.081-.194 3.088 3.088 0 0 1-.155-.872" fill="#684C46"/><path stroke="#373D44" stroke-width="4" stroke-linejoin="round" fill="#39579A" d="M368 108l20.785 12v24L368 156l-20.785-12v-24z"/><g fill="#FFF"><path d="M372.325 122.752v2.952h-1.79c-.653 0-1.094.134-1.322.403-.228.268-.342.67-.342 1.207v2.114h3.34l-.445 3.31h-2.895v8.486h-3.489v-8.487h-2.907v-3.31h2.907v-2.437c0-1.386.396-2.462 1.186-3.226.79-.764 1.843-1.146 3.158-1.146 1.117 0 1.983.045 2.599.134z"/></g><use stroke="#373D44" mask="url(#d)" stroke-width="8" fill="#0070D3" xlink:href="#a"/><path d="M200.985 193.721c-8.06 0-15.529-2.162-22.409-6.29l5.504-9.632c5.11 3.539 10.615 5.504 17.101 5.504 7.47 0 11.99-3.341 11.99-8.649 0-4.914-2.751-7.666-15.331-10.614-14.546-3.538-22.802-7.863-22.802-20.443 0-11.794 9.829-19.853 23.392-19.853 8.255 0 15.135 2.162 21.032 5.897l-5.7 9.632c-5.111-3.342-10.418-5.111-15.726-5.111-7.076 0-11.204 3.538-11.204 8.256 0 5.307 3.145 7.666 16.119 10.81 14.349 3.539 22.015 8.65 22.015 20.05.393 12.777-9.632 20.443-23.981 20.443z" fill="#FFF"/><g><path d="M142.917 17.496c-.892-1.026-2.507-1.466-4.573-1.466h-5.994a.86.86 0 0 0-.847.73l-2.497 15.963c-.05.314.192.6.509.6h3.7l.93-5.945-.029.186a.858.858 0 0 1 .845-.73h1.758c3.455 0 6.16-1.415 6.95-5.508.024-.122.044-.24.061-.355-.099-.052-.099-.052 0 0 .236-1.512 0-2.542-.813-3.475" fill="#27346A"/><g fill="#27346A"><path d="M142.917 17.496c-.892-1.026-2.507-1.466-4.573-1.466h-5.994a.86.86 0 0 0-.847.73l-2.497 15.963c-.05.314.192.6.509.6h3.7l.93-5.945-.029.186a.858.858 0 0 1 .845-.73h1.758c3.455 0 6.16-1.415 6.95-5.508.024-.122.044-.24.061-.355-.099-.052-.099-.052 0 0 .236-1.512 0-2.542-.813-3.475"/><path d="M135.144 20.991a.748.748 0 0 1 .74-.639h4.7c.557 0 1.076.037 1.55.114a6.386 6.386 0 0 1 .947.229c.233.078.45.17.65.276.235-1.512-.002-2.542-.813-3.475-.894-1.026-2.508-1.466-4.573-1.466h-5.995a.86.86 0 0 0-.847.73l-2.497 15.962c-.05.316.192.6.508.6h3.702l1.928-12.33"/></g><path d="M143.73 20.971a9.33 9.33 0 0 1-.06.355c-.79 4.093-3.496 5.508-6.95 5.508h-1.76a.857.857 0 0 0-.844.73l-1.156 7.392a.453.453 0 0 0 .444.525h3.12c.37 0 .683-.272.742-.639l.03-.16.588-3.758.037-.208a.752.752 0 0 1 .741-.638h.468c3.022 0 5.388-1.238 6.08-4.819.288-1.496.138-2.745-.625-3.623a2.977 2.977 0 0 0-.855-.665" fill="#2790C3"/><path d="M142.904 20.64a5.705 5.705 0 0 0-.77-.173 9.625 9.625 0 0 0-1.55-.114h-4.699a.756.756 0 0 0-.74.64l-1 6.385-.029.186a.857.857 0 0 1 .845-.73h1.758c3.456 0 6.16-1.415 6.95-5.508.024-.122.044-.239.062-.355a4.268 4.268 0 0 0-.827-.332" fill="#20264F"/></g></g></svg>
