<svg width="73" height="75" viewBox="0 0 73 75" xmlns="http://www.w3.org/2000/svg"><g fill="#42A5F5" fill-rule="evenodd"><path d="M68.348 21.623v32.246L36.534 70.19 4.722 53.87V21.622l31.812-16.32 31.814 16.32zm4-2.444L36.534.81.722 19.178v37.134l35.812 18.373 35.814-18.373V19.179z"/><path d="M29.036 43.353c.09 1.627.475 2.949 1.152 3.964 1.29 1.901 3.561 2.852 6.816 2.852 1.459 0 2.787-.208 3.985-.625 2.317-.807 3.476-2.253 3.476-4.336 0-1.562-.488-2.676-1.465-3.34-.99-.65-2.539-1.217-4.648-1.699l-3.887-.879c-2.539-.573-4.336-1.204-5.39-1.894-1.823-1.198-2.735-2.989-2.735-5.372 0-2.578.892-4.694 2.676-6.347 1.784-1.654 4.31-2.48 7.578-2.48 3.008 0 5.563.725 7.666 2.177 2.103 1.452 3.155 3.773 3.155 6.963h-3.653c-.195-1.537-.612-2.715-1.25-3.535-1.185-1.498-3.196-2.246-6.035-2.246-2.292 0-3.939.481-4.941 1.445-1.003.964-1.504 2.083-1.504 3.36 0 1.406.586 2.434 1.758 3.085.768.417 2.506.938 5.214 1.563l4.024.918c1.94.443 3.437 1.048 4.492 1.816 1.823 1.341 2.734 3.288 2.734 5.84 0 3.177-1.155 5.45-3.466 6.816-2.312 1.368-4.997 2.051-8.057 2.051-3.568 0-6.36-.911-8.379-2.734-2.018-1.81-3.008-4.264-2.969-7.363h3.653z"/></g></svg>
