<?xml version="1.0" encoding="utf-8"?>
<!-- Generator: Adobe Illustrator 19.0.0, SVG Export Plug-In . SVG Version: 6.00 Build 0)  -->
<svg version="1.1" xmlns="http://www.w3.org/2000/svg" xmlns:xlink="http://www.w3.org/1999/xlink" x="0px" y="0px"
	 viewBox="0 0 1086 180" style="enable-background:new 0 0 1086 180;" xml:space="preserve">
<path d="M276.5,11.7l-63.4,105.9v53.8h-28.9v-53.6L120,11.2l32.7,0.5l46,79.6l45.7-79.6H276.5z M267.7,171.2H297V82.6
	c0-30.7,15.9-46.4,41.9-46.4c26.2,0,42.1,16.6,42.1,47.6v87.5h29.3V82.6c0-48.3-27.6-73.3-70.9-73.3c-43.5,0-71.6,25-71.6,74.7
	V171.2z M1078,91.3c0-45.2-34.2-82.4-83.3-82.4C945.6,9,911,46.6,911,91.8c0,45.2,34.2,82.4,83.3,82.4
	C1043.3,174.1,1078,136.5,1078,91.3z M1048.5,91.8c0,31.3-22.1,56.6-53.8,56.6c-31.7,0-54.3-25.8-54.3-57
	c0-31.3,22.1-56.6,53.8-56.6C1025.9,34.7,1048.5,60.5,1048.5,91.8z M824.4,9.3c-43.3,0-70.9,25-70.9,73.3v88.7h29.3V83.8
	c0-30.9,16-47.6,42.2-47.6c26.2,0,42.2,16.7,42.2,47.6v87.5h29.3V82.6c0-48.3-27.6-73.3-70.9-73.3H824.4z M113.9,23.2
	c-14.1-9-30-13.9-49.3-13.9C33,9.4,10.2,28.1,10.2,55.8c0,29.6,19.1,39.6,53.1,47.8c29.6,6.8,36,13,36,24.6
	c0,12.3-10.9,20.3-28.2,20.3c-15.4,0-28-4.5-40.1-12.8l-13,22.7c15.9,10,33.8,14.9,52.4,14.9c33.5,0,56.9-17.8,56.9-47.8
	c0-26.6-17.5-38.7-51.2-46.9c-30.5-7.3-37.8-12.8-37.8-25.3c0-10.7,9.6-19.1,26-19.1c12.3,0,24.4,4,36.5,11.7L113.9,23.2z
	 M702.2,171.5v-17.6c-14.4,12.6-33.6,20.2-55.7,20.2c-29.9,0-54.3-13.8-68.7-34.8c-14.6,21-39.1,34.8-68.8,34.8
	c-49.1,0-83.3-37.2-83.3-82.4c0-45.2,34.7-82.8,83.7-82.8c20.4,0,38.2,6.4,52,17.2c-5.8,7.5-10.6,15.7-14.2,24.6
	c-9.6-9.9-22.8-16-38.3-16c-31.7,0-53.8,25.3-53.8,56.6c0,31.3,22.6,57,54.3,57c31.7,0,53.8-25.4,53.8-56.6l0,0
	C563.3,46.5,598,9,647,9c49.1,0,83.3,37.2,83.3,82.4l0,80.2H702.2z M700.8,91.8c0-31.3-22.6-57-54.3-57c-31.7,0-53.8,25.3-53.8,56.6
	c0,31.3,22.6,57,54.3,57C678.7,148.4,700.8,123,700.8,91.8z"/>
</svg>
