<?xml version="1.0" encoding="utf-8"?>
<!-- Generator: Adobe Illustrator 19.2.0, SVG Export Plug-In . SVG Version: 6.00 Build 0)  -->
<svg version="1.1" id="Layer_1" xmlns="http://www.w3.org/2000/svg" xmlns:xlink="http://www.w3.org/1999/xlink" x="0px" y="0px"
	 viewBox="0 0 56.7 49.1" style="enable-background:new 0 0 56.7 49.1;" xml:space="preserve">
<style type="text/css">
	.st0{fill:#3270B8;}
</style>
<path class="st0" d="M42.5,0H14.2L0,24.5l14.2,24.5h28.3l14.2-24.5L42.5,0z M28.7,42.4c-4.1,0-7.9-1.1-11.4-3.2l2.8-4.9
	c2.6,1.8,5.4,2.8,8.7,2.8c3.8,0,6.1-1.7,6.1-4.4c0-2.5-1.4-3.9-7.8-5.4c-7.4-1.8-11.6-4-11.6-10.4c0-6,5-10.1,11.9-10.1
	c4.2,0,7.7,1.1,10.7,3l-2.9,4.9c-2.6-1.7-5.3-2.6-8-2.6c-3.6,0-5.7,1.8-5.7,4.2c0,2.7,1.6,3.9,8.2,5.5c7.3,1.8,11.2,4.4,11.2,10.2
	C41.1,38.5,36,42.4,28.7,42.4z"/>
</svg>
