<svg viewBox="0 0 24 24">
<path d="M20 8h-2.81c-0.45-0.78-1.070-1.455-1.815-1.96l1.625-1.625-1.415-1.415-2.175 2.175c-0.45-0.11-0.925-0.175-1.41-0.175s-0.96 0.065-1.41 0.175l-2.175-2.175-1.415 1.415 1.625 1.625c-0.745 0.505-1.365 1.18-1.815 1.96h-2.81v2h2.090c-0.055 0.325-0.090 0.66-0.090 1v1h-2v2h2v1c0 0.34 0.035 0.675 0.090 1h-2.090v2h2.81c1.035 1.79 2.97 3 5.19 3s4.155-1.21 5.19-3h2.81v-2h-2.090c0.055-0.325 0.090-0.66 0.090-1v-1h2v-2h-2v-1c0-0.34-0.035-0.675-0.090-1h2.090v-2zM14 16h-4v-2h4v2zM14 12h-4v-2h4v2z"></path>
</svg>
