<svg viewBox="0 0 24 24">
<path d="M12 3c-4.97 0-9 4.030-9 9s4.030 9 9 9c0.83 0 1.5-0.67 1.5-1.5 0-0.39-0.145-0.74-0.39-1.005-0.235-0.265-0.375-0.61-0.375-0.995 0-0.83 0.67-1.5 1.5-1.5h1.765c2.76 0 5-2.24 5-5 0-4.42-4.030-8-9-8zM6.5 12c-0.83 0-1.5-0.67-1.5-1.5s0.67-1.5 1.5-1.5 1.5 0.67 1.5 1.5-0.67 1.5-1.5 1.5zM9.5 8c-0.83 0-1.5-0.67-1.5-1.5s0.67-1.5 1.5-1.5 1.5 0.67 1.5 1.5-0.67 1.5-1.5 1.5zM14.5 8c-0.83 0-1.5-0.67-1.5-1.5s0.67-1.5 1.5-1.5 1.5 0.67 1.5 1.5-0.67 1.5-1.5 1.5zM17.5 12c-0.83 0-1.5-0.67-1.5-1.5s0.67-1.5 1.5-1.5 1.5 0.67 1.5 1.5-0.67 1.5-1.5 1.5z"></path>
</svg>
