<svg viewBox="0 0 64 64">
  <path d="M0 32q0-7.464 3.679-13.768t9.982-9.982 13.768-3.679 13.768 3.679 9.982 9.982 3.679 13.768q0 8.964-5.232 16.125t-13.518 9.911q-0.964 0.179-1.411-0.25t-0.446-1.071v-7.536q0-3.464-1.857-5.071 2.036-0.214 3.661-0.643t3.357-1.393 2.893-2.375 1.893-3.75 0.732-5.375q0-4.321-2.821-7.357 1.321-3.25-0.286-7.286-1-0.321-2.893 0.393t-3.286 1.571l-1.357 0.857q-3.321-0.929-6.857-0.929t-6.857 0.929q-0.571-0.393-1.518-0.964t-2.982-1.375-3.071-0.482q-1.571 4.036-0.25 7.286-2.821 3.036-2.821 7.357 0 3.036 0.732 5.357t1.875 3.75 2.875 2.393 3.357 1.393 3.661 0.643q-1.429 1.286-1.75 3.679-0.75 0.357-1.607 0.536t-2.036 0.179-2.339-0.768-1.982-2.232q-0.679-1.143-1.732-1.857t-1.768-0.857l-0.714-0.107q-0.75 0-1.036 0.161t-0.179 0.411 0.321 0.5 0.464 0.429l0.25 0.179q0.786 0.357 1.554 1.357t1.125 1.821l0.357 0.821q0.464 1.357 1.571 2.196t2.393 1.071 2.482 0.25 1.982-0.125l0.821-0.143q0 1.357 0.018 3.179t0.018 1.929q0 0.643-0.464 1.071t-1.429 0.25q-8.286-2.75-13.518-9.911t-5.232-16.125z"></path>
</svg>