<svg viewBox="0 0 64 64">
  <path d="M3.964 48.357q0-2.893 1.589-5.357t4.232-4.107q4.679-2.929 14.429-3.571-1.143-1.464-1.696-2.625t-0.554-2.625q0-1.429 0.75-3.036-1.643 0.143-2.429 0.143-5.286 0-8.911-3.446t-3.625-8.732q0-2.929 1.286-5.679t3.536-4.679q2.714-2.357 6.5-3.5t7.786-1.143h14.893l-4.893 3.143h-4.714q2.679 2.25 4.036 4.75t1.357 5.714q0 2.571-0.875 4.625t-2.125 3.321-2.482 2.321-2.107 2.196-0.875 2.357q0 1.286 1.143 2.518t2.75 2.429 3.232 2.625 2.768 3.714 1.143 5.071q0 3.25-1.75 6.179-2.536 4.357-7.482 6.411t-10.661 2.054q-4.714 0-8.804-1.482t-6.161-4.911q-1.286-2.107-1.286-4.679zM10.607 46.714q0 2 0.839 3.643t2.179 2.696 3.107 1.786 3.571 1.036 3.625 0.304q2.071 0 3.982-0.464t3.536-1.393 2.607-2.607 0.982-3.893q0-0.893-0.25-1.75t-0.518-1.5-0.964-1.482-1.054-1.25-1.375-1.232-1.304-1.036-1.482-1.071-1.304-0.929q-0.571-0.071-1.75-0.071-1.893 0-3.732 0.25t-3.821 0.893-3.464 1.643-2.446 2.661-0.964 3.768zM14.393 11.214q0 1.643 0.357 3.482t1.125 3.679 1.857 3.304 2.679 2.393 3.446 0.929q1.321 0 2.768-0.589t2.339-1.554q1.893-2 1.893-5.679 0-2.107-0.607-4.482t-1.714-4.607-3-3.696-4.179-1.464q-1.5 0-2.946 0.696t-2.375 1.875q-1.643 2.107-1.643 5.714z"></path>
</svg>
