<svg viewBox="0 0 60 60" enable-background="new 0 0 60 60">
  <path d="M29.995 51.988c-.589 0-1.174-.154-1.691-.452l-5.381-3.184c-.802-.449-.411-.608-.146-.7 1.072-.373 1.289-.459 2.433-1.107.119-.068.276-.041.401.03l4.133 2.454c.15.084.361.084.5 0l16.115-9.302c.15-.086.247-.257.247-.435v-18.598c0-.182-.097-.352-.25-.444l-16.108-9.293c-.149-.087-.348-.087-.496 0l-16.105 9.296c-.156.09-.255.265-.255.441v18.598c0 .178.098.346.254.43l4.414 2.551c2.396 1.196 3.862-.215 3.862-1.631v-18.361c0-.259.209-.464.468-.464h2.043c.256 0 .467.205.467.464v18.362c0 3.196-1.742 5.03-4.772 5.03-.931 0-1.665 0-3.712-1.007l-4.226-2.434c-1.043-.602-1.69-1.731-1.69-2.938v-18.6c0-1.209.646-2.336 1.691-2.938l16.115-9.312c1.019-.577 2.375-.577 3.387 0l16.113 9.312c1.044.604 1.694 1.729 1.694 2.938v18.598c0 1.207-.649 2.331-1.694 2.938l-16.113 9.305c-.517.299-1.101.453-1.698.453zM34.972 39.175c-7.052 0-8.529-3.237-8.529-5.951 0-.259.208-.465.466-.465h2.083c.233 0 .426.169.463.394.314 2.121 1.252 3.193 5.517 3.193 3.395 0 4.84-.768 4.84-2.569 0-1.038-.409-1.809-5.686-2.327-4.409-.435-7.136-1.41-7.136-4.938 0-3.25 2.741-5.19 7.336-5.19 5.162 0 7.716 1.791 8.041 5.636.012.134-.035.261-.122.358-.089.093-.212.149-.341.149h-2.092c-.216 0-.408-.154-.452-.364-.502-2.231-1.722-2.944-5.033-2.944-3.707 0-4.138 1.292-4.138 2.258 0 1.172.508 1.513 5.513 2.176 4.953.656 7.304 1.582 7.304 5.064 0 3.51-2.927 5.52-8.034 5.52z"/>
</svg>