<svg viewBox="0 0 60 60" enable-background="new 0 0 60 60">
  <path d="M34.071 27.201c2.249 0 4.072-1.823 4.072-4.071v-6.701s-.014-2.728-1.357-4.071c-1.371-1.371-5.429-1.357-5.429-1.357h-6.786s-2.727.698-4.071 2.714c-1.37 2.055-1.357 5.428-1.357 5.428h10.178c.375 0 .679.304.679.679s-.304.679-.679.679h-11.536s-6.786-.085-6.786 9.5l5.429 9.5v-5.513c0-3.748 3.038-6.786 6.786-6.786h10.857zm-10.56-10.179c-.913 0-1.654-.741-1.654-1.654s.741-1.654 1.654-1.654c.913 0 1.654.741 1.654 1.654s-.741 1.654-1.654 1.654zm20.06 3.478v5.428c0 3.748-3.038 6.786-6.786 6.786h-10.857c-2.249 0-4.072 1.823-4.072 4.071v6.786s.014 2.728 1.357 4.071c1.371 1.371 4.071 1.357 4.071 1.357h8.143s2.727-.698 4.071-2.714c1.37-2.055 1.357-5.429 1.357-5.429h-10.178c-.375 0-.679-.304-.679-.679 0-.375.304-.678.679-.678h11.536s6.786.085 6.786-9.5l-5.429-9.5zm-7.083 22.478c.913 0 1.654.741 1.654 1.654 0 .913-.741 1.654-1.654 1.654-.913 0-1.654-.741-1.654-1.654 0-.913.741-1.654 1.654-1.654z" fill-rule="evenodd" clip-rule="evenodd"/>
</svg>
