<svg viewBox="0 0 24 24">
<path d="M18 16.085c-0.76 0-1.445 0.295-1.965 0.77l-7.125-4.155c0.055-0.225 0.090-0.46 0.090-0.7s-0.035-0.475-0.090-0.7l7.050-4.115c0.535 0.5 1.25 0.81 2.040 0.81 1.655 0 3-1.345 3-3s-1.345-3-3-3-3 1.345-3 3c0 0.24 0.035 0.475 0.090 0.7l-7.050 4.115c-0.535-0.5-1.25-0.81-2.040-0.81-1.655 0-3 1.345-3 3s1.345 3 3 3c0.79 0 1.505-0.31 2.040-0.81l7.125 4.155c-0.050 0.21-0.080 0.43-0.080 0.655 0 1.61 1.305 2.915 2.915 2.915s2.915-1.305 2.915-2.915-1.305-2.915-2.915-2.915z"></path>
</svg>
