<svg viewBox="0 0 64 64">
  <path d="M1.571 49.679q1.25 0.143 2.786 0.143 8.036 0 14.321-4.929-3.75-0.071-6.714-2.304t-4.071-5.696q1.179 0.179 2.179 0.179 1.536 0 3.036-0.393-4-0.821-6.625-3.982t-2.625-7.339v-0.143q2.429 1.357 5.214 1.464-2.357-1.571-3.75-4.107t-1.393-5.5q0-3.143 1.571-5.821 4.321 5.321 10.518 8.518t13.268 3.554q-0.286-1.357-0.286-2.643 0-4.786 3.375-8.161t8.161-3.375q5 0 8.429 3.643 3.893-0.75 7.321-2.786-1.321 4.107-5.071 6.357 3.321-0.357 6.643-1.786-2.393 3.5-5.786 5.964 0.036 0.5 0.036 1.5 0 4.643-1.357 9.268t-4.125 8.875-6.589 7.518-9.214 5.214-11.536 1.946q-9.679 0-17.714-5.179z"></path>
</svg>