<svg viewBox="0 0 129 121">
  <path d="M60.467,51.345 C55.1,60.367 49.958,69.104 44.709,77.775 C43.361,80.001 42.694,81.814 43.771,84.644 C46.744,92.461 42.55,100.068 34.667,102.133 C27.233,104.081 19.99,99.195 18.515,91.236 C17.208,84.191 22.675,77.285 30.442,76.184 C31.093,76.091 31.757,76.08 32.851,75.998 C36.657,69.616 40.556,63.079 44.666,56.186 C37.235,48.797 32.812,40.159 33.791,29.456 C34.483,21.89 37.458,15.352 42.896,9.993 C53.311,-0.269 69.2,-1.931 81.463,5.946 C93.241,13.512 98.635,28.25 94.037,40.864 C90.57,39.924 87.079,38.976 83.241,37.935 C84.685,30.922 83.617,24.624 78.887,19.229 C75.762,15.667 71.752,13.8 67.192,13.112 C58.051,11.731 49.076,17.604 46.413,26.576 C43.39,36.759 47.965,45.077 60.467,51.345 Z M75.794,40.676 C79.575,47.346 83.414,54.117 87.219,60.826 C106.451,54.876 120.951,65.522 126.153,76.92 C132.436,90.688 128.141,106.995 115.801,115.489 C103.135,124.209 87.117,122.719 75.895,111.518 C78.755,109.124 81.629,106.719 84.7,104.15 C95.784,111.329 105.478,110.991 112.675,102.49 C118.812,95.238 118.679,84.425 112.364,77.325 C105.076,69.132 95.314,68.882 83.514,76.747 C78.619,68.063 73.639,59.448 68.899,50.701 C67.301,47.753 65.536,46.043 61.934,45.419 C55.918,44.376 52.034,39.21 51.801,33.422 C51.572,27.698 54.944,22.524 60.215,20.508 C65.436,18.511 71.563,20.123 75.075,24.562 C77.945,28.189 78.857,32.271 77.347,36.744 C76.927,37.991 76.383,39.198 75.794,40.676 Z M84.831,95.204 L61.679,95.204 C59.46,104.331 54.667,111.7 46.408,116.386 C39.988,120.028 33.068,121.263 25.703,120.074 C12.143,117.887 1.055,105.68 0.079,91.934 C-1.026,76.363 9.677,62.522 23.943,59.413 C24.928,62.99 25.923,66.601 26.908,70.169 C13.819,76.847 9.289,85.261 12.952,95.782 C16.177,105.041 25.337,110.116 35.283,108.153 C45.44,106.149 50.561,97.708 49.936,84.161 C59.565,84.161 69.202,84.061 78.832,84.21 C82.592,84.269 85.495,83.879 88.328,80.564 C92.992,75.109 101.576,75.601 106.599,80.753 C111.732,86.018 111.486,94.49 106.054,99.533 C100.813,104.399 92.533,104.139 87.63,98.896 C86.622,97.815 85.828,96.532 84.831,95.204 Z"></path>
</svg>