<?xml version="1.0" encoding="UTF-8" standalone="no"?>
<svg width="40px" height="40px" viewBox="0 0 40 40" version="1.1" xmlns="http://www.w3.org/2000/svg" xmlns:xlink="http://www.w3.org/1999/xlink" xmlns:sketch="http://www.bohemiancoding.com/sketch/ns">
    <!-- Generator: Sketch 3.5.2 (25235) - http://www.bohemiancoding.com/sketch -->
    <title>DB Socket Icon</title>
    <desc>Created with Sketch.</desc>
    <defs></defs>
    <g id="Push-notification-socket" stroke="none" stroke-width="1" fill="none" fill-rule="evenodd" sketch:type="MSPage">
        <g id="PushNotify-Sockets" sketch:type="MSArtboardGroup" transform="translate(-278.000000, -191.000000)">
            <g id="Data-Socket" sketch:type="MSLayerGroup" transform="translate(276.000000, 187.000000)">
                <g id="DB-Socket-Icon" transform="translate(2.000000, 4.000000)" sketch:type="MSShapeGroup">
                    <circle id="Oval-87" fill="#000000" cx="20" cy="20" r="20"></circle>
                    <path d="M27,26 L13,26 L13,12 L23,12 L23,10 L13,10 C11.89,10 11,10.89 11,12 L11,26 C11,27.1045695 11.8954305,28 13,28 L27,28 C28.1045695,28 29,27.1045695 29,26 L29,18 L27,18 L27,26 Z M15.91,17.08 L14.5,18.5 L19,23 L29,13 L27.59,11.58 L19,20.17 L15.91,17.08 L15.91,17.08 Z" id="Shape" fill="#FFFFFF"></path>
                </g>
            </g>
        </g>
    </g>
</svg>