<?xml version="1.0" encoding="UTF-8" standalone="no"?>
<svg width="40px" height="40px" viewBox="0 0 40 40" version="1.1" xmlns="http://www.w3.org/2000/svg" xmlns:xlink="http://www.w3.org/1999/xlink" xmlns:sketch="http://www.bohemiancoding.com/sketch/ns">
    <!-- Generator: Sketch 3.5.2 (25235) - http://www.bohemiancoding.com/sketch -->
    <title>DB Socket Icon</title>
    <desc>Created with Sketch.</desc>
    <defs></defs>
    <g id="Push-notification-socket" stroke="none" stroke-width="1" fill="none" fill-rule="evenodd" sketch:type="MSPage">
        <g id="PushNotify-Sockets" sketch:type="MSArtboardGroup" transform="translate(-278.000000, -191.000000)">
            <g id="Data-Socket" sketch:type="MSLayerGroup" transform="translate(276.000000, 187.000000)">
                <g id="DB-Socket-Icon" transform="translate(2.000000, 4.000000)" sketch:type="MSShapeGroup">
                    <circle id="Oval-87" fill="#000000" cx="20" cy="20" r="20"></circle>
                    <g id="checkbox-blank-outline" transform="translate(11.000000, 11.000000)" fill="#FFFFFF">
                        <path d="M16,0 L2,0 C0.89,0 0,0.89 0,2 L0,16 C0,17.1045695 0.8954305,18 2,18 L16,18 C17.1045695,18 18,17.1045695 18,16 L18,2 C18,0.89 17.1,0 16,0 L16,0 Z M16,2 L16,16 L2,16 L2,2 L16,2 L16,2 Z" id="Shape"></path>
                    </g>
                </g>
            </g>
        </g>
    </g>
</svg>