<?xml version="1.0" encoding="UTF-8" standalone="no"?>
<svg width="31px" height="37px" viewBox="0 0 31 37" version="1.1" xmlns="http://www.w3.org/2000/svg" xmlns:xlink="http://www.w3.org/1999/xlink">
    <!-- Generator: Sketch 3.6.1 (26313) - http://www.bohemiancoding.com/sketch -->
    <title>JS</title>
    <desc>Created with Sketch.</desc>
    <defs></defs>
    <g id="Page-1" stroke="none" stroke-width="1" fill="none" fill-rule="evenodd">
        <g id="Group" transform="translate(-274.000000, -39.000000)">
            <g id="JS" transform="translate(274.000000, 39.000000)">
                <path d="M29.55,7.762 C29.925,8.137 30.246,8.647 30.514,9.289 C30.783,9.932 30.916,10.521 30.916,11.057 L30.916,34.2 C30.916,34.736 30.728,35.191 30.354,35.566 C29.98,35.941 29.523,36.128 28.988,36.128 L1.988,36.128 C1.452,36.128 0.997,35.94 0.622,35.566 C0.247,35.192 0.06,34.736 0.06,34.2 L0.06,2.057 C0.06,1.521 0.248,1.066 0.622,0.691 C0.997,0.316 1.452,0.129 1.988,0.129 L19.988,0.129 C20.523,0.129 21.113,0.263 21.756,0.531 C22.4,0.799 22.908,1.121 23.283,1.495 L29.55,7.762 L29.55,7.762 Z" id="Path" fill="#000000"></path>
                <path d="M21.454,3.302 C21.293,3.141 21.018,2.994 20.63,2.86 L20.63,10.414 L28.184,10.414 C28.05,10.025 27.903,9.751 27.743,9.59 L21.454,3.302 L21.454,3.302 L21.454,3.302 Z" id="Path" fill="#FFFFFF"></path>
                <path d="M28.345,33.557 L28.345,12.985 L19.988,12.985 C19.452,12.985 18.997,12.797 18.622,12.423 C18.247,12.049 18.06,11.593 18.06,11.057 L18.06,2.7 L2.63,2.7 L2.63,33.557 L28.345,33.557 L28.345,33.557 Z" id="Path" fill="#FFFFFF"></path>
                <path d="M9.66599063,22.8330562 L10.8906,22.8330562 L10.8906,24.1104 L9.66599063,24.1104 L9.66599063,22.8330562 Z M13.8027094,16.7217281 L12.7480219,16.7217281 L12.7480219,15.5029781 L13.8027094,15.5029781 L13.8027094,16.7217281 Z M11.7519281,25.6982906 C12.2245867,25.6826655 12.5087636,25.6406738 12.6044672,25.5723141 C12.7001708,25.5039543 12.7480219,25.2900893 12.7480219,24.9307125 L12.7480219,17.8643062 L13.8027094,17.8643062 L13.8027094,25.0420406 C13.8027094,25.4990742 13.7284914,25.8408676 13.5800531,26.0674312 C13.3339581,26.4502457 12.8671659,26.64165 12.1796625,26.64165 C12.128881,26.64165 12.0751706,26.6396969 12.0185297,26.6357906 C11.9618888,26.6318844 11.8730225,26.6240719 11.7519281,26.6123531 L11.7519281,25.6982906 Z M16.0409906,22.14165 C16.0722408,22.4932143 16.1601305,22.7627428 16.3046625,22.9502437 C16.5702888,23.2900892 17.0312217,23.4600094 17.687475,23.4600094 C18.078102,23.4600094 18.4218485,23.3750493 18.718725,23.2051266 C19.0156015,23.0352038 19.1640375,22.7725112 19.1640375,22.4170406 C19.1640375,22.147508 19.0448981,21.942432 18.8066156,21.8018062 C18.6542711,21.7158683 18.3534929,21.6162599 17.9042719,21.5029781 L17.0663813,21.2920406 C16.5312223,21.1592275 16.136695,21.0107914 15.8827875,20.8467281 C15.4296602,20.5615704 15.2031,20.1670431 15.2031,19.6631344 C15.2031,19.0693814 15.416965,18.5889175 15.8447016,18.2217281 C16.2724381,17.8545388 16.8476276,17.6709469 17.5702875,17.6709469 C18.5156047,17.6709469 19.1972385,17.9482879 19.6152094,18.5029781 C19.8769294,18.8545424 20.0038813,19.2334448 19.9960688,19.6396969 L18.999975,19.6396969 C18.9804437,19.4014144 18.8964601,19.1846197 18.7480219,18.9893062 C18.5058332,18.7119611 18.0859155,18.5732906 17.4882563,18.5732906 C17.0898168,18.5732906 16.788062,18.6494617 16.5829828,18.8018062 C16.3779037,18.9541508 16.2753656,19.1553206 16.2753656,19.4053219 C16.2753656,19.6787607 16.4101299,19.8975086 16.6796625,20.0615719 C16.8359133,20.1592286 17.0663797,20.2451653 17.3710688,20.3193844 L18.0683344,20.4893062 C18.8261507,20.6729009 19.3339581,20.8506335 19.5917719,21.0225094 C20.0019302,21.292042 20.2070063,21.7158659 20.2070063,22.2939937 C20.2070063,22.8525903 19.9950943,23.3350073 19.5712641,23.7412594 C19.1474338,24.1475114 18.5019325,24.3506344 17.6347406,24.3506344 C16.7011422,24.3506344 16.040016,24.1387224 15.6513422,23.7148922 C15.2626684,23.2910619 15.0546626,22.7666531 15.0273188,22.14165 L16.0409906,22.14165 Z" id=".js" fill="#000000"></path>
            </g>
        </g>
    </g>
</svg>