<?xml version="1.0" encoding="UTF-8" standalone="no"?>
<svg width="42px" height="49px" viewBox="0 0 42 49" version="1.1" xmlns="http://www.w3.org/2000/svg" xmlns:xlink="http://www.w3.org/1999/xlink">
    <!-- Generator: Sketch 3.6.1 (26313) - http://www.bohemiancoding.com/sketch -->
    <title>HTML</title>
    <desc>Created with Sketch.</desc>
    <defs></defs>
    <g id="Page-1" stroke="none" stroke-width="1" fill="none" fill-rule="evenodd">
        <g id="Group" transform="translate(-48.000000, -27.000000)">
            <g id="HTML" transform="translate(48.000000, 27.000000)">
                <path d="M39.834,10.374 C40.334,10.874 40.762,11.553 41.12,12.41 C41.477,13.267 41.656,14.053 41.656,14.767 L41.656,45.624 C41.656,46.338 41.406,46.945 40.906,47.445 C40.406,47.945 39.799,48.195 39.085,48.195 L3.085,48.195 C2.371,48.195 1.763,47.945 1.264,47.445 C0.764,46.945 0.514,46.338 0.514,45.624 L0.514,2.767 C0.514,2.053 0.764,1.446 1.264,0.946 C1.764,0.446 2.371,0.196 3.085,0.196 L27.085,0.196 C27.799,0.196 28.585,0.375 29.442,0.732 C30.299,1.089 30.977,1.518 31.478,2.018 L39.834,10.374 L39.834,10.374 Z" id="Path" fill="#000000"></path>
                <path d="M29.04,4.428 C28.826,4.214 28.459,4.017 27.942,3.839 L27.942,13.91 L38.013,13.91 C37.834,13.392 37.638,13.026 37.424,12.811 L29.04,4.428 L29.04,4.428 L29.04,4.428 Z" id="Path" fill="#FFFFFF"></path>
                <path d="M38.228,44.768 L38.228,17.339 L27.084,17.339 C26.37,17.339 25.762,17.089 25.263,16.589 C24.763,16.089 24.513,15.482 24.513,14.767 L24.513,3.624 L3.942,3.624 L3.942,44.768 L38.228,44.768 L38.228,44.768 Z" id="Path" fill="#FFFFFF"></path>
                <path d="M32.732,29.338 L26.491,35.579 C26.402,35.669 26.299,35.713 26.183,35.713 C26.067,35.713 25.964,35.669 25.875,35.579 L25.206,34.91 C25.117,34.82 25.072,34.718 25.072,34.601 C25.072,34.484 25.117,34.382 25.206,34.293 L30.469,29.029 L25.206,23.765 C25.117,23.676 25.072,23.574 25.072,23.457 C25.072,23.34 25.117,23.238 25.206,23.148 L25.875,22.479 C25.964,22.389 26.067,22.345 26.183,22.345 C26.299,22.345 26.402,22.389 26.491,22.479 L32.732,28.72 C32.821,28.809 32.866,28.911 32.866,29.028 C32.866,29.145 32.822,29.249 32.732,29.338 L32.732,29.338 Z" id="Path" fill="#000000"></path>
                <path d="M23.934,20.619 L18.938,37.91 C18.902,38.025 18.833,38.112 18.73,38.171 C18.627,38.229 18.522,38.24 18.415,38.204 L17.585,37.976 C17.469,37.941 17.382,37.872 17.324,37.769 C17.266,37.665 17.255,37.556 17.29,37.441 L22.286,20.15 C22.322,20.035 22.391,19.948 22.494,19.889 C22.597,19.831 22.702,19.82 22.809,19.856 L23.639,20.084 C23.755,20.12 23.842,20.188 23.9,20.291 C23.958,20.395 23.969,20.504 23.934,20.619 L23.934,20.619 Z" id="Path" fill="#000000"></path>
                <path d="M16.019,34.91 L15.349,35.579 C15.26,35.669 15.157,35.713 15.041,35.713 C14.925,35.713 14.822,35.669 14.733,35.579 L8.492,29.338 C8.403,29.249 8.358,29.147 8.358,29.03 C8.358,28.913 8.403,28.811 8.492,28.722 L14.733,22.481 C14.822,22.391 14.925,22.347 15.041,22.347 C15.157,22.347 15.26,22.391 15.349,22.481 L16.019,23.15 C16.108,23.24 16.153,23.342 16.153,23.459 C16.153,23.576 16.108,23.678 16.019,23.767 L10.755,29.031 L16.019,34.295 C16.108,34.384 16.153,34.486 16.153,34.603 C16.153,34.72 16.107,34.82 16.019,34.91 L16.019,34.91 Z" id="Path" fill="#000000"></path>
            </g>
        </g>
    </g>
</svg>