<?xml version="1.0" encoding="UTF-8" standalone="no"?>
<svg width="42px" height="49px" viewBox="0 0 42 49" version="1.1" xmlns="http://www.w3.org/2000/svg" xmlns:xlink="http://www.w3.org/1999/xlink">
    <!-- Generator: Sketch 3.6.1 (26313) - http://www.bohemiancoding.com/sketch -->
    <title>Document</title>
    <desc>Created with Sketch.</desc>
    <defs></defs>
    <g id="Page-1" stroke="none" stroke-width="1" fill="none" fill-rule="evenodd">
        <g id="Group" transform="translate(-215.000000, -26.000000)">
            <g id="Document" transform="translate(215.000000, 26.000000)">
                <path d="M27.364,18.131 L41.935,18.131 L41.935,46.416 C41.935,47.13 41.685,47.737 41.185,48.237 C40.685,48.737 40.078,48.987 39.364,48.987 L3.364,48.987 C2.65,48.987 2.043,48.737 1.543,48.237 C1.043,47.737 0.793,47.13 0.793,46.416 L0.793,3.559 C0.793,2.845 1.043,2.238 1.543,1.738 C2.043,1.238 2.65,0.988 3.364,0.988 L24.793,0.988 L24.793,15.559 C24.793,16.273 25.043,16.881 25.543,17.381 C26.043,17.881 26.65,18.131 27.364,18.131 L27.364,18.131 Z" id="Path" fill="#000000"></path>
                <path d="M31.65,37.845 L31.65,36.131 C31.65,35.881 31.569,35.675 31.409,35.515 C31.248,35.354 31.043,35.274 30.793,35.274 L11.936,35.274 C11.686,35.274 11.481,35.354 11.32,35.515 C11.16,35.675 11.079,35.881 11.079,36.131 L11.079,37.845 C11.079,38.095 11.16,38.3 11.32,38.461 C11.481,38.622 11.686,38.702 11.936,38.702 L30.793,38.702 C31.043,38.702 31.248,38.622 31.409,38.461 C31.569,38.3 31.65,38.095 31.65,37.845 L31.65,37.845 Z" id="Path" fill="#FFFFFF"></path>
                <path d="M40.114,13.738 C40.364,13.988 40.614,14.31 40.864,14.702 L28.221,14.702 L28.221,2.059 C28.614,2.309 28.935,2.559 29.185,2.809 L40.114,13.738 L40.114,13.738 Z" id="Path" fill="#000000"></path>
                <path d="M31.65,30.987 L31.65,29.273 C31.65,29.023 31.569,28.818 31.409,28.657 C31.248,28.497 31.043,28.416 30.793,28.416 L11.936,28.416 C11.686,28.416 11.481,28.497 11.32,28.657 C11.16,28.818 11.079,29.023 11.079,29.273 L11.079,30.987 C11.079,31.238 11.16,31.443 11.32,31.603 C11.481,31.764 11.686,31.844 11.936,31.844 L30.793,31.844 C31.043,31.844 31.248,31.764 31.409,31.603 C31.569,31.443 31.65,31.238 31.65,30.987 L31.65,30.987 Z" id="Path" fill="#FFFFFF"></path>
                <path d="M31.65,24.131 L31.65,22.416 C31.65,22.166 31.569,21.961 31.409,21.8 C31.248,21.64 31.043,21.56 30.793,21.56 L11.936,21.56 C11.686,21.56 11.481,21.64 11.32,21.8 C11.16,21.961 11.079,22.166 11.079,22.416 L11.079,24.131 C11.079,24.381 11.16,24.586 11.32,24.747 C11.481,24.907 11.686,24.987 11.936,24.987 L30.793,24.987 C31.043,24.987 31.248,24.907 31.409,24.747 C31.569,24.586 31.65,24.381 31.65,24.131 L31.65,24.131 Z" id="Path" fill="#FFFFFF"></path>
            </g>
        </g>
    </g>
</svg>