<?xml version="1.0" encoding="UTF-8" standalone="no"?>
<svg width="31px" height="37px" viewBox="0 0 31 37" version="1.1" xmlns="http://www.w3.org/2000/svg" xmlns:xlink="http://www.w3.org/1999/xlink">
    <!-- Generator: Sketch 3.6.1 (26313) - http://www.bohemiancoding.com/sketch -->
    <title>CSS</title>
    <desc>Created with Sketch.</desc>
    <defs></defs>
    <g id="Page-1" stroke="none" stroke-width="1" fill="none" fill-rule="evenodd">
        <g id="Group" transform="translate(0.000000, -39.000000)">
            <g id="CSS" transform="translate(0.000000, 39.000000)">
                <path d="M29.503,7.762 C29.878,8.138 30.199,8.647 30.467,9.289 C30.735,9.932 30.869,10.521 30.869,11.057 L30.869,34.2 C30.869,34.736 30.681,35.191 30.307,35.566 C29.932,35.941 29.476,36.128 28.941,36.128 L1.941,36.128 C1.405,36.128 0.95,35.94 0.575,35.566 C0.2,35.192 0.013,34.736 0.013,34.2 L0.013,2.057 C0.013,1.522 0.201,1.066 0.575,0.691 C0.949,0.316 1.406,0.129 1.941,0.129 L19.941,0.129 C20.477,0.129 21.066,0.263 21.709,0.53 C22.352,0.798 22.861,1.12 23.236,1.494 L29.503,7.762 L29.503,7.762 Z" id="Path" fill="#000000"></path>
                <path d="M21.407,3.302 C21.246,3.141 20.972,2.994 20.583,2.86 L20.583,10.414 L28.137,10.414 C28.003,10.025 27.856,9.751 27.695,9.59 L21.407,3.302 L21.407,3.302 L21.407,3.302 Z" id="Path" fill="#FFFFFF"></path>
                <path d="M28.297,33.557 L28.297,12.985 L19.94,12.985 C19.404,12.985 18.949,12.797 18.574,12.423 C18.199,12.049 18.012,11.593 18.012,11.057 L18.012,2.7 L2.583,2.7 L2.583,33.557 L28.297,33.557 L28.297,33.557 Z" id="Path" fill="#FFFFFF"></path>
                <path d="M5.61039062,22.9667563 L6.835,22.9667563 L6.835,24.2441 L5.61039062,24.2441 L5.61039062,22.9667563 Z M12.8379297,18.3026938 C13.2812913,18.6464455 13.5478902,19.2382364 13.6377344,20.0780844 L12.6123438,20.0780844 C12.5498434,19.6913637 12.4072667,19.3700778 12.1846094,19.1142172 C11.961952,18.8583565 11.6045337,18.7304281 11.1123438,18.7304281 C10.4404654,18.7304281 9.96000145,19.0585498 9.6709375,19.7148031 C9.48343656,20.1405865 9.3896875,20.6659719 9.3896875,21.290975 C9.3896875,21.9198844 9.52249867,22.449176 9.788125,22.8788656 C10.0537513,23.3085553 10.4717159,23.5233969 11.0420313,23.5233969 C11.4795334,23.5233969 11.8262097,23.3896092 12.0820703,23.1220297 C12.337931,22.8544502 12.514687,22.4882429 12.6123438,22.0233969 L13.6377344,22.0233969 C13.5205463,22.8554323 13.2275805,23.4638246 12.7588281,23.8485922 C12.2900758,24.2333597 11.6904724,24.4257406 10.96,24.4257406 C10.1396834,24.4257406 9.48539307,24.1259389 8.99710938,23.5263266 C8.50882568,22.9267142 8.2646875,22.1776982 8.2646875,21.2792563 C8.2646875,20.1776882 8.53226295,19.3202749 9.06742188,18.7069906 C9.6025808,18.0937063 10.2842146,17.7870688 11.1123438,17.7870688 C11.8193785,17.7870688 12.3945681,17.958942 12.8379297,18.3026938 L12.8379297,18.3026938 Z M15.319375,22.27535 C15.3506252,22.6269143 15.4385149,22.8964428 15.5830469,23.0839438 C15.8486732,23.4237892 16.3096061,23.5937094 16.9658594,23.5937094 C17.3564863,23.5937094 17.7002329,23.5087493 17.9971094,23.3388266 C18.2939859,23.1689038 18.4424219,22.9062112 18.4424219,22.5507406 C18.4424219,22.281208 18.3232824,22.076132 18.085,21.9355063 C17.9326555,21.8495683 17.6318772,21.7499599 17.1826563,21.6366781 L16.3447656,21.4257406 C15.8096067,21.2929275 15.4150794,21.1444914 15.1611719,20.9804281 C14.7080446,20.6952704 14.4814844,20.3007431 14.4814844,19.7968344 C14.4814844,19.2030814 14.6953494,18.7226175 15.1230859,18.3554281 C15.5508225,17.9882388 16.126012,17.8046469 16.8486719,17.8046469 C17.7939891,17.8046469 18.4756229,18.0819879 18.8935938,18.6366781 C19.1553138,18.9882424 19.2822657,19.3671448 19.2744531,19.7733969 L18.2783594,19.7733969 C18.258828,19.5351144 18.1748445,19.3183197 18.0264063,19.1230063 C17.7842175,18.8456611 17.3642999,18.7069906 16.7666406,18.7069906 C16.3682011,18.7069906 16.0664463,18.7831617 15.8613672,18.9355063 C15.656288,19.0878508 15.55375,19.2890206 15.55375,19.5390219 C15.55375,19.8124607 15.6885143,20.0312086 15.9580469,20.1952719 C16.1142977,20.2929286 16.3447641,20.3788653 16.6494531,20.4530844 L17.3467188,20.6230063 C18.104535,20.8066009 18.6123425,20.9843335 18.8701563,21.1562094 C19.2803146,21.425742 19.4853906,21.8495659 19.4853906,22.4276938 C19.4853906,22.9862903 19.2734787,23.4687073 18.8496484,23.8749594 C18.4258182,24.2812114 17.7803168,24.4843344 16.913125,24.4843344 C15.9795266,24.4843344 15.3184004,24.2724224 14.9297266,23.8485922 C14.5410527,23.4247619 14.333047,22.9003531 14.3057031,22.27535 L15.319375,22.27535 Z M21.319375,22.27535 C21.3506252,22.6269143 21.4385149,22.8964428 21.5830469,23.0839438 C21.8486732,23.4237892 22.3096061,23.5937094 22.9658594,23.5937094 C23.3564863,23.5937094 23.7002329,23.5087493 23.9971094,23.3388266 C24.2939859,23.1689038 24.4424219,22.9062112 24.4424219,22.5507406 C24.4424219,22.281208 24.3232824,22.076132 24.085,21.9355063 C23.9326555,21.8495683 23.6318772,21.7499599 23.1826563,21.6366781 L22.3447656,21.4257406 C21.8096067,21.2929275 21.4150794,21.1444914 21.1611719,20.9804281 C20.7080446,20.6952704 20.4814844,20.3007431 20.4814844,19.7968344 C20.4814844,19.2030814 20.6953494,18.7226175 21.1230859,18.3554281 C21.5508225,17.9882388 22.126012,17.8046469 22.8486719,17.8046469 C23.7939891,17.8046469 24.4756229,18.0819879 24.8935938,18.6366781 C25.1553138,18.9882424 25.2822657,19.3671448 25.2744531,19.7733969 L24.2783594,19.7733969 C24.258828,19.5351144 24.1748445,19.3183197 24.0264063,19.1230063 C23.7842175,18.8456611 23.3642999,18.7069906 22.7666406,18.7069906 C22.3682011,18.7069906 22.0664463,18.7831617 21.8613672,18.9355063 C21.656288,19.0878508 21.55375,19.2890206 21.55375,19.5390219 C21.55375,19.8124607 21.6885143,20.0312086 21.9580469,20.1952719 C22.1142977,20.2929286 22.3447641,20.3788653 22.6494531,20.4530844 L23.3467188,20.6230063 C24.104535,20.8066009 24.6123425,20.9843335 24.8701563,21.1562094 C25.2803146,21.425742 25.4853906,21.8495659 25.4853906,22.4276938 C25.4853906,22.9862903 25.2734787,23.4687073 24.8496484,23.8749594 C24.4258182,24.2812114 23.7803168,24.4843344 22.913125,24.4843344 C21.9795266,24.4843344 21.3184004,24.2724224 20.9297266,23.8485922 C20.5410527,23.4247619 20.333047,22.9003531 20.3057031,22.27535 L21.319375,22.27535 Z" id=".css" fill="#000000"></path>
            </g>
        </g>
    </g>
</svg>