<?xml version="1.0" encoding="UTF-8" standalone="no"?>
<svg width="305px" height="76px" viewBox="0 0 305 76" version="1.1" xmlns="http://www.w3.org/2000/svg" xmlns:xlink="http://www.w3.org/1999/xlink">
    <!-- Generator: Sketch 3.6.1 (26313) - http://www.bohemiancoding.com/sketch -->
    <title>Group</title>
    <desc>Created with Sketch.</desc>
    <defs></defs>
    <g id="Page-1" stroke="none" stroke-width="1" fill="#000000" fill-rule="evenodd">
        <g id="Group">
            <path d="M197.18,25.718 L197.18,63.432 C197.18,66.718 196.001,69.539 193.645,71.897 C191.288,74.253 188.465,75.432 185.18,75.432 L120.037,75.432 C116.75,75.432 113.93,74.253 111.573,71.897 C109.216,69.54 108.037,66.718 108.037,63.432 L108.037,12.004 C108.037,8.718 109.215,5.897 111.573,3.54 C113.93,1.183 116.751,0.004 120.037,0.004 L137.18,0.004 C140.466,0.004 143.287,1.182 145.644,3.54 C148.001,5.897 149.18,8.719 149.18,12.004 L149.18,13.718 L185.18,13.718 C188.465,13.718 191.287,14.897 193.645,17.254 C196.001,19.611 197.18,22.433 197.18,25.718 L197.18,25.718 Z" id="Shape" fill="#000000"></path>
            <path d="M242.364,44.131 L256.935,44.131 L256.935,72.416 C256.935,73.13 256.685,73.737 256.185,74.237 C255.685,74.737 255.078,74.987 254.364,74.987 L218.364,74.987 C217.65,74.987 217.043,74.737 216.543,74.237 C216.043,73.737 215.793,73.13 215.793,72.416 L215.793,29.559 C215.793,28.845 216.043,28.238 216.543,27.738 C217.043,27.238 217.65,26.988 218.364,26.988 L239.793,26.988 L239.793,41.559 C239.793,42.273 240.043,42.881 240.543,43.381 C241.043,43.881 241.65,44.131 242.364,44.131 L242.364,44.131 Z" id="Path" fill="#000000"></path>
            <path d="M246.65,63.845 L246.65,62.131 C246.65,61.881 246.569,61.675 246.409,61.515 C246.248,61.354 246.043,61.274 245.793,61.274 L226.936,61.274 C226.686,61.274 226.481,61.354 226.32,61.515 C226.16,61.675 226.079,61.881 226.079,62.131 L226.079,63.845 C226.079,64.095 226.16,64.3 226.32,64.461 C226.481,64.622 226.686,64.702 226.936,64.702 L245.793,64.702 C246.043,64.702 246.248,64.622 246.409,64.461 C246.569,64.3 246.65,64.095 246.65,63.845 L246.65,63.845 Z" id="Path" fill="#FFFFFF"></path>
            <path d="M255.114,39.738 C255.364,39.988 255.614,40.31 255.864,40.702 L243.221,40.702 L243.221,28.059 C243.614,28.309 243.935,28.559 244.185,28.809 L255.114,39.738 L255.114,39.738 Z" id="Path" fill="#000000"></path>
            <path d="M246.65,56.987 L246.65,55.273 C246.65,55.023 246.569,54.818 246.409,54.657 C246.248,54.497 246.043,54.416 245.793,54.416 L226.936,54.416 C226.686,54.416 226.481,54.497 226.32,54.657 C226.16,54.818 226.079,55.023 226.079,55.273 L226.079,56.987 C226.079,57.238 226.16,57.443 226.32,57.603 C226.481,57.764 226.686,57.844 226.936,57.844 L245.793,57.844 C246.043,57.844 246.248,57.764 246.409,57.603 C246.569,57.443 246.65,57.238 246.65,56.987 L246.65,56.987 Z" id="Path" fill="#FFFFFF"></path>
            <path d="M246.65,50.131 L246.65,48.416 C246.65,48.166 246.569,47.961 246.409,47.8 C246.248,47.64 246.043,47.56 245.793,47.56 L226.936,47.56 C226.686,47.56 226.481,47.64 226.32,47.8 C226.16,47.961 226.079,48.166 226.079,48.416 L226.079,50.131 C226.079,50.381 226.16,50.586 226.32,50.747 C226.481,50.907 226.686,50.987 226.936,50.987 L245.793,50.987 C246.043,50.987 246.248,50.907 246.409,50.747 C246.569,50.586 246.65,50.381 246.65,50.131 L246.65,50.131 Z" id="Path" fill="#FFFFFF"></path>
            <path d="M87.834,37.374 C88.334,37.874 88.762,38.553 89.12,39.41 C89.477,40.267 89.656,41.053 89.656,41.767 L89.656,72.624 C89.656,73.338 89.406,73.945 88.906,74.445 C88.406,74.945 87.799,75.195 87.085,75.195 L51.085,75.195 C50.371,75.195 49.763,74.945 49.264,74.445 C48.764,73.945 48.514,73.338 48.514,72.624 L48.514,29.767 C48.514,29.053 48.764,28.446 49.264,27.946 C49.764,27.446 50.371,27.196 51.085,27.196 L75.085,27.196 C75.799,27.196 76.585,27.375 77.442,27.732 C78.299,28.089 78.977,28.518 79.478,29.018 L87.834,37.374 L87.834,37.374 Z" id="Path" fill="#000000"></path>
            <path d="M77.04,31.428 C76.826,31.214 76.459,31.017 75.942,30.839 L75.942,40.91 L86.013,40.91 C85.834,40.392 85.638,40.026 85.424,39.811 L77.04,31.428 L77.04,31.428 L77.04,31.428 Z" id="Path" fill="#FFFFFF"></path>
            <path d="M86.228,71.768 L86.228,44.339 L75.084,44.339 C74.37,44.339 73.762,44.089 73.263,43.589 C72.763,43.089 72.513,42.482 72.513,41.767 L72.513,30.624 L51.942,30.624 L51.942,71.768 L86.228,71.768 L86.228,71.768 Z" id="Path" fill="#FFFFFF"></path>
            <path d="M80.732,56.338 L74.491,62.579 C74.402,62.669 74.299,62.713 74.183,62.713 C74.067,62.713 73.964,62.669 73.875,62.579 L73.206,61.91 C73.117,61.82 73.072,61.718 73.072,61.601 C73.072,61.484 73.117,61.382 73.206,61.293 L78.469,56.029 L73.206,50.765 C73.117,50.676 73.072,50.574 73.072,50.457 C73.072,50.34 73.117,50.238 73.206,50.148 L73.875,49.479 C73.964,49.389 74.067,49.345 74.183,49.345 C74.299,49.345 74.402,49.389 74.491,49.479 L80.732,55.72 C80.821,55.809 80.866,55.911 80.866,56.028 C80.866,56.145 80.822,56.249 80.732,56.338 L80.732,56.338 Z" id="Path" fill="#000000"></path>
            <path d="M71.934,47.619 L66.938,64.91 C66.902,65.025 66.833,65.112 66.73,65.171 C66.627,65.229 66.522,65.24 66.415,65.204 L65.585,64.976 C65.469,64.941 65.382,64.872 65.324,64.769 C65.266,64.665 65.255,64.556 65.29,64.441 L70.286,47.15 C70.322,47.035 70.391,46.948 70.494,46.889 C70.597,46.831 70.702,46.82 70.809,46.856 L71.639,47.084 C71.755,47.12 71.842,47.188 71.9,47.291 C71.958,47.395 71.969,47.504 71.934,47.619 L71.934,47.619 Z" id="Path" fill="#000000"></path>
            <path d="M64.019,61.91 L63.349,62.579 C63.26,62.669 63.157,62.713 63.041,62.713 C62.925,62.713 62.822,62.669 62.733,62.579 L56.492,56.338 C56.403,56.249 56.358,56.147 56.358,56.03 C56.358,55.913 56.403,55.811 56.492,55.722 L62.733,49.481 C62.822,49.391 62.925,49.347 63.041,49.347 C63.157,49.347 63.26,49.391 63.349,49.481 L64.019,50.15 C64.108,50.24 64.153,50.342 64.153,50.459 C64.153,50.576 64.108,50.678 64.019,50.767 L58.755,56.031 L64.019,61.295 C64.108,61.384 64.153,61.486 64.153,61.603 C64.153,61.72 64.107,61.82 64.019,61.91 L64.019,61.91 Z" id="Path" fill="#000000"></path>
            <path d="M303.55,46.762 C303.925,47.137 304.246,47.647 304.514,48.289 C304.783,48.932 304.916,49.521 304.916,50.057 L304.916,73.2 C304.916,73.736 304.728,74.191 304.354,74.566 C303.98,74.941 303.523,75.128 302.988,75.128 L275.988,75.128 C275.452,75.128 274.997,74.94 274.622,74.566 C274.247,74.192 274.06,73.736 274.06,73.2 L274.06,41.057 C274.06,40.521 274.248,40.066 274.622,39.691 C274.997,39.316 275.452,39.129 275.988,39.129 L293.988,39.129 C294.523,39.129 295.113,39.263 295.756,39.531 C296.4,39.799 296.908,40.121 297.283,40.495 L303.55,46.762 L303.55,46.762 Z" id="Path" fill="#000000"></path>
            <path d="M295.454,42.302 C295.293,42.141 295.018,41.994 294.63,41.86 L294.63,49.414 L302.184,49.414 C302.05,49.025 301.903,48.751 301.743,48.59 L295.454,42.302 L295.454,42.302 L295.454,42.302 Z" id="Path" fill="#FFFFFF"></path>
            <path d="M302.345,72.557 L302.345,51.985 L293.988,51.985 C293.452,51.985 292.997,51.797 292.622,51.423 C292.247,51.049 292.06,50.593 292.06,50.057 L292.06,41.7 L276.63,41.7 L276.63,72.557 L302.345,72.557 L302.345,72.557 Z" id="Path" fill="#FFFFFF"></path>
            <path d="M283.665991,61.8330562 L284.8906,61.8330562 L284.8906,63.1104 L283.665991,63.1104 L283.665991,61.8330562 Z M287.802709,55.7217281 L286.748022,55.7217281 L286.748022,54.5029781 L287.802709,54.5029781 L287.802709,55.7217281 Z M285.751928,64.6982906 C286.224587,64.6826655 286.508764,64.6406738 286.604467,64.5723141 C286.700171,64.5039543 286.748022,64.2900893 286.748022,63.9307125 L286.748022,56.8643062 L287.802709,56.8643062 L287.802709,64.0420406 C287.802709,64.4990742 287.728491,64.8408676 287.580053,65.0674312 C287.333958,65.4502457 286.867166,65.64165 286.179663,65.64165 C286.128881,65.64165 286.075171,65.6396969 286.01853,65.6357906 C285.961889,65.6318844 285.873022,65.6240719 285.751928,65.6123531 L285.751928,64.6982906 Z M290.040991,61.14165 C290.072241,61.4932143 290.160131,61.7627428 290.304663,61.9502437 C290.570289,62.2900892 291.031222,62.4600094 291.687475,62.4600094 C292.078102,62.4600094 292.421849,62.3750493 292.718725,62.2051266 C293.015601,62.0352038 293.164038,61.7725112 293.164038,61.4170406 C293.164038,61.147508 293.044898,60.942432 292.806616,60.8018062 C292.654271,60.7158683 292.353493,60.6162599 291.904272,60.5029781 L291.066381,60.2920406 C290.531222,60.1592275 290.136695,60.0107914 289.882788,59.8467281 C289.42966,59.5615704 289.2031,59.1670431 289.2031,58.6631344 C289.2031,58.0693814 289.416965,57.5889175 289.844702,57.2217281 C290.272438,56.8545388 290.847628,56.6709469 291.570288,56.6709469 C292.515605,56.6709469 293.197239,56.9482879 293.615209,57.5029781 C293.876929,57.8545424 294.003881,58.2334448 293.996069,58.6396969 L292.999975,58.6396969 C292.980444,58.4014144 292.89646,58.1846197 292.748022,57.9893062 C292.505833,57.7119611 292.085915,57.5732906 291.488256,57.5732906 C291.089817,57.5732906 290.788062,57.6494617 290.582983,57.8018062 C290.377904,57.9541508 290.275366,58.1553206 290.275366,58.4053219 C290.275366,58.6787607 290.41013,58.8975086 290.679663,59.0615719 C290.835913,59.1592286 291.06638,59.2451653 291.371069,59.3193844 L292.068334,59.4893062 C292.826151,59.6729009 293.333958,59.8506335 293.591772,60.0225094 C294.00193,60.292042 294.207006,60.7158659 294.207006,61.2939937 C294.207006,61.8525903 293.995094,62.3350073 293.571264,62.7412594 C293.147434,63.1475114 292.501932,63.3506344 291.634741,63.3506344 C290.701142,63.3506344 290.040016,63.1387224 289.651342,62.7148922 C289.262668,62.2910619 289.054663,61.7666531 289.027319,61.14165 L290.040991,61.14165 Z" id=".js" fill="#000000"></path>
            <path d="M29.503,46.762 C29.878,47.138 30.199,47.647 30.467,48.289 C30.735,48.932 30.869,49.521 30.869,50.057 L30.869,73.2 C30.869,73.736 30.681,74.191 30.307,74.566 C29.932,74.941 29.476,75.128 28.941,75.128 L1.941,75.128 C1.405,75.128 0.95,74.94 0.575,74.566 C0.2,74.192 0.013,73.736 0.013,73.2 L0.013,41.057 C0.013,40.522 0.201,40.066 0.575,39.691 C0.949,39.316 1.406,39.129 1.941,39.129 L19.941,39.129 C20.477,39.129 21.066,39.263 21.709,39.53 C22.352,39.798 22.861,40.12 23.236,40.494 L29.503,46.762 L29.503,46.762 Z" id="Path" fill="#000000"></path>
            <path d="M21.407,42.302 C21.246,42.141 20.972,41.994 20.583,41.86 L20.583,49.414 L28.137,49.414 C28.003,49.025 27.856,48.751 27.695,48.59 L21.407,42.302 L21.407,42.302 L21.407,42.302 Z" id="Path" fill="#FFFFFF"></path>
            <path d="M28.297,72.557 L28.297,51.985 L19.94,51.985 C19.404,51.985 18.949,51.797 18.574,51.423 C18.199,51.049 18.012,50.593 18.012,50.057 L18.012,41.7 L2.583,41.7 L2.583,72.557 L28.297,72.557 L28.297,72.557 Z" id="Path" fill="#FFFFFF"></path>
            <path d="M5.61039063,61.9667563 L6.835,61.9667563 L6.835,63.2441 L5.61039063,63.2441 L5.61039063,61.9667563 Z M12.8379297,57.3026938 C13.2812913,57.6464455 13.5478902,58.2382364 13.6377344,59.0780844 L12.6123438,59.0780844 C12.5498434,58.6913637 12.4072667,58.3700778 12.1846094,58.1142172 C11.961952,57.8583565 11.6045337,57.7304281 11.1123438,57.7304281 C10.4404654,57.7304281 9.96000145,58.0585498 9.6709375,58.7148031 C9.48343656,59.1405865 9.3896875,59.6659719 9.3896875,60.290975 C9.3896875,60.9198844 9.52249867,61.449176 9.788125,61.8788656 C10.0537513,62.3085553 10.4717159,62.5233969 11.0420313,62.5233969 C11.4795334,62.5233969 11.8262097,62.3896092 12.0820703,62.1220297 C12.337931,61.8544502 12.514687,61.4882429 12.6123438,61.0233969 L13.6377344,61.0233969 C13.5205463,61.8554323 13.2275805,62.4638246 12.7588281,62.8485922 C12.2900758,63.2333597 11.6904724,63.4257406 10.96,63.4257406 C10.1396834,63.4257406 9.48539307,63.1259389 8.99710938,62.5263266 C8.50882568,61.9267142 8.2646875,61.1776982 8.2646875,60.2792563 C8.2646875,59.1776882 8.53226295,58.3202749 9.06742188,57.7069906 C9.6025808,57.0937063 10.2842146,56.7870688 11.1123438,56.7870688 C11.8193785,56.7870688 12.3945681,56.958942 12.8379297,57.3026938 L12.8379297,57.3026938 Z M15.319375,61.27535 C15.3506252,61.6269143 15.4385149,61.8964428 15.5830469,62.0839438 C15.8486732,62.4237892 16.3096061,62.5937094 16.9658594,62.5937094 C17.3564863,62.5937094 17.7002329,62.5087493 17.9971094,62.3388266 C18.2939859,62.1689038 18.4424219,61.9062112 18.4424219,61.5507406 C18.4424219,61.281208 18.3232824,61.076132 18.085,60.9355063 C17.9326555,60.8495683 17.6318772,60.7499599 17.1826563,60.6366781 L16.3447656,60.4257406 C15.8096067,60.2929275 15.4150794,60.1444914 15.1611719,59.9804281 C14.7080446,59.6952704 14.4814844,59.3007431 14.4814844,58.7968344 C14.4814844,58.2030814 14.6953494,57.7226175 15.1230859,57.3554281 C15.5508225,56.9882388 16.126012,56.8046469 16.8486719,56.8046469 C17.7939891,56.8046469 18.4756229,57.0819879 18.8935938,57.6366781 C19.1553138,57.9882424 19.2822657,58.3671448 19.2744531,58.7733969 L18.2783594,58.7733969 C18.258828,58.5351144 18.1748445,58.3183197 18.0264063,58.1230063 C17.7842175,57.8456611 17.3642999,57.7069906 16.7666406,57.7069906 C16.3682011,57.7069906 16.0664463,57.7831617 15.8613672,57.9355063 C15.656288,58.0878508 15.55375,58.2890206 15.55375,58.5390219 C15.55375,58.8124607 15.6885143,59.0312086 15.9580469,59.1952719 C16.1142977,59.2929286 16.3447641,59.3788653 16.6494531,59.4530844 L17.3467188,59.6230063 C18.104535,59.8066009 18.6123425,59.9843335 18.8701563,60.1562094 C19.2803146,60.425742 19.4853906,60.8495659 19.4853906,61.4276938 C19.4853906,61.9862903 19.2734787,62.4687073 18.8496484,62.8749594 C18.4258182,63.2812114 17.7803168,63.4843344 16.913125,63.4843344 C15.9795266,63.4843344 15.3184004,63.2724224 14.9297266,62.8485922 C14.5410527,62.4247619 14.333047,61.9003531 14.3057031,61.27535 L15.319375,61.27535 Z M21.319375,61.27535 C21.3506252,61.6269143 21.4385149,61.8964428 21.5830469,62.0839438 C21.8486732,62.4237892 22.3096061,62.5937094 22.9658594,62.5937094 C23.3564863,62.5937094 23.7002329,62.5087493 23.9971094,62.3388266 C24.2939859,62.1689038 24.4424219,61.9062112 24.4424219,61.5507406 C24.4424219,61.281208 24.3232824,61.076132 24.085,60.9355063 C23.9326555,60.8495683 23.6318772,60.7499599 23.1826563,60.6366781 L22.3447656,60.4257406 C21.8096067,60.2929275 21.4150794,60.1444914 21.1611719,59.9804281 C20.7080446,59.6952704 20.4814844,59.3007431 20.4814844,58.7968344 C20.4814844,58.2030814 20.6953494,57.7226175 21.1230859,57.3554281 C21.5508225,56.9882388 22.126012,56.8046469 22.8486719,56.8046469 C23.7939891,56.8046469 24.4756229,57.0819879 24.8935938,57.6366781 C25.1553138,57.9882424 25.2822657,58.3671448 25.2744531,58.7733969 L24.2783594,58.7733969 C24.258828,58.5351144 24.1748445,58.3183197 24.0264063,58.1230063 C23.7842175,57.8456611 23.3642999,57.7069906 22.7666406,57.7069906 C22.3682011,57.7069906 22.0664463,57.7831617 21.8613672,57.9355063 C21.656288,58.0878508 21.55375,58.2890206 21.55375,58.5390219 C21.55375,58.8124607 21.6885143,59.0312086 21.9580469,59.1952719 C22.1142977,59.2929286 22.3447641,59.3788653 22.6494531,59.4530844 L23.3467188,59.6230063 C24.104535,59.8066009 24.6123425,59.9843335 24.8701563,60.1562094 C25.2803146,60.425742 25.4853906,60.8495659 25.4853906,61.4276938 C25.4853906,61.9862903 25.2734787,62.4687073 24.8496484,62.8749594 C24.4258182,63.2812114 23.7803168,63.4843344 22.913125,63.4843344 C21.9795266,63.4843344 21.3184004,63.2724224 20.9297266,62.8485922 C20.5410527,62.4247619 20.333047,61.9003531 20.3057031,61.27535 L21.319375,61.27535 Z" id=".css" fill="#000000"></path>
        </g>
    </g>
</svg>
