<?xml version="1.0" encoding="utf-8"?>
<!-- Generator: Adobe Illustrator 19.2.0, SVG Export Plug-In . SVG Version: 6.00 Build 0)  -->
<svg version="1.1" id="Layer_1" xmlns="http://www.w3.org/2000/svg" xmlns:xlink="http://www.w3.org/1999/xlink" x="0px" y="0px"
	 viewBox="0 0 24 24" style="enable-background:new 0 0 24 24;" xml:space="preserve">
<path d="M23.7,22.7c0,0-1.2-2.1-3.3-2.1c-2,0-3.2,2.1-7.2,2.1c-9,0-13.2-7.5-13.2-7.5c8.1,5.3,13.6,1.5,13.6,1.5
	C9.9,14.7,2.2,4.6,2.2,4.6c6.7,5.7,9.6,7.2,9.6,7.2c-1.7-1.4-6.6-8.5-6.6-8.5c3.9,3.9,11.6,9.5,11.6,9.5c2.2-6.1-2.1-11.5-2.1-11.5
	c10.5,7.2,7.1,15.1,7.1,15.1S24.9,19.8,23.7,22.7z"/>
</svg>
