<?xml version="1.0" encoding="UTF-8" standalone="no"?>
<svg width="177px" height="160px" viewBox="0 0 177 160" version="1.1" xmlns="http://www.w3.org/2000/svg" xmlns:xlink="http://www.w3.org/1999/xlink">
    <!-- Generator: Sketch 3.6.1 (26313) - http://www.bohemiancoding.com/sketch -->
    <title>socket-schedule</title>
    <desc>Created with Sketch.</desc>
    <defs></defs>
    <g id="Page-1" stroke="none" stroke-width="1" fill="none" fill-rule="evenodd">
        <g id="socket-schedule" fill="#020202">
            <g id="Layer_1">
                <path d="M175.413531,74.934 L136.118291,4.711 C134.612749,1.867 131.694145,0 128.32905,0 L48.6755419,0 C45.3134302,0 42.392838,1.867 40.8872961,4.711 L1.59305028,74.934 C0.530022346,76.354 0,78.134 0,80 C0,81.866 0.530022346,83.646 1.59305028,85.066 L40.8882905,155.289 C42.3938324,158.134 45.3144246,160 48.6765363,160 L128.330045,160 C131.694145,160 134.612749,158.134 136.119285,155.289 L175.41552,85.066 C176.475564,83.646 177.006581,81.866 177.006581,80 C177.006581,78.134 176.475564,76.354 175.413531,74.934 L175.413531,74.934 Z M88.5027933,119.91 C66.1772179,119.91 48.1296089,101.95 48.1296089,80 C48.1296089,57.958 66.2050615,40.089 88.5027933,40.089 C99.2116313,40.089 109.479944,44.294 117.051408,51.778 C124.622872,59.264 128.875978,69.415 128.875978,80 C128.875978,102.041 110.799531,119.91 88.5027933,119.91 L88.5027933,119.91 Z M88.7563687,47.875 C70.918581,47.875 56.4588156,62.17 56.4588156,79.804 C56.4588156,97.437 70.9195754,111.732 88.7563687,111.732 C106.594156,111.732 121.053922,97.437 121.053922,79.804 C121.054916,62.17 106.595151,47.875 88.7563687,47.875 L88.7563687,47.875 Z M106.126782,96.85 L84.9318547,84.277 L84.9318547,60.332 L90.9878324,60.332 L90.9878324,81.285 L109.155765,91.941 L106.126782,96.85 L106.126782,96.85 Z" id="Shape"></path>
            </g>
        </g>
    </g>
</svg>