<?xml version="1.0" encoding="UTF-8" standalone="no"?>
<svg width="177px" height="160px" viewBox="0 0 177 160" version="1.1" xmlns="http://www.w3.org/2000/svg" xmlns:xlink="http://www.w3.org/1999/xlink">
    <!-- Generator: Sketch 3.6.1 (26313) - http://www.bohemiancoding.com/sketch -->
    <title>socket-channel</title>
    <desc>Created with Sketch.</desc>
    <defs></defs>
    <g id="Page-1" stroke="none" stroke-width="1" fill="none" fill-rule="evenodd">
        <g id="socket-channel" fill="#010101">
            <path d="M175.412536,74.933 L136.118291,4.711 C134.611754,1.867 131.694145,0 128.32905,0 L48.6765363,0 C45.3134302,0 42.392838,1.867 40.8882905,4.711 L1.59305028,74.933 C0.530022346,76.355 0,78.134 0,80 C0,81.866 0.530022346,83.646 1.59305028,85.066 L40.8882905,155.289 C42.392838,158.134 45.3134302,160 48.6765363,160 L128.32905,160 C131.694145,160 134.611754,158.134 136.118291,155.289 L175.413531,85.066 C176.475564,83.646 177.006581,81.866 177.006581,80 C177.006581,78.134 176.475564,76.355 175.412536,74.933 L175.412536,74.933 Z M112.494011,83.967 L112.494011,103.897 C112.494011,106.649 110.411709,108.879 107.842145,108.879 C107.050592,108.879 106.306771,108.879 103.469709,106.389 C100.585911,103.897 95.701352,98.914 90.6785698,96.424 C86.0247151,94.131 81.2336313,93.932 76.4882905,93.932 L82.1176648,110.475 L82.2568827,111.371 C82.2568827,112.746 81.2157318,113.861 79.9309497,113.861 L70.6272179,113.861 C69.6039665,113.861 68.719933,113.164 68.4405028,112.168 L62.2065251,93.932 L61.3224916,93.932 C58.7529274,93.932 56.6706257,91.703 56.6706257,88.951 C51.5324916,88.951 47.3668939,84.49 47.3668939,78.987 C47.3668939,73.484 51.5314972,69.022 56.6706257,69.022 C56.6706257,66.27 58.7529274,64.04 61.3224916,64.04 L75.2780894,64.04 C80.4420782,64.04 85.6050726,64.04 90.6755866,61.548 C95.7003575,59.057 100.584916,54.074 103.467721,51.583 C106.305777,49.092 107.050592,49.092 107.840156,49.092 C110.409721,49.092 112.492022,51.323 112.492022,54.074 L112.492022,74.004 C115.061587,74.004 117.145877,76.234 117.145877,78.986 C117.146872,81.736 115.063575,83.967 112.494011,83.967 L112.494011,83.967 Z M132.502603,96.623 L125.895721,89.547 C128.406615,86.858 129.989721,83.12 129.989721,78.985 C129.989721,74.849 128.406615,71.112 125.895721,68.422 L132.502603,61.347 C136.689084,65.881 139.294447,72.109 139.294447,78.985 C139.294447,85.859 136.689084,92.088 132.502603,96.623 L132.502603,96.623 Z" id="Shape"></path>
        </g>
    </g>
</svg>