<?xml version="1.0" encoding="UTF-8" standalone="no"?>
<svg width="178px" height="160px" viewBox="0 0 178 160" version="1.1" xmlns="http://www.w3.org/2000/svg" xmlns:xlink="http://www.w3.org/1999/xlink">
    <!-- Generator: Sketch 3.6.1 (26313) - http://www.bohemiancoding.com/sketch -->
    <title>socket-user</title>
    <desc>Created with Sketch.</desc>
    <defs></defs>
    <g id="Page-1" stroke="none" stroke-width="1" fill="none" fill-rule="evenodd">
        <g id="socket-user" fill="#010101">
            <g id="Layer_1">
                <path d="M176.398,74.934 L136.883,4.711 C135.368,1.867 132.434,0 129.05,0 L48.949,0 C45.568,0 42.631,1.867 41.117,4.711 L1.602,74.934 C0.533,76.355 0,78.134 0,80 C0,81.866 0.533,83.646 1.602,85.066 L41.118,155.289 C42.632,158.134 45.569,160 48.95,160 L129.051,160 C132.434,160 135.369,158.134 136.884,155.289 L176.4,85.066 C177.466,83.646 178,81.866 178,80 C178,78.134 177.467,76.355 176.398,74.934 L176.398,74.934 Z M99.909,50.909 C107.941,50.909 114.454,57.422 114.454,65.454 C114.454,73.486 107.941,80 99.909,80 C91.876,80 85.363,73.487 85.363,65.455 C85.363,57.423 91.876,50.909 99.909,50.909 L99.909,50.909 Z M67.182,90.909 L59.91,90.909 L59.91,80 L49,80 L49,72.727 L59.909,72.727 L59.909,61.818 L67.181,61.818 L67.181,72.727 L78.09,72.727 L78.09,80 L67.182,80 L67.182,90.909 L67.182,90.909 Z M129,109.091 L70.818,109.091 L70.818,101.819 C70.818,92.11 90.2,87.273 99.909,87.273 C109.618,87.273 129,92.109 129,101.818 L129,109.091 L129,109.091 Z" id="Shape"></path>
            </g>
        </g>
    </g>
</svg>