<?xml version="1.0" encoding="UTF-8" standalone="no"?>
<svg width="177px" height="160px" viewBox="0 0 177 160" version="1.1" xmlns="http://www.w3.org/2000/svg" xmlns:xlink="http://www.w3.org/1999/xlink">
    <!-- Generator: Sketch 3.6.1 (26313) - http://www.bohemiancoding.com/sketch -->
    <title>socket-channel</title>
    <desc>Created with Sketch.</desc>
    <defs></defs>
    <g id="Page-1" stroke="none" stroke-width="1" fill="none" fill-rule="evenodd">
        <g id="socket-channel">
            <g id="Page-1">
                <g id="socket-channel">
                    <path d="M175.412536,74.933 L136.118291,4.711 C134.611754,1.867 131.694145,0 128.32905,0 L48.6765363,0 C45.3134302,0 42.392838,1.867 40.8882905,4.711 L1.59305028,74.933 C0.530022346,76.355 0,78.134 0,80 C0,81.866 0.530022346,83.646 1.59305028,85.066 L40.8882905,155.289 C42.392838,158.134 45.3134302,160 48.6765363,160 L128.32905,160 C131.694145,160 134.611754,158.134 136.118291,155.289 L175.413531,85.066 C176.475564,83.646 177.006581,81.866 177.006581,80 C177.006581,78.134 176.475564,76.355 175.412536,74.933 L175.412536,74.933 L175.412536,74.933 Z" id="Shape" fill="#010101"></path>
                    <path d="M110.805014,89.9999 C111.215014,86.7153918 111.500014,83.3953835 111.500014,79.999875 C111.500014,76.6048665 111.215014,73.2848582 110.805014,70.0001 L127.685006,70.0001 C128.515005,73.200358 129.000005,76.5398663 129.000005,79.999875 C129.000005,83.4603837 128.515005,86.799892 127.685006,89.9999 L110.805014,89.9999 Z M101.965019,117.80497 C104.965017,112.239956 107.245016,106.249941 108.860015,99.999925 L123.605008,99.999925 C118.81001,108.269946 111.150014,114.649962 101.965019,117.80497 L101.965019,117.80497 Z M100.695019,89.9999 L77.3000308,89.9999 C76.8250311,86.7248918 76.4999813,83.4053835 76.4999813,79.999875 C76.4999813,76.5948665 76.8250311,73.2753582 77.3000308,70.0001 L100.695019,70.0001 C101.170019,73.2753582 101.500019,76.5948665 101.500019,79.999875 C101.500019,83.4053835 101.170019,86.7248918 100.695019,89.9999 L100.695019,89.9999 Z M88.990025,119.819975 C84.8300271,113.81996 81.5800287,107.155443 79.4450298,99.999925 L98.5500202,99.999925 C96.4100213,107.155443 93.1600229,113.81996 88.990025,119.819975 L88.990025,119.819975 Z M69.1300349,60.000075 L54.3849923,60.000075 C59.1750399,51.7200043 66.8349361,45.3299383 76.0249815,42.1850805 C73.024983,47.7499444 70.7449841,53.7399593 69.1300349,60.000075 L69.1300349,60.000075 Z M54.3849923,99.999925 L69.1300349,99.999925 C70.7449841,106.254941 73.024983,112.250456 76.0249815,117.81497 C66.8349361,114.670462 59.1750399,108.280446 54.3849923,99.999925 L54.3849923,99.999925 Z M50.3049443,89.9999 C49.4800448,86.799892 48.999995,83.4603837 48.999995,79.999875 C48.999995,76.5398663 49.4800448,73.200358 50.3049443,70.0001 L67.1900359,70.0001 C66.7799861,73.2848582 66.4999863,76.6048665 66.4999863,79.999875 C66.4999863,83.3953835 66.7799861,86.7153918 67.1900359,89.9999 L50.3049443,89.9999 Z M88.990025,40.1800755 C93.1600229,46.1801405 96.4100213,52.8449071 98.5500202,60.000075 L79.4450298,60.000075 C81.5800287,52.8449071 84.8300271,46.1801405 88.990025,40.1800755 L88.990025,40.1800755 Z M123.605008,60.000075 L108.860015,60.000075 C107.245016,53.7500594 104.965017,47.7600444 101.965019,42.1951305 C111.150014,45.3500384 118.81001,51.7301043 123.605008,60.000075 L123.605008,60.000075 Z M88.970025,30 C61.3399388,30 39,52.385006 39,79.999875 C39,107.615444 61.3399388,130 88.970025,130 C116.605011,130 139,107.615444 139,79.999875 C139,52.385006 116.605011,30 88.970025,30 L88.970025,30 Z" id="Shape" fill="#FFFFFF"></path>
                </g>
            </g>
        </g>
    </g>
</svg>