<?xml version="1.0" encoding="UTF-8" standalone="no"?>
<svg width="178px" height="160px" viewBox="0 0 178 160" version="1.1" xmlns="http://www.w3.org/2000/svg" xmlns:xlink="http://www.w3.org/1999/xlink">
    <!-- Generator: Sketch 3.6.1 (26313) - http://www.bohemiancoding.com/sketch -->
    <title>socket-push</title>
    <desc>Created with Sketch.</desc>
    <defs></defs>
    <g id="Page-1" stroke="none" stroke-width="1" fill="none" fill-rule="evenodd">
        <g id="socket-push" fill="#020202">
            <g id="Layer_1">
                <path d="M176.398,74.934 L136.882,4.711 C135.368,1.867 132.434,0 129.05,0 L48.949,0 C45.568,0 42.631,1.867 41.117,4.711 L1.602,74.934 C0.533,76.355 0,78.134 0,80 C0,81.866 0.533,83.646 1.602,85.066 L41.118,155.289 C42.632,158.134 45.568,160 48.95,160 L129.051,160 C132.434,160 135.369,158.134 136.884,155.289 L176.4,85.066 C177.466,83.646 178,81.866 178,80 C178,78.134 177.467,76.355 176.398,74.934 L176.398,74.934 Z M122.5,97.4 C122.5,101.099 119.5,104.099 115.8,104.099 L68.9,104.099 L55.5,117.499 L55.5,57.2 C55.5,53.499 58.5,50.5 62.2,50.5 L115.8,50.5 C119.5,50.5 122.5,53.5 122.5,57.2 L122.5,97.4 L122.5,97.4 Z M62.2,57.2 L115.8,57.2 L115.8,97.4 L68.9,97.4 L62.2,104.099 L62.2,57.2 L62.2,57.2 Z" id="Shape"></path>
            </g>
        </g>
    </g>
</svg>