<?xml version="1.0" encoding="UTF-8" standalone="no"?>
<svg width="178px" height="160px" viewBox="0 0 178 160" version="1.1" xmlns="http://www.w3.org/2000/svg" xmlns:xlink="http://www.w3.org/1999/xlink">
    <!-- Generator: Sketch 3.6.1 (26313) - http://www.bohemiancoding.com/sketch -->
    <title>socket-users</title>
    <desc>Created with Sketch.</desc>
    <defs></defs>
    <g id="Page-1" stroke="none" stroke-width="1" fill="none" fill-rule="evenodd">
        <g id="socket-users" fill="#020202">
            <g id="Layer_1">
                <path d="M176.398,74.934 L136.882,4.711 C135.368,1.867 132.434,0 129.05,0 L48.949,0 C45.568,0 42.631,1.867 41.117,4.711 L1.602,74.934 C0.533,76.355 0,78.134 0,80 C0,81.866 0.533,83.646 1.602,85.066 L41.119,155.289 C42.633,158.134 45.569,160 48.951,160 L129.052,160 C132.435,160 135.37,158.134 136.885,155.289 L176.4,85.066 C177.466,83.646 178,81.866 178,80 C178,78.134 177.467,76.355 176.398,74.934 L176.398,74.934 Z M104.534,54.248 C110.363,54.248 115.088,59.062 115.088,65 C115.088,70.938 110.363,75.752 104.534,75.752 C98.705,75.752 93.98,70.938 93.98,65 C93.98,59.062 98.705,54.248 104.534,54.248 L104.534,54.248 Z M74.534,54.248 C80.363,54.248 85.088,59.062 85.088,65 C85.088,70.938 80.363,75.752 74.534,75.752 C68.706,75.752 63.98,70.938 63.98,65 C63.98,59.062 68.706,54.248 74.534,54.248 L74.534,54.248 Z M98.231,105.752 L48.98,105.752 L48.98,96.792 C48.98,88.441 65.409,84.248 73.606,84.248 C81.802,84.248 98.231,88.441 98.231,96.792 L98.231,105.752 L98.231,105.752 Z M129.019,105.752 L107.91,105.752 L107.91,96.792 C107.91,91.416 105.06,87.438 100.98,84.428 C102.21,84.248 103.373,84.248 104.392,84.248 C112.589,84.248 129.018,88.441 129.018,96.792 L129.018,105.752 L129.019,105.752 Z" id="Shape"></path>
            </g>
        </g>
    </g>
</svg>