<?xml version="1.0" encoding="UTF-8" standalone="no"?>
<svg width="27px" height="24px" viewBox="0 0 27 24" version="1.1" xmlns="http://www.w3.org/2000/svg" xmlns:xlink="http://www.w3.org/1999/xlink">
    <!-- Generator: Sketch 39.1 (31720) - http://www.bohemiancoding.com/sketch -->
    <title>socket-data</title>
    <desc>Created with Sketch.</desc>
    <defs></defs>
    <g id="Page-1" stroke="none" stroke-width="1" fill="none" fill-rule="evenodd">
        <g id="socket-data">
            <path d="M27,12 C27,12.2799 26.9191517,12.5469 26.757,12.7599 L20.7628483,23.29335 C20.5330449,23.7201 20.0878483,24 19.5746966,24 L7.42469663,24 C6.91169663,24 6.46619663,23.7201 6.23669663,23.29335 L0.243,12.7599 C0.0808483146,12.5469 0,12.2799 0,12 C0,11.7201 0.0808483146,11.45325 0.243,11.2401 L6.237,0.70665 C6.4665,0.28005 6.912,0 7.425,0 L19.575,0 C20.0883034,0 20.5333483,0.28005 20.7631517,0.70665 L26.7571517,11.2401 C26.9191517,11.45325 27,11.7201 27,12 L27,12 Z" id="Shape" fill="#010101"></path>
            <path d="M16.5,8.11111111 L16.5,5 L15,5 L15,8.11111111 L12,8.11111111 L12,5 L10.5,5 L10.5,8.11111111 L10.5,8.11111111 C9.75,8.11111111 9,8.88888889 9,9.66666667 L9,13.9444444 L11.625,16.6666667 L11.625,19 L15.375,19 L15.375,16.6666667 L18,13.9444444 L18,9.66666667 C18,8.88888889 17.25,8.11111111 16.5,8.11111111 L16.5,8.11111111 Z" id="Shape" fill="#FFFFFF"></path>
        </g>
    </g>
</svg>