<?xml version="1.0" encoding="UTF-8" standalone="no"?>
<svg width="177px" height="160px" viewBox="0 0 177 160" version="1.1" xmlns="http://www.w3.org/2000/svg" xmlns:xlink="http://www.w3.org/1999/xlink">
    <!-- Generator: Sketch 3.6.1 (26313) - http://www.bohemiancoding.com/sketch -->
    <title>socket-channel</title>
    <desc>Created with Sketch.</desc>
    <defs></defs>
    <g id="Page-1" stroke="none" stroke-width="1" fill="none" fill-rule="evenodd">
        <g id="socket-channel">
            <path d="M175.412536,74.933 L136.118291,4.711 C134.611754,1.867 131.694145,0 128.32905,0 L48.6765363,0 C45.3134302,0 42.392838,1.867 40.8882905,4.711 L1.59305028,74.933 C0.530022346,76.355 0,78.134 0,80 C0,81.866 0.530022346,83.646 1.59305028,85.066 L40.8882905,155.289 C42.392838,158.134 45.3134302,160 48.6765363,160 L128.32905,160 C131.694145,160 134.611754,158.134 136.118291,155.289 L175.413531,85.066 C176.475564,83.646 177.006581,81.866 177.006581,80 C177.006581,78.134 176.475564,76.355 175.412536,74.933 L175.412536,74.933 Z" id="Shape" fill="#010101"></path>
            <path d="M119.440099,111.111126 L57.5654873,111.11557 L57.5654873,48.8888741 L101.761639,48.8888741 L101.761639,40 L57.5654873,40 C52.6818125,40 48.726257,43.9777711 48.726257,48.8888741 L48.726257,111.111126 C48.726257,116.022229 52.6818125,120 57.5654873,120 L119.440099,120 C124.319354,120 128.27933,116.022229 128.27933,111.111126 L128.27933,75.5556296 L119.440099,75.5556296 L119.440099,111.111126 Z M70.4442458,71.4934142 L64.19491,77.7778481 L84.0831782,97.7778148 L128.27933,53.3333111 L122.029994,47.0488771 L84.0831782,85.2089469 L70.4442458,71.4934142 L70.4442458,71.4934142 Z" id="Shape" fill="#FFFFFF"></path>
        </g>
    </g>
</svg>