<svg xmlns="http://www.w3.org/2000/svg" preserveAspectRatio="xMidYMid" width="48" height="48" viewBox="0 0 45.9 48"><defs><style>  
      .cls-1 {
        fill: #666;
        fill-rule: evenodd;
      }
    </style></defs><path d="M45.6 40.7C45.4 40.9 45.2 41 44.9 41 44.6 41 44.4 40.9 44.2 40.7L42.9 39.4 42.9 40.3C42.9 44.5 39.5 48 35.2 48 34.2 48 33.2 47.8 32.2 47.4 31.7 47.2 31.5 46.6 31.7 46.1 31.9 45.6 32.5 45.3 33 45.6 33.7 45.8 34.4 46 35.2 46 38.4 46 40.9 43.4 40.9 40.3L40.9 39.4 39.6 40.7C39.2 41.1 38.6 41.1 38.2 40.7 37.8 40.3 37.8 39.7 38.2 39.3L41.2 36.3C41.2 36.3 41.2 36.3 41.2 36.3 41.3 36.2 41.4 36.1 41.5 36.1 41.8 36 42 36 42.3 36.1 42.4 36.1 42.5 36.2 42.6 36.3 42.6 36.3 42.6 36.3 42.6 36.3L45.6 39.3C46 39.7 46 40.3 45.6 40.7ZM42.9 28.8C42.4 28.8 42 28.6 42 28L42 22.8C38.6 25.9 31.1 28 21.9 28 12.8 28 5.4 25.9 2 22.9L2 29C2 31.6 7.3 34.9 17 35.8 17.6 35.8 18 36.3 17.9 36.9 17.9 37.4 17.5 37.8 16.9 37.8 16.9 37.8 16.9 37.8 16.8 37.8 10 37.1 4.7 35.3 2 32.8L2 38.8C2 38.8 2 38.9 2 38.9 2 38.9 2 39 2 39 2 42.3 10.2 46 21.9 46 22.5 46 22.9 46.4 22.9 47 22.9 47.6 22.5 48 21.9 48 9.4 48 0 44.1 0 39 0 39 0 38.9 0 38.9 0 38.9 0 38.8 0 38.8L0 9.2C0 9.2 0 9.2 0 9.1 0 9.1 0 9 0 9 0 3.9 9.4 0 21.9 0 34.5 0 43.9 3.9 43.9 9 43.9 9 43.9 9.1 43.9 9.1 43.9 9.2 43.9 9.2 43.9 9.2L43.9 27.8C43.9 28.3 43.5 28.8 42.9 28.8ZM21.9 2C10.2 2 2 5.7 2 9 2 12.3 10.2 16 21.9 16 33.7 16 41.9 12.3 41.9 9 41.9 5.7 33.7 2 21.9 2ZM42 12.8C38.6 15.9 31.1 18 21.9 18 12.8 18 5.4 15.9 2 12.9L2 19C2 22.3 10.2 26 21.9 26 33.7 26 41.9 22.3 41.9 19 41.9 18.9 41.9 18.7 42 18.6L42 12.8ZM25.6 39.3L26.9 40.6 26.9 39.7C26.9 35.5 30.4 32 34.6 32 35.7 32 36.7 32.2 37.6 32.6 38.1 32.8 38.4 33.4 38.2 33.9 37.9 34.4 37.4 34.7 36.8 34.4 36.1 34.2 35.4 34 34.6 34 31.5 34 28.9 36.6 28.9 39.7L28.9 40.6 30.2 39.3C30.6 38.9 31.2 38.9 31.6 39.3 32 39.7 32 40.3 31.6 40.7L28.6 43.7C28.6 43.8 28.4 43.9 28.3 43.9 28.2 44 28.1 44 27.9 44 27.8 44 27.7 44 27.6 43.9 27.4 43.9 27.3 43.8 27.2 43.7L24.2 40.7C23.8 40.3 23.8 39.7 24.2 39.3 24.6 38.9 25.3 38.9 25.6 39.3Z" class="cls-1"/></svg>
 