<svg xmlns="http://www.w3.org/2000/svg" preserveAspectRatio="xMidYMid" width="48" height="48" viewBox="0 0 47.9 48"><defs><style>  
      .cls-1 {
        fill: #666;
        fill-rule: evenodd;
      }
    </style></defs><path d="M47.7 35.6L38.9 47.6C38.7 47.8 38.4 48 38.2 48 38.1 48 38.1 48 38.1 48 37.8 48 37.6 47.9 37.4 47.8L30.3 41.8C29.8 41.4 29.8 40.8 30.1 40.4 30.5 39.9 31.1 39.9 31.6 40.2L37.9 45.6 46.1 34.4C46.4 34 47 33.9 47.5 34.2 47.9 34.5 48 35.1 47.7 35.6ZM7 39C6.4 39 6 38.6 6 38 6 37.4 6.4 37 7 37L11 37C11.5 37 12 37.4 12 38 12 38.6 11.5 39 11 39L7 39ZM40.9 33L2 33 2 43C2 44.7 3.3 46 5 46L26.9 46C27.5 46 27.9 46.4 27.9 47 27.9 47.6 27.5 48 26.9 48L5 48C2.2 48 0 45.8 0 43L0 5C0 2.2 2.2 0 5 0L36.9 0C39.6 0 42 2.2 42 5L42 32C42 32.6 41.4 33 40.9 33ZM40 5C40 3.3 38.5 2 36.9 2L5 2C3.3 2 2 3.3 2 5L2 15 40 15 40 5ZM40 17L2 17 2 31 40 31 40 17ZM7 21L11 21C11.5 21 12 21.4 12 22 12 22.6 11.5 23 11 23L7 23C6.4 23 6 22.6 6 22 6 21.4 6.4 21 7 21ZM7 6L11 6C11.5 6 12 6.4 12 7 12 7.6 11.5 8 11 8L7 8C6.4 8 6 7.6 6 7 6 6.4 6.4 6 7 6Z" class="cls-1"/></svg>