<svg xmlns="http://www.w3.org/2000/svg" width="48" height="48" viewBox="0 0 33 24"><g fill="none"><g fill="#666"><path d="M32 16.6L27.9 23.9C27.9 23.9 27.8 23.9 27.8 24 27.7 24 27.7 24 27.6 24L19.4 24C19.4 24 19.3 24 19.3 24 19.2 23.9 19.2 23.9 19.2 23.9L15 16.6C15 16.6 15 16.5 15 16.5 15 16.5 15 16.4 15 16.4L19.2 9.1C19.2 9.1 19.2 9.1 19.3 9 19.3 9 19.4 9 19.4 9L27.6 9C27.7 9 27.7 9 27.8 9 27.8 9.1 27.9 9.1 27.9 9.1L32 16.4C32 16.4 32 16.5 32 16.5 32 16.5 32 16.6 32 16.6ZM27.3 10L19.8 10 16 16.5 19.8 23 27.3 23 31 16.5 27.3 10ZM17 7.6L12.9 14.9C12.9 14.9 12.8 14.9 12.8 15 12.7 15 12.7 15 12.6 15L4.4 15C4.4 15 4.3 15 4.3 15 4.2 14.9 4.2 14.9 4.2 14.9L0 7.6C0 7.6 0 7.5 0 7.5 0 7.5 0 7.4 0 7.4L4.2 0.1C4.2 0.1 4.2 0.1 4.3 0 4.3 0 4.4 0 4.4 0L12.6 0C12.7 0 12.7 0 12.8 0 12.8 0.1 12.9 0.1 12.9 0.1L17 7.4C17 7.4 17 7.5 17 7.5 17 7.5 17 7.6 17 7.6ZM12.3 1L4.8 1 1 7.5 4.8 14 12.3 14 16 7.5 12.3 1Z"/></g></g></svg>