<svg xmlns="http://www.w3.org/2000/svg" width="48" height="48" viewBox="0 0 33 28"><g fill="none"><g fill="#666"><path d="M32.7 14.3L24.9 27.7C24.8 27.8 24.7 27.9 24.7 27.9 24.6 28 24.5 28 24.4 28L8.8 28C8.7 28 8.6 28 8.5 27.9 8.4 27.9 8.4 27.8 8.3 27.7L0.6 14.3C0.5 14.2 0.5 14.1 0.5 14 0.5 13.9 0.5 13.8 0.6 13.7L8.3 0.3C8.4 0.2 8.4 0.1 8.5 0.1 8.6 0 8.7 0 8.8 0L24.4 0C24.5 0 24.6 0 24.7 0.1 24.7 0.1 24.8 0.2 24.9 0.3L32.7 13.7C32.7 13.8 32.7 13.9 32.7 14 32.7 14.1 32.7 14.2 32.7 14.3ZM24.1 1.1L9.1 1.1 1.6 14 9.1 26.9 24.1 26.9 31.6 14 24.1 1.1Z"/></g></g></svg>