<svg xmlns="http://www.w3.org/2000/svg" preserveAspectRatio="xMidYMid" width="48" height="48" viewBox="0 0 48 40"><defs><style>  
      .cls-1 {
        fill: #666;
        fill-rule: evenodd;
      }
    </style></defs><path d="M45 40L3 40C1.3 40 0 38.7 0 37L0 3C0 1.3 1.3 0 3 0L45 0C46.7 0 48 1.3 48 3L48 37C48 38.7 46.7 40 45 40ZM46 3C46 2.4 45.6 2 45 2L3 2C2.4 2 2 2.4 2 3L2 8 46 8 46 3ZM46 10L2 10 2 37C2 37.6 2.4 38 3 38L45 38C45.6 38 46 37.6 46 37L46 10ZM35 32L25 32C24.4 32 24 31.6 24 31 24 30.4 24.4 30 25 30L35 30C35.6 30 36 30.4 36 31 36 31.6 35.6 32 35 32ZM13.7 31.7C13.5 31.9 13.3 32 13 32 12.7 32 12.5 31.9 12.3 31.7 11.9 31.3 11.9 30.7 12.3 30.3L17.6 25 12.3 19.7C11.9 19.3 11.9 18.7 12.3 18.3 12.7 17.9 13.3 17.9 13.7 18.3L19.7 24.3C20.1 24.7 20.1 25.3 19.7 25.7L13.7 31.7ZM5 4L5 4C5.6 4 6 4.4 6 5 6 5.6 5.6 6 5 6 4.5 6 4 5.6 4 5 4 4.4 4.5 4 5 4ZM8 4L8 4C8.6 4 9 4.4 9 5 9 5.6 8.6 6 8 6 7.5 6 7 5.6 7 5 7 4.4 7.5 4 8 4ZM11 4L11 4C11.6 4 12 4.4 12 5 12 5.6 11.6 6 11 6 10.5 6 10 5.6 10 5 10 4.4 10.5 4 11 4Z" class="cls-1"/></svg>