<svg xmlns="http://www.w3.org/2000/svg" preserveAspectRatio="xMidYMid" width="48" height="48" viewBox="0 0 65 48"><defs><style>  
      .cls-1 {
        fill: #666;
        fill-rule: evenodd;
      }
    </style></defs><path d="M62.5 48L19.5 48C18.1 48 17 46.9 17 45.4L17 42.3C17 42 17.2 41.6 17.5 41.5L33.3 32.8C28.1 27.5 28 19.6 28 19.3L28 10.1C28 10.1 28 10 28 10 29 4 35.5 0 40.9 0 40.9 0 41 0 41 0 46.5 0 53 4 54 10 54 10 54 10.1 54 10.1L54 19.3C54 19.6 53.9 27.5 48.7 32.8L64.5 41.5C64.8 41.6 65 42 65 42.3L65 45.4C65 46.9 63.9 48 62.5 48ZM63 42.9L46.5 33.9C46.5 33.9 46.5 33.9 46.5 33.9L46.5 33.9C46.5 33.8 46.4 33.8 46.4 33.8 46.3 33.7 46.3 33.7 46.2 33.6 46.2 33.6 46.2 33.6 46.2 33.6 46.2 33.5 46.1 33.5 46.1 33.4 46.1 33.3 46 33.3 46 33.3 46 33.2 46 33.1 46 33.1 46 33 46 33 46 32.9 46 32.9 46 32.8 46 32.8 46.1 32.7 46.1 32.6 46.1 32.5 46.1 32.5 46.1 32.5 46.1 32.5 46.2 32.5 46.2 32.4 46.2 32.4 46.3 32.3 46.3 32.3 46.4 32.2 51.9 27.6 52 19.4 52 19.3L52 10.2C51.1 5.4 45.6 2 41.1 2 41.1 2 41 2 41 2 36.5 2 30.9 5.4 30 10.2L30 19.3C30 19.4 30.1 27.6 35.6 32.2 35.7 32.3 35.7 32.3 35.8 32.4 35.8 32.4 35.8 32.5 35.9 32.5 35.9 32.5 35.9 32.5 35.9 32.5 35.9 32.6 35.9 32.7 36 32.8 36 32.8 36 32.9 36 32.9 36 33 36 33 36 33.1 36 33.2 36 33.2 36 33.3 36 33.3 35.9 33.3 35.9 33.4 35.9 33.5 35.8 33.6 35.8 33.6 35.8 33.6 35.8 33.6 35.8 33.6 35.8 33.7 35.7 33.7 35.7 33.7 35.6 33.8 35.6 33.8 35.5 33.9L19 42.9 19 45.4C19 45.7 19.2 46 19.5 46L62.5 46C62.8 46 63 45.8 63 45.4L63 42.9ZM27.7 2.6C26.5 2.2 25.3 2 24.1 2 24.1 2 24 2 24 2 19.5 2 13.9 5.4 13 10.2L13 19.3C13 19.4 13.1 27.6 18.6 32.2 18.7 32.3 18.7 32.3 18.8 32.4 18.8 32.4 18.8 32.5 18.9 32.5 18.9 32.5 18.9 32.5 18.9 32.5 18.9 32.6 18.9 32.7 19 32.8 19 32.8 19 32.9 19 32.9 19 33 19 33 19 33.1 19 33.2 19 33.2 19 33.3 19 33.3 18.9 33.3 18.9 33.4 18.9 33.5 18.8 33.6 18.8 33.6 18.8 33.6 18.8 33.6 18.8 33.6 18.8 33.7 18.7 33.7 18.7 33.7 18.6 33.8 18.6 33.8 18.5 33.9L2 42.9 2 45.4C2 45.7 2.2 46 2.5 46L13 46C13.6 46 14 46.4 14 47 14 47.6 13.6 48 13 48L2.5 48C1.1 48 0 46.9 0 45.4L0 42.3C0 42 0.2 41.6 0.5 41.5L16.3 32.8C11.1 27.5 11 19.6 11 19.3L11 10.1C11 10.1 11 10 11 10 12 4 18.5 0 23.9 0 23.9 0 24 0 24 0 25.4 0 26.9 0.3 28.3 0.8 28.8 0.9 29.1 1.5 28.9 2 28.8 2.6 28.2 2.8 27.7 2.6Z" class="cls-1"/></svg>