<svg xmlns="http://www.w3.org/2000/svg" width="200" height="355" viewBox="0 0 200 355"><style>.a{fill:#B8C0C9;}.b{fill:#FFF;}</style><g fill="none"><g transform="translate(-256 -356)translate(256 356)"><g class="a"><path d="M197 75L200 75 200 50 197 50 197 75Z"/><path d="M0 138L3 138 3 76 0 76 0 138Z"/><path d="M16.8 5.5C16.2 5.6 15.8 5.7 15.3 5.8 7.7 7.4 2 14.1 2 22.2L2 332.8C2 340.9 7.7 347.6 15.3 349.2 15.8 349.3 16.2 349.4 16.8 349.5 34.1 352.8 64.9 355 100 355 135.1 355 165.9 352.8 183.2 349.5 183.8 349.4 184.2 349.3 184.7 349.2 192.3 347.6 198 340.9 198 332.8L198 22.2C198 14.1 192.3 7.4 184.7 5.8 184.2 5.7 183.8 5.6 183.2 5.5 165.9 2.2 135.1 0 100 0 64.9 0 34.1 2.2 16.8 5.5Z" style="fill-opacity:0.1;stroke-width:2;stroke:#B8C0C9"/><path d="M100 13C97.2 13 95 15.2 95 18 95 20.8 97.2 23 100 23 102.8 23 105 20.8 105 18 105 15.2 102.8 13 100 13"/><path d="M33.5 17C32.1 17 31 18.1 31 19.5 31 20.9 32.1 22 33.5 22 34.9 22 36 20.9 36 19.5 36 18.1 34.9 17 33.5 17"/><path d="M163 17C161.9 17 161 17.9 161 19 161 20.1 161.9 21 163 21 164.1 21 165 20.1 165 19 165 17.9 164.1 17 163 17"/><path d="M169.5 18C168.7 18 168 18.7 168 19.5 168 20.3 168.7 21 169.5 21 170.3 21 171 20.3 171 19.5 171 18.7 170.3 18 169.5 18"/></g><rect x="10" y="33" width="179" height="280" style="fill:#FFF;stroke:#B8C0C9"/><path d="M10 289L188 289 188 313 10 313 10 289Z" class="a"/><path d="M100 295C96.7 295 94 297.7 94 301 94 304.3 96.7 307 100 307 103.3 307 106 304.3 106 301 106 297.7 103.3 295 100 295L100 295ZM100 306C97.2 306 95 303.8 95 301 95 298.2 97.2 296 100 296 102.8 296 105 298.2 105 301 105 303.8 102.8 306 100 306L100 306Z" class="b"/><path d="M156 296L156 306 146 306 146 296 156 296M156 295L146 295C145.5 295 145 295.5 145 296L145 306C145 306.5 145.5 307 146 307L156 307C156.5 307 157 306.5 157 306L157 296C157 295.5 156.5 295 156 295" class="b"/><path d="M54 296L54 306 46 301 54 296M54 295C53.9 295 53.7 295 54 295L45 300C45.2 300.3 45 300.6 45 301 45 301.4 45.2 301.7 45 302L54 307C53.7 307 53.9 307 54 307 54.2 307 54.4 307 55 307 54.8 306.7 55 306.4 55 306L55 296C55 295.6 54.8 295.3 55 295 54.4 295 54.2 295 54 295" class="b"/><rect x="10.7" y="33.1" width="178.5" height="11.8" style="fill:#B8C0C9;opacity:0.4"/><text font-family="Roboto" font-size="10" class="a"><tspan x="64.1" y="130.5">  Monday 13 April</tspan></text><text font-family=".AppleSystemUIFont" font-size="52" letter-spacing="0.706521749" class="a"><tspan x="28.6" y="118.4">  12:21</tspan></text></g></g></svg>