<?xml version="1.0" standalone="no"?> 
<!DOCTYPE svg PUBLIC "-//W3C//DTD SVG 1.1//EN" "http://www.w3.org/Graphics/SVG/1.1/DTD/svg11.dtd" >
<svg xmlns="http://www.w3.org/2000/svg">
<defs>
  <font id="Syncano-Icons" horiz-adv-x="305">
    <font-face font-family="Syncano-Icons"
      units-per-em="160" ascent="160"
      descent="0" />
    <missing-glyph horiz-adv-x="0" />
    <glyph glyph-name="account-alert"
      unicode="&#xEA02;"
      horiz-adv-x="160" d=" M66.6666666666667 133.3333333333334C81.394 133.3333333333334 93.3333333333333 121.3942666666667 93.3333333333333 106.6666666666667C93.3333333333333 91.9393333333333 81.394 80 66.6666666666667 80C51.9390666666667 80 40 91.9393333333333 40 106.6666666666667C40 121.3942666666667 51.9390666666667 133.3333333333334 66.6666666666667 133.3333333333334zM66.6666666666667 66.6666666666667C96.122 66.6666666666667 120 54.7273333333333 120 40L120 26.6666666666667L13.3333333333333 26.6666666666667L13.3333333333333 40C13.3333333333333 54.7273333333333 37.2114666666667 66.6666666666667 66.6666666666667 66.6666666666667zM133.3333333333334 80L133.3333333333334 113.3333333333333L146.6666666666667 113.3333333333333L146.6666666666667 80L133.3333333333334 80zM133.3333333333334 53.3333333333333L133.3333333333334 66.6666666666667L146.6666666666667 66.6666666666667L146.6666666666667 53.3333333333333L133.3333333333334 53.3333333333333z" />
    <glyph glyph-name="account-box-outline"
      unicode="&#xEA01;"
      horiz-adv-x="160" d=" M126.662 33.346L33.3286666666667 33.3393333333333L33.3286666666667 126.6795333333333L126.662 126.6795333333333M126.662 140.0128666666667L33.3286666666667 140.0128666666667C25.9686 140.0128666666667 19.9953333333333 134.0396 19.9953333333333 126.6795333333333L19.9953333333333 33.346C19.9953333333333 25.9793333333333 25.9686 20.0126666666667 33.3286666666667 20.0126666666667L126.662 20.0126666666667C134.022 20.0126666666667 139.9953333333334 25.9793333333333 139.9953333333334 33.346L139.9953333333334 126.6795333333333C139.9953333333334 134.0396 134.022 140.0128666666667 126.662 140.0128666666667zM109.9953333333334 51.6793333333333C109.9953333333334 61.6793333333333 89.9953333333333 66.6793333333333 79.9953333333333 66.6793333333333C69.9953333333333 66.6793333333333 49.9953333333333 61.6793333333333 49.9953333333333 51.6793333333333L49.9953333333333 46.6793333333333L109.9953333333334 46.6793333333333M79.9953333333333 78.346C88.2753333333333 78.346 94.9953333333333 85.0526666666667 94.9953333333333 93.3462C94.9953333333333 101.6262666666667 88.2753333333333 108.3462 79.9953333333333 108.3462C71.7153333333334 108.3462 64.9951333333333 101.6262666666667 64.9951333333333 93.3462C64.9951333333333 85.0526666666667 71.7153333333334 78.346 79.9953333333333 78.346z" />
    <glyph glyph-name="account-box"
      unicode="&#xEA04;"
      horiz-adv-x="160" d=" M39.996 46.6666666666667C39.996 60 66.6626666666667 67.3333333333333 79.996 67.3333333333333C93.3293333333333 67.3333333333333 119.996 60 119.996 46.6666666666667L119.996 40L39.996 40M99.996 100C99.996 88.9466666666667 91.036 80 79.996 80C68.956 80 59.996 88.9466666666667 59.996 100C59.996 111.0400666666667 68.956 120 79.996 120C91.036 120 99.996 111.0400666666667 99.996 100zM19.996 126.6666666666667L19.996 33.3333333333333C19.996 25.9733333333333 25.956 20 33.3293333333333 20L126.6626666666667 20C134.0193333333334 20 139.996 25.9733333333333 139.996 33.3333333333333L139.996 126.6666666666667C139.996 134.0266666666667 134.0193333333334 140 126.6626666666667 140L33.3293333333333 140C25.956 140 19.996 134.0266666666667 19.996 126.6666666666667z" />
    <glyph glyph-name="account-check"
      unicode="&#xEA03;"
      horiz-adv-x="160" d=" M60 126.6666666666667C72.8866666666667 126.6666666666667 83.3333333333333 116.22 83.3333333333333 103.3333333333333C83.3333333333333 90.4466666666667 72.8866666666667 80 60 80C47.1134 80 36.6666666666667 90.4466666666667 36.6666666666667 103.3333333333333C36.6666666666667 116.22 47.1134 126.6666666666667 60 126.6666666666667zM60 68.3333333333333C85.7733333333333 68.3333333333333 106.6666666666667 57.8866666666667 106.6666666666667 45L106.6666666666667 33.3333333333333L13.3333333333333 33.3333333333333L13.3333333333333 45C13.3333333333333 57.8866666666667 34.2267333333333 68.3333333333333 60 68.3333333333333zM113.3333333333334 75.572L95 95.5719333333333L102.7613333333333 103.3333333333333L113.3333333333334 92.7613333333333L137.2386666666667 116.6666666666667L145 107.2386L113.3333333333334 75.572z" />
    <glyph glyph-name="account-circle"
      unicode="&#xEA05;"
      horiz-adv-x="160" d=" M79.9946666666667 32.012C63.3013333333333 32.012 48.6146666666667 40.538 40.008 53.478C40.1813333333333 66.7246666666667 66.7013333333333 74.0113333333333 79.9946666666667 74.0113333333333C93.288 74.0113333333333 119.808 66.7246666666667 119.9813333333334 53.478C111.3746666666667 40.538 96.688 32.012 79.9946666666667 32.012zM79.9946666666667 126.6784666666667C91.0346666666667 126.6784666666667 99.9946666666667 117.7185333333334 99.9946666666667 106.6784666666667C99.9946666666667 95.625 91.0346666666667 86.6786666666667 79.9946666666667 86.6786666666667C68.9546666666667 86.6786666666667 59.9946666666667 95.625 59.9946666666667 106.6784666666667C59.9946666666667 117.7185333333334 68.9546666666667 126.6784666666667 79.9946666666667 126.6784666666667zM79.9946666666667 146.6784666666667C43.1746666666667 146.6784666666667 13.328 116.8384 13.328 80.012C13.328 43.192 43.1746666666667 13.3453333333333 79.9946666666667 13.3453333333333C116.8146666666667 13.3453333333333 146.6613333333333 43.192 146.6613333333333 80.012C146.6613333333333 116.8384 116.8146666666667 146.6784666666667 79.9946666666667 146.6784666666667z" />
    <glyph glyph-name="account-key"
      unicode="&#xEA06;"
      horiz-adv-x="160" d=" M73.3333333333333 93.3333333333333L73.3333333333333 80L66.6666 80L66.6666 66.6666666666667L53.3332666666667 66.6666666666667L53.3332666666667 80L38.8619333333333 80C36.1163333333333 72.232 28.7081333333333 66.6666666666667 20 66.6666666666667C8.9543333333333 66.6666666666667 0 75.6206666666667 0 86.6666666666667C0 97.7123333333333 8.9542666666667 106.6666666666667 20 106.6666666666667C28.7081333333333 106.6666666666667 36.1164 101.1012666666667 38.8619333333333 93.3333333333333L73.3333333333333 93.3333333333333zM20 93.3333333333333C16.3180666666667 93.3333333333333 13.3333333333333 90.3486666666667 13.3333333333333 86.6666666666667C13.3333333333333 82.9846666666667 16.3180666666667 80 20 80C23.6818666666667 80 26.6666666666667 82.9846666666667 26.6666666666667 86.6666666666667C26.6666666666667 90.3486666666667 23.6818666666667 93.3333333333333 20 93.3333333333333zM106.6666666666667 66.6666666666667C124.4466666666667 66.6666666666667 160 57.7666666666667 160 40L160 26.6666666666667L53.3333333333333 26.6666666666667L53.3333333333333 40C53.3333333333333 57.7666666666667 88.8866666666667 66.6666666666667 106.6666666666667 66.6666666666667zM106.6666666666667 80C91.9466666666667 80 80 91.9533333333333 80 106.6666666666667C80 121.3866666666667 91.9466666666667 133.3333333333334 106.6666666666667 133.3333333333334C121.3866666666667 133.3333333333334 133.3333333333334 121.3866666666667 133.3333333333334 106.6666666666667C133.3333333333334 91.9533333333333 121.3866666666667 80 106.6666666666667 80z" />
    <glyph glyph-name="account-location"
      unicode="&#xEA07;"
      horiz-adv-x="160" d=" M119.9953333333334 53.346L39.9953333333333 53.346L39.9953333333333 59.346C39.9953333333333 72.686 66.6552666666667 80.0126666666667 79.9953333333333 80.0126666666667C93.3286666666667 80.0126666666667 119.9953333333334 72.686 119.9953333333334 59.346M79.9953333333333 124.6795333333333C89.9353333333333 124.6795333333333 97.9953333333333 116.6195333333333 97.9953333333333 106.6795333333333C97.9953333333333 96.7328666666667 89.9353333333333 88.6793333333333 79.9953333333333 88.6793333333333C70.0553333333333 88.6793333333333 61.9952666666667 96.7328666666667 61.9952666666667 106.6795333333333C61.9952666666667 116.6195333333333 70.0553333333333 124.6795333333333 79.9953333333333 124.6795333333333zM126.662 146.6795333333333L33.3286666666667 146.6795333333333C25.9619333333333 146.6795333333333 19.9953333333333 140.7128666666667 19.9953333333333 133.3462L19.9953333333333 40.0126666666667C19.9953333333333 32.646 25.9619333333333 26.6793333333333 33.3286666666667 26.6793333333333L59.9953333333333 26.6793333333333L79.9953333333333 6.6793333333333L99.9953333333333 26.6793333333333L126.662 26.6793333333333C134.0153333333333 26.6793333333333 139.9953333333334 32.646 139.9953333333334 40.0126666666667L139.9953333333334 133.3462C139.9953333333334 140.7128666666667 134.0153333333333 146.6795333333333 126.662 146.6795333333333z" />
    <glyph glyph-name="account-minus"
      unicode="&#xEA09;"
      horiz-adv-x="160" d=" M99.996 66.68C82.216 66.68 46.6626 57.78 46.6626 40.0133333333333L46.6626 26.68L153.3293333333334 26.68L153.3293333333334 40.0133333333333C153.3293333333334 57.78 117.776 66.68 99.996 66.68zM6.6626 93.3468666666667L6.6626 80.0133333333333L59.9959333333333 80.0133333333333L59.9959333333333 93.3468666666667M99.996 80.0133333333333C114.716 80.0133333333333 126.6626666666667 91.9666666666667 126.6626666666667 106.6802C126.6626666666667 121.4002 114.716 133.3468666666667 99.996 133.3468666666667C85.276 133.3468666666667 73.3293333333333 121.4002 73.3293333333333 106.6802C73.3293333333333 91.9666666666667 85.276 80.0133333333333 99.996 80.0133333333333z" />
    <glyph glyph-name="account-multiple-outline"
      unicode="&#xEA08;"
      horiz-adv-x="160" d=" M110 116.6666666666667C117.3333333333334 116.6666666666667 123.3333333333334 110.6666666666667 123.3333333333334 103.3333333333333C123.3333333333334 96 117.3333333333334 90 110 90C102.6666666666667 90 96.6666666666667 96 96.6666666666667 103.3333333333333C96.6666666666667 110.6666666666667 102.6666666666667 116.6666666666667 110 116.6666666666667zM110 80C122.8666666666667 80 133.3333333333334 90.4666666666667 133.3333333333334 103.3333333333333C133.3333333333334 116.2 122.8666666666667 126.6666666666667 110 126.6666666666667C97.1333333333333 126.6666666666667 86.6666666666667 116.2 86.6666666666667 103.3333333333333C86.6666666666667 90.4666666666667 97.1333333333333 80 110 80zM50 116.6666666666667C57.3333333333333 116.6666666666667 63.3333333333333 110.6666666666667 63.3333333333333 103.3333333333333C63.3333333333333 96 57.3333333333333 90 50 90C42.6666666666667 90 36.6666666666667 96 36.6666666666667 103.3333333333333C36.6666666666667 110.6666666666667 42.6666666666667 116.6666666666667 50 116.6666666666667zM50 80C62.8666666666667 80 73.3333333333333 90.4666666666667 73.3333333333333 103.3333333333333C73.3333333333333 116.2 62.8666666666667 126.6666666666667 50 126.6666666666667C37.1333333333333 126.6666666666667 26.6666666666667 116.2 26.6666666666667 103.3333333333333C26.6666666666667 90.4666666666667 37.1333333333333 80 50 80zM143.3333333333334 43.3333333333333L93.3333333333333 43.3333333333333L93.3333333333333 51.6666666666667C93.3333333333333 54.7333333333333 92 57.4 89.8666666666667 59.8C95.7333333333333 61.8 102.9333333333333 63.3333333333333 110 63.3333333333333C126.2666666666667 63.3333333333333 143.3333333333334 55.2666666666667 143.3333333333334 51.6666666666667M83.3333333333333 43.3333333333333L16.6666666666667 43.3333333333333L16.6666666666667 51.6666666666667C16.6666666666667 55.2666666666667 33.7333333333333 63.3333333333333 50 63.3333333333333C66.2666666666667 63.3333333333333 83.3333333333333 55.2666666666667 83.3333333333333 51.6666666666667M110 73.3333333333333C102 73.3333333333333 89.5333333333333 71.0666666666667 80 66.6666666666667C70.4666666666667 71.1333333333333 58 73.3333333333333 50 73.3333333333333C35.5333333333333 73.3333333333333 6.6666666666667 66.1333333333333 6.6666666666667 51.6666666666667L6.6666666666667 33.3333333333333L153.3333333333334 33.3333333333333L153.3333333333334 51.6666666666667C153.3333333333334 66.1333333333333 124.4666666666667 73.3333333333333 110 73.3333333333333z" />
    <glyph glyph-name="account-multiple-plus"
      unicode="&#xEA0A;"
      horiz-adv-x="160" d=" M86.6646666666667 73.346C73.3313333333334 73.346 46.6646666666667 66.6726666666667 46.6646666666667 53.346L46.6646666666667 40.0126666666667L126.6646666666667 40.0126666666667L126.6646666666667 53.346C126.6646666666667 66.6726666666667 99.998 73.346 86.6646666666667 73.346zM130.8046666666667 72.2786666666667C136.3313333333333 67.446 139.998 61.226 139.998 53.346L139.998 40.0126666666667L159.998 40.0126666666667L159.998 53.346C159.998 63.6193333333333 144.1713333333333 69.922 130.8046666666667 72.2786666666667zM86.6646666666667 86.6793333333333C97.7113333333333 86.6793333333333 106.598 95.6395333333333 106.598 106.6795333333333C106.598 117.7195333333333 97.7113333333333 126.6795333333333 86.6646666666667 126.6795333333333C75.618 126.6795333333333 66.6647333333334 117.7195333333333 66.6647333333334 106.6795333333333C66.6647333333334 95.6395333333333 75.618 86.6793333333333 86.6646666666667 86.6793333333333zM119.998 86.6793333333333C131.0446666666667 86.6793333333333 139.9313333333333 95.6395333333333 139.9313333333333 106.6795333333333C139.9313333333333 117.7195333333333 131.0446666666667 126.6795333333333 119.998 126.6795333333333C117.8713333333334 126.6795333333333 115.8246666666667 126.3395333333333 113.898 125.7195333333333C117.678 120.3128666666667 119.9313333333333 113.7662666666667 119.9313333333333 106.6795333333333C119.9313333333333 99.5928666666667 117.678 93.046 113.898 87.6393333333333C115.8246666666667 87.0193333333333 117.8713333333334 86.6793333333333 119.998 86.6793333333333zM53.3313333333333 93.3462L33.3313333333333 93.3462L33.3313333333333 113.3462L19.9980666666667 113.3462L19.9980666666667 93.3462L-0.0019666866667 93.3462L-0.0019666866667 80.0126666666667L19.9980666666667 80.0126666666667L19.9980666666667 60.0126666666667L33.3313333333333 60.0126666666667L33.3313333333333 80.0126666666667L53.3313333333333 80.0126666666667L53.3313333333333 93.3462z" />
    <glyph glyph-name="account-multiple"
      unicode="&#xEA0C;"
      horiz-adv-x="160" d=" M106.6626666666667 73.346C104.7293333333333 73.346 102.5493333333333 73.226 100.2293333333333 72.986C107.956 67.406 113.3293333333334 59.8993333333333 113.3293333333334 50.0126666666667L113.3293333333334 33.346L153.3293333333334 33.346L153.3293333333334 50.0126666666667C153.3293333333334 65.5593333333333 122.216 73.346 106.6626666666667 73.346zM53.3292666666667 73.346C37.7691333333333 73.346 6.6626 65.5593333333333 6.6626 50.0126666666667L6.6626 33.346L99.996 33.346L99.996 50.0126666666667C99.996 65.5593333333333 68.8826666666667 73.346 53.3292666666667 73.346zM53.3292666666667 86.6793333333333C64.376 86.6793333333333 73.2626666666667 95.6395333333333 73.2626666666667 106.6795333333333C73.2626666666667 117.7195333333333 64.376 126.6795333333333 53.3292666666667 126.6795333333333C42.2825333333333 126.6795333333333 33.3292666666667 117.7195333333333 33.3292666666667 106.6795333333333C33.3292666666667 95.6395333333333 42.2825333333333 86.6793333333333 53.3292666666667 86.6793333333333zM106.6626666666667 86.6793333333333C117.7093333333334 86.6793333333333 126.596 95.6395333333333 126.596 106.6795333333333C126.596 117.7195333333333 117.7093333333334 126.6795333333333 106.6626666666667 126.6795333333333C95.616 126.6795333333333 86.6626666666667 117.7195333333333 86.6626666666667 106.6795333333333C86.6626666666667 95.6395333333333 95.616 86.6793333333333 106.6626666666667 86.6793333333333z" />
    <glyph glyph-name="account-network"
      unicode="&#xEA0B;"
      horiz-adv-x="160" d=" M86.6666666666667 53.3333333333333L86.6666666666667 40L93.3333333333333 40C97.0153333333334 40 100 37.0153333333333 100 33.3333333333333L146.6666666666667 33.3333333333333L146.6666666666667 20L100 20C100 16.318 97.0153333333334 13.3333333333333 93.3333333333333 13.3333333333333L66.6666666666667 13.3333333333333C62.9848 13.3333333333333 60.0000666666667 16.318 60.0000666666667 20L13.3333333333333 20L13.3333333333333 33.3333333333333L60.0000666666667 33.3333333333333C60.0000666666667 37.0153333333333 62.9848 40 66.6666666666667 40L73.3333333333333 40L73.3333333333333 53.3333333333333L33.3333333333333 53.3333333333333L33.3333333333333 63.3333333333333C33.3333333333333 76.22 54.2267333333333 86.6666666666667 80 86.6666666666667C105.7733333333333 86.6666666666667 126.6666666666667 76.22 126.6666666666667 63.3333333333333L126.6666666666667 53.3333333333333L86.6666666666667 53.3333333333333zM80 146.6666666666667C92.8866666666667 146.6666666666667 103.3333333333333 136.22 103.3333333333333 123.3333333333333C103.3333333333333 110.4466666666667 92.8866666666667 100 80 100C67.1133333333334 100 56.6666666666667 110.4466666666667 56.6666666666667 123.3333333333333C56.6666666666667 136.22 67.1133333333334 146.6666666666667 80 146.6666666666667z" />
    <glyph glyph-name="account-outline"
      unicode="&#xEA0D;"
      horiz-adv-x="160" d=" M79.996 73.346C62.216 73.346 26.6626 64.446 26.6626 46.6793333333333L26.6626 26.6793333333333L133.3293333333334 26.6793333333333L133.3293333333334 46.6793333333333C133.3293333333334 64.446 97.776 73.346 79.996 73.346zM79.996 133.3462C65.2758666666667 133.3462 53.3292666666667 121.3996 53.3292666666667 106.6795333333333C53.3292666666667 91.966 65.2758666666667 80.0126666666667 79.996 80.0126666666667C94.716 80.0126666666667 106.6626666666667 91.966 106.6626666666667 106.6795333333333C106.6626666666667 121.3996 94.716 133.3462 79.996 133.3462zM79.996 60.6793333333333C99.8226666666667 60.6793333333333 120.6626666666667 50.966 120.6626666666667 46.6793333333333L120.6626666666667 39.346L39.3292 39.346L39.3292 46.6793333333333C39.3292 50.966 60.1692666666667 60.6793333333333 79.996 60.6793333333333zM79.996 120.6795333333333C87.716 120.6795333333333 93.996 114.3995333333333 93.996 106.6795333333333C93.996 98.9595333333333 87.716 92.6793333333333 79.996 92.6793333333333C72.276 92.6793333333333 65.9958666666667 98.9595333333333 65.9958666666667 106.6795333333333C65.9958666666667 114.3995333333333 72.276 120.6795333333333 79.996 120.6795333333333z" />
    <glyph glyph-name="account-plus"
      unicode="&#xEA0E;"
      horiz-adv-x="160" d=" M99.996 66.68C82.216 66.68 46.6626 57.78 46.6626 40.0133333333333L46.6626 26.68L153.3293333333334 26.68L153.3293333333334 40.0133333333333C153.3293333333334 57.78 117.776 66.68 99.996 66.68zM39.9959333333333 93.3468666666667L39.9959333333333 113.3468666666667L26.6626 113.3468666666667L26.6626 93.3468666666667L6.6626 93.3468666666667L6.6626 80.0133333333333L26.6626 80.0133333333333L26.6626 60.0133333333333L39.9959333333333 60.0133333333333L39.9959333333333 80.0133333333333L59.9959333333333 80.0133333333333L59.9959333333333 93.3468666666667M99.996 80.0133333333333C114.716 80.0133333333333 126.6626666666667 91.9666666666667 126.6626666666667 106.6802C126.6626666666667 121.4002 114.716 133.3468666666667 99.996 133.3468666666667C85.276 133.3468666666667 73.3293333333333 121.4002 73.3293333333333 106.6802C73.3293333333333 91.9666666666667 85.276 80.0133333333333 99.996 80.0133333333333z" />
    <glyph glyph-name="account-remove"
      unicode="&#xEA0F;"
      horiz-adv-x="160" d=" M99.996 66.68C117.776 66.68 153.3293333333334 57.78 153.3293333333334 40.0133333333333L153.3293333333334 26.68L46.6626 26.68L46.6626 40.0133333333333C46.6626 57.78 82.216 66.68 99.996 66.68zM99.9953333333333 80.0133333333333C85.2753333333333 80.0133333333333 73.3286666666667 91.9666666666667 73.3286666666667 106.6801333333333C73.3286666666667 121.4001333333333 85.2753333333333 133.3468 99.9953333333333 133.3468C114.716 133.3468 126.662 121.4001333333333 126.662 106.6801333333333C126.662 91.9666666666667 114.716 80.0133333333333 99.9953333333333 80.0133333333333zM33.333 96.0944666666667L47.4752666666667 110.2367333333333L56.9033333333333 100.8086666666667L42.7610666666667 86.6666666666667L56.9032 72.524L47.4752 63.096L33.3330666666667 77.2386666666667L19.1909333333333 63.096L9.7628666666667 72.5246666666667L23.9049333333333 86.6666666666667L9.7628 100.8086L19.1908666666667 110.2366666666667L33.333 96.0944666666667z" />
    <glyph glyph-name="account-search"
      unicode="&#xEA10;"
      horiz-adv-x="160" d=" M100 66.6666666666667C117.78 66.6666666666667 153.3333333333334 57.7666666666667 153.3333333333334 40L153.3333333333334 26.6666666666667L46.6666666666667 26.6666666666667L46.6666666666667 40C46.6666666666667 57.7666666666667 82.22 66.6666666666667 100 66.6666666666667zM100 80C85.28 80 73.3333333333333 91.9533333333333 73.3333333333333 106.6666666666667C73.3333333333333 121.3866 85.28 133.3333333333334 100 133.3333333333334C114.72 133.3333333333334 126.6666666666667 121.3866 126.6666666666667 106.6666666666667C126.6666666666667 91.9533333333333 114.72 80 100 80zM18.3824 62.2873333333333C15.7788666666667 59.684 11.5578 59.684 8.9542666666667 62.2873333333333C6.3508066666667 64.8913333333333 6.3508 69.112 8.9542666666667 71.716L21.9491333333333 84.7106666666667C20.6996666666667 87.3213333333333 20 90.246 20 93.3333333333333C20 104.379 28.9542666666667 113.3333333333333 40 113.3333333333333C51.0456666666667 113.3333333333333 60 104.379 60 93.3333333333333C60 82.2873333333333 51.0456666666667 73.3333333333333 40 73.3333333333333C36.9123333333333 73.3333333333333 33.9881333333333 74.0326666666667 31.3772 75.2826666666667L18.3824 62.2873333333333zM40 100C36.3180666666667 100 33.3333333333333 97.0152 33.3333333333333 93.3333333333333C33.3333333333333 89.6513333333333 36.3180666666667 86.6666666666667 40 86.6666666666667C43.6818666666667 86.6666666666667 46.6666666666667 89.6513333333333 46.6666666666667 93.3333333333333C46.6666666666667 97.0152 43.6818666666667 100 40 100z" />
    <glyph glyph-name="account-star-variant"
      unicode="&#xEA11;"
      horiz-adv-x="160" d=" M60 66.6666666666667C77.8 66.6666666666667 113.3333333333334 57.8 113.3333333333334 40V26.6666666666667H6.6666666666667V40C6.6666666666667 57.8 42.2 66.6666666666667 60 66.6666666666667M60 80C45.2666666666667 80 33.3333333333333 91.9333333333333 33.3333333333333 106.6666666666667C33.3333333333333 121.4 45.2666666666667 133.3333333333334 60 133.3333333333334C74.7333333333334 133.3333333333334 86.6666666666667 121.4 86.6666666666667 106.6666666666667C86.6666666666667 91.9333333333333 74.7333333333334 80 60 80M126.6666666666667 71.4666666666667L110.2666666666667 61.5333333333333L114.6666666666667 80.2666666666667L100 92.8L119.2666666666667 94.4666666666667L126.6666666666667 112.0666666666667L134.2 94.4666666666667L153.3333333333334 92.8L138.8 80.2666666666667L143.3333333333334 61.5333333333333L126.6666666666667 71.4666666666667z" />
    <glyph glyph-name="account-switch"
      unicode="&#xEA12;"
      horiz-adv-x="160" d=" M106.6666666666667 100C122.22 100 153.3333333333334 92.2133333333333 153.3333333333334 76.6666666666667L153.3333333333334 60L113.3333333333334 60L113.3333333333334 76.6666666666667C113.3333333333334 86.5533333333333 107.96 94.06 100.2333333333333 99.64L106.6666666666667 100zM53.3333333333333 100C68.8866666666667 100 100 92.2133333333333 100 76.6666666666667L100 60L6.6666666666667 60L6.6666666666667 76.6666666666667C6.6666666666667 92.2133333333333 37.7734 100 53.3333333333333 100zM53.3333333333333 113.3333333333333C42.2868 113.3333333333333 33.3333333333333 122.2933333333333 33.3333333333333 133.3333333333334C33.3333333333333 144.3732666666667 42.2868 153.3332666666667 53.3333333333333 153.3332666666667C64.3801333333333 153.3332666666667 73.2666666666667 144.3732666666667 73.2666666666667 133.3333333333334C73.2666666666667 122.2933333333333 64.3801333333333 113.3333333333333 53.3333333333333 113.3333333333333zM106.6666666666667 113.3333333333333C95.62 113.3333333333333 86.6666666666667 122.2933333333333 86.6666666666667 133.3333333333334C86.6666666666667 144.3732666666667 95.62 153.3332666666667 106.6666666666667 153.3332666666667C117.7133333333334 153.3332666666667 126.6 144.3732666666667 126.6 133.3333333333334C126.6 122.2933333333333 117.7133333333334 113.3333333333333 106.6666666666667 113.3333333333333zM60 48.3333333333333L60 33.3333333333333L100 33.3333333333333L100 48.3333333333333L121.6666666666667 26.6666666666667L100 5L100 20L60 20L60 5L38.3333333333333 26.6666666666667L60 48.3333333333333z" />
    <glyph glyph-name="account"
      unicode="&#xEA13;"
      horiz-adv-x="160" d=" M80 133.3333333333334C94.7273333333333 133.3333333333334 106.6666666666667 121.3942666666667 106.6666666666667 106.6666666666667C106.6666666666667 91.9393333333333 94.7273333333333 80 80 80C65.2724 80 53.3333333333333 91.9393333333333 53.3333333333333 106.6666666666667C53.3333333333333 121.3942666666667 65.2724 133.3333333333334 80 133.3333333333334zM80 66.6666666666667C109.4553333333333 66.6666666666667 133.3333333333334 54.7273333333333 133.3333333333334 40L133.3333333333334 26.6666666666667L26.6666666666667 26.6666666666667L26.6666666666667 40C26.6666666666667 54.7273333333333 50.5448 66.6666666666667 80 66.6666666666667z" />
    <glyph glyph-name="airballoon"
      unicode="&#xEA14;"
      horiz-adv-x="160" d=" M73.3333333333333 6.6666666666667C65.9695333333333 6.6666666666667 60 12.636 60 20L60 33.3333333333333L100 33.3333333333333L100 20C100 12.636 94.0306666666667 6.6666666666667 86.6666666666667 6.6666666666667L73.3333333333333 6.6666666666667zM80 153.3333333333334C84.7126666666667 153.3333333333334 89.2826666666667 152.7220666666667 93.6346666666667 151.5745333333333C101.4386666666667 141.1071333333333 106.6666666666667 121.9272 106.6666666666667 100C106.6666666666667 84.7833333333333 104.1493333333334 70.8893333333333 100 53.3333333333333C100 45.9693333333333 94.0306666666667 40 86.6666666666667 40L73.3333333333333 40C65.9695333333333 40 60 45.9693333333333 60 53.3333333333333C55.8509333333333 70.8893333333333 53.3333333333333 84.7833333333333 53.3333333333333 100C53.3333333333333 121.9271333333333 58.561 141.1071333333333 66.3650666666667 151.5745333333333C70.7173333333333 152.7220666666667 75.2873333333333 153.3333333333334 80 153.3333333333334zM133.3333333333334 106.6666C133.3333333333334 85.4806666666667 120.9806666666667 53.8466666666667 103.0846666666667 45.2413333333333C109.4013333333333 57.3726666666667 113.3333333333334 81.1013333333333 113.3333333333334 100C113.3333333333334 118.8985333333333 109.4013333333333 135.9604666666667 103.0846666666667 148.0921333333333C120.9806666666667 139.4863333333333 133.3333333333334 127.8523333333333 133.3333333333334 106.6666zM26.6666666666667 106.6666C26.6666666666667 127.8523333333333 39.0194666666667 139.4863333333333 56.9153333333333 148.0921333333333C50.5984666666667 135.9604666666667 46.6666666666667 118.8985333333333 46.6666666666667 100C46.6666666666667 81.1013333333333 50.5984666666667 57.3726666666667 56.9154 45.2413333333333C39.0194 53.8466666666667 26.6666666666667 85.4806666666667 26.6666666666667 106.6666z" />
    <glyph glyph-name="airplane-off"
      unicode="&#xEA15;"
      horiz-adv-x="160" d=" M20.976 124.8578666666667L54.216 91.618L14.3093333333333 66.678L14.3093333333333 53.3446666666667L67.6426666666667 70.0113333333333L67.6426666666667 33.3446666666667L54.3093333333333 23.3446666666667L54.3093333333333 13.3446666666667L77.6426666666667 20.0113333333333L100.976 13.3446666666667L100.976 23.3446666666667L87.6426666666667 33.3446666666667L87.6426666666667 58.1913333333333L125.8226666666667 20.0113333333333L134.3026666666667 28.498L29.4626666666667 133.3444M87.6426666666667 100.0110666666667L87.6426666666667 136.6777333333333C87.6426666666667 142.2044666666667 83.1626666666667 146.6777333333333 77.6426666666667 146.6777333333333C72.1226666666667 146.6777333333333 67.6426666666667 142.2044666666667 67.6426666666667 136.6777333333333L67.6426666666667 112.1312L119.8226666666667 59.958L140.976 53.3446666666667L140.976 66.678L87.6426666666667 100.0110666666667z" />
    <glyph glyph-name="airplane"
      unicode="&#xEA17;"
      horiz-adv-x="160" d=" M139.996 53.3466666666667L139.996 66.68L86.6626666666667 100.013L86.6626666666667 136.6796666666667C86.6626666666667 142.2064 82.1826666666667 146.6796666666667 76.6626666666667 146.6796666666667C71.1426666666667 146.6796666666667 66.6626666666667 142.2064 66.6626666666667 136.6796666666667L66.6626666666667 100.013L13.3293333333333 66.68L13.3293333333333 53.3466666666667L66.6626666666667 70.0133333333333L66.6626666666667 33.3466666666667L53.3293333333333 23.3466666666667L53.3293333333333 13.3466666666667L76.6626666666667 20.0133333333333L99.996 13.3466666666667L99.996 23.3466666666667L86.6626666666667 33.3466666666667L86.6626666666667 70.0133333333333L139.996 53.3466666666667z" />
    <glyph glyph-name="alarm-check"
      unicode="&#xEA18;"
      horiz-adv-x="160" d=" M70.2666666666667 63.1333333333333L56.0666666666667 77.3333333333333L49 70.2666666666667L70.2 49.0666666666667L110.2 89.0666666666667L103.1333333333333 96.1333333333333L70.2666666666667 63.1333333333333zM80 26.6666666666667C54.2 26.6666666666667 33.3333333333333 47.5333333333333 33.3333333333333 73.3333333333333C33.3333333333333 99.1333333333333 54.2 120 80 120C105.8 120 126.6666666666667 99.1333333333333 126.6666666666667 73.3333333333333C126.6666666666667 47.5333333333333 105.8 26.6666666666667 80 26.6666666666667zM80 133.3333333333334C46.8666666666667 133.3333333333334 20 106.4666666666667 20 73.3333333333333C20 40.2 46.8 13.3333333333333 80 13.3333333333333C113.1333333333333 13.3333333333333 140 40.2 140 73.3333333333333C140 106.4666666666667 113.1333333333333 133.3333333333334 80 133.3333333333334zM52.5333333333333 137.4L44 147.6L13.3333333333333 121.9333333333333L21.9333333333333 111.7333333333333L52.5333333333333 137.4zM146.6666666666667 121.8666666666667L116 147.6L107.4 137.4L138.0666666666667 111.6666666666667L146.6666666666667 121.8666666666667z" />
    <glyph glyph-name="alarm-multiple"
      unicode="&#xEA16;"
      horiz-adv-x="160" d=" M61.9466666666667 138.3266L34.4066666666667 115.2252L26.6666666666667 124.4066666666667L54.2666666666667 147.5066L61.9466666666667 138.3266zM146.6666666666667 124.3466L138.9266666666667 115.1666L111.3266666666667 138.3266L119.0666666666667 147.5066L146.6666666666667 124.3466zM86.6666666666667 133.3332666666667C116.122 133.3332666666667 140 109.4551333333333 140 80C140 50.5446666666667 116.122 26.6666666666667 86.6666666666667 26.6666666666667C57.2114666666667 26.6666666666667 33.3333333333333 50.5446666666667 33.3333333333333 80C33.3333333333333 109.4551333333333 57.2114666666667 133.3332666666667 86.6666666666667 133.3332666666667zM86.6666666666667 119.9999333333333C64.5752666666667 119.9999333333333 46.6666666666667 102.0913333333333 46.6666666666667 80C46.6666666666667 57.9086666666667 64.5752666666667 40 86.6666666666667 40C108.758 40 126.6666666666667 57.9086666666667 126.6666666666667 80C126.6666666666667 102.0913333333333 108.758 119.9999333333333 86.6666666666667 119.9999333333333zM80 110L90 110L90 79.7706666666667L111.448 70.0153333333333L107.308 60.9126666666667L80 73.3333333333333L80 110zM6.6667333333333 66.6666666666667C6.6667333333333 83.2273333333333 14.215 98.0256 26.0588666666667 107.8078666666667C22.1690666666667 99.3439333333333 20.0001333333333 89.9253333333333 20.0001333333333 80L20.4194666666667 72.4806666666667L20 66.6666666666667C20 51.4806666666667 28.4628 38.2706666666667 40.9296 31.4966666666666C49.6082 23.31 60.4833333333333 17.4273333333333 72.578 14.8246666666667C68.5446666666667 13.85 64.3326666666667 13.3333333333333 60 13.3333333333333C30.5448 13.3333333333333 6.6667333333333 37.2113333333333 6.6667333333333 66.6666666666667z" />
    <glyph glyph-name="alarm-off"
      unicode="&#xEA19;"
      horiz-adv-x="160" d=" M53.4666666666667 138.1333333333333L44 147.6L38.2666666666667 142.8666666666667L47.7333333333333 133.4M109.8 37.4C101.7333333333333 30.7333333333333 91.3333333333333 26.6666666666667 80 26.6666666666667C54.2 26.6666666666667 33.3333333333333 47.5333333333333 33.3333333333333 73.3333333333333C33.3333333333333 84.6666666666667 37.4 95.0666666666667 44.0666666666667 103.1333333333333M19.4666666666667 144.7333333333333L11 136.2L19.8666666666667 127.3333333333333L12.4666666666667 121.1333333333333L21.9333333333333 111.6666666666667L29.3333333333333 117.9333333333333L34.6666666666667 112.6C25.5333333333333 102.0666666666667 20 88.3333333333333 20 73.3333333333333C20 40.2 46.8 13.3333333333333 80 13.3333333333333C95 13.3333333333333 108.7333333333333 18.8666666666666 119.2666666666667 28L133.9333333333333 13.3333333333333L142.4 21.8L25.9333333333333 138.2L19.4666666666667 144.7333333333333zM146.6666666666667 121.8666666666667L116 147.6L107.4 137.4L138.0666666666667 111.6666666666667L146.6666666666667 121.8666666666667zM80 120C105.8 120 126.6666666666667 99.1333333333333 126.6666666666667 73.3333333333333C126.6666666666667 67.7333333333333 125.6 62.3333333333333 123.8 57.3333333333333L133.9333333333333 47.2C137.8 55.1333333333333 140 63.9333333333333 140 73.3333333333333C140 106.4666666666667 113.1333333333333 133.3333333333334 80 133.3333333333334C70.6 133.3333333333334 61.8 131.1333333333333 53.8666666666667 127.2666666666667L64 117.1333333333333C69 118.9333333333333 74.4 120 80 120z" />
    <glyph glyph-name="alarm-plus"
      unicode="&#xEA1A;"
      horiz-adv-x="160" d=" M86.6666666666667 100L73.3333333333333 100L73.3333333333333 80L53.3333333333333 80L53.3333333333333 66.6666666666667L73.3333333333333 66.6666666666667L73.3333333333333 46.6666666666667L86.6666666666667 46.6666666666667L86.6666666666667 66.6666666666667L106.6666666666667 66.6666666666667L106.6666666666667 80L86.6666666666667 80M80 26.6666666666667C54.2 26.6666666666667 33.3333333333333 47.5333333333333 33.3333333333333 73.3333333333333C33.3333333333333 99.1333333333333 54.2 120 80 120C105.8 120 126.6666666666667 99.1333333333333 126.6666666666667 73.3333333333333C126.6666666666667 47.5333333333333 105.8 26.6666666666667 80 26.6666666666667zM80 133.3333333333334C46.8666666666667 133.3333333333334 20 106.4666666666667 20 73.3333333333333C20 40.2 46.8 13.3333333333333 80 13.3333333333333C113.1333333333333 13.3333333333333 140 40.2 140 73.3333333333333C140 106.4666666666667 113.1333333333333 133.3333333333334 80 133.3333333333334zM146.6666666666667 121.8666666666667L116 147.6L107.4 137.4L138.0666666666667 111.6666666666667M52.5333333333333 137.4L44 147.6L13.3333333333333 121.9333333333333L21.9333333333333 111.7333333333333L52.5333333333333 137.4z" />
    <glyph glyph-name="alarm"
      unicode="&#xEA1B;"
      horiz-adv-x="160" d=" M80 26.6666666666667C54.2 26.6666666666667 33.3333333333333 47.5333333333333 33.3333333333333 73.3333333333333C33.3333333333333 99.1333333333333 54.2 120 80 120C105.8 120 126.6666666666667 99.1333333333333 126.6666666666667 73.3333333333333C126.6666666666667 47.5333333333333 105.8 26.6666666666667 80 26.6666666666667zM80 133.3333333333334C46.8666666666667 133.3333333333334 20 106.4666666666667 20 73.3333333333333C20 40.2 46.8 13.3333333333333 80 13.3333333333333C113.1333333333333 13.3333333333333 140 40.2 140 73.3333333333333C140 106.4666666666667 113.1333333333333 133.3333333333334 80 133.3333333333334zM83.3333333333333 106.6666666666667L73.3333333333333 106.6666666666667L73.3333333333333 66.6666666666667L105 47.6666666666667L110 55.8666666666667L83.3333333333333 71.6666666666667L83.3333333333333 106.6666666666667zM52.5333333333333 137.4L44 147.6L13.3333333333333 121.9333333333333L21.9333333333333 111.7333333333333L52.5333333333333 137.4zM146.6666666666667 121.8666666666667L116 147.6L107.4 137.4L138.0666666666667 111.6666666666667L146.6666666666667 121.8666666666667z" />
    <glyph glyph-name="album"
      unicode="&#xEA1C;"
      horiz-adv-x="160" d=" M80 86.6666666666667C76.3333333333333 86.6666666666667 73.3333333333333 83.6666666666667 73.3333333333333 80C73.3333333333333 76.3333333333333 76.3333333333333 73.3333333333333 80 73.3333333333333C83.6666666666667 73.3333333333333 86.6666666666667 76.3333333333333 86.6666666666667 80C86.6666666666667 83.6666666666667 83.6666666666667 86.6666666666667 80 86.6666666666667zM80 50C63.4 50 50 63.4 50 80C50 96.6 63.4 110 80 110C96.6 110 110 96.6 110 80C110 63.4 96.6 50 80 50zM80 146.6666666666667C43.2 146.6666666666667 13.3333333333333 116.8 13.3333333333333 80C13.3333333333333 43.2 43.2 13.3333333333333 80 13.3333333333333C116.8 13.3333333333333 146.6666666666667 43.2 146.6666666666667 80C146.6666666666667 116.8 116.8 146.6666666666667 80 146.6666666666667z" />
    <glyph glyph-name="alert-box"
      unicode="&#xEA1D;"
      horiz-adv-x="160" d=" M33.3333333333333 139.9998666666667L126.6666666666667 139.9998666666667C134.0306666666667 139.9998666666667 140 134.0304 140 126.6666L140 33.3333333333333C140 25.9693333333333 134.0306666666667 20 126.6666666666667 20L33.3333333333333 20C25.9695333333333 20 20 25.9693333333333 20 33.3333333333333L20 126.6666C20 134.0304 25.9695333333333 139.9998666666667 33.3333333333333 139.9998666666667zM86.6626666666667 73.3466666666667L86.6626666666667 113.3463333333333L73.3293333333333 113.3463333333333L73.3293333333333 73.3466666666667L86.6626666666667 73.3466666666667zM86.6626666666667 46.68L86.6626666666667 60.0133333333333L73.3293333333333 60.0133333333333L73.3293333333333 46.68L86.6626666666667 46.68z" />
    <glyph glyph-name="alert-circle-outline"
      unicode="&#xEA1E;"
      horiz-adv-x="160" d=" M73.3333333333333 60H86.6666666666667V46.6666666666667H73.3333333333333V60M73.3333333333333 113.3333333333333H86.6666666666667V73.3333333333333H73.3333333333333V113.3333333333333M80 146.6666666666667C43.1333333333333 146.6666666666667 13.3333333333333 116.6666666666667 13.3333333333333 80C13.3333333333333 43.2 43.2 13.3333333333333 80 13.3333333333333C116.8 13.3333333333333 146.6666666666667 43.2 146.6666666666667 80C146.6666666666667 116.8 116.8 146.6666666666667 80 146.6666666666667M80 26.6666666666667C50.5333333333333 26.6666666666667 26.6666666666667 50.5333333333333 26.6666666666667 80C26.6666666666667 109.4666666666667 50.5333333333333 133.3333333333334 80 133.3333333333334C109.4666666666667 133.3333333333334 133.3333333333334 109.4666666666667 133.3333333333334 80C133.3333333333334 50.5333333333333 109.4666666666667 26.6666666666667 80 26.6666666666667z" />
    <glyph glyph-name="alert-circle"
      unicode="&#xEA1F;"
      horiz-adv-x="160" d=" M86.6626666666667 73.3466666666667L73.3293333333333 73.3466666666667L73.3293333333333 113.3463333333333L86.6626666666667 113.3463333333333M86.6626666666667 46.68L73.3293333333333 46.68L73.3293333333333 60.0133333333333L86.6626666666667 60.0133333333333M79.996 146.6796666666667C43.1759333333333 146.6796666666667 13.3292666666667 116.8330666666667 13.3292666666667 80.0133333333333C13.3292666666667 43.1926666666667 43.1759333333333 13.3466666666667 79.996 13.3466666666667C116.816 13.3466666666667 146.6626666666667 43.1926666666667 146.6626666666667 80.0133333333333C146.6626666666667 116.8330666666667 116.816 146.6796666666667 79.996 146.6796666666667z" />
    <glyph glyph-name="alert-octagon"
      unicode="&#xEA20;"
      horiz-adv-x="160" d=" M86.6626666666667 73.3466666666667L73.3293333333333 73.3466666666667L73.3293333333333 113.3463333333333L86.6626666666667 113.3463333333333M79.996 44.68C75.216 44.68 71.3293333333333 48.56 71.3293333333333 53.3466666666667C71.3293333333333 58.126 75.216 62.0126666666667 79.996 62.0126666666667C84.776 62.0126666666667 88.6626666666667 58.126 88.6626666666667 53.3466666666667C88.6626666666667 48.56 84.776 44.68 79.996 44.68zM104.8493333333333 140.013L55.1390666666667 140.013L19.9958666666667 104.8665333333333L19.9958666666667 55.1593333333333L55.1390666666667 20.0133333333333L104.8493333333333 20.0133333333333L139.996 55.1593333333333L139.996 104.8665333333333L104.8493333333333 140.013z" />
    <glyph glyph-name="alert"
      unicode="&#xEA21;"
      horiz-adv-x="160" d=" M86.6666666666667 66.6666666666667L73.3333333333333 66.6666666666667L73.3333333333333 93.3334666666667L86.6666666666667 93.3334666666667M86.6666666666667 40L73.3333333333333 40L73.3333333333333 53.3333333333333L86.6666666666667 53.3333333333333M6.6666666666667 20L153.3333333333334 20L80 146.6668L6.6666666666667 20z" />
    <glyph glyph-name="alpha"
      unicode="&#xEA22;"
      horiz-adv-x="160" d=" M120.5333333333333 41.3553333333333C117.4813333333334 40.452 114.748 40 112.3333333333333 40C104.348 40 98.9626666666667 45.896 96.178 57.6886666666667L95.8446666666667 57.6886666666667C89.296 44.948 80.1186666666667 38.578 68.3113333333333 38.578C59.5852 38.578 52.5962666666667 41.878 47.3444666666667 48.478C42.0926 55.078 39.4666666666667 63.4146666666667 39.4666666666667 73.4886666666667C39.4666666666667 84.9853333333333 42.4444666666667 94.3666666666667 48.4 101.6333333333333C54.3555333333333 108.9 62.4148 112.5333333333333 72.578 112.5333333333333C78.074 112.5333333333333 82.9706666666667 111.0148 87.2666666666667 107.9777333333333C91.5626666666667 104.9407333333333 94.822 100.6666666666667 97.0446666666667 95.1555333333333L97.3113333333333 95.1555333333333L102.0446666666667 111.1110666666667L119.1113333333334 111.1110666666667L104.8666666666667 75.6886666666667C106.4373333333333 67.378 108.1 61.722 109.8553333333334 58.722C111.6113333333334 55.722 113.896 54.222 116.7113333333333 54.222C118.2373333333334 54.222 119.5553333333333 54.4593333333333 120.6666666666667 54.9333333333333L120.5333333333333 41.3553333333333zM92.1553333333333 76.2446666666667C90.704 83.8293333333333 88.4593333333333 89.6406666666667 85.422 93.6777333333333C82.3853333333333 97.7148 78.748 99.7333333333333 74.5113333333333 99.7333333333333C69.0446666666667 99.7333333333333 64.6814666666667 97.2814666666667 61.4222 92.378C58.1629333333333 87.474 56.5333333333333 81.4293333333333 56.5333333333333 74.2446666666667C56.5333333333333 67.7553333333333 57.9481333333333 62.322 60.7778 57.9446666666667C63.6074 53.5666666666667 67.3926666666667 51.378 72.1333333333333 51.378C76.1333333333333 51.378 79.7853333333333 53.2593333333333 83.0886666666667 57.022C86.3926666666667 60.7853333333333 89.1406666666667 66.3113333333333 91.3333333333333 73.6L92.1553333333333 76.2446666666667z" />
    <glyph glyph-name="alphabetical"
      unicode="&#xEA23;"
      horiz-adv-x="160" d=" M40 86.6666666666667C47.3637333333333 86.6666666666667 53.3332666666667 80.6973333333333 53.3332666666667 73.3333333333333L53.3333333333333 46.6666666666667L26.6666666666667 46.6666666666667C19.3028666666667 46.6666666666667 13.3333333333333 52.636 13.3333333333333 60L13.3333333333333 73.3333333333333C13.3333333333333 80.6973333333333 19.3028666666667 86.6666666666667 26.6666666666667 86.6666666666667L40 86.6666666666667zM26.6666666666667 73.3333333333333L26.6666666666667 60L40 60L40 73.3333333333333L26.6666666666667 73.3333333333333zM133.3333333333334 73.3333333333333L133.3333333333334 60L146.6666666666667 60L146.6666666666667 46.6666666666667L133.3333333333334 46.6666666666667C125.9693333333333 46.6666666666667 120 52.636 120 60L120 73.3333333333333C120 80.6973333333333 125.9693333333333 86.6666666666667 133.3333333333334 86.6666666666667L146.6666666666667 86.6666666666667L146.6666666666667 73.3333333333333L133.3333333333334 73.3333333333333zM80 113.3333333333333L80 86.6666666666667L93.3333333333333 86.6666666666667C100.6973333333333 86.6666666666667 106.6666666666667 80.6973333333333 106.6666666666667 73.3333333333333L106.6666666666667 60C106.6666666666667 52.636 100.6973333333333 46.6666666666667 93.3333333333333 46.6666666666667L80 46.6666666666667C72.636 46.6666666666667 66.6666666666667 52.636 66.6666666666667 60L66.6666666666667 113.3333333333333L80 113.3333333333333zM80 60L93.3333333333333 60L93.3333333333333 73.3333333333333L80 73.3333333333333L80 60z" />
    <glyph glyph-name="amazon-clouddrive"
      unicode="&#xEA25;"
      horiz-adv-x="160" d=" M32.9412 85.8826666666667C34.847 85.8826666666667 36.6892666666667 85.6106666666667 38.4314 85.1033333333333C38.4342666666667 99.3952666666667 50.0211333333333 110.9804 64.3137333333333 110.9804C75.158 110.9804 84.444 104.3114 88.2953333333334 94.8512C92.1666666666667 99.8896 98.2533333333333 103.1372666666667 105.098 103.1372666666667C116.7933333333333 103.1372666666667 126.2746666666667 93.6562 126.2746666666667 81.9606666666667C126.2746666666667 80.3013333333333 126.0833333333334 78.686 125.7226666666667 77.136C127.366 77.7206666666667 129.136 78.0393333333333 130.9806666666667 78.0393333333333C139.644 78.0393333333333 146.6666666666667 71.016 146.6666666666667 62.3526666666667C146.6666666666667 53.69 139.644 46.6666666666667 130.9806666666667 46.6666666666667C122.3173333333333 46.6666666666667 42.3921333333333 46.6666666666667 32.9412 46.6666666666667C22.1120666666667 46.6666666666667 13.3333333333333 55.4453333333333 13.3333333333333 66.2746666666667C13.3333333333333 77.1033333333333 22.1121333333333 85.8826666666667 32.9412 85.8826666666667z" />
    <glyph glyph-name="amazon"
      unicode="&#xEA24;"
      horiz-adv-x="160" d=" M106.2033333333333 46.084C105.02 45.0233333333333 103.3146666666667 44.952 101.9833333333333 45.668C96.0493333333333 50.5986666666667 94.9866666666667 52.878 91.744 57.5713333333333C81.94 47.5833333333333 74.9953333333333 44.588 62.2967333333333 44.588C47.2576 44.588 35.5622 53.8673333333333 35.5622 72.4266666666667C35.5622 86.9266666666667 43.4152 96.7858 54.61 101.6194C64.3011333333333 105.8733333333333 77.8366666666667 106.6460666666667 88.194 107.8064L88.194 110.1262C88.194 114.3793333333333 88.5286666666667 119.4068 86.024 123.0790666666667C83.8513333333333 126.3665333333333 79.6726666666667 127.7198 75.9986666666667 127.7198C69.186 127.7198 63.1278 124.2286666666667 61.6419333333333 116.994C61.3313333333333 115.3844666666667 60.1578 113.7926 58.5374 113.7105333333333L41.2268666666667 115.5842666666667C39.7647333333333 115.9136666666667 38.1383333333333 117.0859333333334 38.5617333333333 119.3178666666667C42.5386666666667 140.3213333333334 61.5053333333333 146.6666666666667 78.5033333333333 146.6666666666667C87.1933333333333 146.6666666666667 98.554 144.3468 105.406 137.773C114.094 129.6528666666667 113.2586666666667 118.8261333333333 113.2586666666667 107.0328666666667L113.2586666666667 79.2053333333333C113.2586666666667 70.8346666666667 116.7353333333334 67.1626666666667 120 62.6513333333333C121.1393333333334 61.0273333333333 121.3966666666667 59.094 119.9426666666667 57.908L106.2446666666667 46.044L106.2033333333333 46.084zM88.194 89.6333333333333L88.194 93.4993333333333C75.274 93.4993333333333 61.6279333333333 90.7326666666667 61.6279333333333 75.52C61.6279333333333 67.788 65.6385333333333 62.566 72.4886666666667 62.566C77.502 62.566 82.0133333333333 65.6586666666667 84.8526666666667 70.686C88.3626666666667 76.8733333333333 88.194 82.6726666666667 88.194 89.6333333333333zM134.3966666666667 29.7573333333333C119.8686666666667 19.036 98.8046666666667 13.3333333333333 80.6673333333333 13.3333333333333C55.2466 13.3333333333333 32.3566 22.7293333333333 15.0330666666667 38.372C13.6733333333333 39.5993333333333 14.8864666666667 41.278 16.5213333333333 40.3266666666667C35.2105333333333 29.4506666666667 58.3217333333333 22.9006666666666 82.1933333333333 22.9006666666666C98.296 22.9006666666666 115.998 26.2426666666667 132.2853333333334 33.1506666666667C134.7413333333334 34.1933333333333 136.8006666666667 31.532 134.3966666666667 29.7573333333333zM140.4433333333334 36.6586666666667C138.584 39.0386666666667 128.158 37.7873333333333 123.4753333333334 37.2266666666667C122.0566666666667 37.0566666666667 121.8366666666667 38.2946666666667 123.116 39.1933333333333C131.432 45.0346666666667 145.058 43.3473333333333 146.642 41.3926666666667C148.2386666666667 39.4193333333333 146.2246666666667 25.7573333333334 138.43 19.2366666666667C137.2313333333334 18.2333333333333 136.0913333333333 18.7686666666667 136.6226666666667 20.094C138.376 24.4733333333333 142.3026666666667 34.2793333333333 140.4433333333334 36.6586666666667z" />
    <glyph glyph-name="ambulance"
      unicode="&#xEA26;"
      horiz-adv-x="160" d=" M119.996 36.6793333333333C125.516 36.6793333333333 129.996 41.1593333333333 129.996 46.6793333333333C129.996 52.1993333333333 125.516 56.6793333333333 119.996 56.6793333333333C114.476 56.6793333333333 109.996 52.1993333333333 109.996 46.6793333333333C109.996 41.1593333333333 114.476 36.6793333333333 119.996 36.6793333333333zM129.996 96.6795333333333L113.3293333333334 96.6795333333333L113.3293333333334 80.0126666666667L143.0893333333334 80.0126666666667L129.996 96.6795333333333zM39.9960666666667 36.6793333333333C45.5160666666667 36.6793333333333 49.9960666666667 41.1593333333333 49.9960666666667 46.6793333333333C49.9960666666667 52.1993333333333 45.5160666666667 56.6793333333333 39.9960666666667 56.6793333333333C34.4760666666667 56.6793333333333 29.9960666666667 52.1993333333333 29.9960666666667 46.6793333333333C29.9960666666667 41.1593333333333 34.4760666666667 36.6793333333333 39.9960666666667 36.6793333333333zM133.3293333333334 106.6795333333333L153.3293333333334 80.0126666666667L153.3293333333334 46.6793333333333L139.996 46.6793333333333C139.996 35.6326666666667 131.0426666666667 26.6793333333333 119.996 26.6793333333333C108.9493333333333 26.6793333333333 99.996 35.6326666666667 99.996 46.6793333333333L59.9960666666667 46.6793333333333C59.9960666666667 35.6326666666667 51.0427333333333 26.6793333333333 39.9960666666667 26.6793333333333C28.9494 26.6793333333333 19.9960666666667 35.6326666666667 19.9960666666667 46.6793333333333L6.6627333333333 46.6793333333333L6.6627333333333 120.0128666666667C6.6627333333333 127.3795333333334 12.6294 133.3462 19.9960666666667 133.3462L113.3293333333334 133.3462L113.3293333333334 106.6795333333333L133.3293333333334 106.6795333333333zM53.3333333333333 120L53.3333333333333 100L33.3333333333333 100L33.3333333333333 86.6666666666667L53.3333333333333 86.6666666666667L53.3333333333333 66.6666666666667L66.6666666666667 66.6666666666667L66.6666666666667 86.6666666666667L86.6666666666667 86.6666666666667L86.6666666666667 100L66.6666666666667 100L66.6666666666667 120L53.3333333333333 120z" />
    <glyph glyph-name="android-debug-bridge"
      unicode="&#xEA28;"
      horiz-adv-x="160" d=" M99.996 100.0128666666667C96.3093333333333 100.0128666666667 93.3293333333333 102.9995333333333 93.3293333333333 106.6795333333333C93.3293333333333 110.3595333333333 96.3093333333333 113.3462 99.996 113.3462C103.6826666666667 113.3462 106.6626666666667 110.3595333333333 106.6626666666667 106.6795333333333C106.6626666666667 102.9995333333333 103.6826666666667 100.0128666666667 99.996 100.0128666666667zM59.9958666666667 100.0128666666667C56.3092 100.0128666666667 53.3292 102.9995333333333 53.3292 106.6795333333333C53.3292 110.3595333333333 56.3092 113.3462 59.9958666666667 113.3462C63.6825333333333 113.3462 66.6625333333333 110.3595333333333 66.6625333333333 106.6795333333333C66.6625333333333 102.9995333333333 63.6825333333333 100.0128666666667 59.9958666666667 100.0128666666667zM107.4826666666667 130.8862L121.474 144.8796L115.976 150.3862L100.616 135.0195333333333C94.3693333333334 138.1128666666667 87.4293333333333 140.0128666666667 79.996 140.0128666666667C72.5626666666667 140.0128666666667 65.6225333333333 138.1128666666667 59.3758666666667 135.0195333333333L44.0092 150.3862L38.5158666666667 144.8796L52.5092 130.8862C40.9358666666667 122.3995333333333 33.3292 108.8062 33.3292 93.3462L33.3292 86.6793333333333L126.6626666666667 86.6793333333333L126.6626666666667 93.3462C126.6626666666667 108.8062 119.056 122.3995333333333 107.4826666666667 130.8862zM33.3292 53.346C33.3292 27.5726666666667 54.2225333333333 6.6793333333333 79.996 6.6793333333333C105.7693333333333 6.6793333333333 126.6626666666667 27.5726666666667 126.6626666666667 53.346L126.6626666666667 80.0126666666667L33.3292 80.0126666666667L33.3292 53.346z" />
    <glyph glyph-name="android-studio"
      unicode="&#xEA27;"
      horiz-adv-x="160" d=" M73.3333333333333 146.6667333333333L86.6666666666667 146.6667333333333L86.6666666666667 133.3334L90 133.3333333333334C95.5226666666667 133.3333333333334 100 128.8562 100 123.3333333333333L100 100L97.0813333333334 97.0811333333333L108.0253333333334 78.1253333333333C115.416 85.3833333333333 120 95.4897333333333 120 106.6666666666667L133.3333333333334 106.6666C133.3333333333334 90.5353333333333 126.1713333333333 76.0766666666667 114.8546666666667 66.2973333333333L135.7733333333334 30.064L136.6666666666667 15.184L124.2266666666667 23.3973333333333L103.7333333333333 58.892C96.586 55.334 88.5266666666667 53.3333333333333 80 53.3333333333333C71.4733333333333 53.3333333333333 63.4142666666667 55.334 56.2663333333333 58.892L35.7735333333333 23.3973333333333L23.3333333333333 15.184L24.2265333333333 30.064L62.9188 97.0812L60 100L60 123.3333333333333C60 128.8562 64.4771333333333 133.3333333333334 70 133.3333333333334L73.3333333333333 133.3334L73.3333333333333 146.6667333333333zM62.9515333333333 70.4713333333333C68.1233333333333 68.0313333333333 73.902 66.6666666666667 80 66.6666666666667C86.0973333333333 66.6666666666667 91.8766666666667 68.0313333333333 97.048 70.4713333333333L87.3206666666667 87.3206666666667L87.2713333333333 87.3206666666667C83.166 83.2146666666667 76.834 83.2146666666667 72.7286666666667 87.3206666666667L72.6793333333333 87.3206666666667L62.9515333333333 70.4713333333333zM80 120C76.318 120 73.3333333333333 117.0152 73.3333333333333 113.3333333333333C73.3333333333333 109.6514 76.318 106.6666666666667 80 106.6666666666667C83.682 106.6666666666667 86.6666666666667 109.6514 86.6666666666667 113.3333333333333C86.6666666666667 117.0152 83.682 120 80 120z" />
    <glyph glyph-name="android"
      unicode="&#xEA2A;"
      horiz-adv-x="160" d=" M99.996 126.6796666666667L93.3293333333333 126.6796666666667L93.3293333333333 133.3463333333333L99.996 133.3463333333333M66.6626 126.6796666666667L59.9959333333333 126.6796666666667L59.9959333333333 133.3463333333333L66.6626 133.3463333333333M103.5426666666667 145.6262L112.236 154.31966C113.536 155.62622 113.536 157.7331533333333 112.236 159.0397133333334C110.936 160.3397626666667 108.8226666666667 160.3397626666667 107.5226666666667 159.0397133333334L97.676 149.1862C92.336 151.8262 86.3493333333334 153.3463533333333 79.996 153.3463533333333C73.6093333333333 153.3463533333333 67.596 151.8062666666667 62.2424 149.1528L52.3559333333333 159.0397133333334C51.0494 160.3397626666667 48.9424666666667 160.3397626666667 47.6359333333333 159.0397133333334C46.3358666666667 157.7331533333333 46.3358666666667 155.62622 47.6359333333333 154.31966L56.3826666666667 145.5798666666667C46.4624 138.2995333333333 39.9959333333333 126.593 39.9959333333333 113.3463333333333L119.996 113.3463333333333C119.996 126.6198666666667 113.5026666666667 138.3528666666667 103.5426666666667 145.6262zM136.6626666666667 106.6796666666667C131.1426666666667 106.6796666666667 126.6626666666667 102.2062 126.6626666666667 96.6796666666667L126.6626666666667 50.0133333333333C126.6626666666667 44.4866666666667 131.1426666666667 40.0133333333333 136.6626666666667 40.0133333333333C142.1826666666667 40.0133333333333 146.6626666666667 44.4866666666667 146.6626666666667 50.0133333333333L146.6626666666667 96.6796666666667C146.6626666666667 102.2062 142.1826666666667 106.6796666666667 136.6626666666667 106.6796666666667zM23.3292666666667 106.6796666666667C17.8092666666667 106.6796666666667 13.3292666666667 102.2062 13.3292666666667 96.6796666666667L13.3292666666667 50.0133333333333C13.3292666666667 44.4866666666667 17.8092666666667 40.0133333333333 23.3292666666667 40.0133333333333C28.8492666666667 40.0133333333333 33.3292666666667 44.4866666666667 33.3292666666667 50.0133333333333L33.3292666666667 96.6796666666667C33.3292666666667 102.2062 28.8492666666667 106.6796666666667 23.3292666666667 106.6796666666667zM39.9959333333333 40.0133333333333C39.9959333333333 36.3393333333333 42.9890666666667 33.3466666666667 46.6626 33.3466666666667L53.3292666666667 33.3466666666667L53.3292666666667 10.0133333333333C53.3292666666667 4.4866666666667 57.8092666666667 0.0133333333333 63.3292666666667 0.0133333333333C68.8493333333334 0.0133333333333 73.3293333333333 4.4866666666667 73.3293333333333 10.0133333333333L73.3293333333333 33.3466666666667L86.6626666666667 33.3466666666667L86.6626666666667 10.0133333333333C86.6626666666667 4.4866666666667 91.1426666666667 0.0133333333333 96.6626666666667 0.0133333333333C102.1826666666667 0.0133333333333 106.6626666666667 4.4866666666667 106.6626666666667 10.0133333333333L106.6626666666667 33.3466666666667L113.3293333333334 33.3466666666667C117.0026666666667 33.3466666666667 119.996 36.3393333333333 119.996 40.0133333333333L119.996 106.6796666666667L39.9959333333333 106.6796666666667L39.9959333333333 40.0133333333333z" />
    <glyph glyph-name="apple-finder"
      unicode="&#xEA2C;"
      horiz-adv-x="160" d=" M26.6666666666667 133.3333333333334L79.2486666666667 133.3333333333334C83.0466666666667 140.6173333333333 87.5526666666667 147.4874 92.8846666666667 153.3080666666667L100.2606666666667 145.9325333333334C97.4253333333333 141.9768 94.8753333333333 137.7304666666667 92.582 133.3333333333334L133.3333333333334 133.3333333333334C140.6973333333334 133.3333333333334 146.6666666666667 127.3638 146.6666666666667 120L146.6666666666667 33.3333333333333C146.6666666666667 25.9693333333333 140.6973333333334 20 133.3333333333334 20L99.5033333333333 20L101.74 11.8046666666667L89.5146666666667 6.97L86.1793333333333 20L26.6666666666667 20C19.3028666666667 20 13.3333333333333 25.9693333333333 13.3333333333333 33.3333333333333L13.3333333333333 120C13.3333333333333 127.3638 19.3028666666667 133.3333333333334 26.6666666666667 133.3333333333334zM26.6666666666667 119.9999333333333L26.6666666666667 33.3333333333333L83.602 33.3333333333333C83.2526666666667 35.5273333333333 82.9346666666667 37.7606666666667 82.6586666666667 40.0226666666667C81.7773333333334 40.0073333333333 80.8906666666667 40 80 40C61.6479333333333 40 45.2202666666667 43.204 34.2144 48.2526666666667L40.2836 59.1773333333333C46.6886 55.7286666666667 61.1468666666667 53.3333333333333 80 53.3333333333333C80.5313333333333 53.3333333333333 81.0586666666667 53.3353333333333 81.5833333333333 53.3386666666667C81.422 57.788 81.4753333333333 62.2573333333333 81.8053333333333 66.6666666666667L59.9999333333333 66.6666666666667C59.9999333333333 66.6666666666667 62.6881333333333 93.5483333333333 73.1853333333333 119.9999333333333L26.6666666666667 119.9999333333333zM133.3333333333334 33.3333333333333L133.3333333333334 119.9999333333333L86.5186666666667 119.9999333333333C80.6493333333334 105.2096 77.2213333333333 90.2846666666667 75.3393333333333 80L94.4813333333333 80C93.1853333333333 71.4686666666667 93.1073333333333 62.5246666666667 93.7606666666667 53.796C105.8326666666667 54.6513333333333 114.978 56.626 119.7166666666667 59.1773333333333L125.7853333333333 48.2526666666667C117.9413333333333 44.6546666666667 107.3426666666667 41.9933333333333 95.256 40.7606666666667C95.6413333333333 38.23 96.0713333333333 35.7486666666667 96.5313333333333 33.3333333333333L133.3333333333334 33.3333333333333zM40 106.6666666666667L53.3333333333333 106.6666666666667L53.3333333333333 86.6666666666667L40 86.6666666666667L40 106.6666666666667zM106.6666666666667 106.6666666666667L120 106.6666666666667L120 86.6666666666667L106.6666666666667 86.6666666666667L106.6666666666667 106.6666666666667z" />
    <glyph glyph-name="apple-mobileme"
      unicode="&#xEA29;"
      horiz-adv-x="160" d=" M146.6666666666667 59.7033333333333C146.6666666666667 45.1393333333333 134.948 33.3333333333333 120.4886666666667 33.3333333333333L39.5112 33.3333333333333C25.0519333333333 33.3333333333333 13.3334 45.1393333333333 13.3334 59.7033333333333C13.3334 72.858 22.8888666666667 83.7553333333333 35.3926666666667 85.748C35.2297333333333 86.6726666666667 35.1407333333333 87.6206666666667 35.1407333333333 88.5986666666667C35.1407333333333 97.8266666666667 42.563 105.3081333333333 51.7334666666667 105.3081333333333C55.8223333333333 105.3081333333333 59.5703333333333 103.8192 62.4445333333333 101.3422C67.6 113.0325333333333 74.2073333333333 123.7036666666667 92.726 123.7036666666667C115.1853333333333 123.7036666666667 125.8226666666667 106.2488666666667 125.8226666666667 87.8326666666667C125.8226666666667 87.062 125.7926666666667 86.2993333333333 125.748 85.544C137.6886666666667 83.0933333333333 146.6666666666667 72.456 146.6666666666667 59.7033333333333z" />
    <glyph glyph-name="apple-safari"
      unicode="&#xEA2E;"
      horiz-adv-x="160" d=" M80 146.6666666666667C116.8186666666667 146.6666666666667 146.6666666666667 116.819 146.6666666666667 80C146.6666666666667 43.1813333333333 116.8186666666667 13.3333333333333 80 13.3333333333333C43.181 13.3333333333333 13.3333333333333 43.1813333333333 13.3333333333333 80C13.3333333333333 116.819 43.181 146.6666666666667 80 146.6666666666667zM80 133.3332666666667C50.5448 133.3332666666667 26.6666666666667 109.4551333333333 26.6666666666667 80C26.6666666666667 66.0773333333333 32.0016 53.4006666666667 40.7386666666667 43.9026666666667L65.8582 94.1416L116.0973333333334 119.2612C106.5993333333333 127.9983333333333 93.9226666666667 133.3332666666667 80 133.3332666666667zM80 26.6666666666667C109.4553333333333 26.6666666666667 133.3333333333334 50.5446666666667 133.3333333333334 80C133.3333333333334 93.9222666666667 127.9986666666667 106.5986 119.262 116.0964666666667L94.1426666666667 65.8573333333333L43.9033333333333 40.738C53.4012 32.0013333333333 66.0776 26.6666666666667 80 26.6666666666667zM80 79.9993333333333L74.8933333333333 85.1066666666667L64.6798 64.6793333333333L85.1073333333333 74.8926666666667L80 79.9993333333333zM80 43.3333333333333L86.6666666666667 43.3333333333333L86.6666666666667 33.3333333333333L80 33.3333333333333L80 43.3333333333333zM105.868 54.0766666666667L110.582 58.7906666666667L117.6533333333333 51.72L112.9386666666667 47.006L105.868 54.0766666666667zM116.5626666666667 79.9653333333333L116.5626666666667 86.632L126.5626666666667 86.632L126.5626666666667 79.9653333333333L116.5626666666667 79.9653333333333zM80 116.6666666666667L73.3333333333333 116.6666666666667L73.3333333333333 126.6666666666667L80 126.6666666666667L80 116.6666666666667zM54.1320666666667 105.923L49.418 101.2089333333333L42.3469333333333 108.28L47.061 112.9940666666667L54.1320666666667 105.923zM43.4375333333333 80.0346666666667L43.4375333333333 73.368L33.4375333333333 73.368L33.4375333333333 80.0346666666667L43.4375333333333 80.0346666666667z" />
    <glyph glyph-name="apple"
      unicode="&#xEA2B;"
      horiz-adv-x="160" d=" M124.7133333333334 29.8793333333333C119.172 21.7506666666667 113.44 13.672 104.39 13.5026666666667C95.4833333333333 13.3333333333333 92.628 18.7946666666666 82.4646666666667 18.7946666666666C72.2906666666667 18.7946666666666 69.108 13.672 60.6986 13.3333333333333C51.9617333333333 13.0053333333333 45.3183333333333 22.1126666666667 39.7313333333333 30.2046666666667C28.3172666666667 46.75 19.6056 76.9866666666667 31.3218666666667 97.3921333333333C37.1237333333333 107.5259333333333 47.52 113.9376666666667 58.7859333333333 114.1069333333333C67.366 114.2653333333333 75.4713333333333 108.3043333333333 80.712 108.3043333333333C85.9606666666667 108.3043333333333 95.7986666666667 115.4612 106.1413333333333 114.4114666666667C110.4706666666667 114.2320666666667 122.6213333333334 112.6615333333333 130.4246666666667 101.2075333333333C129.808 100.8009333333333 115.9213333333334 92.6966666666667 116.0906666666667 75.8126666666667C116.2606666666667 55.644 133.7093333333334 48.94 133.912 48.8486666666667C133.754 48.3746666666667 131.1226666666667 39.278 124.7133333333334 29.8793333333333zM86.7153333333334 136.5671333333334C91.5053333333333 142.1976 99.5986666666667 146.3855333333334 106.278 146.6669333333333C107.1313333333334 138.8459333333333 103.9946666666667 131.0141333333334 99.362 125.3706666666667C94.72 119.7373333333334 87.1213333333333 115.3490666666667 79.664 115.935C78.6506666666667 123.5867333333333 82.4093333333333 131.5668666666667 86.7153333333334 136.5671333333334z" />
    <glyph glyph-name="appnet"
      unicode="&#xEA30;"
      horiz-adv-x="160" d=" M96.4926666666667 99.0521333333333C100.474 108.7204 107.8673333333333 131.4692 109.0046666666667 135.4502666666667C110.142 139.4313333333333 112.986 140 114.692 140L128.3413333333334 140C130.616 140 131.896 138.2938 131.3273333333334 135.4502C116.9666666666667 84.834 107.2986666666667 70.0473333333333 107.2986666666667 66.6353333333333C107.2986666666667 58.104 116.398 42.18 124.9286666666667 42.18C130.0473333333334 42.18 128.91 49.5733333333333 134.5973333333333 49.5733333333333L145.4026666666667 49.5733333333333C147.1093333333334 49.5733333333333 148.8153333333334 47.8673333333333 148.8153333333334 45.024C148.8153333333334 42.18 145.652 20 124.04 20C102.4286666666667 20 94.36 46.1253333333333 94.36 46.1253333333333C91.5166666666667 40.438 74.8813333333334 20 54.4076 20C18.0094666666667 20 11.1848666666667 58.6726666666667 11.1848666666667 81.422C11.1848666666667 104.1706666666667 21.9905333333333 140 52.7014 140C83.4126666666667 140 96.4926666666667 99.0521333333333 96.4926666666667 99.0521333333333zM29.9526 83.128C29.9526 70.0473333333333 29.3838666666667 42.7486666666667 53.3410666666667 42.18C66.9193333333333 41.6113333333333 79.4313333333333 58.6726666666667 85.3673333333333 72.322C77.1566666666667 100.7582666666667 71.4693333333333 117.8199333333333 53.2701333333333 117.8199333333333C28.8152 117.2512 29.9526 83.128 29.9526 83.128z" />
    <glyph glyph-name="apps"
      unicode="&#xEA2D;"
      horiz-adv-x="160" d=" M106.6626666666667 26.6793333333333L133.3293333333334 26.6793333333333L133.3293333333334 53.346L106.6626666666667 53.346M106.6626666666667 66.6793333333333L133.3293333333334 66.6793333333333L133.3293333333334 93.3462L106.6626666666667 93.3462M66.6625333333333 106.6795333333333L93.3293333333333 106.6795333333333L93.3293333333333 133.3462L66.6625333333333 133.3462M106.6626666666667 106.6795333333333L133.3293333333334 106.6795333333333L133.3293333333334 133.3462L106.6626666666667 133.3462M66.6625333333333 66.6793333333333L93.3293333333333 66.6793333333333L93.3293333333333 93.3462L66.6625333333333 93.3462M26.6625333333333 66.6793333333333L53.3292 66.6793333333333L53.3292 93.3462L26.6625333333333 93.3462M26.6625333333333 26.6793333333333L53.3292 26.6793333333333L53.3292 53.346L26.6625333333333 53.346M66.6625333333333 26.6793333333333L93.3293333333333 26.6793333333333L93.3293333333333 53.346L66.6625333333333 53.346M26.6625333333333 106.6795333333333L53.3292 106.6795333333333L53.3292 133.3462L26.6625333333333 133.3462L26.6625333333333 106.6795333333333z" />
    <glyph glyph-name="archive"
      unicode="&#xEA2F;"
      horiz-adv-x="160" d=" M20 140L140 140L140 113.3333333333333L20 113.3333333333333L20 140zM26.6666666666667 106.6666L133.3333333333334 106.6666L133.3333333333334 20L26.6666666666667 20L26.6666666666667 106.6666zM63.3333333333333 86.6666666666667C61.4924 86.6666666666667 60 85.174 60 83.3333333333333L60 73.3333333333333L100 73.3333333333333L100 83.3333333333333C100 85.174 98.5073333333333 86.6666666666667 96.6666666666667 86.6666666666667L63.3333333333333 86.6666666666667z" />
    <glyph glyph-name="arrange-bring-forward"
      unicode="&#xEA31;"
      horiz-adv-x="160" d=" M13.3333333333333 146.6666666666667L106.6666666666667 146.6666666666667L106.6666666666667 53.3333333333333L13.3333333333333 53.3333333333333L13.3333333333333 146.6666666666667zM146.6666666666667 106.6666666666667L146.6666666666667 13.3333333333333L53.3333333333333 13.3333333333333L53.3333333333333 40L66.6666666666667 40L66.6666666666667 26.6666666666667L133.3333333333334 26.6666666666667L133.3333333333334 93.3333333333333L120 93.3333333333333L120 106.6666666666667L146.6666666666667 106.6666666666667z" />
    <glyph glyph-name="arrange-bring-to-front"
      unicode="&#xEA33;"
      horiz-adv-x="160" d=" M13.3333333333333 146.6666666666667L73.3333333333333 146.6666L73.3333333333333 120L60 120L60 133.3333333333334L26.6666666666667 133.3332666666667L26.6666666666667 100L40 100L40 86.6666666666667L13.3333333333333 86.6666666666667L13.3333333333333 146.6666666666667zM146.6666666666667 73.3333333333333L146.6666666666667 13.3333333333333L86.6666666666667 13.3333333333333L86.6666666666667 40L100 40L100 26.6666666666667L133.3333333333334 26.6666666666667L133.3333333333334 60L120 60L120 73.3333333333333L146.6666666666667 73.3333333333333zM53.3333333333333 106.6666666666667L106.6666666666667 106.6666666666667L106.6666666666667 53.3333333333333L53.3333333333333 53.3333333333333L53.3333333333333 106.6666666666667z" />
    <glyph glyph-name="arrange-send-backward"
      unicode="&#xEA32;"
      horiz-adv-x="160" d=" M13.3333333333333 146.6666666666667L106.6666666666667 146.6666666666667L106.6666666666667 53.3333333333333L13.3333333333333 53.3333333333333L13.3333333333333 146.6666666666667zM146.6666666666667 106.6666666666667L146.6666666666667 13.3333333333333L53.3333333333333 13.3333333333333L53.3333333333333 40L120 40L120 106.6666666666667L146.6666666666667 106.6666666666667zM26.6666666666667 133.3333333333334L26.6666666666667 66.6666666666667L93.3333333333333 66.6666666666667L93.3333333333333 133.3333333333334L26.6666666666667 133.3333333333334z" />
    <glyph glyph-name="arrange-send-to-back"
      unicode="&#xEA36;"
      horiz-adv-x="160" d=" M13.3333333333333 146.6666666666667L73.3333333333333 146.6666L73.3333333333333 86.6666666666667L13.3333333333333 86.6666666666667L13.3333333333333 146.6666666666667zM60 133.3332666666667L26.6666666666667 133.3332666666667L26.6666666666667 99.9999333333333L60 100L60 133.3332666666667zM146.6666666666667 73.3333333333333L146.6666666666667 13.3333333333333L86.6666666666667 13.3333333333333L86.6666666666667 73.3333333333333L146.6666666666667 73.3333333333333zM100 26.6666666666667L133.3333333333334 26.6666666666667L133.3333333333334 60L100 60L100 26.6666666666667zM106.6666666666667 106.6666666666667L106.6666666666667 86.6666666666667L86.6666666666667 86.6666666666667L86.6666666666667 106.6666666666667L106.6666666666667 106.6666666666667zM73.3333333333333 53.3333333333333L53.3333333333333 53.3333333333333L53.3333333333333 73.3333333333333L73.3333333333333 73.3333333333333L73.3333333333333 53.3333333333333z" />
    <glyph glyph-name="arrow-all"
      unicode="&#xEA34;"
      horiz-adv-x="160" d=" M86.6666666666667 86.6666666666667L120 86.6666666666667L110 96.6666L119.4626666666667 106.1295333333333L145.592 80L119.4626666666667 53.8706666666667L110 63.3333333333333L120.0693333333334 73.3333333333333L86.6666666666667 73.3333333333333L86.6666666666667 40L96.6666666666667 50L106.1293333333333 40.5366666666667L80 14.408L53.8708 40.5373333333333L63.3333333333333 50L73.3333333333333 40L73.3333333333333 73.3333333333333L40 73.3333333333333L50 63.3333333333333L40.537 53.8706666666667L14.4077333333333 80L40.5370666666667 106.1292666666667L50 96.6666L40 86.6666666666667L73.3333333333333 86.6666666666667L73.3333333333333 120L63.3333333333333 109.9999333333333L53.8704 119.463L80 145.5922666666667L106.1293333333333 119.463L96.6666666666667 109.9999333333333L86.6666666666667 120L86.6666666666667 86.6666666666667z" />
    <glyph glyph-name="arrow-collapse"
      unicode="&#xEA35;"
      horiz-adv-x="160" d=" M129.9506666666667 139.3790666666667L139.3786666666667 129.951L109.428 100L133.3333333333334 100L133.3333333333334 86.6666666666667L86.6666666666667 86.6666666666667L86.6666666666667 133.3333333333334L100 133.3333333333334L100 109.4280666666667L129.9506666666667 139.3790666666667zM139.3793333333333 30.0486666666667L129.9506666666667 20.6206666666667L100 50.572L100 26.6666666666667L86.6666666666667 26.6666666666667L86.6666666666667 73.3333333333333L133.3333333333334 73.3333333333333L133.3333333333334 60L109.428 60L139.3793333333333 30.0486666666667zM30.0491333333333 139.3790666666667L60 109.4280666666667L60 133.3332666666667L73.3333333333333 133.3332666666667L73.3333333333333 86.6666666666667L26.6666666666667 86.6666666666667L26.6666666666667 100L50.5719333333333 100L20.6210666666667 129.951L30.0491333333333 139.3790666666667zM20.6209333333333 30.0486666666667L50.5719333333333 60L26.6666666666667 60L26.6666666666667 73.3333333333333L73.3333333333333 73.3333333333333L73.3333333333333 26.6666666666667L60 26.6666666666667L60 50.572L30.049 20.6206666666667L20.6209333333333 30.0486666666667z" />
    <glyph glyph-name="arrow-down-bold-circle-outline"
      unicode="&#xEA37;"
      horiz-adv-x="160" d=" M80 46.6666666666667L46.6669333333333 80L66.6666666666667 80L66.6666666666667 106.6667333333333L93.3333333333333 106.6667333333333L93.3333333333333 80L113.3333333333334 80L80 46.6666666666667zM80 146.6666666666667C116.8186666666667 146.6666666666667 146.6666666666667 116.8189333333333 146.6666666666667 80C146.6666666666667 43.1806666666667 116.8186666666667 13.3333333333333 80 13.3333333333333C43.181 13.3333333333333 13.3333333333333 43.1806666666667 13.3333333333333 80C13.3333333333333 116.8189333333333 43.181 146.6666666666667 80 146.6666666666667zM80 133.3332666666667C50.5448 133.3332666666667 26.6666666666667 109.4551333333333 26.6666666666667 80C26.6666666666667 50.5446666666667 50.5448 26.6666666666667 80 26.6666666666667C109.4553333333333 26.6666666666667 133.3333333333334 50.5446666666667 133.3333333333334 80C133.3333333333334 109.4551333333333 109.4553333333333 133.3332666666667 80 133.3332666666667z" />
    <glyph glyph-name="arrow-down-bold-circle"
      unicode="&#xEA38;"
      horiz-adv-x="160" d=" M80 146.6666666666667C116.8186666666667 146.6666666666667 146.6666666666667 116.8189333333333 146.6666666666667 80C146.6666666666667 43.1813333333333 116.8186666666667 13.3333333333333 80 13.3333333333333C43.181 13.3333333333333 13.3333333333333 43.1813333333333 13.3333333333333 80C13.3333333333333 116.8189333333333 43.181 146.6666666666667 80 146.6666666666667zM80 46.6666666666667L113.3333333333334 80L93.3333333333333 80L93.3333333333333 106.6667333333333L66.6666666666667 106.6667333333333L66.6666666666667 80L46.6669333333333 80L80 46.6666666666667z" />
    <glyph glyph-name="arrow-down-bold-hexagon-outline"
      unicode="&#xEA39;"
      horiz-adv-x="160" d=" M80 46.6666666666667L46.6666666666667 80L66.6666666666667 80L66.6666666666667 106.6666666666667L93.3333333333333 106.6666666666667L93.3333333333333 80L113.3333333333334 80L80 46.6666666666667zM140 50C140 47.4586666666667 138.578 45.25 136.4866666666667 44.1246666666667L83.776 14.5046666666667C82.7026666666667 13.766 81.402 13.3333333333333 80 13.3333333333333C78.598 13.3333333333333 77.2973333333333 13.766 76.224 14.5046666666667L23.5144 44.124C21.4223333333333 45.2486666666667 20 47.4586666666667 20 50L20 110C20 112.5416 21.4222666666667 114.751 23.5144 115.8757333333333L76.224 145.4949333333333C77.2973333333333 146.234 78.598 146.6666 80 146.6666C81.4013333333333 146.6666 82.702 146.234 83.776 145.4950666666667L136.4866666666667 115.8752C138.578 114.7502666666667 140 112.5411333333333 140 110L140 50zM80.006 132.3271333333333L33.3333333333333 106.0990666666667L33.3333333333333 53.9006666666667L80.006 27.6726666666667L126.6666666666667 53.9006666666667L126.6666666666667 106.0996L80.006 132.3271333333333z" />
    <glyph glyph-name="arrow-down-bold"
      unicode="&#xEA3A;"
      horiz-adv-x="160" d=" M66.6666666666667 133.3333333333334L93.3333333333333 133.3333333333334L93.3333333333333 73.264L116.7013333333333 96.6318666666667L132.796 80.5373333333333L80 27.7413333333333L27.2038666666667 80.5373333333333L43.2986666666667 96.6318666666667L66.6666666666667 73.264L66.6666666666667 133.3333333333334z" />
    <glyph glyph-name="arrow-down"
      unicode="&#xEA3B;"
      horiz-adv-x="160" d=" M73.3333333333333 133.3333333333334L86.6666666666667 133.3333333333334L86.6666666666667 53.264L123.368 89.9653333333333L132.796 80.5373333333333L80 27.7413333333333L27.2038666666667 80.5373333333333L36.6319333333333 89.9653333333333L73.3333333333333 53.264L73.3333333333333 133.3333333333334z" />
    <glyph glyph-name="arrow-expand"
      unicode="&#xEA3C;"
      horiz-adv-x="160" d=" M63.2842 72.7126666666667L72.712 63.2846666666667L42.7614 33.3333333333333L66.6666666666667 33.3333333333333L66.6666666666667 20L20 20L20 66.6666666666667L33.3333333333333 66.6666666666667L33.3333333333333 42.7613333333333L63.2842 72.7126666666667zM72.7126666666667 96.7156L63.2843333333333 87.2873333333333L33.3333333333333 117.2385333333333L33.3333333333333 93.3333333333333L20 93.3333333333333L20 139.9999333333333L66.6666666666667 140L66.6666666666667 126.6666666666667L42.7614 126.6666666666667L72.7126666666667 96.7156zM96.716 72.7126666666667L126.6666666666667 42.7613333333333L126.6666666666667 66.6666666666667L140 66.6666666666667L140 20L93.3333333333333 20L93.3333333333333 33.3333333333333L117.2386666666667 33.3333333333333L87.288 63.2846666666667L96.716 72.7126666666667zM87.2873333333333 96.7156666666667L117.2386666666667 126.6666666666667L93.3333333333333 126.6666666666667L93.3333333333333 140L140 140L140 93.3333333333333L126.6666666666667 93.3333333333333L126.6666666666667 117.2386L96.7153333333334 87.2873333333333L87.2873333333333 96.7156666666667z" />
    <glyph glyph-name="arrow-left-bold-circle-outline"
      unicode="&#xEA3E;"
      horiz-adv-x="160" d=" M46.6667333333333 80L80 113.333L80 93.3333333333333L106.6666666666667 93.3333333333333L106.6666666666667 66.6666666666667L80 66.6666666666667L80 46.6666666666667L46.6667333333333 80zM146.6666666666667 80C146.6666666666667 43.1806666666667 116.8186666666667 13.3333333333333 80 13.3333333333333C43.181 13.3333333333333 13.3333333333333 43.1806666666667 13.3333333333333 80C13.3333333333333 116.8189333333333 43.181 146.6666 80 146.6666C116.8186666666667 146.6666 146.6666666666667 116.8189333333333 146.6666666666667 80zM133.3333333333334 80C133.3333333333334 109.4551333333333 109.4553333333333 133.3332666666667 80 133.3332666666667C50.5447333333333 133.3332666666667 26.6666666666667 109.4551333333333 26.6666666666667 80C26.6666666666667 50.5446666666667 50.5447333333333 26.6666666666667 80 26.6666666666667C109.4553333333333 26.6666666666667 133.3333333333334 50.5446666666667 133.3333333333334 80z" />
    <glyph glyph-name="arrow-left-bold-circle"
      unicode="&#xEA3D;"
      horiz-adv-x="160" d=" M146.6666666666667 80C146.6666666666667 43.1806666666667 116.8186666666667 13.3333333333333 80 13.3333333333333C43.181 13.3333333333333 13.3333333333333 43.1806666666667 13.3333333333333 80C13.3333333333333 116.8189333333333 43.181 146.6666 80 146.6666C116.8186666666667 146.6666 146.6666666666667 116.8189333333333 146.6666666666667 80zM46.6667333333333 80L80 46.6666666666667L80 66.6666666666667L106.6666666666667 66.6666666666667L106.6666666666667 93.3333333333333L80 93.3333333333333L80 113.333L46.6667333333333 80z" />
    <glyph glyph-name="arrow-left-bold-hexagon-outline"
      unicode="&#xEA42;"
      horiz-adv-x="160" d=" M46.6667333333333 80L80 113.3330666666667L80 93.3333333333333L106.6666666666667 93.3333333333333L106.6666666666667 66.6666666666667L80 66.6666666666667L80 46.6666666666667L46.6667333333333 80zM140 50C140 47.4586666666667 138.578 45.25 136.4866666666667 44.1246666666667L83.776 14.5046666666667C82.7026666666667 13.766 81.402 13.3333333333333 80 13.3333333333333C78.598 13.3333333333333 77.2973333333333 13.766 76.224 14.5046666666667L23.5144 44.124C21.4223333333333 45.2486666666667 20 47.4586666666667 20 50L20 110C20 112.5416 21.4222666666667 114.751 23.5144 115.8757333333333L76.224 145.4949333333333C77.2973333333333 146.234 78.598 146.6666 80 146.6666C81.4013333333333 146.6666 82.702 146.234 83.776 145.4950666666667L136.4866666666667 115.8752C138.578 114.7502666666667 140 112.5411333333333 140 110L140 50zM80.006 132.3271333333333L33.3333333333333 106.0990666666667L33.3333333333333 53.9006666666667L80.006 27.6726666666667L126.6666666666667 53.9006666666667L126.6666666666667 106.0996L80.006 132.3271333333333z" />
    <glyph glyph-name="arrow-left-bold"
      unicode="&#xEA3F;"
      horiz-adv-x="160" d=" M133.3333333333334 93.3333333333333L133.3333333333334 66.6666666666667L73.264 66.6666666666667L96.632 43.2986666666667L80.5373333333333 27.204L27.7410666666667 80L80.5373333333333 132.7961333333333L96.632 116.7013333333334L73.264 93.3333333333333L133.3333333333334 93.3333333333333z" />
    <glyph glyph-name="arrow-left-drop-circle-outline"
      unicode="&#xEA40;"
      horiz-adv-x="160" d=" M146.6666666666667 80C146.6666666666667 116.8 116.8 146.6666666666667 80 146.6666666666667C43.2 146.6666666666667 13.3333333333333 116.8 13.3333333333333 80C13.3333333333333 43.2 43.2 13.3333333333333 80 13.3333333333333C116.8 13.3333333333333 146.6666666666667 43.2 146.6666666666667 80M133.3333333333334 80C133.3333333333334 50.5333333333333 109.4666666666667 26.6666666666667 80 26.6666666666667C50.5333333333333 26.6666666666667 26.6666666666667 50.5333333333333 26.6666666666667 80C26.6666666666667 109.4666666666667 50.5333333333333 133.3333333333334 80 133.3333333333334C109.4666666666667 133.3333333333334 133.3333333333334 109.4666666666667 133.3333333333334 80M93.3333333333333 113.3333333333333L60 80L93.3333333333333 46.6666666666667V113.3333333333333z" />
    <glyph glyph-name="arrow-left"
      unicode="&#xEA41;"
      horiz-adv-x="160" d=" M133.3333333333334 86.6666666666667L133.3333333333334 73.3333333333333L53.2638666666667 73.3333333333333L89.9653333333333 36.632L80.5373333333333 27.204L27.7410666666667 80L80.5373333333333 132.7961333333333L89.9653333333333 123.3680666666667L53.2638666666667 86.6666666666667L133.3333333333334 86.6666666666667z" />
    <glyph glyph-name="arrow-right-bold-circle-outline"
      unicode="&#xEA43;"
      horiz-adv-x="160" d=" M113.3333333333334 80L80 46.6666666666667L80 66.6666666666667L53.3332 66.6666666666667L53.3332 93.3336L80 93.3336L80 113.3336L113.3333333333334 80zM13.3332666666667 80C13.3332666666667 116.8189333333333 43.181 146.6666 80 146.6666C116.8186666666667 146.6666 146.6666666666667 116.8189333333333 146.6666666666667 80C146.6666666666667 43.1813333333333 116.8186666666667 13.3333333333333 80 13.3333333333333C43.181 13.3333333333333 13.3332666666667 43.1813333333333 13.3332666666667 80zM26.6666666666667 80C26.6666666666667 50.5446666666667 50.5448 26.6666666666667 80 26.6666666666667C109.4553333333333 26.6666666666667 133.3333333333334 50.5446666666667 133.3333333333334 80C133.3333333333334 109.4551333333333 109.4553333333333 133.3332666666667 80 133.3332666666667C50.5448 133.3332666666667 26.6666666666667 109.4551333333333 26.6666666666667 80z" />
    <glyph glyph-name="arrow-right-bold-circle"
      unicode="&#xEA44;"
      horiz-adv-x="160" d=" M13.3333333333333 80C13.3333333333333 116.8189333333333 43.181 146.6666666666667 80 146.6666666666667C116.8186666666667 146.6666666666667 146.6666666666667 116.819 146.6666666666667 80C146.6666666666667 43.1813333333333 116.8186666666667 13.3333333333333 80 13.3333333333333C43.181 13.3333333333333 13.3333333333333 43.1813333333333 13.3333333333333 80zM113.3333333333334 80L80 113.3336L80 93.3336L53.3332666666667 93.3336L53.3332666666667 66.6666666666667L80 66.6666666666667L80 46.6666666666667L113.3333333333334 80z" />
    <glyph glyph-name="arrow-right-bold-hexagon-outline"
      unicode="&#xEA45;"
      horiz-adv-x="160" d=" M113.3333333333334 80L80 46.6666666666667L80 66.6666666666667L53.3333333333333 66.6666666666667L53.3333333333333 93.3333333333333L80 93.3333333333333L80 113.3333333333333L113.3333333333334 80zM140 50C140 47.4586666666667 138.578 45.25 136.4866666666667 44.1246666666667L83.776 14.5046666666667C82.7026666666667 13.766 81.402 13.3333333333333 80 13.3333333333333C78.598 13.3333333333333 77.2973333333333 13.766 76.224 14.5046666666667L23.5144 44.124C21.4223333333333 45.2486666666667 20 47.4586666666667 20 50L20 110C20 112.5416 21.4222666666667 114.751 23.5144 115.8757333333333L76.224 145.4949333333333C77.2973333333333 146.234 78.598 146.6666 80 146.6666C81.4013333333333 146.6666 82.702 146.234 83.776 145.4950666666667L136.4866666666667 115.8752C138.578 114.7502666666667 140 112.5411333333333 140 110L140 50zM80.006 132.3271333333333L33.3333333333333 106.0990666666667L33.3333333333333 53.9006666666667L80.006 27.6726666666667L126.6666666666667 53.9006666666667L126.6666666666667 106.0996L80.006 132.3271333333333z" />
    <glyph glyph-name="arrow-right-bold"
      unicode="&#xEA46;"
      horiz-adv-x="160" d=" M26.6666666666667 93.3333333333333L26.6666666666667 66.6666666666667L86.736 66.6666666666667L63.3681333333333 43.2986666666667L79.4626666666667 27.204L132.2586666666667 80L79.4626666666667 132.7961333333333L63.3681333333333 116.7013333333334L86.736 93.3333333333333L26.6666666666667 93.3333333333333z" />
    <glyph glyph-name="arrow-right-drop-circle-outline"
      unicode="&#xEA47;"
      horiz-adv-x="160" d=" M13.3333333333333 80C13.3333333333333 43.2 43.2 13.3333333333333 80 13.3333333333333C116.8 13.3333333333333 146.6666666666667 43.2 146.6666666666667 80C146.6666666666667 116.8 116.8 146.6666666666667 80 146.6666666666667C43.2 146.6666666666667 13.3333333333333 116.8 13.3333333333333 80M26.6666666666667 80C26.6666666666667 109.4666666666667 50.5333333333333 133.3333333333334 80 133.3333333333334C109.4666666666667 133.3333333333334 133.3333333333334 109.4666666666667 133.3333333333334 80C133.3333333333334 50.5333333333333 109.4666666666667 26.6666666666667 80 26.6666666666667C50.5333333333333 26.6666666666667 26.6666666666667 50.5333333333333 26.6666666666667 80M66.6666666666667 46.6666666666667L100 80L66.6666666666667 113.3333333333333V46.6666666666667z" />
    <glyph glyph-name="arrow-right"
      unicode="&#xEA48;"
      horiz-adv-x="160" d=" M26.6666666666667 86.6666666666667L26.6666666666667 73.3333333333333L106.736 73.3333333333333L70.0346666666667 36.632L79.4626666666667 27.204L132.2586666666667 80L79.4626666666667 132.7961333333333L70.0346666666667 123.3680666666667L106.736 86.6666666666667L26.6666666666667 86.6666666666667z" />
    <glyph glyph-name="arrow-up-bold-circle-outline"
      unicode="&#xEA49;"
      horiz-adv-x="160" d=" M80 113.3332L113.3333333333334 80L93.3333333333333 80L93.3333333333333 53.3333333333333L66.6666666666667 53.3333333333333L66.6666666666667 80L46.6669333333333 80L80 113.3332zM80 13.3333333333333C43.181 13.3333333333333 13.3333333333333 43.1806666666667 13.3333333333333 80C13.3333333333333 116.8189333333333 43.181 146.6666 80 146.6666C116.8186666666667 146.6666 146.6666666666667 116.8189333333333 146.6666666666667 80C146.6666666666667 43.1806666666667 116.8186666666667 13.3333333333333 80 13.3333333333333zM80 26.6666666666667C109.4553333333333 26.6666666666667 133.3333333333334 50.5446666666667 133.3333333333334 80C133.3333333333334 109.4552 109.4553333333333 133.3332666666667 80 133.3332666666667C50.5447333333333 133.3332666666667 26.6666666666667 109.4552 26.6666666666667 80C26.6666666666667 50.5446666666667 50.5448 26.6666666666667 80 26.6666666666667z" />
    <glyph glyph-name="arrow-up-bold-circle"
      unicode="&#xEA4A;"
      horiz-adv-x="160" d=" M80 13.3333333333333C43.181 13.3333333333333 13.3333333333333 43.1813333333333 13.3333333333333 80C13.3333333333333 116.819 43.181 146.6666666666667 80 146.6666666666667C116.8186666666667 146.6666666666667 146.6666666666667 116.819 146.6666666666667 80C146.6666666666667 43.1813333333333 116.8186666666667 13.3333333333333 80 13.3333333333333zM80 113.3332666666667L46.6669333333333 80L66.6666666666667 80L66.6666666666667 53.3333333333333L93.3333333333333 53.3333333333333L93.3333333333333 80L113.3333333333334 80L80 113.3332666666667z" />
    <glyph glyph-name="arrow-up-bold-hexagon-outline"
      unicode="&#xEA4B;"
      horiz-adv-x="160" d=" M80 113.3333333333333L113.3333333333334 80L93.3333333333333 80L93.3333333333333 53.3333333333333L66.6666666666667 53.3333333333333L66.6666666666667 80L46.6666666666667 80L80 113.3333333333333zM140 50C140 47.4586666666667 138.578 45.25 136.4866666666667 44.1246666666667L83.776 14.5046666666667C82.7026666666667 13.766 81.402 13.3333333333333 80 13.3333333333333C78.598 13.3333333333333 77.2973333333333 13.766 76.224 14.5046666666667L23.5144 44.124C21.4223333333333 45.2486666666667 20 47.4586666666667 20 50L20 110C20 112.5416 21.4222666666667 114.751 23.5144 115.8757333333333L76.224 145.4949333333333C77.2973333333333 146.234 78.598 146.6666 80 146.6666C81.4013333333333 146.6666 82.702 146.234 83.776 145.4950666666667L136.4866666666667 115.8752C138.578 114.7502666666667 140 112.5411333333333 140 110L140 50zM80.006 132.3271333333333L33.3333333333333 106.0990666666667L33.3333333333333 53.9006666666667L80.006 27.6726666666667L126.6666666666667 53.9006666666667L126.6666666666667 106.0996L80.006 132.3271333333333z" />
    <glyph glyph-name="arrow-up-bold"
      unicode="&#xEA4C;"
      horiz-adv-x="160" d=" M93.3333333333333 26.6666666666667L66.6666666666667 26.6666666666667L66.6665333333334 86.736L43.2986 63.368L27.2038666666667 79.4626666666667L80 132.2589333333334L132.796 79.4626666666667L116.7013333333333 63.368L93.3333333333333 86.6666666666667L93.3333333333333 26.6666666666667z" />
    <glyph glyph-name="arrow-up"
      unicode="&#xEA4D;"
      horiz-adv-x="160" d=" M86.6666666666667 26.6666666666667L73.3333333333333 26.6666666666667L73.3333333333333 106.7361333333333L36.6319333333333 70.0346666666667L27.2038666666667 79.4626666666667L80 132.2589333333334L132.796 79.4626666666667L123.368 70.0346666666667L86.6666666666667 106.7361333333333L86.6666666666667 26.6666666666667z" />
    <glyph glyph-name="at"
      unicode="&#xEA4F;"
      horiz-adv-x="160" d=" M116.1506666666667 60C118.6186666666667 66.062 120 72.8426666666667 120 80C120 105.7732666666667 102.0913333333333 126.6666 80 126.6666C57.9086 126.6666 40 105.7732666666667 40 80C40 54.2266666666667 57.9086 33.3333333333333 80 33.3333333333333C90.2446666666667 33.3333333333333 100 33.3333333333333 106.6666666666667 38.5493333333333L106.6666666666667 23.0266666666667C100 20 89.714 20 80 20C50.5448 20 26.6666666666667 46.8626666666667 26.6666666666667 80C26.6666666666667 113.1370666666667 50.5448 140 80 140C109.4553333333333 140 133.3333333333334 113.1370666666667 133.3333333333334 80C133.3333333333334 67.666 130.0253333333333 56.2006666666667 124.352 46.6666666666667L93.3333333333333 46.6666666666667L93.3333333333333 56.6713333333333C89.098 50.4973333333333 83.1953333333333 46.6666666666667 76.6666666666667 46.6666666666667C63.78 46.6666666666667 53.3333333333333 61.5906666666667 53.3333333333333 80C53.3333333333333 98.4094666666667 63.78 113.3333333333333 76.6666666666667 113.3333333333333C83.1953333333333 113.3333333333333 89.098 109.5025333333333 93.3333333333333 103.3284666666667L93.3333333333333 106.6666666666667L106.6666666666667 106.6666666666667L106.6666666666667 60L116.1506666666667 60zM80 100C72.636 100 66.6666666666667 91.046 66.6666666666667 80C66.6666666666667 68.954 72.636 60 80 60C87.364 60 93.3333333333333 68.954 93.3333333333333 80C93.3333333333333 91.046 87.364 100 80 100z" />
    <glyph glyph-name="attachment"
      unicode="&#xEA4E;"
      horiz-adv-x="160" d=" M50 40C29.7333333333333 40 13.3333333333333 56.4 13.3333333333333 76.6666666666667C13.3333333333333 96.9333333333333 29.7333333333333 113.3333333333333 50 113.3333333333333L120 113.3333333333333C134.7333333333334 113.3333333333333 146.6666666666667 101.4 146.6666666666667 86.6666666666667C146.6666666666667 71.9333333333333 134.7333333333334 60 120 60L63.3333333333333 60C54.1333333333333 60 46.6666666666667 67.4666666666667 46.6666666666667 76.6666666666667C46.6666666666667 85.8666666666667 54.1333333333333 93.3333333333333 63.3333333333333 93.3333333333333L113.3333333333334 93.3333333333333L113.3333333333334 83.3333333333333L63.3333333333333 83.3333333333333C59.6666666666667 83.3333333333333 56.6666666666667 80.3333333333333 56.6666666666667 76.6666666666667C56.6666666666667 73 59.6666666666667 70 63.3333333333333 70L120 70C129.2 70 136.6666666666667 77.4666666666667 136.6666666666667 86.6666666666667C136.6666666666667 95.8666666666667 129.2 103.3333333333333 120 103.3333333333333L50 103.3333333333333C35.2666666666667 103.3333333333333 23.3333333333333 91.4 23.3333333333333 76.6666666666667C23.3333333333333 61.9333333333333 35.2666666666667 50 50 50L113.3333333333334 50L113.3333333333334 40L50 40z" />
    <glyph glyph-name="auto-fix"
      unicode="&#xEA50;"
      horiz-adv-x="160" d=" M49.9957333333333 122.6788666666667L33.3290666666667 113.3456666666667L42.6624 130.0123333333334L33.3290666666667 146.679L49.9957333333333 137.3456666666667L66.6624 146.679L57.3290666666667 130.0123333333334L66.6624 113.3456666666667L49.9957333333333 122.6788666666667zM129.996 57.3466666666667L146.6626666666667 66.68L137.3293333333333 50.0133333333333L146.6626666666667 33.3466666666667L129.996 42.68L113.3293333333334 33.3466666666667L122.6626666666667 50.0133333333333L113.3293333333334 66.68L129.996 57.3466666666667zM146.6626666666667 146.6795333333333L137.3293333333333 130.0128666666667L146.6626666666667 113.3462L129.996 122.6794L113.3293333333334 113.3462L122.6626666666667 130.0128666666667L113.3293333333334 146.6795333333333L129.996 137.3463333333334L146.6626666666667 146.6795333333333zM88.9493333333333 74.824L105.1826666666667 91.0573333333333L91.0426666666667 105.2042666666667L74.8093333333333 88.964L88.9493333333333 74.824zM95.8026666666667 111.3909333333333L111.376 95.8174666666667C113.9826666666667 93.2173333333333 113.9826666666667 88.9973333333333 111.376 86.3906666666667L33.6157333333333 8.6306666666667C31.0090666666667 6.0306666666667 26.7890666666667 6.0306666666667 24.1890666666667 8.6306666666667L8.6157333333333 24.204C6.00908 26.8106666666667 6.00908 31.0306666666667 8.6157333333333 33.6306666666667L86.376 111.3909333333333C88.9826666666667 113.9975333333333 93.2026666666667 113.9975333333333 95.8026666666667 111.3909333333333z" />
    <glyph glyph-name="auto-upload"
      unicode="&#xEA51;"
      horiz-adv-x="160" d=" M35.6626666666667 75.68L43.3292666666667 100.0136L50.9958666666667 75.68M36.6626 113.3469333333334L15.3292 53.3466666666667L27.996 53.3466666666667L32.6625333333333 66.68L53.996 66.68L58.6625333333333 53.3466666666667L71.3293333333333 53.3466666666667L49.9959333333333 113.3469333333334M73.3293333333333 26.68L146.6626666666667 26.68L146.6626666666667 40.0133333333333L73.3293333333333 40.0133333333333M93.3293333333333 53.3466666666667L126.6626666666667 53.3466666666667L126.6626666666667 86.68L146.6626666666667 86.68L109.996 123.3469333333334L73.3293333333333 86.68L93.3293333333333 86.68L93.3293333333333 53.3466666666667z" />
    <glyph glyph-name="backup-restore"
      unicode="&#xEA52;"
      horiz-adv-x="160" d=" M80 140C46.8666666666667 140 20 113.1333333333333 20 80L0 80L26.6666666666667 53.3333333333333L53.3333333333333 80L33.3333333333333 80C33.3333333333333 105.8 54.2 126.6666666666667 80 126.6666666666667C105.8 126.6666666666667 126.6666666666667 105.8 126.6666666666667 80C126.6666666666667 54.2 105.8 33.3333333333333 80 33.3333333333333C69.9333333333333 33.3333333333333 60.6 36.6 52.9333333333333 42L43.4666666666667 32.4C53.6 24.6666666666667 66.2666666666667 20 80 20C113.1333333333333 20 140 46.8666666666667 140 80C140 113.1333333333333 113.1333333333333 140 80 140zM93.3333333333333 80C93.3333333333333 87.3333333333333 87.3333333333333 93.3333333333333 80 93.3333333333333C72.6666666666667 93.3333333333333 66.6666666666667 87.3333333333333 66.6666666666667 80C66.6666666666667 72.6666666666667 72.6666666666667 66.6666666666667 80 66.6666666666667C87.3333333333333 66.6666666666667 93.3333333333333 72.6666666666667 93.3333333333333 80z" />
    <glyph glyph-name="bank"
      unicode="&#xEA55;"
      horiz-adv-x="160" d=" M76.6666666666667 153.3333333333334L13.3333333333333 120L13.3333333333333 106.6666666666667L140 106.6666666666667L140 120M106.6666666666667 93.3333333333333L106.6666666666667 46.6666666666667L126.6666666666667 46.6666666666667L126.6666666666667 93.3333333333333M13.3333333333333 13.3333333333333L140 13.3333333333333L140 33.3333333333333L13.3333333333333 33.3333333333333M66.6666666666667 93.3333333333333L66.6666666666667 46.6666666666667L86.6666666666667 46.6666666666667L86.6666666666667 93.3333333333333M26.6666666666667 93.3333333333333L26.6666666666667 46.6666666666667L46.6666666666667 46.6666666666667L46.6666666666667 93.3333333333333L26.6666666666667 93.3333333333333z" />
    <glyph glyph-name="barcode"
      unicode="&#xEA54;"
      horiz-adv-x="160" d=" M13.3333333333333 120L26.6666666666667 120L26.6666666666667 40L13.3333333333333 40L13.3333333333333 120zM33.3333333333333 119.9999333333333L40 119.9999333333333L40 40L33.3333333333333 40L33.3333333333333 119.9999333333333zM46.6666666666667 119.9999333333333L66.6666666666667 119.9999333333333L66.6666666666667 40L46.6666666666667 40L46.6666666666667 119.9999333333333zM73.3333333333333 120L80 120L80 40L73.3333333333333 40L73.3333333333333 120zM93.3333333333333 120L106.6666666666667 120L106.6666666666667 40L93.3333333333333 40L93.3333333333333 120zM113.3333333333334 120L133.3333333333334 120L133.3333333333334 40L113.3333333333334 40L113.3333333333334 120zM140 120L146.6666666666667 120L146.6666666666667 40L140 40L140 120z" />
    <glyph glyph-name="barley"
      unicode="&#xEA53;"
      horiz-adv-x="160" d=" M48.8888666666667 37.778C43.3333333333333 45.5553333333333 43.3333333333333 54.4446666666667 43.3333333333333 63.3333333333333C54.4444666666667 56.6666666666667 65.5555333333333 50 71.1113333333333 42.222L73.3333333333333 38.4913333333333L73.3333333333333 53.6713333333333C63.3853333333333 59.68 53.8879333333333 65.7793333333333 48.8888666666667 72.778C43.3333333333333 80.5553333333333 43.3333333333333 89.4446666666667 43.3333333333333 98.3333333333333C54.4444666666667 91.6666666666667 65.5555333333333 85 71.1113333333333 77.222L73.3333333333333 73.4913333333333L73.3333333333333 88.6713333333333C63.3853333333333 94.6800666666667 53.8879333333333 100.7790666666667 48.8888666666667 107.7778C43.3333333333333 115.5555333333333 43.3333333333333 124.4444666666667 43.3333333333333 133.3333333333334C54.4444666666667 126.6666666666667 65.5555333333333 120 71.1113333333333 112.2222C71.812 111.2406 72.4246666666667 110.2412666666667 72.96 109.2264666666667C71.7853333333333 113.1868666666667 71.038 117.1676 71 121.1822C70.9046666666667 131.2932666666667 75.3093333333333 141.6189333333333 79.7133333333333 151.9446C84.3093333333333 142.048 88.9046666666667 132.1514666666667 89 122.0403333333333C89.0393333333333 117.8528666666667 88.3073333333333 113.6286 87.1226666666667 109.3827333333333C87.638 110.3438666666667 88.224 111.291 88.8886666666667 112.2222C94.4446666666667 120 105.5553333333333 126.6666666666667 116.6666666666667 133.3333333333334C116.6666666666667 124.4444666666667 116.6666666666667 115.5555333333333 111.1113333333333 107.7778C106.112 100.7790666666667 96.6146666666667 94.6800666666667 86.6666666666667 88.6713333333333L86.6666666666667 73.4913333333333L88.8886666666667 77.222C94.4446666666667 85 105.5553333333333 91.6666666666667 116.6666666666667 98.3333333333333C116.6666666666667 89.4446666666667 116.6666666666667 80.5553333333333 111.1113333333333 72.778C106.112 65.7793333333333 96.6146666666667 59.68 86.6666666666667 53.6713333333333L86.6666666666667 38.4913333333333L88.8886666666667 42.222C94.4446666666667 50 105.5553333333333 56.6666666666667 116.6666666666667 63.3333333333333C116.6666666666667 54.4446666666667 116.6666666666667 45.5553333333333 111.1113333333333 37.778C106.112 30.7793333333333 96.6146666666667 24.68 86.6666666666667 18.6713333333333L86.6666666666667 6.6666666666667L73.3333333333333 6.6666666666667L73.3333333333333 18.6713333333333C63.3853333333333 24.68 53.8879333333333 30.7793333333333 48.8888666666667 37.778z" />
    </font>
</defs>
</svg>
