<?xml version="1.0" encoding="UTF-8" standalone="no"?><svg width="580px" height="357px" viewBox="0 0 580 357" version="1.1" xmlns="http://www.w3.org/2000/svg" xmlns:xlink="http://www.w3.org/1999/xlink"><defs><rect id="path-1" x="0" y="0" width="98" height="165" rx="15"></rect><mask id="mask-2" maskContentUnits="userSpaceOnUse" maskUnits="objectBoundingBox" x="0" y="0" width="98" height="165" fill="white"><use xlink:href="#path-1"></use></mask><circle id="path-3" cx="49" cy="148" r="8"></circle><mask id="mask-4" maskContentUnits="userSpaceOnUse" maskUnits="objectBoundingBox" x="0" y="0" width="16" height="16" fill="white"><use xlink:href="#path-3"></use></mask><rect id="path-5" x="32" y="14" width="35" height="6" rx="3"></rect><mask id="mask-6" maskContentUnits="userSpaceOnUse" maskUnits="objectBoundingBox" x="0" y="0" width="35" height="6" fill="white"><use xlink:href="#path-5"></use></mask><rect id="path-7" x="10" y="30" width="78" height="105" rx="2"></rect><mask id="mask-8" maskContentUnits="userSpaceOnUse" maskUnits="objectBoundingBox" x="0" y="0" width="78" height="105" fill="white"><use xlink:href="#path-7"></use></mask><rect id="path-9" x="21" y="0" width="218" height="169" rx="10"></rect><mask id="mask-10" maskContentUnits="userSpaceOnUse" maskUnits="objectBoundingBox" x="0" y="0" width="218" height="169" fill="white"><use xlink:href="#path-9"></use></mask><polygon id="path-11" points="0 155 258 155 258 166.076923 242.171779 173 15.8282209 173 0 166.076923"></polygon><mask id="mask-12" maskContentUnits="userSpaceOnUse" maskUnits="objectBoundingBox" x="0" y="0" width="258" height="18" fill="white"><use xlink:href="#path-11"></use></mask><rect id="path-13" x="39" y="18" width="182" height="123"></rect><mask id="mask-14" maskContentUnits="userSpaceOnUse" maskUnits="objectBoundingBox" x="0" y="0" width="182" height="123" fill="white"><use xlink:href="#path-13"></use></mask><path d="M-1.77635684e-15,22.9968742 C-1.77635684e-15,18.5803226 3.5841763,15 8.00584469,15 L125.994155,15 C130.415661,15 134,18.5907941 134,22.9968742 L134,251.003126 C134,255.419677 130.415824,259 125.994155,259 L8.00584469,259 C3.58433876,259 -1.77635684e-15,255.409206 -1.77635684e-15,251.003126 L-1.77635684e-15,22.9968742 Z" id="path-15"></path><mask id="mask-16" maskContentUnits="userSpaceOnUse" maskUnits="objectBoundingBox" x="0" y="0" width="134" height="244" fill="white"><use xlink:href="#path-15"></use></mask><rect id="path-17" x="15.0016664" y="37" width="104" height="21" rx="4"></rect><mask id="mask-18" maskContentUnits="userSpaceOnUse" maskUnits="objectBoundingBox" x="0" y="0" width="104" height="21" fill="white"><use xlink:href="#path-17"></use></mask><polygon id="path-19" points="141.483245 6.03961325e-14 122.516755 6.03961325e-14 113 16 122.516755 32 141.483245 32 151 16"></polygon><mask id="mask-20" maskContentUnits="userSpaceOnUse" maskUnits="objectBoundingBox" x="-4" y="-4" width="46" height="40"><rect x="109" y="-4" width="46" height="40" fill="white"></rect><use xlink:href="#path-19" fill="black"></use></mask><rect id="path-21" x="15.0016664" y="67" width="104" height="21" rx="4"></rect><mask id="mask-22" maskContentUnits="userSpaceOnUse" maskUnits="objectBoundingBox" x="0" y="0" width="104" height="21" fill="white"><use xlink:href="#path-21"></use></mask><rect id="path-23" x="15.0016664" y="97" width="104" height="21" rx="4"></rect><mask id="mask-24" maskContentUnits="userSpaceOnUse" maskUnits="objectBoundingBox" x="0" y="0" width="104" height="21" fill="white"><use xlink:href="#path-23"></use></mask><rect id="path-25" x="15.0016664" y="127" width="104" height="21" rx="4"></rect><mask id="mask-26" maskContentUnits="userSpaceOnUse" maskUnits="objectBoundingBox" x="0" y="0" width="104" height="21" fill="white"><use xlink:href="#path-25"></use></mask><rect id="path-27" x="15.0016664" y="157" width="104" height="21" rx="4"></rect><mask id="mask-28" maskContentUnits="userSpaceOnUse" maskUnits="objectBoundingBox" x="0" y="0" width="104" height="21" fill="white"><use xlink:href="#path-27"></use></mask><rect id="path-29" x="15.0016664" y="187" width="104" height="21" rx="4"></rect><mask id="mask-30" maskContentUnits="userSpaceOnUse" maskUnits="objectBoundingBox" x="0" y="0" width="104" height="21" fill="white"><use xlink:href="#path-29"></use></mask><rect id="path-31" x="15.0016664" y="217" width="104" height="21" rx="4"></rect><mask id="mask-32" maskContentUnits="userSpaceOnUse" maskUnits="objectBoundingBox" x="0" y="0" width="104" height="21" fill="white"><use xlink:href="#path-31"></use></mask><path d="M190,39.6806723 L190,7.99968161 C190,3.58518252 186.418952,0 182.001505,0 L30.9984954,0 C26.5847307,0 23,3.58157945 23,7.99968161 L23,128.000318 C23,132.414817 26.5810484,136 30.9984954,136 L182.001505,136 C186.415269,136 190,132.418421 190,128.000318 L190,127.092437 L195,120.957983 L195,45.8151261 L190,39.6806723 Z" id="path-33"></path><mask id="mask-34" maskContentUnits="userSpaceOnUse" maskUnits="objectBoundingBox" x="0" y="0" width="172" height="136" fill="white"><use xlink:href="#path-33"></use></mask><path d="M7,31 L52,31 L52,67 L7,67 L7,69 L0,69 L0,29 L7,29 L7,31 Z" id="path-35"></path><mask id="mask-36" maskContentUnits="userSpaceOnUse" maskUnits="objectBoundingBox" x="0" y="0" width="52" height="40" fill="white"><use xlink:href="#path-35"></use></mask><path d="M21,100 L59,100 L59,128 L21,128 L21,131 L12,131 L12,97 L21,97 L21,100 Z" id="path-37"></path><mask id="mask-38" maskContentUnits="userSpaceOnUse" maskUnits="objectBoundingBox" x="0" y="0" width="47" height="34" fill="white"><use xlink:href="#path-37"></use></mask><rect id="path-39" x="35" y="76" width="6" height="12"></rect><mask id="mask-40" maskContentUnits="userSpaceOnUse" maskUnits="objectBoundingBox" x="0" y="0" width="6" height="12" fill="white"><use xlink:href="#path-39"></use></mask><rect id="path-41" x="49" y="75" width="8" height="3"></rect><mask id="mask-42" maskContentUnits="userSpaceOnUse" maskUnits="objectBoundingBox" x="-1" y="-1" width="10" height="5"><rect x="48" y="74" width="10" height="5" fill="white"></rect><use xlink:href="#path-41" fill="black"></use></mask><rect id="path-43" x="49" y="81" width="8" height="3"></rect><mask id="mask-44" maskContentUnits="userSpaceOnUse" maskUnits="objectBoundingBox" x="-1" y="-1" width="10" height="5"><rect x="48" y="80" width="10" height="5" fill="white"></rect><use xlink:href="#path-43" fill="black"></use></mask><rect id="path-45" x="49" y="87" width="8" height="3"></rect><mask id="mask-46" maskContentUnits="userSpaceOnUse" maskUnits="objectBoundingBox" x="-1" y="-1" width="10" height="5"><rect x="48" y="86" width="10" height="5" fill="white"></rect><use xlink:href="#path-45" fill="black"></use></mask><rect id="path-47" x="40" y="73" width="12" height="19"></rect><mask id="mask-48" maskContentUnits="userSpaceOnUse" maskUnits="objectBoundingBox" x="0" y="0" width="12" height="19" fill="white"><use xlink:href="#path-47"></use></mask><rect id="path-49" x="30" y="8" width="28" height="20"></rect><mask id="mask-50" maskContentUnits="userSpaceOnUse" maskUnits="objectBoundingBox" x="0" y="0" width="28" height="20" fill="white"><use xlink:href="#path-49"></use></mask><rect id="path-51" x="93" y="86" width="90" height="16"></rect><mask id="mask-52" maskContentUnits="userSpaceOnUse" maskUnits="objectBoundingBox" x="0" y="0" width="90" height="16" fill="white"><use xlink:href="#path-51"></use></mask><rect id="path-53" x="90" y="120" width="38" height="8"></rect><mask id="mask-54" maskContentUnits="userSpaceOnUse" maskUnits="objectBoundingBox" x="0" y="0" width="38" height="8" fill="white"><use xlink:href="#path-53"></use></mask><rect id="path-55" x="130" y="120" width="50" height="8"></rect><mask id="mask-56" maskContentUnits="userSpaceOnUse" maskUnits="objectBoundingBox" x="0" y="0" width="50" height="8" fill="white"><use xlink:href="#path-55"></use></mask><rect id="path-57" x="142" y="8" width="38" height="8"></rect><mask id="mask-58" maskContentUnits="userSpaceOnUse" maskUnits="objectBoundingBox" x="0" y="0" width="38" height="8" fill="white"><use xlink:href="#path-57"></use></mask><rect id="path-59" x="90" y="8" width="50" height="8"></rect><mask id="mask-60" maskContentUnits="userSpaceOnUse" maskUnits="objectBoundingBox" x="0" y="0" width="50" height="8" fill="white"><use xlink:href="#path-59"></use></mask><rect id="path-61" x="68" y="51" width="13" height="13"></rect><mask id="mask-62" maskContentUnits="userSpaceOnUse" maskUnits="objectBoundingBox" x="0" y="0" width="13" height="13" fill="white"><use xlink:href="#path-61"></use></mask><rect id="path-63" x="71" y="32" width="7" height="14"></rect><mask id="mask-64" maskContentUnits="userSpaceOnUse" maskUnits="objectBoundingBox" x="0" y="0" width="7" height="14" fill="white"><use xlink:href="#path-63"></use></mask><rect id="path-65" x="80" y="32" width="7" height="14"></rect><mask id="mask-66" maskContentUnits="userSpaceOnUse" maskUnits="objectBoundingBox" x="0" y="0" width="7" height="14" fill="white"><use xlink:href="#path-65"></use></mask><rect id="path-67" x="62" y="32" width="7" height="14"></rect><mask id="mask-68" maskContentUnits="userSpaceOnUse" maskUnits="objectBoundingBox" x="0" y="0" width="7" height="14" fill="white"><use xlink:href="#path-67"></use></mask></defs><g id="Illustrations" stroke="none" stroke-width="1" fill="none" fill-rule="evenodd"><g id="Group-5"><path d="M428.535534,155.464466 C428.535534,152.703042 426.296958,150.464466 423.535534,150.464466 C420.77411,150.464466 418.535534,152.703042 418.535534,155.464466 C418.535534,158.22589 428.535534,158.22589 428.535534,155.464466 Z" id="Oval-50" fill="#3CCD3F" transform="translate(423.535534, 154.000000) rotate(-90.000000) translate(-423.535534, -154.000000) "></path><path d="M428.535534,211.464466 C428.535534,208.703042 426.296958,206.464466 423.535534,206.464466 C420.77411,206.464466 418.535534,208.703042 418.535534,211.464466 C418.535534,214.22589 428.535534,214.22589 428.535534,211.464466 Z" id="Oval-50" fill="#49B9E8" transform="translate(423.535534, 210.000000) rotate(-90.000000) translate(-423.535534, -210.000000) "></path><path d="M428.535534,266.464466 C428.535534,263.703042 426.296958,261.464466 423.535534,261.464466 C420.77411,261.464466 418.535534,263.703042 418.535534,266.464466 C418.535534,269.22589 428.535534,269.22589 428.535534,266.464466 Z" id="Oval-50" fill="#FFCC01" transform="translate(423.535534, 265.000000) rotate(-90.000000) translate(-423.535534, -265.000000) "></path><path d="M381,211 C381,208.238576 378.761424,206 376,206 C373.238576,206 371,208.238576 371,211 C371,213.761424 381,213.761424 381,211 Z" id="Oval-50" fill="#49B9E8" transform="translate(376.000000, 209.535534) rotate(-270.000000) translate(-376.000000, -209.535534) "></path><path d="M223,319 C223,316.238576 220.761424,314 218,314 C215.238576,314 213,316.238576 213,319 C213,321.761424 223,321.761424 223,319 Z" id="Oval-50" fill="#FFCC01" transform="translate(218.000000, 317.535534) rotate(-270.000000) translate(-218.000000, -317.535534) "></path><path d="M244,75 C244,72.2385763 241.761424,70 239,70 C236.238576,70 234,72.2385763 234,75 C234,77.7614237 244,77.7614237 244,75 Z" id="Oval-50" fill="#3CCD3F" transform="translate(239.000000, 73.535534) rotate(-270.000000) translate(-239.000000, -73.535534) "></path><g id="Group-2" transform="translate(277.000000, 125.000000)"><use id="Rectangle-2213" stroke="#373D44" mask="url(#mask-2)" stroke-width="8" fill="#AFBAC4" xlink:href="#path-1"></use><use id="Oval-576" stroke="#373D44" mask="url(#mask-4)" stroke-width="4" fill="#FFFFFF" xlink:href="#path-3"></use><use id="Rectangle-2215" stroke="#373D44" mask="url(#mask-6)" stroke-width="4" fill="#FFFFFF" xlink:href="#path-5"></use><use id="Rectangle-2213" stroke="#373D44" mask="url(#mask-8)" stroke-width="4" fill="#FFFFFF" xlink:href="#path-7"></use><rect id="Rectangle-132" fill="#B8C0C9" opacity="0.4" x="17" y="56" width="64" height="50"></rect><rect id="Rectangle-132" fill="#B8C0C9" opacity="0.4" x="17" y="111" width="64" height="20"></rect><rect id="Rectangle-135" fill="#B8C0C9" x="17" y="43" width="15" height="3"></rect></g><g id="Group"><use id="Rectangle-87" stroke="#373D44" mask="url(#mask-10)" stroke-width="8" fill="#AFBAC4" xlink:href="#path-9"></use><path d="M1,165.666667 C1,164.787879 1,163 1,163 L257,163 C257,163 256.21049,165.698693 254.7687,166.514706 C251.498833,168.365359 242.865031,171 242.865031,171 L16.7055215,171 C16.7055215,171 1,167.454546 1,165.666667 Z" id="Rectangle-89" fill="#B8C0C9"></path><rect id="Rectangle-89" fill="#F7F8F9" x="2" y="156" width="254" height="8"></rect><use id="Rectangle-85" stroke="#373D44" mask="url(#mask-12)" stroke-width="8" xlink:href="#path-11"></use><rect id="Rectangle-86" fill="#B8C0C9" opacity="0.6" x="96" y="159" width="67" height="3"></rect><use id="Rectangle-87" stroke="#373D44" mask="url(#mask-14)" stroke-width="4" fill="#FFFFFF" xlink:href="#path-13"></use><rect id="Rectangle-132" fill="#B8C0C9" opacity="0.4" x="57" y="45" width="145" height="60"></rect><rect id="Rectangle-132" fill="#B8C0C9" opacity="0.4" x="57" y="115" width="145" height="20"></rect><rect id="Rectangle-135" fill="#B8C0C9" x="57" y="32" width="15" height="3"></rect></g><path d="M245,74 C246.087036,74 246.087036,74 251.002423,74 L251.002423,72 C246.087036,72 246.087036,72 245,72 L245,74 L245,74 Z M256.998137,74 C259.832742,74 259.832742,74 262.999258,74 L262.999258,72 C259.832742,72 259.832742,72 256.998137,72 L256.998137,74 L256.998137,74 Z M269.003235,74 C271.923979,74 271.923979,74 275.003212,74 L275.003212,72 C271.923979,72 271.923979,72 269.003235,72 L269.003235,74 L269.003235,74 Z M281.003203,74 C283.957545,74 283.957545,74 287.002546,74 L287.002546,72 C283.957545,72 283.957545,72 281.003203,72 L281.003203,74 L281.003203,74 Z M292.9965,74 C295.971467,74 295.971467,74 298.998615,74 L298.998615,72 C295.971467,72 295.971467,72 292.9965,72 L292.9965,74 L292.9965,74 Z M305.001224,74 C307.989104,74 307.989104,74 311.001862,74 L311.001862,72 C307.989104,72 307.989104,72 305.001224,72 L305.001224,74 L305.001224,74 Z M316.997573,74 C319.996837,74 319.996837,74 322.998071,74 L322.998071,72 C319.996837,72 319.996837,72 316.997573,72 L316.997573,74 L316.997573,74 Z M329.003756,74 C332.014143,74 332.014143,74 335.003897,74 L335.003897,72 C332.014143,72 332.014143,72 329.003756,72 L329.003756,74 L329.003756,74 Z M341.005905,74 C344.030152,74 344.030152,74 347.007616,74 L347.007616,72 C344.030152,72 344.030152,72 341.005905,72 L341.005905,74 L341.005905,74 Z M353.000044,74 C356.04034,74 356.04034,74 358.998197,74 L358.998197,72 C356.04034,72 356.04034,72 353.000044,72 L353.000044,74 L353.000044,74 Z M364.995397,74 C368.06639,74 368.06639,74 370.99482,74 L370.99482,72 C368.06639,72 368.06639,72 364.995397,72 L364.995397,74 L364.995397,74 Z M377.004146,74 C380.145864,74 380.145864,74 383.00444,74 L383.00444,72 C380.145864,72 380.145864,72 377.004146,72 L377.004146,74 L377.004146,74 Z M388.996928,74 C392.588847,74 392.588847,74 394.997061,74 L394.997061,72 C392.588847,72 392.588847,72 388.996928,72 L388.996928,74 L388.996928,74 Z M400.485247,74.5985144 C401.579953,75.1531879 401.995573,76.118458 401.999965,77.9706359 L402,79.0451826 L404,79.0451129 L403.999962,77.9682295 C403.993967,75.4389001 403.27547,73.7702038 401.389206,72.8144577 L400.485247,74.5985144 L400.485247,74.5985144 Z M402,85.0451478 L402,91.0451478 L404,91.0451478 L404,85.0451478 L402,85.0451478 L402,85.0451478 Z M402,97.0451478 L402,103.045148 L404,103.045148 L404,97.0451478 L402,97.0451478 L402,97.0451478 Z M402,109.045148 L402,115.045148 L404,115.045148 L404,109.045148 L402,109.045148 L402,109.045148 Z M402,121.045148 L402,127.045148 L404,127.045148 L404,121.045148 L402,121.045148 L402,121.045148 Z M402,133.045148 L402,139.045148 L404,139.045148 L404,133.045148 L402,133.045148 L402,133.045148 Z M402,145.045148 L402,150.140549 C402,150.539698 402.046977,150.922217 402.139927,151.286104 L404.077708,150.791126 C404.026559,150.590881 404,150.374623 404,150.140549 L404,145.045148 L402,145.045148 L402,145.045148 Z M407.926463,154.999616 C407.962352,154.999929 407.962352,154.999929 407.998075,155 L413.938521,155 L413.938521,153 L407.99835,153 C407.973072,152.999949 407.973072,152.999949 407.947278,152.999724 L407.926463,154.999616 L407.926463,154.999616 Z M419.938521,155 L423,155 L423,153 L419.938521,153 L419.938521,155 L419.938521,155 Z" id="Path-1244" fill="#3CCD3F"></path><path d="M383,211 L389,211 L389,209 L383,209 L383,211 L383,211 Z M395,211 L401,211 L401,209 L395,209 L395,211 L395,211 Z M407,211 L413,211 L413,209 L407,209 L407,211 L407,211 Z" id="Path-1245" fill="#49B9E8"></path><path d="M218,318 C219.080048,318 219.080048,318 224.0017,318 L224.0017,316 C219.080048,316 219.080048,316 218,316 L218,318 L218,318 Z M229.997988,318 C232.826514,318 232.826514,318 235.993713,318 L235.993713,316 C232.826514,316 232.826514,316 229.997988,316 L229.997988,318 L229.997988,318 Z M241.996739,318 C244.913721,318 244.913721,318 247.996866,318 L247.996866,316 C244.913721,316 244.913721,316 241.996739,316 L241.996739,318 L241.996739,318 Z M254.004021,318 C256.955333,318 256.955333,318 260.006037,318 L260.006037,316 C256.955333,316 256.955333,316 254.004021,316 L254.004021,318 L254.004021,318 Z M265.995554,317.999999 C268.966312,317.999999 268.966312,317.999999 271.999601,317.999999 L271.999601,315.999999 C268.966312,315.999999 268.966312,315.999999 265.995554,315.999999 L265.995554,317.999999 L265.995554,317.999999 Z M277.996112,317.999999 C280.9785,317.999999 280.9785,317.999999 283.998545,317.999999 L283.998545,315.999999 C280.9785,315.999999 280.9785,315.999999 277.996112,315.999999 L277.996112,317.999999 L277.996112,317.999999 Z M290.004286,317.999999 C292.995581,317.999999 292.995581,317.999999 296.00522,317.999999 L296.00522,315.999999 C292.995581,315.999999 292.995581,315.999999 290.004286,315.999999 L290.004286,317.999999 L290.004286,317.999999 Z M302.006712,317.999999 C305.007831,317.999999 305.007831,317.999999 308.01033,317.999999 L308.01033,315.999999 C305.007831,315.999999 305.007831,315.999999 302.006712,315.999999 L302.006712,317.999999 L302.006712,317.999999 Z M313.996372,317.999999 C317.004938,317.999999 317.004938,317.999999 319.998101,317.999999 L319.998101,315.999999 C317.004938,315.999999 317.004938,315.999999 313.996372,315.999999 L313.996372,317.999999 L313.996372,317.999999 Z M325.994721,317.999999 C329.011857,317.999999 329.011857,317.999999 331.994896,317.999999 L331.994896,315.999999 C329.011857,315.999999 329.011857,315.999999 325.994721,315.999999 L325.994721,317.999999 L325.994721,317.999999 Z M337.998335,317.999999 C341.028012,317.999999 341.028012,317.999999 343.999988,317.999999 L343.999988,315.999999 C341.028012,315.999999 341.028012,315.999999 337.998335,315.999999 L337.998335,317.999999 L337.998335,317.999999 Z M349.994012,317.999998 C353.0395,317.999998 353.0395,317.999998 355.99324,317.999998 L355.99324,315.999998 C353.0395,315.999998 353.0395,315.999998 349.994012,315.999998 L349.994012,317.999998 L349.994012,317.999998 Z M361.996143,317.999998 C365.071149,317.999998 365.071149,317.999998 367.995081,317.999998 L367.995081,315.999998 C365.071149,315.999998 365.071149,315.999998 361.996143,315.999998 L361.996143,317.999998 L361.996143,317.999998 Z M374.004533,317.999998 C377.15042,317.999998 377.15042,317.999998 380.003723,317.999998 L380.003723,315.999998 C377.15042,315.999998 377.15042,315.999998 374.004533,315.999998 L374.004533,317.999998 L374.004533,317.999998 Z M385.99691,317.999998 C389.610747,317.999998 389.610747,317.999998 391.996854,317.999998 L391.996854,315.999998 C389.610747,315.999998 389.610747,315.999998 385.99691,315.999998 L385.99691,317.999998 L385.99691,317.999998 Z M398.180361,315.572669 C398.682088,314.81343 398.973905,313.964833 398.998334,313.115663 C398.986482,312.658027 398.979649,311.281481 398.977973,309.04121 L396.977974,309.042706 C396.979671,311.31191 396.986504,312.688377 396.999185,313.116514 C396.985979,313.516354 396.816711,314.008581 396.511778,314.470022 L398.180361,315.572669 L398.180361,315.572669 Z M398.981471,303.041695 C398.983837,301.328958 398.987201,299.401875 398.991835,297.041462 L396.991839,297.037536 C396.987204,299.398304 396.98384,301.325748 396.981473,303.038932 L398.981471,303.041695 L398.981471,303.041695 Z M399.004132,291.042461 C399.009648,288.389431 399.012998,286.725986 399.016132,285.041903 L397.016136,285.038181 C397.013002,286.722081 397.009652,288.385408 397.004136,291.038303 L399.004132,291.042461 L399.004132,291.042461 Z M399.025508,279.043039 C399.028318,276.588951 399.028869,274.600931 399.026905,273.040379 L397.026907,273.042896 C397.028868,274.601575 397.028318,276.588126 397.025509,279.040749 L399.025508,279.043039 L399.025508,279.043039 Z M399.380578,267.634375 C399.94922,266.701617 401.005156,266.02952 401.937855,266.000956 L403.899923,266 L403.898492,264 L401.906529,264.001425 C400.236447,264.052124 398.578923,265.107128 397.672894,266.593311 L399.380578,267.634375 L399.380578,267.634375 Z M409.899207,266 L415.899207,266 L415.899207,264 L409.899207,264 L409.899207,266 L409.899207,266 Z" id="Path-1246" fill="#FFCC01"></path><g id="Group-4" transform="translate(424.000000, 71.000000)"><use id="Rectangle-23" stroke="#373D44" mask="url(#mask-16)" stroke-width="8" fill="#F7F8F9" xlink:href="#path-15"></use><use id="Rectangle-24" stroke="#373D44" mask="url(#mask-18)" stroke-width="4" fill="#FFFFFF" xlink:href="#path-17"></use><rect id="Rectangle-25" fill="#848E9B" x="22.0016664" y="44" width="3" height="7" rx="1.5"></rect><g id="Page-1"><use fill="#0070D3" fill-rule="evenodd" xlink:href="#path-19"></use><use stroke="#373D44" mask="url(#mask-20)" stroke-width="8" xlink:href="#path-19"></use></g><path d="M132.182885,26.3660613 C129.86131,26.3660613 127.709607,25.747883 125.727775,24.5677243 L127.313241,21.8140208 C128.785459,22.8255853 130.370924,23.3875657 132.239509,23.3875657 C134.391212,23.3875657 135.693559,22.4321991 135.693559,20.9148523 C135.693559,19.5099015 134.900826,18.7231291 131.276905,17.8801586 C127.086745,16.8685941 124.708547,15.6322374 124.708547,12.0355634 C124.708547,8.66368156 127.539736,6.35956229 131.446776,6.35956229 C133.824975,6.35956229 135.806807,6.97774063 137.50552,8.04550322 L135.86343,10.7992067 C134.391212,9.8438402 132.86237,9.33805793 131.333528,9.33805793 C129.295073,9.33805793 128.105973,10.3496225 128.105973,11.6983752 C128.105973,13.2157221 129.011954,13.8900984 132.749123,14.7892669 C136.882658,15.8008315 139.090985,17.2619803 139.090985,20.5214661 C139.204233,24.1743381 136.316421,26.3660613 132.182885,26.3660613 L132.182885,26.3660613 Z" id="Path" fill="#FFFFFF"></path><rect id="Rectangle-25" fill="#848E9B" x="29.0016664" y="44" width="3" height="7" rx="1.5"></rect><rect id="Rectangle-25" fill="#848E9B" x="36.0016664" y="44" width="3" height="7" rx="1.5"></rect><circle id="Oval-1" fill="#3CCD3F" cx="77.5" cy="47.5" r="3.5"></circle><circle id="Oval-1" fill="#B8C0C9" cx="92.5" cy="47.5" r="3.5"></circle><circle id="Oval-1" fill="#49B9E8" cx="107.5" cy="47.5" r="3.5"></circle><use id="Rectangle-24" stroke="#373D44" mask="url(#mask-22)" stroke-width="4" fill="#FFFFFF" xlink:href="#path-21"></use><rect id="Rectangle-25" fill="#848E9B" x="22.0016664" y="74" width="3" height="7" rx="1.5"></rect><rect id="Rectangle-25" fill="#848E9B" x="29.0016664" y="74" width="3" height="7" rx="1.5"></rect><rect id="Rectangle-25" fill="#848E9B" x="36.0016664" y="74" width="3" height="7" rx="1.5"></rect><circle id="Oval-1" fill="#FFCC01" cx="77.5" cy="77.5" r="3.5"></circle><circle id="Oval-1" fill="#49B9E8" cx="92.5" cy="77.5" r="3.5"></circle><circle id="Oval-1" fill="#3CCD3F" cx="107.5" cy="77.5" r="3.5"></circle><use id="Rectangle-24" stroke="#373D44" mask="url(#mask-24)" stroke-width="4" fill="#FFFFFF" xlink:href="#path-23"></use><rect id="Rectangle-25" fill="#848E9B" x="22.0016664" y="104" width="3" height="7" rx="1.5"></rect><rect id="Rectangle-25" fill="#848E9B" x="29.0016664" y="104" width="3" height="7" rx="1.5"></rect><rect id="Rectangle-25" fill="#848E9B" x="36.0016664" y="104" width="3" height="7" rx="1.5"></rect><circle id="Oval-1" fill="#3CCD3F" cx="77.5" cy="107.5" r="3.5"></circle><circle id="Oval-1" fill="#B8C0C9" cx="92.5" cy="107.5" r="3.5"></circle><circle id="Oval-1" fill="#49B9E8" cx="107.5" cy="107.5" r="3.5"></circle><use id="Rectangle-24" stroke="#373D44" mask="url(#mask-26)" stroke-width="4" fill="#FFFFFF" xlink:href="#path-25"></use><rect id="Rectangle-25" fill="#848E9B" x="22.0016664" y="134" width="3" height="7" rx="1.5"></rect><rect id="Rectangle-25" fill="#848E9B" x="29.0016664" y="134" width="3" height="7" rx="1.5"></rect><rect id="Rectangle-25" fill="#848E9B" x="36.0016664" y="134" width="3" height="7" rx="1.5"></rect><circle id="Oval-1" fill="#FFCC01" cx="77.5" cy="137.5" r="3.5"></circle><circle id="Oval-1" fill="#49B9E8" cx="92.5" cy="137.5" r="3.5"></circle><circle id="Oval-1" fill="#3CCD3F" cx="107.5" cy="137.5" r="3.5"></circle><use id="Rectangle-24" stroke="#373D44" mask="url(#mask-28)" stroke-width="4" fill="#FFFFFF" xlink:href="#path-27"></use><rect id="Rectangle-25" fill="#848E9B" x="22.0016664" y="164" width="3" height="7" rx="1.5"></rect><rect id="Rectangle-25" fill="#848E9B" x="29.0016664" y="164" width="3" height="7" rx="1.5"></rect><rect id="Rectangle-25" fill="#848E9B" x="36.0016664" y="164" width="3" height="7" rx="1.5"></rect><circle id="Oval-1" fill="#49B9E8" cx="77.5" cy="167.5" r="3.5"></circle><circle id="Oval-1" fill="#B8C0C9" cx="92.5" cy="167.5" r="3.5"></circle><circle id="Oval-1" fill="#3CCD3F" cx="107.5" cy="167.5" r="3.5"></circle><use id="Rectangle-24" stroke="#373D44" mask="url(#mask-30)" stroke-width="4" fill="#FFFFFF" xlink:href="#path-29"></use><rect id="Rectangle-25" fill="#848E9B" x="22.0016664" y="194" width="3" height="7" rx="1.5"></rect><rect id="Rectangle-25" fill="#848E9B" x="29.0016664" y="194" width="3" height="7" rx="1.5"></rect><rect id="Rectangle-25" fill="#848E9B" x="36.0016664" y="194" width="3" height="7" rx="1.5"></rect><circle id="Oval-1" fill="#FFCC01" cx="77.5" cy="197.5" r="3.5"></circle><circle id="Oval-1" fill="#B8C0C9" cx="92.5" cy="197.5" r="3.5"></circle><circle id="Oval-1" fill="#B8C0C9" cx="107.5" cy="197.5" r="3.5"></circle><use id="Rectangle-24" stroke="#373D44" mask="url(#mask-32)" stroke-width="4" fill="#FFFFFF" xlink:href="#path-31"></use><rect id="Rectangle-25" fill="#848E9B" x="22.0016664" y="224" width="3" height="7" rx="1.5"></rect><rect id="Rectangle-25" fill="#848E9B" x="29.0016664" y="224" width="3" height="7" rx="1.5"></rect><rect id="Rectangle-25" fill="#848E9B" x="36.0016664" y="224" width="3" height="7" rx="1.5"></rect><circle id="Oval-1" fill="#B8C0C9" cx="77.5" cy="227.5" r="3.5"></circle><circle id="Oval-1" fill="#B8C0C9" cx="92.5" cy="227.5" r="3.5"></circle><circle id="Oval-1" fill="#49B9E8" cx="107.5" cy="227.5" r="3.5"></circle></g><g id="Group-3" transform="translate(22.000000, 221.000000)"><use id="Combined-Shape" stroke="#373D44" mask="url(#mask-34)" stroke-width="8" fill="#AFBAC4" xlink:href="#path-33"></use><use id="Combined-Shape" stroke="#373D44" mask="url(#mask-36)" stroke-width="4" fill="#E8EBED" xlink:href="#path-35"></use><use id="Combined-Shape" stroke="#373D44" mask="url(#mask-38)" stroke-width="4" fill="#728699" xlink:href="#path-37"></use><use id="Rectangle-1481" stroke="#373D44" mask="url(#mask-40)" stroke-width="2" fill="#E8EAED" xlink:href="#path-39"></use><g id="Rectangle-1483"><use fill="#E8EAED" fill-rule="evenodd" xlink:href="#path-41"></use><use stroke="#373D44" mask="url(#mask-42)" stroke-width="2" xlink:href="#path-41"></use></g><g id="Rectangle-1484"><use fill="#E8EAED" fill-rule="evenodd" xlink:href="#path-43"></use><use stroke="#373D44" mask="url(#mask-44)" stroke-width="2" xlink:href="#path-43"></use></g><g id="Rectangle-1485"><use fill="#E8EAED" fill-rule="evenodd" xlink:href="#path-45"></use><use stroke="#373D44" mask="url(#mask-46)" stroke-width="2" xlink:href="#path-45"></use></g><use id="Rectangle-1482" stroke="#373D44" mask="url(#mask-48)" stroke-width="2" fill="#728699" xlink:href="#path-47"></use><use id="Rectangle-1506" stroke="#373D44" mask="url(#mask-50)" stroke-width="4" fill="#E8EBED" xlink:href="#path-49"></use><circle id="Oval-348" fill="#373D44" cx="44" cy="17" r="4"></circle><path d="M144.340946,54.5056915 C142.831074,53.0409173 141.591317,50.999017 140.314265,48.805234 C141.428171,46.9328117 142.556171,45.2088235 143.922376,43.8633455 C145.751628,42.0618674 147.768226,41.2228528 150.26888,41.2228528 C154.504581,41.2228528 157.950542,44.695885 157.950542,48.9647883 C157.950542,53.2336915 154.504581,56.7066534 150.26888,56.7066534 L150.164038,56.709539 C147.841622,56.8394628 146.045478,56.1592985 144.340946,54.5056915 M131.598475,54.5056915 C129.893943,56.1592282 128.098132,56.8395331 125.775384,56.709539 L125.670542,56.7066534 C121.434907,56.7066534 117.988946,53.2336915 117.988946,48.9647883 C117.988946,44.695885 121.434907,41.2228528 125.670542,41.2228528 C128.171196,41.2228528 130.187794,42.0618674 132.017046,43.8633455 C133.383184,45.2088235 134.511184,46.9328117 135.625157,48.805234 C134.348104,50.999017 133.108348,53.0409173 131.598475,54.5056915 M150.321799,60.9294569 C156.732725,60.9001079 161.939461,55.5440962 161.939461,48.9647883 C161.939461,42.3673924 156.704071,36.9999789 150.26888,36.9999789 C146.746996,36.9999789 143.782431,38.2336211 141.205456,40.7714979 C139.967761,41.9904305 138.92293,43.4044598 137.969711,44.8839437 C137.016492,43.4044598 135.971727,41.9904305 134.733966,40.7714979 C132.157057,38.2336211 129.192359,36.9999789 125.670542,36.9999789 C119.235417,36.9999789 114.000027,42.3673924 114.000027,48.9647883 C114.000027,55.5440962 119.206763,60.9001079 125.617622,60.9294569 C128.979351,61.1042135 131.817666,60.0209056 134.293456,57.6190053 C135.71657,56.2383367 136.890176,54.5468645 137.969711,52.7881783 C139.049245,54.5468645 140.222852,56.2383367 141.645966,57.6190053 C143.950232,59.8545243 146.568293,60.9476152 149.63032,60.9476152 C149.858088,60.9476152 150.088913,60.9414921 150.321799,60.9294569" id="Fill-1" fill="#373D44"></path><polygon id="Fill-4" fill="#373D44" points="150.796195 49.8019026 152.959187 49.8019026 152.959187 47.4301255 150.796195 47.4301255 150.796195 45.1402018 148.544915 45.1402018 148.544915 47.4301255 146.381924 47.4301255 146.381924 49.8019026 148.544915 49.8019026 148.544915 52.1089994 150.796195 52.1089994"></polygon><polygon id="Fill-6" fill="#373D44" points="122.431911 49.8478123 129.541363 49.8478123 129.541363 47.4014311 122.431911 47.4014311"></polygon><use id="Rectangle-921" stroke="#373D44" mask="url(#mask-52)" stroke-width="4" fill="#E8EBED" xlink:href="#path-51"></use><rect id="Rectangle-922" fill="#373D44" x="115" y="84" width="2" height="4"></rect><rect id="Rectangle-922" fill="#373D44" x="119" y="84" width="2" height="4"></rect><rect id="Rectangle-922" fill="#373D44" x="123" y="84" width="2" height="4"></rect><rect id="Rectangle-922" fill="#373D44" x="127" y="84" width="2" height="4"></rect><rect id="Rectangle-922" fill="#373D44" x="131" y="84" width="2" height="4"></rect><rect id="Rectangle-922" fill="#373D44" x="135" y="84" width="2" height="4"></rect><rect id="Rectangle-922" fill="#373D44" x="139" y="84" width="2" height="4"></rect><rect id="Rectangle-922" fill="#373D44" x="143" y="84" width="2" height="4"></rect><rect id="Rectangle-922" fill="#373D44" x="147" y="84" width="2" height="4"></rect><rect id="Rectangle-922" fill="#373D44" x="151" y="84" width="2" height="4"></rect><rect id="Rectangle-922" fill="#373D44" x="155" y="84" width="2" height="4"></rect><rect id="Rectangle-922" fill="#373D44" x="159" y="84" width="2" height="4"></rect><rect id="Rectangle-922" fill="#373D44" x="163" y="84" width="2" height="4"></rect><rect id="Rectangle-922" fill="#373D44" x="167" y="84" width="2" height="4"></rect><rect id="Rectangle-922" fill="#373D44" x="115" y="100" width="2" height="4"></rect><rect id="Rectangle-922" fill="#373D44" x="119" y="100" width="2" height="4"></rect><rect id="Rectangle-922" fill="#373D44" x="123" y="100" width="2" height="4"></rect><rect id="Rectangle-922" fill="#373D44" x="127" y="100" width="2" height="4"></rect><rect id="Rectangle-922" fill="#373D44" x="99" y="84" width="2" height="4"></rect><rect id="Rectangle-922" fill="#373D44" x="103" y="84" width="2" height="4"></rect><rect id="Rectangle-922" fill="#373D44" x="107" y="84" width="2" height="4"></rect><rect id="Rectangle-922" fill="#373D44" x="111" y="84" width="2" height="4"></rect><rect id="Rectangle-922" fill="#373D44" x="99" y="100" width="2" height="4"></rect><rect id="Rectangle-922" fill="#373D44" x="95" y="84" width="2" height="4"></rect><rect id="Rectangle-922" fill="#373D44" x="95" y="100" width="2" height="4"></rect><rect id="Rectangle-922" fill="#373D44" x="103" y="100" width="2" height="4"></rect><rect id="Rectangle-922" fill="#373D44" x="107" y="100" width="2" height="4"></rect><rect id="Rectangle-922" fill="#373D44" x="111" y="100" width="2" height="4"></rect><rect id="Rectangle-922" fill="#373D44" x="131" y="100" width="2" height="4"></rect><rect id="Rectangle-922" fill="#373D44" x="135" y="100" width="2" height="4"></rect><rect id="Rectangle-922" fill="#373D44" x="139" y="100" width="2" height="4"></rect><rect id="Rectangle-922" fill="#373D44" x="143" y="100" width="2" height="4"></rect><rect id="Rectangle-922" fill="#373D44" x="147" y="100" width="2" height="4"></rect><rect id="Rectangle-922" fill="#373D44" x="151" y="100" width="2" height="4"></rect><rect id="Rectangle-922" fill="#373D44" x="155" y="100" width="2" height="4"></rect><rect id="Rectangle-922" fill="#373D44" x="159" y="100" width="2" height="4"></rect><rect id="Rectangle-922" fill="#373D44" x="163" y="100" width="2" height="4"></rect><rect id="Rectangle-922" fill="#373D44" x="167" y="100" width="2" height="4"></rect><rect id="Rectangle-922" fill="#373D44" x="171" y="84" width="2" height="4"></rect><rect id="Rectangle-922" fill="#373D44" x="171" y="100" width="2" height="4"></rect><rect id="Rectangle-922" fill="#373D44" x="175" y="84" width="2" height="4"></rect><rect id="Rectangle-922" fill="#373D44" x="175" y="100" width="2" height="4"></rect><rect id="Rectangle-922" fill="#373D44" x="179" y="84" width="2" height="4"></rect><rect id="Rectangle-922" fill="#373D44" x="179" y="100" width="2" height="4"></rect><use id="Rectangle-954" stroke="#373D44" mask="url(#mask-54)" stroke-width="4" fill="#728699" xlink:href="#path-53"></use><rect id="Rectangle-951" fill="#373D44" x="96" y="123" width="2" height="2"></rect><rect id="Rectangle-951" fill="#373D44" x="102" y="123" width="2" height="2"></rect><rect id="Rectangle-951" fill="#373D44" x="108" y="123" width="2" height="2"></rect><rect id="Rectangle-951" fill="#373D44" x="114" y="123" width="2" height="2"></rect><rect id="Rectangle-951" fill="#373D44" x="120" y="123" width="2" height="2"></rect><use id="Rectangle-954" stroke="#373D44" mask="url(#mask-56)" stroke-width="4" fill="#728699" xlink:href="#path-55"></use><rect id="Rectangle-951" fill="#373D44" x="136" y="123" width="2" height="2"></rect><rect id="Rectangle-951" fill="#373D44" x="142" y="123" width="2" height="2"></rect><rect id="Rectangle-951" fill="#373D44" x="148" y="123" width="2" height="2"></rect><rect id="Rectangle-951" fill="#373D44" x="154" y="123" width="2" height="2"></rect><rect id="Rectangle-951" fill="#373D44" x="160" y="123" width="2" height="2"></rect><rect id="Rectangle-951" fill="#373D44" x="166" y="123" width="2" height="2"></rect><rect id="Rectangle-951" fill="#373D44" x="172" y="123" width="2" height="2"></rect><use id="Rectangle-954" stroke="#373D44" mask="url(#mask-58)" stroke-width="4" fill="#728699" transform="translate(161.000000, 12.000000) scale(-1, 1) translate(-161.000000, -12.000000) " xlink:href="#path-57"></use><rect id="Rectangle-951" fill="#373D44" transform="translate(173.000000, 12.000000) scale(-1, 1) translate(-173.000000, -12.000000) " x="172" y="11" width="2" height="2"></rect><rect id="Rectangle-951" fill="#373D44" transform="translate(167.000000, 12.000000) scale(-1, 1) translate(-167.000000, -12.000000) " x="166" y="11" width="2" height="2"></rect><rect id="Rectangle-951" fill="#373D44" transform="translate(161.000000, 12.000000) scale(-1, 1) translate(-161.000000, -12.000000) " x="160" y="11" width="2" height="2"></rect><rect id="Rectangle-951" fill="#373D44" transform="translate(155.000000, 12.000000) scale(-1, 1) translate(-155.000000, -12.000000) " x="154" y="11" width="2" height="2"></rect><rect id="Rectangle-951" fill="#373D44" transform="translate(149.000000, 12.000000) scale(-1, 1) translate(-149.000000, -12.000000) " x="148" y="11" width="2" height="2"></rect><use id="Rectangle-954" stroke="#373D44" mask="url(#mask-60)" stroke-width="4" fill="#728699" transform="translate(115.000000, 12.000000) scale(-1, 1) translate(-115.000000, -12.000000) " xlink:href="#path-59"></use><rect id="Rectangle-951" fill="#373D44" transform="translate(133.000000, 12.000000) scale(-1, 1) translate(-133.000000, -12.000000) " x="132" y="11" width="2" height="2"></rect><rect id="Rectangle-951" fill="#373D44" transform="translate(127.000000, 12.000000) scale(-1, 1) translate(-127.000000, -12.000000) " x="126" y="11" width="2" height="2"></rect><rect id="Rectangle-951" fill="#373D44" transform="translate(121.000000, 12.000000) scale(-1, 1) translate(-121.000000, -12.000000) " x="120" y="11" width="2" height="2"></rect><rect id="Rectangle-951" fill="#373D44" transform="translate(115.000000, 12.000000) scale(-1, 1) translate(-115.000000, -12.000000) " x="114" y="11" width="2" height="2"></rect><rect id="Rectangle-951" fill="#373D44" transform="translate(109.000000, 12.000000) scale(-1, 1) translate(-109.000000, -12.000000) " x="108" y="11" width="2" height="2"></rect><rect id="Rectangle-951" fill="#373D44" transform="translate(103.000000, 12.000000) scale(-1, 1) translate(-103.000000, -12.000000) " x="102" y="11" width="2" height="2"></rect><rect id="Rectangle-951" fill="#373D44" transform="translate(97.000000, 12.000000) scale(-1, 1) translate(-97.000000, -12.000000) " x="96" y="11" width="2" height="2"></rect><use id="Rectangle-964" stroke="#373D44" mask="url(#mask-62)" stroke-width="4" fill="#728699" xlink:href="#path-61"></use><use id="Rectangle-964" stroke="#373D44" mask="url(#mask-64)" stroke-width="4" fill="#728699" xlink:href="#path-63"></use><use id="Rectangle-964" stroke="#373D44" mask="url(#mask-66)" stroke-width="4" fill="#728699" xlink:href="#path-65"></use><use id="Rectangle-964" stroke="#373D44" mask="url(#mask-68)" stroke-width="4" fill="#728699" xlink:href="#path-67"></use></g></g></g></svg>
