<?xml version="1.0" encoding="UTF-8"?><svg width="289px" height="72px" viewBox="0 0 289 72" version="1.1" xmlns="http://www.w3.org/2000/svg" xmlns:xlink="http://www.w3.org/1999/xlink"><g id="Page-1" stroke="none" stroke-width="1" fill="none" fill-rule="evenodd"><g id="hosting-files-types"><path d="M186.802105,24.3644211 L186.802105,60.0934737 C186.802105,63.2065263 185.685158,65.8790526 183.453158,68.1129474 C181.220211,70.3449474 178.545789,71.4618947 175.433684,71.4618947 L113.719263,71.4618947 C110.605263,71.4618947 107.933684,70.3449474 105.700737,68.1129474 C103.467789,65.88 102.350842,63.2065263 102.350842,60.0934737 L102.350842,11.3722105 C102.350842,8.25915789 103.466842,5.58663158 105.700737,3.35368421 C107.933684,1.12073684 110.606211,0.00378947368 113.719263,0.00378947368 L129.96,0.00378947368 C133.073053,0.00378947368 135.745579,1.11978947 137.978526,3.35368421 C140.211474,5.58663158 141.328421,8.26010526 141.328421,11.3722105 L141.328421,12.996 L175.433684,12.996 C178.545789,12.996 181.219263,14.1129474 183.453158,16.3458947 C185.685158,18.5788421 186.802105,21.2523158 186.802105,24.3644211 L186.802105,24.3644211 Z" id="Shape" fill="#757575"></path><path d="M229.608,40.8083158 L243.412105,40.8083158 L243.412105,67.6046316 C243.412105,68.2810526 243.175263,68.8561053 242.701579,69.3297895 C242.227895,69.8034737 241.652842,70.0403158 240.976421,70.0403158 L206.871158,70.0403158 C206.194737,70.0403158 205.619684,69.8034737 205.146,69.3297895 C204.672316,68.8561053 204.435474,68.2810526 204.435474,67.6046316 L204.435474,27.0032632 C204.435474,26.3268421 204.672316,25.7517895 205.146,25.2781053 C205.619684,24.8044211 206.194737,24.5675789 206.871158,24.5675789 L227.172316,24.5675789 L227.172316,38.3716842 C227.172316,39.0481053 227.409158,39.6241053 227.882842,40.0977895 C228.356526,40.5714737 228.931579,40.8083158 229.608,40.8083158 L229.608,40.8083158 Z" id="Path" fill="#757575"></path><path d="M233.668421,59.4847368 L233.668421,57.8609474 C233.668421,57.6241053 233.591684,57.4289474 233.440105,57.2773684 C233.287579,57.1248421 233.093368,57.0490526 232.856526,57.0490526 L214.992,57.0490526 C214.755158,57.0490526 214.560947,57.1248421 214.408421,57.2773684 C214.256842,57.4289474 214.180105,57.6241053 214.180105,57.8609474 L214.180105,59.4847368 C214.180105,59.7215789 214.256842,59.9157895 214.408421,60.0683158 C214.560947,60.2208421 214.755158,60.2966316 214.992,60.2966316 L232.856526,60.2966316 C233.093368,60.2966316 233.287579,60.2208421 233.440105,60.0683158 C233.591684,59.9157895 233.668421,59.7215789 233.668421,59.4847368 L233.668421,59.4847368 Z" id="Path" fill="#FFFFFF"></path><path d="M241.686947,36.6465263 C241.923789,36.8833684 242.160632,37.1884211 242.397474,37.5597895 L230.419895,37.5597895 L230.419895,25.5822105 C230.792211,25.8190526 231.096316,26.0558947 231.333158,26.2927368 L241.686947,36.6465263 L241.686947,36.6465263 Z" id="Path" fill="#757575"></path><path d="M233.668421,52.9876842 L233.668421,51.3638947 C233.668421,51.1270526 233.591684,50.9328421 233.440105,50.7803158 C233.287579,50.6287368 233.093368,50.552 232.856526,50.552 L214.992,50.552 C214.755158,50.552 214.560947,50.6287368 214.408421,50.7803158 C214.256842,50.9328421 214.180105,51.1270526 214.180105,51.3638947 L214.180105,52.9876842 C214.180105,53.2254737 214.256842,53.4196842 214.408421,53.5712632 C214.560947,53.7237895 214.755158,53.7995789 214.992,53.7995789 L232.856526,53.7995789 C233.093368,53.7995789 233.287579,53.7237895 233.440105,53.5712632 C233.591684,53.4196842 233.668421,53.2254737 233.668421,52.9876842 L233.668421,52.9876842 Z" id="Path" fill="#FFFFFF"></path><path d="M233.668421,46.4925263 L233.668421,44.8677895 C233.668421,44.6309474 233.591684,44.4367368 233.440105,44.2842105 C233.287579,44.1326316 233.093368,44.0568421 232.856526,44.0568421 L214.992,44.0568421 C214.755158,44.0568421 214.560947,44.1326316 214.408421,44.2842105 C214.256842,44.4367368 214.180105,44.6309474 214.180105,44.8677895 L214.180105,46.4925263 C214.180105,46.7293684 214.256842,46.9235789 214.408421,47.0761053 C214.560947,47.2276842 214.755158,47.3034737 214.992,47.3034737 L232.856526,47.3034737 C233.093368,47.3034737 233.287579,47.2276842 233.440105,47.0761053 C233.591684,46.9235789 233.668421,46.7293684 233.668421,46.4925263 L233.668421,46.4925263 Z" id="Path" fill="#FFFFFF"></path><path d="M83.2111579,34.4069474 C83.6848421,34.8806316 84.0903158,35.5238947 84.4294737,36.3357895 C84.7676842,37.1476842 84.9372632,37.8923158 84.9372632,38.5687368 L84.9372632,67.8016842 C84.9372632,68.4781053 84.7004211,69.0531579 84.2267368,69.5268421 C83.7530526,70.0005263 83.178,70.2373684 82.5015789,70.2373684 L48.3963158,70.2373684 C47.7198947,70.2373684 47.1438947,70.0005263 46.6711579,69.5268421 C46.1974737,69.0531579 45.9606316,68.4781053 45.9606316,67.8016842 L45.9606316,27.2003158 C45.9606316,26.5238947 46.1974737,25.9488421 46.6711579,25.4751579 C47.1448421,25.0014737 47.7198947,24.7646316 48.3963158,24.7646316 L71.1331579,24.7646316 C71.8095789,24.7646316 72.5542105,24.9342105 73.3661053,25.2724211 C74.178,25.6106316 74.8203158,26.0170526 75.2949474,26.4907368 L83.2111579,34.4069474 L83.2111579,34.4069474 Z" id="Path" fill="#757575"></path><path d="M72.9852632,28.7738947 C72.7825263,28.5711579 72.4348421,28.3845263 71.9450526,28.2158947 L71.9450526,37.7568421 L81.486,37.7568421 C81.3164211,37.2661053 81.1307368,36.9193684 80.928,36.7156842 L72.9852632,28.7738947 L72.9852632,28.7738947 L72.9852632,28.7738947 Z" id="Path" fill="#FFFFFF"></path><path d="M81.6896842,66.9907368 L81.6896842,41.0053684 L71.1322105,41.0053684 C70.4557895,41.0053684 69.8797895,40.7685263 69.4070526,40.2948421 C68.9333684,39.8211579 68.6965263,39.2461053 68.6965263,38.5687368 L68.6965263,28.0122105 L49.2082105,28.0122105 L49.2082105,66.9907368 L81.6896842,66.9907368 L81.6896842,66.9907368 Z" id="Path" fill="#FFFFFF"></path><path d="M76.4829474,52.3728421 L70.5704211,58.2853684 C70.4861053,58.3706316 70.3885263,58.4123158 70.2786316,58.4123158 C70.1687368,58.4123158 70.0711579,58.3706316 69.9868421,58.2853684 L69.3530526,57.6515789 C69.2687368,57.5663158 69.2261053,57.4696842 69.2261053,57.3588421 C69.2261053,57.248 69.2687368,57.1513684 69.3530526,57.0670526 L74.3390526,52.0801053 L69.3530526,47.0931579 C69.2687368,47.0088421 69.2261053,46.9122105 69.2261053,46.8013684 C69.2261053,46.6905263 69.2687368,46.5938947 69.3530526,46.5086316 L69.9868421,45.8748421 C70.0711579,45.7895789 70.1687368,45.7478947 70.2786316,45.7478947 C70.3885263,45.7478947 70.4861053,45.7895789 70.5704211,45.8748421 L76.4829474,51.7873684 C76.5672632,51.8716842 76.6098947,51.9683158 76.6098947,52.0791579 C76.6098947,52.19 76.5682105,52.2885263 76.4829474,52.3728421 L76.4829474,52.3728421 Z" id="Path" fill="#757575"></path><path d="M68.148,44.1127368 L63.4149474,60.4936842 C63.3808421,60.6026316 63.3154737,60.6850526 63.2178947,60.7409474 C63.1203158,60.7958947 63.0208421,60.8063158 62.9194737,60.7722105 L62.1331579,60.5562105 C62.0232632,60.5230526 61.9408421,60.4576842 61.8858947,60.3601053 C61.8309474,60.2615789 61.8205263,60.1583158 61.8536842,60.0493684 L66.5867368,43.6684211 C66.6208421,43.5594737 66.6862105,43.4770526 66.7837895,43.4211579 C66.8813684,43.3662105 66.9808421,43.3557895 67.0822105,43.3898947 L67.8685263,43.6058947 C67.9784211,43.64 68.0608421,43.7044211 68.1157895,43.802 C68.1707368,43.9005263 68.1811579,44.0037895 68.148,44.1127368 L68.148,44.1127368 Z" id="Path" fill="#757575"></path><path d="M60.6495789,57.6515789 L60.0148421,58.2853684 C59.9305263,58.3706316 59.8329474,58.4123158 59.7230526,58.4123158 C59.6131579,58.4123158 59.5155789,58.3706316 59.4312632,58.2853684 L53.5187368,52.3728421 C53.4344211,52.2885263 53.3917895,52.1918947 53.3917895,52.0810526 C53.3917895,51.9702105 53.4344211,51.8735789 53.5187368,51.7892632 L59.4312632,45.8767368 C59.5155789,45.7914737 59.6131579,45.7497895 59.7230526,45.7497895 C59.8329474,45.7497895 59.9305263,45.7914737 60.0148421,45.8767368 L60.6495789,46.5105263 C60.7338947,46.5957895 60.7765263,46.6924211 60.7765263,46.8032632 C60.7765263,46.9141053 60.7338947,47.0107368 60.6495789,47.0950526 L55.6626316,52.082 L60.6495789,57.0689474 C60.7338947,57.1532632 60.7765263,57.2498947 60.7765263,57.3607368 C60.7765263,57.4715789 60.7329474,57.5663158 60.6495789,57.6515789 L60.6495789,57.6515789 Z" id="Path" fill="#757575"></path><path d="M287.573684,43.3008421 C287.928947,43.6561053 288.233053,44.1392632 288.486947,44.7474737 C288.741789,45.3566316 288.867789,45.9146316 288.867789,46.4224211 L288.867789,68.3473684 C288.867789,68.8551579 288.689684,69.2862105 288.335368,69.6414737 C287.981053,69.9967368 287.548105,70.1738947 287.041263,70.1738947 L261.462316,70.1738947 C260.954526,70.1738947 260.523474,69.9957895 260.168211,69.6414737 C259.812947,69.2871579 259.635789,68.8551579 259.635789,68.3473684 L259.635789,37.8961053 C259.635789,37.3883158 259.813895,36.9572632 260.168211,36.602 C260.523474,36.2467368 260.954526,36.0695789 261.462316,36.0695789 L278.514947,36.0695789 C279.021789,36.0695789 279.580737,36.1965263 280.189895,36.4504211 C280.8,36.7043158 281.281263,37.0093684 281.636526,37.3636842 L287.573684,43.3008421 L287.573684,43.3008421 Z" id="Path" fill="#757575"></path><path d="M279.903789,39.0755789 C279.751263,38.9230526 279.490737,38.7837895 279.123158,38.6568421 L279.123158,45.8132632 L286.279579,45.8132632 C286.152632,45.4447368 286.013368,45.1851579 285.861789,45.0326316 L279.903789,39.0755789 L279.903789,39.0755789 L279.903789,39.0755789 Z" id="Path" fill="#FFFFFF"></path><path d="M286.432105,67.7382105 L286.432105,48.2489474 L278.514947,48.2489474 C278.007158,48.2489474 277.576105,48.0708421 277.220842,47.7165263 C276.865579,47.3622105 276.688421,46.9302105 276.688421,46.4224211 L276.688421,38.5052632 L262.070526,38.5052632 L262.070526,67.7382105 L286.432105,67.7382105 L286.432105,67.7382105 Z" id="Path" fill="#FFFFFF"></path><path d="M268.736202,57.5786848 L269.896358,57.5786848 L269.896358,58.7888 L268.736202,58.7888 L268.736202,57.5786848 Z M272.655198,51.7890056 L271.656021,51.7890056 L271.656021,50.6344003 L272.655198,50.6344003 L272.655198,51.7890056 Z M270.712353,60.2931174 C271.160135,60.2783147 271.429355,60.2385331 271.520021,60.1737713 C271.610688,60.1090093 271.656021,59.9064004 271.656021,59.5659382 L271.656021,52.871448 L272.655198,52.871448 L272.655198,59.6714069 C272.655198,60.1043861 272.584886,60.4281904 272.444261,60.6428296 C272.211118,61.0054959 271.768894,61.1868263 271.117575,61.1868263 C271.069466,61.1868263 271.018583,61.184976 270.964923,61.1812753 C270.911263,61.1775747 270.827073,61.1701734 270.712353,61.1590714 L270.712353,60.2931174 Z M274.775676,56.9236684 C274.805281,57.2567293 274.888545,57.5120721 275.02547,57.6897046 C275.277116,58.0116635 275.713789,58.1726405 276.335503,58.1726405 C276.70557,58.1726405 277.031225,58.092152 277.312476,57.9311726 C277.593727,57.7701931 277.734352,57.5213264 277.734352,57.1845648 C277.734352,56.9292181 277.621482,56.7349356 277.395741,56.6017111 C277.251415,56.5202963 276.966467,56.4259304 276.540889,56.3186108 L275.747098,56.1187753 C275.240105,55.9929524 274.866343,55.8523287 274.625799,55.6969003 C274.19652,55.4267509 273.981884,55.0529882 273.981884,54.575601 C273.981884,54.0130982 274.184493,53.5579218 274.589718,53.2100582 C274.994941,52.8621947 275.539858,52.6882655 276.224483,52.6882655 C277.120047,52.6882655 277.765805,52.9510096 278.161777,53.4765056 C278.409722,53.8095665 278.529993,54.1685267 278.522592,54.5533971 L277.578924,54.5533971 C277.560421,54.3276557 277.480857,54.1222713 277.340231,53.9372375 C277.110789,53.6744895 276.712972,53.5431174 276.146769,53.5431174 C275.7693,53.5431174 275.483427,53.6152795 275.289142,53.7596059 C275.094856,53.9039323 274.997715,54.0945143 274.997715,54.3313576 C274.997715,54.5904049 275.125386,54.7976397 275.380733,54.9530681 C275.52876,55.045585 275.747097,55.1269987 276.03575,55.1973115 L276.696316,55.3582901 C277.414248,55.5322219 277.895329,55.7006002 278.139573,55.86343 C278.528144,56.1187766 278.722427,56.520294 278.722427,57.067994 C278.722427,57.5971908 278.521668,58.0542174 278.120145,58.4390879 C277.718622,58.8239582 277.107093,59.0163905 276.285544,59.0163905 C275.401082,59.0163905 274.774752,58.8156317 274.406535,58.4141084 C274.038317,58.012585 273.84126,57.5157766 273.815355,56.9236684 L274.775676,56.9236684 Z" id=".js" fill="#757575"></path><path d="M27.9502105,44.3008421 C28.3054737,44.6570526 28.6095789,45.1392632 28.8634737,45.7474737 C29.1173684,46.3566316 29.2443158,46.9146316 29.2443158,47.4224211 L29.2443158,69.3473684 C29.2443158,69.8551579 29.0662105,70.2862105 28.7118947,70.6414737 C28.3566316,70.9967368 27.9246316,71.1738947 27.4177895,71.1738947 L1.83884211,71.1738947 C1.33105263,71.1738947 0.9,70.9957895 0.544736842,70.6414737 C0.189473684,70.2871579 0.0123157895,69.8551579 0.0123157895,69.3473684 L0.0123157895,38.8961053 C0.0123157895,38.3892632 0.190421053,37.9572632 0.544736842,37.602 C0.899052632,37.2467368 1.332,37.0695789 1.83884211,37.0695789 L18.8914737,37.0695789 C19.3992632,37.0695789 19.9572632,37.1965263 20.5664211,37.4494737 C21.1755789,37.7033684 21.6577895,38.0084211 22.0130526,38.3627368 L27.9502105,44.3008421 L27.9502105,44.3008421 Z" id="Path" fill="#757575"></path><path d="M20.2803158,40.0755789 C20.1277895,39.9230526 19.8682105,39.7837895 19.4996842,39.6568421 L19.4996842,46.8132632 L26.6561053,46.8132632 C26.5291579,46.4447368 26.3898947,46.1851579 26.2373684,46.0326316 L20.2803158,40.0755789 L20.2803158,40.0755789 L20.2803158,40.0755789 Z" id="Path" fill="#FFFFFF"></path><path d="M26.8076842,68.7382105 L26.8076842,49.2489474 L18.8905263,49.2489474 C18.3827368,49.2489474 17.9516842,49.0708421 17.5964211,48.7165263 C17.2411579,48.3622105 17.064,47.9302105 17.064,47.4224211 L17.064,39.5052632 L2.44705263,39.5052632 L2.44705263,68.7382105 L26.8076842,68.7382105 L26.8076842,68.7382105 Z" id="Path" fill="#FFFFFF"></path><path d="M5.31510691,58.7053481 L6.47526316,58.7053481 L6.47526316,59.9154632 L5.31510691,59.9154632 L5.31510691,58.7053481 Z M12.1622492,54.2867625 C12.582276,54.6124221 12.8348433,55.1730661 12.9199589,55.9687115 L11.9485362,55.9687115 C11.8893253,55.6023446 11.7542527,55.2979684 11.5433142,55.0555742 C11.3323756,54.8131798 10.9937688,54.6919845 10.5274836,54.6919845 C9.89096722,54.6919845 9.43579085,55.0028367 9.16194079,55.6245503 C8.98430832,56.0279241 8.89549342,56.5256576 8.89549342,57.1177658 C8.89549342,57.7135747 9.02131453,58.2150088 9.27296053,58.6220832 C9.52460649,59.0291577 9.92057296,59.2326918 10.4608718,59.2326918 C10.8753474,59.2326918 11.2037776,59.1059456 11.4461719,58.8524492 C11.6885662,58.5989528 11.8560193,58.2520196 11.9485362,57.8116392 L12.9199589,57.8116392 C12.8089386,58.5998832 12.5313921,59.1762549 12.0873108,59.5407716 C11.6432297,59.9052881 11.0751844,60.0875437 10.3831579,60.0875437 C9.60601585,60.0875437 8.98616186,59.8035211 8.52357731,59.2354673 C8.06099275,58.6674135 7.82970395,57.9578193 7.82970395,57.1066639 C7.82970395,56.063073 8.08319648,55.2507867 8.59018915,54.6697806 C9.09718181,54.0887744 9.74294015,53.7982757 10.5274836,53.7982757 C11.1973059,53.7982757 11.7422224,53.9611029 12.1622492,54.2867625 L12.1622492,54.2867625 Z M14.5130921,58.0503316 C14.5426976,58.3833925 14.6259615,58.6387353 14.7628865,58.8163678 C15.0145325,59.1383266 15.4512058,59.2993036 16.0729194,59.2993036 C16.442987,59.2993036 16.7686417,59.2188151 17.0498931,59.0578357 C17.3311445,58.8968562 17.4717681,58.6479896 17.4717681,58.3112279 C17.4717681,58.0558813 17.3588991,57.8615987 17.1331579,57.7283744 C16.9888315,57.6469594 16.7038837,57.5525936 16.278306,57.445274 L15.4845148,57.2454385 C14.9775221,57.1196155 14.6037594,56.9789919 14.3632155,56.8235635 C13.933937,56.5534141 13.719301,56.1796514 13.719301,55.7022642 C13.719301,55.1397613 13.92191,54.684585 14.327134,54.3367214 C14.7323582,53.9888578 15.2772745,53.8149286 15.9618997,53.8149286 C16.8574634,53.8149286 17.5032217,54.0776727 17.8991941,54.6031687 C18.1471394,54.9362296 18.2674096,55.2951898 18.2600082,55.6800602 L17.3163405,55.6800602 C17.2978371,55.4543189 17.2182737,55.2489345 17.0776481,55.0639007 C16.8482061,54.8011526 16.4503894,54.6697806 15.8841858,54.6697806 C15.5067168,54.6697806 15.2208439,54.7419427 15.0265584,54.8862691 C14.8322728,55.0305955 14.7351316,55.2211774 14.7351316,55.4580207 C14.7351316,55.717068 14.862803,55.9243029 15.1181497,56.0797313 C15.2661768,56.1722481 15.4845134,56.2536619 15.7731661,56.3239747 L16.4337336,56.4849533 C17.1516647,56.6588851 17.6327455,56.8272633 17.8769902,56.9900931 C18.2655612,57.2454398 18.4598437,57.6469572 18.4598437,58.1946573 C18.4598437,58.723854 18.2590851,59.1808806 17.8575616,59.565751 C17.4560383,59.9506213 16.8445107,60.1430536 16.0229605,60.1430536 C15.1384989,60.1430536 14.5121688,59.9422949 14.1439515,59.5407716 C13.7757341,59.1392481 13.5786761,58.6424398 13.5527714,58.0503316 L14.5130921,58.0503316 Z M20.1973026,58.0503316 C20.2269081,58.3833925 20.310172,58.6387353 20.4470971,58.8163678 C20.698743,59.1383266 21.1354163,59.2993036 21.75713,59.2993036 C22.1271975,59.2993036 22.4528522,59.2188151 22.7341036,59.0578357 C23.0153551,58.8968562 23.1559786,58.6479896 23.1559786,58.3112279 C23.1559786,58.0558813 23.0431096,57.8615987 22.8173684,57.7283744 C22.6730421,57.6469594 22.3880942,57.5525936 21.9625165,57.445274 L21.1687253,57.2454385 C20.6617327,57.1196155 20.28797,56.9789919 20.047426,56.8235635 C19.6181475,56.5534141 19.4035115,56.1796514 19.4035115,55.7022642 C19.4035115,55.1397613 19.6061205,54.684585 20.0113445,54.3367214 C20.4165687,53.9888578 20.9614851,53.8149286 21.6461102,53.8149286 C22.5416739,53.8149286 23.1874322,54.0776727 23.5834047,54.6031687 C23.8313499,54.9362296 23.9516201,55.2951898 23.9442187,55.6800602 L23.000551,55.6800602 C22.9820476,55.4543189 22.9024843,55.2489345 22.7618586,55.0639007 C22.5324166,54.8011526 22.1345999,54.6697806 21.5683964,54.6697806 C21.1909274,54.6697806 20.9050544,54.7419427 20.7107689,54.8862691 C20.5164834,55.0305955 20.4193421,55.2211774 20.4193421,55.4580207 C20.4193421,55.717068 20.5470135,55.9243029 20.8023602,56.0797313 C20.9503873,56.1722481 21.1687239,56.2536619 21.4573766,56.3239747 L22.1179441,56.4849533 C22.8358753,56.6588851 23.3169561,56.8272633 23.5612007,56.9900931 C23.9497717,57.2454398 24.1440543,57.6469572 24.1440543,58.1946573 C24.1440543,58.723854 23.9432956,59.1808806 23.5417722,59.565751 C23.1402488,59.9506213 22.5287212,60.1430536 21.7071711,60.1430536 C20.8227094,60.1430536 20.1963793,59.9422949 19.828162,59.5407716 C19.4599447,59.1392481 19.2628866,58.6424398 19.2369819,58.0503316 L20.1973026,58.0503316 Z" id=".css" fill="#757575"></path></g></g></svg>
