<?xml version="1.0" encoding="UTF-8" standalone="no"?><svg width="207px" height="153px" viewBox="0 0 207 153" version="1.1" xmlns="http://www.w3.org/2000/svg" xmlns:xlink="http://www.w3.org/1999/xlink"><defs><rect id="path-1" x="0" y="21" width="164" height="100"></rect><mask id="mask-2" maskContentUnits="userSpaceOnUse" maskUnits="objectBoundingBox" x="-4" y="-4" width="172" height="108"><rect x="-4" y="17" width="172" height="108" fill="white"></rect><use xlink:href="#path-1" fill="black"></use></mask><rect id="path-3" x="0" y="0" width="164" height="17" rx="4"></rect><mask id="mask-4" maskContentUnits="userSpaceOnUse" maskUnits="objectBoundingBox" x="-4" y="-4" width="172" height="25"><rect x="-4" y="-4" width="172" height="25" fill="white"></rect><use xlink:href="#path-3" fill="black"></use></mask></defs><g id="Page-1" stroke="none" stroke-width="1" fill="none" fill-rule="evenodd"><g id="Illustration-#1" transform="translate(3.000000, 0.000000)"><ellipse id="Oval-51" fill="#B8C0C9" opacity="0.3" cx="100.5" cy="146" rx="100.5" ry="7"></ellipse><g id="***-Browser" transform="translate(18.000000, 18.000000)"><g id="Rectangle-121"><use fill="#FFFFFF" fill-rule="evenodd" xlink:href="#path-1"></use><use stroke="#373D44" mask="url(#mask-2)" stroke-width="8" xlink:href="#path-1"></use></g><g id="Rectangle-121"><use fill-opacity="0.400000006" fill="#B8C0C9" fill-rule="evenodd" xlink:href="#path-3"></use><use stroke="#373D44" mask="url(#mask-4)" stroke-width="8" xlink:href="#path-3"></use></g><ellipse id="Oval-66" fill="#373D44" cx="11.4990789" cy="8.5" rx="3.49907895" ry="3.5"></ellipse><ellipse id="Oval-66" fill="#373D44" cx="22.4990789" cy="8.5" rx="3.49907895" ry="3.5"></ellipse><ellipse id="Oval-66" fill="#373D44" cx="33.4990789" cy="8.5" rx="3.49907895" ry="3.5"></ellipse><g id="Group-47" opacity="0.3" transform="translate(10.000000, 32.000000)" fill="#B8C0C9"><rect id="Rectangle-123" opacity="0.4" x="0" y="0" width="10" height="80"></rect><rect id="Rectangle-124" x="14" y="0" width="19" height="6"></rect><rect id="Rectangle-124" x="14" y="52" width="18" height="6"></rect><rect id="Rectangle-124" x="14" y="65" width="33" height="6"></rect><rect id="Rectangle-124" x="55" y="65" width="47" height="6"></rect><rect id="Rectangle-124" x="66" y="39" width="47" height="6"></rect><rect id="Rectangle-124" x="110" y="65" width="18" height="6"></rect><rect id="Rectangle-124" x="40" y="52" width="33" height="6"></rect><rect id="Rectangle-124" x="14" y="26" width="4" height="6"></rect><rect id="Rectangle-124" x="55" y="39" width="4" height="6"></rect><rect id="Rectangle-124" x="66" y="26" width="33" height="6"></rect><rect id="Rectangle-124" x="26" y="26" width="33" height="6"></rect><rect id="Rectangle-124" x="14" y="13" width="33" height="6"></rect><rect id="Rectangle-124" x="14" y="39" width="33" height="6"></rect><rect id="Rectangle-124" x="55" y="13" width="47" height="6"></rect><rect id="Rectangle-124" x="110" y="13" width="18" height="6"></rect><rect id="Rectangle-124" x="121" y="39" width="18" height="6"></rect><rect id="Rectangle-124" x="40" y="0" width="33" height="6"></rect></g></g><g id="Group-8-Copy" transform="translate(164.000000, 0.000000)"><ellipse id="Oval-647" fill="#F0423A" cx="20" cy="20" rx="20" ry="20"></ellipse><path d="M13.5868772,28.5714286 C13.0725915,28.5714286 12.7297343,28.4 12.3868772,28.0571429 C11.7011629,27.3714286 11.7011629,26.3428571 12.3868772,25.6571429 L26.1011629,11.9428571 C26.7868772,11.2571429 27.8154486,11.2571429 28.5011629,11.9428571 C29.1868772,12.6285714 29.1868772,13.6571429 28.5011629,14.3428571 L14.7868772,28.0571429 C14.4440201,28.4 14.1011629,28.5714286 13.5868772,28.5714286 L13.5868772,28.5714286 Z" id="Shape" fill="#FFFFFF"></path><path d="M27.3011629,28.5714286 C26.7868772,28.5714286 26.4440201,28.4 26.1011629,28.0571429 L12.3868772,14.3428571 C11.7011629,13.6571429 11.7011629,12.6285714 12.3868772,11.9428571 C13.0725915,11.2571429 14.1011629,11.2571429 14.7868772,11.9428571 L28.5011629,25.6571429 C29.1868772,26.3428571 29.1868772,27.3714286 28.5011629,28.0571429 C28.1583058,28.4 27.8154486,28.5714286 27.3011629,28.5714286 L27.3011629,28.5714286 Z" id="Shape" fill="#FFFFFF"></path></g></g></g></svg>
