<svg width="186" height="60" viewBox="0 0 186 60" xmlns="http://www.w3.org/2000/svg"><g fill="none"><path d="M91 32v10.5c0 1.5.8 2.5 2 2.5s2-1 2-2.5v-10.5h10.5c1.5 0 2.5-.8 2.5-2s-1-2-2.5-2h-10.5v-10.5c0-1.5-.8-2.5-2-2.5s-2 1-2 2.5v10.5h-10.5c-1.5 0-2.5.8-2.5 2s1 2 2.5 2h10.5z" fill="#B8C0C9"/><path d="M30.37 48.996c-4.339 0-8.36-1.167-12.063-3.396l2.963-5.2c2.751 1.91 5.714 2.971 9.206 2.971 4.021 0 6.455-1.804 6.455-4.669 0-2.653-1.481-4.139-8.254-5.731-7.831-1.91-12.275-4.245-12.275-11.037 0-6.367 5.291-10.718 12.593-10.718 4.444 0 8.148 1.167 11.323 3.184l-3.069 5.2c-2.751-1.804-5.608-2.759-8.466-2.759-3.81 0-6.032 1.91-6.032 4.457 0 2.865 1.693 4.139 8.677 5.837 7.725 1.91 11.852 4.669 11.852 10.824.212 6.898-5.185 11.037-12.91 11.037zm14.603-44.996h-29.947l-15.026 26 15.026 26h29.947l15.026-26-15.026-26z" id="Page-1" fill="#0070D3"/><g><path d="M164.898 3.693c-.912-2.806-3.926-4.342-6.733-3.43-2.806.912-4.342 3.926-3.43 6.732l13.816 42.508c.948 2.622 3.78 4.095 6.499 3.313 2.836-.816 4.565-3.828 3.66-6.613-.034-.106-13.812-42.509-13.812-42.509" fill="#E9A823"/><path d="M143.49 10.649c-.912-2.806-3.926-4.342-6.733-3.43-2.806.912-4.342 3.926-3.43 6.732l13.816 42.508c.948 2.622 3.78 4.095 6.499 3.313 2.836-.816 4.565-3.828 3.66-6.613-.034-.106-13.812-42.509-13.812-42.509" fill="#3FB991"/><path d="M182.288 38.898c2.806-.912 4.342-3.926 3.43-6.733-.912-2.806-3.926-4.342-6.732-3.43l-42.508 13.816c-2.622.948-4.095 3.78-3.313 6.499.816 2.836 3.828 4.565 6.613 3.66.106-.034 42.509-13.812 42.509-13.812" fill="#E01664"/><path d="M145.338 50.904l10.16-3.301-3.301-10.161-10.16 3.302 3.302 10.159z" fill="#462948"/><path d="M166.745 43.948l10.16-3.301c-.9-2.767-2.058-6.334-3.302-10.163l-10.16 3.302 3.302 10.161z" fill="#CD2026"/><path d="M175.332 17.49c2.806-.912 4.342-3.926 3.43-6.733-.912-2.806-3.926-4.342-6.732-3.43l-42.508 13.816c-2.622.948-4.095 3.78-3.313 6.499.816 2.836 3.828 4.565 6.613 3.66.106-.034 42.509-13.812 42.509-13.812" fill="#70CBDB"/><path d="M138.38 29.497l10.162-3.301-3.301-10.161-10.162 3.303 3.302 10.159z" fill="#1B947D"/><path d="M159.788 22.541l10.162-3.301-3.302-10.163-10.162 3.303 3.302 10.161z" fill="#65863A"/></g></g></svg>
