<?xml version="1.0" encoding="UTF-8" standalone="no"?><svg width="146px" height="129px" viewBox="0 0 146 129" version="1.1" xmlns="http://www.w3.org/2000/svg" xmlns:xlink="http://www.w3.org/1999/xlink"><defs><circle id="path-1" cx="26" cy="26" r="26"></circle><mask id="mask-2" maskContentUnits="userSpaceOnUse" maskUnits="objectBoundingBox" x="0" y="0" width="52" height="52" fill="white"><use xlink:href="#path-1"></use></mask></defs><g id="Maintance-API-Deploy" stroke="none" stroke-width="1" fill="none" fill-rule="evenodd"><g id="Maintenance-1" transform="translate(-647.000000, -213.000000)"><g id="Group-3" transform="translate(647.000000, 215.000000)"><ellipse id="Oval-2" fill="#B8C0C9" opacity="0.4" cx="73" cy="111.89631" rx="73" ry="14.8963101"></ellipse><g id="Group-4" transform="translate(9.000000, 0.000000)"><g id="Page-1"><path d="M56.513,39.2337 C56.096,38.7527 55.622,38.5407 55.147,38.5607 L49.069,43.8437 C48.363,44.4657 48.263,45.6047 48.901,46.3327 L100.738,105.0637 C101.635,106.0907 103.016,106.4307 104.234,106.0557 L107.494,103.3347 C108.882,102.1217 109.026,100.0187 107.819,98.6187 L56.513,39.2337 Z" id="Fill-1" fill="#0E5696"></path><path d="M20.838,36.0168 C21.827,35.2518 22.786,34.7228 23.731,34.3798 C24.003,33.8548 24.362,33.3838 24.838,33.0168 C30.669,28.5058 35.507,31.6168 41.963,39.0588 C42.138,39.2618 42.328,39.3538 42.523,39.3768 C45.246,36.9418 49.417,33.2088 49.707,32.9678 C50.119,32.6008 50.619,31.9168 49.963,31.1508 C49.294,30.3858 46.875,27.2618 45.319,25.2338 C40.652,19.1558 45.116,13.8868 51.505,9.7828 C56.016,5.7188 63.289,2.4948 68.434,0.3538 C63.84,0.2668 53.009,0.1618 51.232,0.3568 C43.213,1.1968 33.144,8.6578 28.075,12.1358 C27.457,12.5578 26.886,12.9568 26.338,13.3458 C23.905,15.2938 22.82,16.4388 22.563,16.6708 C20.688,18.3008 22.263,22.0658 18.863,25.0338 C17.851,25.9148 16.949,26.3518 16.125,26.5778 C15.803,27.0748 15.4,27.5648 14.863,28.0338 C11.79,30.7098 9.705,29.3708 7.864,30.0608 C7.152,30.6148 6.52,31.1088 6.2,31.3868 C5.369,32.1148 5.219,33.3408 6.069,34.3168 C6.069,34.3168 13.969,43.0038 14.632,43.7748 C15.096,44.3128 16.127,44.7878 17.08,44.6798 C17.796,44.0538 18.404,43.5208 18.601,43.3408 C19.088,42.9298 18.288,37.9828 20.838,36.0168" id="Fill-3" fill="#0E5696"></path><path d="M50.6515,68.9904 L22.3625,96.2534 C21.0625,97.5534 21.0625,99.6694 22.3625,100.9694 L28.3065,106.7564 C28.9985,107.4484 29.9065,107.6064 30.8015,107.4164 L59.6375,79.1924 L50.6515,68.9904 Z" id="Fill-5" fill="#0E5696"></path><path d="M125.6317,14.2391 C125.5187,13.4861 125.3367,12.9591 125.1147,12.6071 C122.6887,14.2581 121.7217,17.8121 120.7187,19.4771 C119.8607,20.9021 118.2797,23.1201 115.7947,23.8491 C113.9147,26.3211 110.3867,29.0891 104.6317,25.0281 C97.4567,19.9821 99.9507,16.4601 101.2007,14.0901 C102.4567,11.7071 106.3127,5.0241 106.8687,4.1961 C107.4257,3.3561 106.7757,0.9171 104.5507,1.9381 C103.3897,2.4681 99.1727,4.1741 95.1267,6.7681 C93.0847,8.6001 91.4697,10.6941 90.9067,13.0001 C88.9877,20.8151 92.5127,27.8031 85.5937,34.7401 L77.2007,43.4511 L85.2607,52.7661 L91.9687,46.4271 C92.7877,45.6081 93.9187,44.8001 95.2337,44.1221 L95.9687,43.4271 C98.4317,40.9631 103.6947,38.5671 108.4567,39.6501 C113.6517,40.8181 117.6407,40.3981 120.7527,38.8771 C121.8457,37.7001 122.7827,36.3361 123.5877,34.8221 C126.6007,29.1851 126.1007,17.3131 125.6317,14.2391" id="Fill-7" fill="#0E5696"></path><path d="M50.6515,68.9904 L22.3625,96.2534 C21.0625,97.5534 21.0625,99.6694 22.3625,100.9694 L28.3065,106.7564 C28.9985,107.4484 29.9065,107.6064 30.8015,107.4164 L59.6375,79.1924 L50.6515,68.9904 Z" id="Fill-9" fill="#0E5696"></path><path d="M56.513,39.2337 C56.096,38.7527 55.622,38.5407 55.147,38.5607 L49.069,43.8437 C48.363,44.4657 48.263,45.6047 48.901,46.3327 L100.738,105.0637 C101.635,106.0907 103.016,106.4307 104.234,106.0557 L107.494,103.3347 C108.882,102.1217 109.026,100.0187 107.819,98.6187 L56.513,39.2337 Z" id="Fill-11" fill="#0E5696"></path><path d="M122.6317,18.0547 C122.3247,16.0167 121.5187,15.6167 120.7677,15.9537 C119.3707,18.0957 117.6427,20.7577 116.7187,22.2927 C116.2127,23.1337 115.4537,24.2517 114.4067,25.1767 C114.1487,25.5887 117.3847,24.1607 117.1887,24.4867 C115.6887,26.9757 108.6877,33.0787 101.8007,28.2197 C94.6257,23.1737 97.9317,17.6127 98.9477,15.1327 C100.0637,12.4067 103.3127,8.8397 103.8687,8.0117 C104.4257,7.1717 103.7757,4.7327 101.5507,5.7537 C99.9187,6.4997 92.2477,9.5657 87.5057,14.1627 C87.2517,14.7017 87.0447,15.2517 86.9067,15.8157 C84.9877,23.6307 88.5127,30.6187 81.5937,37.5557 L81.4617,37.6937 C80.7957,38.9857 79.8747,40.2717 78.5937,41.5557 L73.6047,46.7347 L81.6317,56.0107 L91.9687,46.2427 C94.4317,43.7787 99.6947,41.3827 104.4567,42.4657 C111.8787,44.1347 116.8407,42.5637 120.2897,39.1617 C120.3887,38.9867 120.4927,38.8167 120.5877,38.6377 C123.6007,33.0007 123.1007,21.1287 122.6317,18.0547" id="Fill-13" fill="#0070D3"></path><path d="M105.8192,101.6186 L54.5132,42.2336 C53.7632,41.3686 53.0192,40.7046 52.2192,41.4136 L45.5502,47.6866 C45.6182,47.9186 45.7322,48.1406 45.9002,48.3326 L97.7382,107.0636 C98.9502,108.4516 101.0502,108.5946 102.4312,107.3936 L107.0602,103.6976 C107.0792,102.8936 106.3862,102.2766 105.8192,101.6186" id="Fill-15" fill="#0070D3"></path><path d="M48.2442,71.528 L18.4202,100.27 C18.3222,101.235 18.6262,102.233 19.3632,102.97 L25.3072,108.756 C26.6062,110.057 28.6692,109.509 29.9692,108.209 L57.1352,81.622 L48.2442,71.528 Z" id="Fill-17" fill="#0070D3"></path><path d="M1.5996,36.4891 C1.6896,36.7731 1.8406,37.0541 2.0696,37.3171 C2.0696,37.3171 9.9696,46.0031 10.6316,46.7751 C11.2876,47.5341 13.0756,48.1941 14.1756,47.2171 C14.5676,46.8731 15.1806,46.3381 15.8266,45.7741 C15.9206,44.0441 17.1116,42.8881 18.8386,41.5561 C19.2736,41.2191 18.7016,39.3991 19.1276,39.1461 C19.3826,37.9471 19.8666,36.7661 20.8376,36.0171 C26.6696,31.5061 31.5066,34.6171 37.9626,42.0591 C38.6876,42.8991 39.6626,41.9151 40.2196,41.4361 C40.5816,41.1171 45.5396,36.6201 48.2246,34.2231 C48.1896,34.1701 48.1616,34.1181 48.1156,34.0641 C47.4466,33.2991 45.0276,30.1751 43.4716,28.1471 C40.0086,23.6371 41.4156,16.4411 45.0716,13.5821 C47.6336,11.5611 57.4816,5.9951 64.2526,3.0721 C59.0606,3.0051 53.6096,2.6351 50.2936,3.1251 C42.3176,4.3041 30.1446,12.6581 25.0756,16.1361 C21.4086,18.6341 19.0166,20.5581 17.5386,21.8441 C17.1876,23.6711 17.1556,26.0321 14.8626,28.0341 C14.5556,28.3011 14.2616,28.5161 13.9726,28.7101 C13.7866,29.3401 10.7186,29.9941 8.2036,31.2581 C6.2476,32.2411 4.8546,33.8151 3.9446,34.6101 C3.4476,35.0471 2.5196,35.7741 1.5996,36.4891" id="Fill-19" fill="#0070D3"></path><path d="M27.999,108.4489 L19.251,99.7369 C17.951,98.4369 20.063,98.5539 21.363,97.2529 L49.652,69.9909 L58.638,80.1929 L49.244,69.5279 L17.363,100.2529 C16.063,101.5539 16.063,103.6689 17.363,104.9699 L23.307,110.7569 C24.607,112.0569 26.669,111.5089 27.969,110.2089 L29.801,108.4159 C28.907,108.6059 28.691,109.1409 27.999,108.4489" id="Fill-21" fill="#FFFFFF"></path><path d="M42.3999,21.835 C42.4029,21.786 42.4079,21.737 42.4119,21.688 C42.4079,21.737 42.4029,21.786 42.3999,21.835" id="Fill-23" fill="#FFFFFF"></path><path d="M43.8111,17.8375 C43.8201,17.8235 43.8281,17.8105 43.8371,17.7965 C43.8281,17.8105 43.8201,17.8235 43.8111,17.8375" id="Fill-25" fill="#FFFFFF"></path><path d="M44.469,16.928 C44.498,16.892 44.527,16.855 44.556,16.819 C44.527,16.855 44.498,16.892 44.469,16.928" id="Fill-27" fill="#FFFFFF"></path><path d="M45.3159,15.9438 C45.3079,15.9518 45.3009,15.9598 45.2929,15.9678 C45.3009,15.9598 45.3089,15.9518 45.3159,15.9438" id="Fill-29" fill="#FFFFFF"></path><path d="M43.2523,18.799 C43.2683,18.767 43.2873,18.735 43.3033,18.704 C43.2873,18.735 43.2683,18.767 43.2523,18.799" id="Fill-31" fill="#FFFFFF"></path><path d="M42.4364,22.9333 C42.4294,22.8733 42.4224,22.8133 42.4164,22.7533 C42.4224,22.8133 42.4294,22.8733 42.4364,22.9333" id="Fill-33" fill="#FFFFFF"></path><path d="M42.9977,40.0583 C44.1037,39.0693 45.2737,38.0233 46.2717,37.1313 C45.2737,38.0223 44.1027,39.0703 42.9977,40.0583" id="Fill-35" fill="#FFFFFF"></path><path d="M42.8094,19.8327 C42.8274,19.7817 42.8454,19.7307 42.8644,19.6797 C42.8454,19.7307 42.8274,19.7817 42.8094,19.8327" id="Fill-37" fill="#FFFFFF"></path><path d="M42.5353,20.7956 C42.5393,20.7776 42.5413,20.7596 42.5443,20.7426 C42.5413,20.7596 42.5393,20.7776 42.5353,20.7956" id="Fill-39" fill="#FFFFFF"></path><path d="M64.3578,2.3059 C65.5238,2.3209 66.5768,2.3369 67.4208,2.3529 C66.5768,2.3369 65.5258,2.3209 64.3578,2.3059" id="Fill-41" fill="#FFFFFF"></path><path d="M63.1707,2.2914 C63.5387,2.2954 63.9017,2.3004 64.2517,2.3044 C63.9007,2.3004 63.5397,2.2954 63.1707,2.2914" id="Fill-43" fill="#FFFFFF"></path><path d="M21.1411,37.1383 C21.2871,37.0513 21.4331,36.9753 21.5781,36.8983 C21.4331,36.9743 21.2871,37.0523 21.1411,37.1383" id="Fill-45" fill="#FFFFFF"></path><path d="M41.5272,41.3738 C41.7552,41.1698 41.9942,40.9558 42.2402,40.7358 C41.9952,40.9548 41.7552,41.1698 41.5272,41.3738" id="Fill-47" fill="#FFFFFF"></path><path d="M19.838,38.0168 C20.145,37.7788 20.449,37.5738 20.751,37.3778 C20.449,37.5718 20.145,37.7788 19.838,38.0168" id="Fill-49" fill="#FFFFFF"></path><path d="M40.921,40.8094 C33.981,32.8104 28.423,30.1484 21.673,33.6644 C21.1,33.9624 21.617,35.2154 21.324,35.7804 C21.323,35.7804 21.323,35.7814 21.322,35.7814 C26.294,33.9774 31.691,35.6304 37.454,42.2734 C38.233,43.1764 38.449,43.8804 39.047,43.3654 C39.229,43.2044 40.224,42.3144 41.523,41.1514 C41.314,41.1274 41.109,41.0274 40.921,40.8094" id="Fill-51" fill="#FFFFFF"></path><path d="M16.9709,45.8993 C16.8639,45.9933 16.7499,46.0933 16.6259,46.2023 C16.7489,46.0943 16.8649,45.9933 16.9709,45.8993" id="Fill-53" fill="#FFFFFF"></path><path d="M17.3458,45.5685 C17.2888,45.6185 17.2188,45.6805 17.1508,45.7415 C17.2178,45.6815 17.2898,45.6175 17.3458,45.5685" id="Fill-55" fill="#FFFFFF"></path><path d="M47.1142,36.3795 C46.9192,36.5525 46.7152,36.7355 46.4972,36.9295 C46.7132,36.7375 46.9212,36.5515 47.1142,36.3795" id="Fill-57" fill="#FFFFFF"></path><path d="M68.7505,2.3821 C68.4105,2.3731 67.9615,2.3631 67.4345,2.3531 C62.2885,4.4951 55.0165,7.7191 50.5055,11.7821 C59.5855,5.9511 72.5545,2.4731 68.7505,2.3821" id="Fill-59" fill="#FFFFFF"></path><path d="M48.5116,35.1379 C48.3436,35.2859 48.0806,35.5189 47.7416,35.8209 C48.0796,35.5199 48.3426,35.2869 48.5116,35.1379" id="Fill-61" fill="#FFFFFF"></path><path d="M16.0799,46.6801 C15.1269,46.7881 14.0959,46.3121 13.6319,45.7751 C12.9689,45.0031 3.8449,34.9681 3.8449,34.9681 C2.9949,33.9911 2.0259,35.6711 1.2009,36.3871 C0.3689,37.1151 0.2189,38.3401 1.0689,39.3171 C1.0689,39.3171 8.9689,48.0031 9.6319,48.7751 C10.2879,49.5341 12.0759,50.1941 13.1759,49.2171 C13.9289,48.5551 15.4769,47.2091 16.5449,46.2731 C16.3969,46.4031 16.2429,46.5381 16.0799,46.6801" id="Fill-63" fill="#FFFFFF"></path><path d="M48.7068,34.968 C48.6828,34.988 48.6228,35.04 48.5478,35.106 C48.6248,35.038 48.6818,34.988 48.7068,34.968" id="Fill-65" fill="#FFFFFF"></path><path d="M47.6758,35.8792 C47.5128,36.0242 47.3358,36.1812 47.1448,36.3522 C47.3358,36.1812 47.5128,36.0242 47.6758,35.8792" id="Fill-67" fill="#FFFFFF"></path><path d="M46.19,15.0707 L46.181,15.0797 L46.19,15.0707" id="Fill-69" fill="#FFFFFF"></path><path d="M47.1972,14.1835 C47.1752,14.2015 47.1542,14.2195 47.1322,14.2375 C47.1542,14.2195 47.1752,14.2015 47.1972,14.1835" id="Fill-71" fill="#FFFFFF"></path><path d="M14.5457,29.3454 C14.5717,29.3144 14.5957,29.2844 14.6217,29.2534 C14.5957,29.2844 14.5727,29.3154 14.5457,29.3454" id="Fill-73" fill="#FFFFFF"></path><path d="M12.649,30.9211 C12.783,30.8411 12.919,30.7501 13.057,30.6551 C12.92,30.7501 12.783,30.8411 12.649,30.9211" id="Fill-75" fill="#FFFFFF"></path><path d="M13.2449,30.5264 C13.4469,30.3784 13.6519,30.2174 13.8629,30.0334 C13.6519,30.2174 13.4469,30.3784 13.2449,30.5264" id="Fill-77" fill="#FFFFFF"></path><path d="M114.5324,25.2468 C114.5464,25.2338 114.5614,25.2208 114.5754,25.2078 C114.5614,25.2208 114.5464,25.2338 114.5324,25.2468" id="Fill-79" fill="#FFFFFF"></path><path d="M105.5818,25.6446 C105.6388,25.6786 105.6968,25.7146 105.7528,25.7476 C105.6968,25.7146 105.6388,25.6786 105.5818,25.6446" id="Fill-81" fill="#FFFFFF"></path><path d="M112.3286,26.6678 C112.3346,26.6658 112.3396,26.6628 112.3446,26.6608 C112.3396,26.6628 112.3336,26.6658 112.3286,26.6678" id="Fill-83" fill="#FFFFFF"></path><path d="M113.498,26.0555 C113.525,26.0385 113.551,26.0205 113.577,26.0025 C113.551,26.0205 113.525,26.0385 113.498,26.0555" id="Fill-85" fill="#FFFFFF"></path><path d="M112.9014,26.4032 C112.9294,26.3892 112.9574,26.3752 112.9854,26.3602 C112.9574,26.3752 112.9294,26.3892 112.9014,26.4032" id="Fill-87" fill="#FFFFFF"></path><path d="M115.0337,24.7506 C115.0207,24.7646 115.0077,24.7786 114.9947,24.7926 C115.0077,24.7786 115.0207,24.7646 115.0337,24.7506" id="Fill-89" fill="#FFFFFF"></path><path d="M106.6199,26.2094 C106.6749,26.2364 106.7299,26.2604 106.7839,26.2854 C106.7299,26.2604 106.6749,26.2364 106.6199,26.2094" id="Fill-91" fill="#FFFFFF"></path><path d="M125.4377,13.3604 C125.4717,13.4714 125.5047,13.5854 125.5337,13.7124 C125.5047,13.5844 125.4717,13.4724 125.4377,13.3604" id="Fill-93" fill="#FFFFFF"></path><path d="M125.1145,12.6067 C125.2255,12.7827 125.3255,13.0017 125.4135,13.2707 C125.3265,13.0017 125.2255,12.7827 125.1145,12.6067" id="Fill-95" fill="#FFFFFF"></path><path d="M93.3462,45.2745 C93.3832,45.2475 93.4192,45.2205 93.4572,45.1945 C93.4192,45.2205 93.3832,45.2475 93.3462,45.2745" id="Fill-97" fill="#FFFFFF"></path><path d="M107.6341,26.6376 C107.6401,26.6396 107.6451,26.6406 107.6511,26.6436 C107.6461,26.6416 107.6401,26.6396 107.6341,26.6376" id="Fill-99" fill="#FFFFFF"></path><path d="M92.5825,45.8684 C92.6345,45.8244 92.6885,45.7814 92.7425,45.7374 C92.6885,45.7814 92.6345,45.8244 92.5825,45.8684" id="Fill-101" fill="#FFFFFF"></path><path d="M85.9067,16.9999 C83.9877,24.8149 87.5127,31.8029 80.5947,38.7399 L72.2007,47.4519 L80.6317,57.1959 L90.9687,47.4269 L84.2607,53.7659 L76.2007,44.4519 L84.5947,35.7399" id="Fill-103" fill="#FFFFFF"></path><path d="M111.618,26.898 C111.657,26.888 111.694,26.877 111.733,26.866 C111.695,26.877 111.657,26.888 111.618,26.898" id="Fill-105" fill="#FFFFFF"></path><path d="M110.8821,27.0388 C110.9211,27.0338 110.9611,27.0298 111.0001,27.0238 C110.9611,27.0298 110.9211,27.0338 110.8821,27.0388" id="Fill-107" fill="#FFFFFF"></path><path d="M108.4509,26.8786 C108.4989,26.8906 108.5479,26.9036 108.5959,26.9146 C108.5479,26.9036 108.4989,26.8906 108.4509,26.8786" id="Fill-109" fill="#FFFFFF"></path><path d="M110.2143,27.0899 C110.2073,27.0899 110.1993,27.0909 110.1923,27.0909 C110.1993,27.0909 110.2073,27.0899 110.2143,27.0899" id="Fill-111" fill="#FFFFFF"></path><path d="M109.3331,27.0417 C109.3811,27.0477 109.4281,27.0517 109.4761,27.0557 C109.4281,27.0517 109.3811,27.0477 109.3331,27.0417" id="Fill-113" fill="#FFFFFF"></path><path d="M55.2007,39.9327 C55.3077,40.0177 55.4117,40.1177 55.5127,40.2337 C55.4117,40.1177 55.3077,40.0187 55.2007,39.9327" id="Fill-115" fill="#FFFFFF"></path><path d="M100.7821,107.2578 L47.2631,46.6048 C46.6251,45.8768 47.3631,45.4658 48.0691,44.8438 L54.1471,39.5608 C54.2631,39.5558 54.3791,39.5658 54.4941,39.5888 C54.0031,39.4858 53.4961,39.6418 53.0321,40.0528 L44.0691,47.8438 C43.3631,48.4658 43.2631,49.6048 43.9001,50.3328 L95.7381,109.0638 C96.9501,110.4518 99.0501,110.5948 100.4321,109.3938 L106.4941,104.3348 L103.2341,107.0558 C102.0161,107.4308 101.6791,108.2838 100.7821,107.2578" id="Fill-117" fill="#FFFFFF"></path><path d="M54.5065,39.5913 C54.6125,39.6133 54.7175,39.6513 54.8215,39.6993 C54.7175,39.6503 54.6125,39.6143 54.5065,39.5913" id="Fill-119" fill="#FFFFFF"></path><path d="M54.8631,39.7164 C54.9571,39.7624 55.0481,39.8234 55.1391,39.8904 C55.0481,39.8224 54.9571,39.7634 54.8631,39.7164" id="Fill-121" fill="#FFFFFF"></path><path d="M20.838,36.0168 C26.669,31.5058 31.507,34.6168 37.963,42.0588 C38.688,42.8988 39.663,41.9158 40.219,41.4368 C40.769,40.9508 49.288,33.3168 49.707,32.9678 C50.119,32.6008 50.619,31.9168 49.963,31.1508 C49.294,30.3858 46.876,27.2618 45.319,25.2338 C34.019,10.5178 76.232,0.5378 69.75,0.3818 C66.451,0.2948 53.213,0.1398 51.232,0.3568 C43.213,1.1968 33.144,8.6578 28.076,12.1358 C21.444,16.6528 18.969,19.3038 18.563,19.6708 C16.688,21.3008 18.263,25.0658 14.863,28.0338 C11.269,31.1638 9.025,28.7928 6.944,30.6098 C5.913,31.5178 3.026,33.6708 2.201,34.3868 C1.369,35.1148 1.219,36.3408 2.069,37.3168 C2.069,37.3168 9.969,46.0038 10.632,46.7748 C11.288,47.5338 13.076,48.1938 14.175,47.2168 C15.282,46.2458 18.126,43.7758 18.6,43.3408 C19.088,42.9298 18.288,37.9828 20.838,36.0168 L20.838,36.0168 Z M56.513,39.2338 C55.763,38.3688 54.832,38.3438 54.032,39.0528 L45.069,46.8438 C44.363,47.4658 44.263,48.6048 44.9,49.3328 L96.738,108.0638 C97.951,109.4518 100.051,109.5948 101.432,108.3938 L107.494,103.3348 C108.882,102.1218 109.026,100.0188 107.819,98.6188 L56.513,39.2338 L56.513,39.2338 Z M125.632,14.2388 C125.169,11.1648 123.569,11.8058 122.738,13.1068 C121.907,14.4198 118.232,19.9638 116.719,22.4768 C115.219,24.9658 111.519,29.8878 104.632,25.0288 C97.457,19.9818 99.951,16.4608 101.201,14.0898 C102.457,11.7068 106.313,5.0238 106.869,4.1968 C107.426,3.3568 106.776,0.9168 104.551,1.9378 C102.319,2.9578 88.782,8.3158 86.907,15.9998 C84.988,23.8148 88.513,30.8028 81.594,37.7408 L73.201,46.4518 L81.632,56.1958 L91.969,46.4268 C94.432,43.9628 99.694,41.5668 104.457,42.6498 C114.663,44.9458 120.232,41.1318 123.588,34.8218 C126.601,29.1848 126.101,17.3128 125.632,14.2388 L125.632,14.2388 Z M18.363,99.2528 C17.063,100.5538 17.063,102.6688 18.363,103.9698 L24.307,109.7568 C25.607,111.0568 27.669,110.5088 28.969,109.2088 L59.638,79.1928 L50.244,68.5278 L18.363,99.2528 L18.363,99.2528 Z" id="Stroke-123" stroke="#1D2228" stroke-width="3" stroke-linejoin="round"></path></g><g id="Group-2" transform="translate(38.000000, 34.000000)"><circle id="Oval-6" fill="#DFDFDF" cx="26.5" cy="26.5" r="23.5"></circle><path d="M24.4439642,50 C38.8033677,50 47,44.3594035 47,30 C47,15.6405965 35.3594035,4 21,4 C6.64059651,4 3,21 2,29 C1,37 10.0845607,50 24.4439642,50 Z" id="Oval-6" fill="#FFFFFF"></path><use id="Oval-6" stroke="#1D2228" mask="url(#mask-2)" stroke-width="8" xlink:href="#path-1"></use><g id="Group" transform="translate(24.000000, 12.000000)" fill-opacity="0.9" fill="#000000"><polygon id="Shape" points="4 0 0 0 0 16 13.4 24 15.4 20.6086957 4 13"></polygon></g></g></g></g></g></g></svg>
