<?xml version="1.0" encoding="UTF-8" standalone="no"?><svg width="201px" height="126px" viewBox="0 0 201 126" version="1.1" xmlns="http://www.w3.org/2000/svg" xmlns:xlink="http://www.w3.org/1999/xlink"><defs><rect id="path-1" x="0" y="0" width="140" height="92" rx="10"></rect><mask id="mask-2" maskContentUnits="userSpaceOnUse" maskUnits="objectBoundingBox" x="-4" y="-4" width="148" height="100"><rect x="-4" y="-4" width="148" height="100" fill="white"></rect><use xlink:href="#path-1" fill="black"></use></mask></defs><g id="Page-1" stroke="none" stroke-width="1" fill="none" fill-rule="evenodd"><g id="Group-9"><ellipse id="Oval-51" fill="#B8C0C9" opacity="0.3" cx="100.5" cy="119" rx="100.5" ry="7"></ellipse><g id="Group-7" transform="translate(30.000000, 23.000000)"><g id="Rectangle-38"><use fill="#E0E3E6" fill-rule="evenodd" xlink:href="#path-1"></use><use stroke="#373D44" mask="url(#mask-2)" stroke-width="8" xlink:href="#path-1"></use></g><g id="Group-6" transform="translate(99.000000, 57.000000)"><ellipse id="Oval-16" fill="#F0423A" cx="8.64755208" cy="8.64755208" rx="8.64755208" ry="8.64755208"></ellipse><ellipse id="Oval-16" fill="#FFCC01" cx="21.6188802" cy="8.64755208" rx="8.64755208" ry="8.64755208"></ellipse><path d="M15.1332161,14.3675281 C16.4786961,12.8431091 17.2951042,10.8406718 17.2951042,8.64755208 C17.2951042,6.45443241 16.4786961,4.45199504 15.1332161,2.92757602 C13.7877361,4.45199504 12.9713281,6.45443241 12.9713281,8.64755208 C12.9713281,10.8406718 13.7877361,12.8431091 15.1332161,14.3675281 Z" id="Combined-Shape" fill="#FF7E00"></path></g><rect id="Rectangle-39" fill="#373D44" x="0" y="20" width="141" height="20"></rect><rect id="Rectangle-40" fill="#B8C0C9" x="9" y="61" width="30" height="10"></rect><rect id="Rectangle-40" fill="#B8C0C9" x="49" y="61" width="20" height="10"></rect></g><g id="Group-8" transform="translate(152.000000, 0.000000)"><ellipse id="Oval-647" fill="#F0423A" cx="20" cy="20" rx="20" ry="20"></ellipse><path d="M13.5868772,28.5714286 C13.0725915,28.5714286 12.7297343,28.4 12.3868772,28.0571429 C11.7011629,27.3714286 11.7011629,26.3428571 12.3868772,25.6571429 L26.1011629,11.9428571 C26.7868772,11.2571429 27.8154486,11.2571429 28.5011629,11.9428571 C29.1868772,12.6285714 29.1868772,13.6571429 28.5011629,14.3428571 L14.7868772,28.0571429 C14.4440201,28.4 14.1011629,28.5714286 13.5868772,28.5714286 L13.5868772,28.5714286 Z" id="Shape" fill="#FFFFFF"></path><path d="M27.3011629,28.5714286 C26.7868772,28.5714286 26.4440201,28.4 26.1011629,28.0571429 L12.3868772,14.3428571 C11.7011629,13.6571429 11.7011629,12.6285714 12.3868772,11.9428571 C13.0725915,11.2571429 14.1011629,11.2571429 14.7868772,11.9428571 L28.5011629,25.6571429 C29.1868772,26.3428571 29.1868772,27.3714286 28.5011629,28.0571429 C28.1583058,28.4 27.8154486,28.5714286 27.3011629,28.5714286 L27.3011629,28.5714286 Z" id="Shape" fill="#FFFFFF"></path></g></g></g></svg>
