<?xml version="1.0" encoding="utf-8"?>
<!-- Generator: Avocode 2.5.2 - http://avocode.com -->
<svg preserveAspectRatio="xMinYMin meet" xmlns:xlink="http://www.w3.org/1999/xlink" xmlns="http://www.w3.org/2000/svg" viewBox="0 0 123 153">
    <path fill="#b8c0c9" opacity="0.4" fill-rule="evenodd" d="M 61.5 152.26 C 95.04 152.26 122.23 146.93 122.23 140.36 C 122.23 133.79 95.04 128.47 61.5 128.47 C 27.96 128.47 0.77 133.79 0.77 140.36 C 0.77 146.93 27.96 152.26 61.5 152.26 Z M 61.5 152.26" />
    <path fill="#ffffff" fill-rule="evenodd" d="M 19.55 12.74 C 19.55 6.11 24.92 0.74 31.55 0.74 L 90.2 0.74 C 96.83 0.74 102.2 6.12 102.2 12.74 L 102.2 131.49 C 102.2 138.12 96.82 143.5 90.2 143.5 L 31.55 143.5 C 24.92 143.5 19.55 138.12 19.55 131.49 L 19.55 12.74 Z M 19.55 12.74" />
    <path fill="#0e5696" fill-rule="evenodd" d="M 44.59 12.74 C 44.59 6.11 49.96 0.74 56.6 0.74 L 90.19 0.74 C 96.82 0.74 102.2 6.12 102.2 12.74 L 102.2 131.49 C 102.2 138.12 96.83 143.5 90.19 143.5 L 56.6 143.5 C 49.97 143.5 44.59 138.12 44.59 131.49 L 44.59 12.74 Z M 44.59 12.74" />
    <path fill="#0070d3" fill-rule="evenodd" d="M 25.81 15.24 C 25.81 8.62 31.18 3.24 37.81 3.24 L 83.94 3.24 C 90.57 3.24 95.94 8.62 95.94 15.24 L 95.94 128.99 C 95.94 135.62 90.56 140.99 83.94 140.99 L 37.81 140.99 C 31.18 140.99 25.81 135.61 25.81 128.99 L 25.81 15.24 Z M 25.81 15.24" />
    <path stroke-linejoin="miter" stroke-linecap="butt" stroke-width="3" stroke="#1d2228" fill="none" fill-rule="evenodd" d="M 19.55 12.74 C 19.55 6.11 24.92 0.74 31.55 0.74 L 90.2 0.74 C 96.83 0.74 102.2 6.12 102.2 12.74 L 102.2 131.49 C 102.2 138.12 96.82 143.5 90.2 143.5 L 31.55 143.5 C 24.92 143.5 19.55 138.12 19.55 131.49 L 19.55 12.74 Z M 19.55 12.74" />
    <path fill="#1d2228" fill-rule="evenodd" d="M 60.87 134.73 C 63.64 134.73 65.88 132.49 65.88 129.72 C 65.88 126.95 63.64 124.71 60.87 124.71 C 58.11 124.71 55.86 126.95 55.86 129.72 C 55.86 132.49 58.11 134.73 60.87 134.73 Z M 60.87 134.73" />
    <path stroke-linejoin="miter" stroke-linecap="square" stroke-width="3" stroke="#1d2228" fill="none" fill-rule="evenodd" d="M 22.42 118.24 L 99.57 118.24" />
    <path stroke-linejoin="miter" stroke-linecap="square" stroke-width="3" stroke="#1d2228" fill="none" fill-rule="evenodd" d="M 22.42 25.24 L 99.57 25.24" />
    <path stroke-linejoin="round" stroke-linecap="round" stroke-width="3" stroke="#1d2228" fill="none" fill-rule="evenodd" d="M 50.86 14.24 L 70.4 14.24" />
    <path fill="#ffffff" fill-rule="evenodd" d="M 60.87 88.4 C 69.86 88.4 77.15 81.11 77.15 72.12 C 77.15 63.13 69.86 55.84 60.87 55.84 C 51.88 55.84 44.59 63.13 44.59 72.12 C 44.59 81.11 51.88 88.4 60.87 88.4 Z M 60.87 88.4" />
    <path fill="#1d2228" fill-rule="evenodd" d="M 60.87 54.59 C 51.19 54.59 43.34 62.43 43.34 72.12 C 43.34 81.8 51.19 89.65 60.87 89.65 C 70.56 89.65 78.41 81.8 78.41 72.12 C 78.41 62.43 70.56 54.59 60.87 54.59 L 60.87 54.59 Z M 60.87 86.46 C 52.95 86.46 46.53 80.04 46.53 72.12 C 46.53 64.2 52.95 57.77 60.87 57.77 C 68.8 57.77 75.22 64.2 75.22 72.12 C 75.22 80.04 68.8 86.46 60.87 86.46 L 60.87 86.46 Z M 66.51 66.48 C 65.89 65.86 64.88 65.86 64.25 66.48 L 60.87 69.86 L 57.49 66.48 C 56.87 65.86 55.86 65.86 55.24 66.48 C 54.62 67.11 54.62 68.12 55.24 68.74 L 58.62 72.12 L 55.24 75.5 C 54.62 76.12 54.62 77.13 55.24 77.75 C 55.86 78.37 56.87 78.37 57.49 77.75 L 60.87 74.37 L 64.25 77.75 C 64.88 78.37 65.89 78.37 66.51 77.75 C 67.13 77.13 67.13 76.12 66.51 75.5 L 63.13 72.12 L 66.51 68.74 C 67.13 68.11 67.13 67.1 66.51 66.48 L 66.51 66.48 Z M 66.51 66.48" />
</svg>