<?xml version="1.0" encoding="UTF-8" standalone="no"?>
<svg width="200px" height="355px" viewBox="0 0 200 355" version="1.1" xmlns="http://www.w3.org/2000/svg" xmlns:xlink="http://www.w3.org/1999/xlink" xmlns:sketch="http://www.bohemiancoding.com/sketch/ns">
    <!-- Generator: Sketch 3.5.1 (25234) - http://www.bohemiancoding.com/sketch -->
    <title>Group</title>
    <desc>Created with Sketch.</desc>
    <defs></defs>
    <g id="Push-notification-socket" stroke="none" stroke-width="1" fill="none" fill-rule="evenodd" sketch:type="MSPage">
        <g id="PushNotify-Certificate-GCM" sketch:type="MSArtboardGroup" transform="translate(-255.000000, -244.000000)">
            <g id="Group" sketch:type="MSLayerGroup" transform="translate(255.000000, 244.000000)">
                <g id="PHONE-360-+-navigation-bar-+-status-bar" sketch:type="MSShapeGroup">
                    <g id="PHONE-360">
                        <g id="phone-3" fill="#B8C0C9">
                            <path d="M197,75 L200,75 L200,50 L197,50 L197,75 Z" id="Fill-2"></path>
                            <path d="M0.000249974501,138 L3.00024997,138 L3.00024997,76 L0.000249974501,76 L0.000249974501,138 Z" id="Fill-3"></path>
                            <path d="M16.7940686,5.50650856 C16.2344491,5.61312974 15.7500098,5.72150292 15.3300463,5.83012638 C7.72937822,7.35510964 2,14.1012772 2,22.1919728 L2,332.808027 C2,340.900725 7.73037398,347.646392 15.3340294,349.170374 C15.7529971,349.279498 16.2359428,349.38687 16.7935707,349.493241 C34.1004503,352.799499 64.8947068,355 99.9998755,355 C135.105293,355 165.89955,352.799499 183.206678,349.493241 C183.764057,349.38687 184.247003,349.279498 184.665971,349.170374 C192.269626,347.646392 198,340.900725 198,332.808027 L198,22.1919728 C198,14.1012772 192.270622,7.35510964 184.669705,5.83012638 C184.24999,5.72150292 183.765053,5.61312974 183.205931,5.50650856 C165.89955,2.19924961 135.105791,-1.24881707e-12 99.9998755,-1.24881707e-12 C64.89396,-1.24881707e-12 34.1004503,2.19924961 16.7940686,5.50650856 Z" id="Fill-1" stroke="#B8C0C9" stroke-width="2" fill-opacity="0.1"></path>
                            <g id="holes" transform="translate(30.496787, 12.765655)">
                                <path d="M69.5014531,0.234344652 C66.7407347,0.234344652 64.5032129,2.47248633 64.5032129,5.23396959 C64.5032129,7.99545285 66.7407347,10.2343447 69.5014531,10.2343447 C72.2621714,10.2343447 74.5004431,7.99545285 74.5004431,5.23396959 C74.5004431,2.47248633 72.2621714,0.234344652 69.5014531,0.234344652" id="Fill-4"></path>
                                <path d="M3.00345045,4.23434465 C1.6222153,4.23434465 0.503212921,5.35363773 0.503212921,6.73446342 C0.503212921,8.11505157 1.6222153,9.23434465 3.00345045,9.23434465 C4.38373549,9.23434465 5.50321292,8.11505157 5.50321292,6.73446342 C5.50321292,5.35363773 4.38373549,4.23434465 3.00345045,4.23434465" id="Fill-9"></path>
                                <path d="M132.50334,4.23434465 C131.39824,4.23434465 130.503213,5.12951156 130.503213,6.23421797 C130.503213,7.338671 131.39824,8.23434465 132.50334,8.23434465 C133.607679,8.23434465 134.503213,7.338671 134.503213,6.23421797 C134.503213,5.12951156 133.607679,4.23434465 132.50334,4.23434465" id="Fill-11"></path>
                                <path d="M139.00293,5.23434465 C138.174838,5.23434465 137.503213,5.90590636 137.503213,6.73448586 C137.503213,7.56278295 138.174838,8.23434465 139.00293,8.23434465 C139.83187,8.23434465 140.503213,7.56278295 140.503213,6.73448586 C140.503213,5.90590636 139.83187,5.23434465 139.00293,5.23434465" id="Fill-12"></path>
                            </g>
                        </g>
                        <rect id="screen" stroke="#B8C0C9" fill="#FFFFFF" x="10" y="33" width="179" height="280"></rect>
                    </g>
                    <g id="navigation-bar" transform="translate(9.511955, 288.374590)">
                        <path d="M0.488045007,0.62541022 L178.488045,0.62541022 L178.488045,24.6254102 L0.488045007,24.6254102 L0.488045007,0.62541022 Z" id="Fill-1" fill="#B8C0C9"></path>
                        <path d="M90.488045,6.62541022 C87.174545,6.62541022 84.488045,9.31141022 84.488045,12.6254102 C84.488045,15.9394102 87.174545,18.6254102 90.488045,18.6254102 C93.802045,18.6254102 96.488045,15.9394102 96.488045,12.6254102 C96.488045,9.31141022 93.802045,6.62541022 90.488045,6.62541022 L90.488045,6.62541022 Z M90.488045,17.6254102 C87.726545,17.6254102 85.488045,15.3864102 85.488045,12.6254102 C85.488045,9.86391022 87.726545,7.62541022 90.488045,7.62541022 C93.249545,7.62541022 95.488045,9.86391022 95.488045,12.6254102 C95.488045,15.3864102 93.249545,17.6254102 90.488045,17.6254102 L90.488045,17.6254102 Z" id="Fill-2" fill="#FFFFFF"></path>
                        <path d="M146.488045,7.62541022 L146.488045,17.6254102 L136.488045,17.6254102 L136.488045,7.62541022 L146.488045,7.62541022 M146.488045,6.62541022 L136.488045,6.62541022 C135.976772,6.62541022 135.488045,7.11359204 135.488045,7.62541022 L135.488045,17.6254102 C135.488045,18.1366829 135.976772,18.6254102 136.488045,18.6254102 L146.488045,18.6254102 C146.999863,18.6254102 147.488045,18.1366829 147.488045,17.6254102 L147.488045,7.62541022 C147.488045,7.11359204 146.999863,6.62541022 146.488045,6.62541022" id="Fill-3" fill="#FFFFFF"></path>
                        <path d="M44.488045,7.62541022 L44.488045,17.6254102 L36.488045,12.6254102 L44.488045,7.62541022 M44.488045,6.62541022 C44.3685212,6.62541022 44.2018545,6.67141022 44.488045,6.62541022 L35.488045,11.6254102 C35.6666164,11.9429102 35.488045,12.2709102 35.488045,12.6254102 C35.488045,12.9794102 35.6666164,13.3074102 35.488045,13.6254102 L44.488045,18.6254102 C44.2018545,18.5794102 44.3689974,18.6254102 44.488045,18.6254102 C44.6985212,18.6254102 44.8618545,18.5814102 45.488045,18.6254102 C45.3051879,18.3154102 45.488045,17.9839102 45.488045,17.6254102 L45.488045,7.62541022 C45.488045,7.26641022 45.3051879,6.93541022 45.488045,6.62541022 C44.8618545,6.66941022 44.6985212,6.62541022 44.488045,6.62541022" id="Fill-4" fill="#FFFFFF"></path>
                    </g>
                    <rect id="status-bar-bg" opacity="0.4" fill="#B8C0C9" x="10.6878307" y="33.1322751" width="178.486772" height="11.7566138"></rect>
                </g>
                <g id="google-134-+-Shape" transform="translate(54.000000, 109.000000)" fill="#B8C0C9" sketch:type="MSShapeGroup">
                    <g>
                        <g id="google-134" stroke-width="2" stroke="#B8C0C9" fill-opacity="0.1">
                            <g id="drive-file">
                                <path d="M11.5,0 C5.175,0 0,5.22 0,11.6 L0,104.4 C0,110.78 5.175,116 11.5,116 L80.5,116 C86.825,116 92,110.78 92,104.4 L92,34.8 L57.5,0 L11.5,0 L11.5,0 Z" id="Shape"></path>
                            </g>
                        </g>
                        <path d="M36.7028169,60.1831461 L33.528169,63.3764045 L43.7323944,73.6404494 L66.4084507,50.8314607 L63.2338028,47.6382022 L43.7323944,67.2539326 L36.7028169,60.1831461 L36.7028169,60.1831461 Z M63.1330203,64.5168539 C63.1330203,74.552809 54.9696401,82.7640449 44.9921753,82.7640449 C35.0147105,82.7640449 26.8513302,74.552809 26.8513302,64.5168539 C26.8513302,54.4808989 35.0147105,46.2696629 44.9921753,46.2696629 C46.8062598,46.2696629 48.3935837,46.4977528 49.9809077,46.9539326 L53.6090767,43.3044944 C50.8879499,42.3921348 47.9400626,41.7078652 44.9921753,41.7078652 C32.5203443,41.7078652 22.3161189,51.9719101 22.3161189,64.5168539 C22.3161189,77.0617978 32.5203443,87.3258427 44.9921753,87.3258427 C57.4640063,87.3258427 67.6682316,77.0617978 67.6682316,64.5168539 L63.1330203,64.5168539 L63.1330203,64.5168539 Z" id="Shape"></path>
                    </g>
                </g>
            </g>
        </g>
    </g>
</svg>